<?xml version="1.0" encoding="UTF-8"?>
<svg width="521px" height="195px" viewBox="0 0 521 195" version="1.1" xmlns="http://www.w3.org/2000/svg" xmlns:xlink="http://www.w3.org/1999/xlink">
    <!-- Generator: Sketch 46.2 (44496) - http://www.bohemiancoding.com/sketch -->
    <title>XMLID_239_</title>
    <desc>Created with Sketch.</desc>
    <defs></defs>
    <g id="Page-1" stroke="none" stroke-width="1" fill="none" fill-rule="evenodd">
        <g id="Desktop" transform="translate(-193.000000, -2573.000000)" fill-rule="nonzero">
            <g id="Group-5" transform="translate(-63.000000, 2385.000000)">
                <g id="Arm" transform="translate(256.000000, 71.000000)">
                    <g id="XMLID_239_" transform="translate(0.000000, 117.000000)">
                        <g id="XMLID_64_" transform="translate(0.000000, 40.058348)" fill="#FDE5E5">
                            <path d="M516.560906,125.62298 C510.46863,131.070916 499.566662,148.055655 496.600685,148.135772 C481.12951,148.536355 414.194631,153.503591 380.366465,154.144524 C364.494482,154.464991 316.878532,151.34044 316.878532,151.34044 C316.878532,151.34044 280.565359,146.853905 268.781614,146.212971 L266.056122,146.052738 C257.558999,145.652154 247.057839,145.171454 238.079747,144.610637 C219.081464,143.489004 217.478234,148.456239 204.331743,147.735189 C191.185252,147.014138 159.601608,136.759201 148.69964,131.471499 C137.71751,126.183797 119.280358,119.614228 112.386467,117.771544 C105.412413,115.92886 81.363954,118.652828 66.9348784,118.652828 C52.5058029,118.652828 43.3673883,117.531194 42.0848038,110.480925 C40.8022193,103.350539 46.0928804,101.908438 57.956787,100.466338 C69.8206936,99.024237 77.0352314,97.7423699 77.0352314,97.7423699 C61.1632482,96.380386 59.8005022,84.6833483 59.8005022,84.6833483 C49.9406339,81.7991472 32.2249355,82.4400808 20.9221596,78.7547128 C9.61938373,75.0693447 15.2306909,63.0518402 15.2306909,63.0518402 C9.21857607,63.0518402 1.2825845,60.3278725 0.480969186,53.9986535 C-0.320646124,47.6694345 3.76759196,43.9039497 10.9019682,43.583483 C18.0363445,43.3431329 47.8564341,43.583483 59.3996945,43.3431329 C70.8627935,43.1027828 85.2117075,45.3460503 92.3460838,46.7881508 C99.4804601,48.2302514 94.5104451,42.782316 92.7468915,42.3817325 C90.9031762,41.981149 76.7145852,39.9782316 71.5842472,35.8121634 C66.4539093,31.6460952 59.8806637,31.4057451 47.4556264,27.0794435 C35.0305891,22.6730251 20.8419981,17.2250898 18.0363445,13.6198384 C15.3108524,9.93447038 14.7497217,2.16315081 22.2047441,0.48070018 C29.6597665,-1.12163375 55.7924256,5.04735189 69.5000474,8.89295332 C83.2076693,12.7385548 93.0675376,20.9104578 106.214029,24.1952424 C119.36052,27.4800269 123.208273,28.6016607 145.893987,38.9367145 C168.5797,49.3518851 176.034722,59.7670557 188.860567,60.8085727 C201.766574,61.9302065 221.96728,71.4640934 221.96728,71.4640934 C221.96728,71.4640934 228.460364,74.1079444 236.075709,73.7073609 C241.847339,73.4670108 262.84966,71.30386 272.950013,70.2623429 C272.950013,70.2623429 326.097108,64.8945242 349.424114,60.0074058 C372.751119,55.200404 426.379184,40.2986984 445.457628,39.0969479" id="XMLID_65_"></path>
                        </g>
                        <g id="XMLID_62_" transform="translate(95.392222, 89.730700)" fill="#FACCDB">
                            <path d="M24.7699131,13.6999551 C24.5294285,13.6999551 16.3529523,11.2163375 13.1464911,8.97307002 C9.94002985,6.72980251 5.61130718,4.40641831 4.08823808,1.68245063 C2.64533053,-1.04151706 -1.12226144,0.0801166966 0.961938373,3.76548474 C3.04613818,7.53096948 11.3829374,13.6999551 5.85179177,15.8631059 C0.400807655,18.0262567 17.7958599,18.5870736 18.7577983,18.5069569 C19.6395751,18.4268402 24.60959,16.103456 24.8500746,16.0233393" id="XMLID_63_"></path>
                        </g>
                        <g id="XMLID_60_" transform="translate(15.230691, 42.461849)" fill="#FACCDB">
                            <path d="M81.203631,31.165395 C80.4821772,31.5659785 78.0773313,36.453097 77.436039,36.5332137 C76.7947468,36.6133303 71.9850549,35.65193 65.7324555,33.7291293 C59.5600176,31.8063286 56.5940409,29.7232944 50.6620876,27.0794435 C44.7301343,24.4355925 31.5034817,20.5098743 26.3731437,18.9075404 C21.2428057,17.3052065 7.05421473,12.0976212 4.56920727,9.21342011 C2.3246844,6.64968582 2.72549206,1.04151706 2.80565359,0.0801166966 C-0.240484593,3.12455117 0.561130718,8.33213645 2.64533053,11.1362208 C5.37082258,14.8215889 19.6395751,20.2695242 32.0646124,24.5958259 C44.4896497,29.0022442 51.0628953,29.1624776 56.1932333,33.3285458 C61.3235713,37.494614 75.5121623,39.4975314 77.3558775,39.8981149 C78.798785,40.2185817 82.0052463,43.5033663 80.1615311,44.3045332 C80.4821772,44.3045332 80.6425003,44.3045332 80.6425003,44.3045332 C80.6425003,44.3045332 81.0433079,44.2244165 81.7647617,43.583483 C82.4862155,42.9425494 80.5623387,38.3758977 80.4020157,36.2928636 C80.2416926,34.2899461 81.9250848,30.8449282 81.203631,31.165395 Z" id="XMLID_61_"></path>
                        </g>
                        <g id="XMLID_58_" transform="translate(29.659766, 92.935368)" fill="#FACCDB">
                            <path d="M0.961938373,9.69412029 C0.961938373,9.69412029 -0.160323062,6.48945242 0.160323062,1.68245063 C0.400807655,-3.12455117 2.24452287,6.56956912 5.05017646,9.77423699" id="XMLID_59_"></path>
                        </g>
                        <g id="XMLID_56_" transform="translate(38.477535, 110.561041)" fill="#FACCDB">
                            <path d="M1.36274603,10.0145871 C1.36274603,10.0145871 0.240484593,6.80991921 0.561130718,2.00291742 C0.801615311,-2.80408438 2.64533053,6.89003591 5.45098411,10.0947038" id="XMLID_57_"></path>
                        </g>
                        <g id="XMLID_54_" transform="translate(65.732455, 148.215889)" fill="#FACCDB">
                            <path d="M1.52306909,9.5338869 C1.52306909,9.5338869 0.160323062,6.40933573 0.0801615311,1.60233393 C-0.0801615311,-3.20466786 2.56516899,6.32921903 5.69146871,9.29353681" id="XMLID_55_"></path>
                        </g>
                        <g id="XMLID_52_" transform="translate(56.914687, 92.935368)" fill="#FACCDB">
                            <path d="M1.36274603,11.7771544 C1.36274603,11.7771544 0.0801615311,8.01166966 0.400807655,2.3233842 C0.72145378,-3.36490126 2.88581512,8.09178636 6.17243789,11.8572711" id="XMLID_53_"></path>
                        </g>
                        <g id="XMLID_50_" transform="translate(84.169608, 144.210054)" fill="#FACCDB">
                            <path d="M2.3246844,11.5368043 C2.3246844,11.5368043 0.641292249,7.93155296 0.240484593,2.3233842 C-0.0801615311,-3.36490126 3.36678431,7.77131957 7.13437627,11.1362208" id="XMLID_51_"></path>
                        </g>
                        <g id="XMLID_48_" transform="translate(65.732455, 60.888689)" fill="#FACCDB">
                            <path d="M0.72145378,10.815754 C0.72145378,10.815754 1.12226144,6.89003591 3.84775349,1.92280072 C6.57324555,-3.04443447 3.6072689,8.17190305 4.97001493,12.9789048" id="XMLID_49_"></path>
                        </g>
                        <g id="XMLID_46_" transform="translate(40.882381, 52.877020)" fill="#FACCDB">
                            <path d="M0.561130718,9.05318672 C0.561130718,9.05318672 0.961938373,5.60816876 3.36678431,1.12163375 C5.77163024,-3.28478456 3.12629971,6.64968582 4.40888421,10.8958707" id="XMLID_47_"></path>
                        </g>
                        <g id="XMLID_39_" transform="translate(66.534071, 110.561041)" fill="#FACCDB">
                            <g id="XMLID_44_" transform="translate(16.032306, 4.005835)">
                                <path d="M1.60323062,0.400583483 C1.12226144,0.320466786 0.641292249,0.24035009 0.160323062,0.160233393 C5.21049952,1.28186715 6.01211483,3.76548474 4.97001493,6.40933573 C4.6493688,7.29061939 3.84775349,8.01166966 2.80565359,8.57248654 C4.56920727,7.93155296 5.77163024,7.130386 6.25259942,6.00875225 C7.13437627,3.60525135 6.41292249,1.36198384 1.60323062,0.400583483 Z" id="XMLID_45_"></path>
                            </g>
                            <g id="XMLID_40_">
                                <path d="M8.81776842,18.5870736 C8.17647617,18.5870736 7.53518392,18.5870736 6.81373014,18.5069569 L6.57324555,18.5069569 L6.41292249,18.4268402 C-0.561130718,15.061939 -0.400807655,6.40933573 0.641292249,2.3233842 L0.801615311,1.60233393 L1.52306909,1.44210054 C3.92791502,0.881283663 12.5051988,-0.881283663 20.1205443,1.28186715 C24.0484593,2.4035009 25.5715284,4.48653501 26.2128207,6.00875225 C27.014436,8.01166966 26.5334668,9.93447038 25.8921745,11.0561041 C23.7278132,14.5812388 19.0784444,18.5870736 8.81776842,18.5870736 Z M7.2145378,16.1835727 C15.391014,16.5040395 21.0824827,14.3408887 23.7278132,9.93447038 C24.1286209,9.29353681 24.3691054,8.17190305 23.8881363,7.0502693 C23.3270055,5.52805207 21.7237749,4.40641831 19.3990905,3.76548474 C14.0282679,2.2432675 7.45502239,2.72396768 2.72549206,3.76548474 C2.3246844,6.00875225 1.52306909,13.2192549 7.2145378,16.1835727 Z" id="XMLID_41_"></path>
                            </g>
                        </g>
                        <g id="XMLID_37_" transform="translate(214.031288, 167.443896)" fill="#FACCDB">
                            <path d="M0.561130718,15.9432226 C0.561130718,15.9432226 10.9821298,15.2221724 14.6695602,0.0801166966 C14.6695602,0.0801166966 19.2387675,0.0801166966 14.9100448,14.8215889" id="XMLID_38_"></path>
                        </g>
                        <g id="XMLID_35_" transform="translate(0.000000, 82.520197)" fill="#FACCDB">
                            <path d="M124.891665,8.97307002 C123.368596,4.88711849 123.769404,1.68245063 122.166173,0.801166966 C120.562943,-0.0801166966 120.001812,3.28478456 120.643104,7.130386 C121.364558,10.9759874 121.204235,17.5455566 120.40262,19.548474 C119.601004,21.6315081 113.58889,22.9934919 111.665013,23.0736086 C109.741136,23.233842 101.244014,22.1122083 97.3962603,22.1122083 C93.5485068,22.1122083 74.1494162,22.8332585 69.9810166,21.9519749 C65.8927785,21.1508079 60.3616329,19.0677738 58.5179177,19.3882406 C56.5940409,19.6285907 33.1868739,18.9876571 31.6638048,18.5870736 C30.1407357,18.1864901 23.7278132,19.548474 13.0663296,17.6256733 C3.28662277,15.8631059 1.12226144,8.33213645 0.801615311,7.130386 C0.400807655,8.41225314 0.240484593,9.85435368 0.480969186,11.4566876 C1.2825845,17.7859066 9.21857607,20.5098743 15.2306909,20.5098743 C15.2306909,20.5098743 9.5392222,32.5273788 20.9221596,36.2127469 C30.3010587,39.2571813 48.8183724,40.3788151 60.521956,42.3817325 L59.8005022,42.1413824 C59.8005022,42.1413824 59.5600176,39.8981149 60.0409868,37.1741472 C57.3956562,37.6548474 52.2653183,37.3343806 48.5778878,37.0940305 C44.3293267,36.8536804 31.9042894,35.3314632 29.9804126,35.1712298 C28.0565359,35.0109964 19.7197366,33.5688959 17.7958599,30.6846948 C16.1926293,28.3613106 16.5934369,23.4741921 16.75376,21.7917415 C18.2768291,22.0320916 19.4792521,22.192325 19.9602212,22.192325 C21.7237749,22.192325 38.4775349,23.7946589 41.4435116,23.9548923 C44.4896497,24.1151257 56.9146871,24.3554758 59.3996945,24.3554758 C61.884702,24.3554758 65.0110017,26.4385099 65.0110017,26.4385099 C63.6482557,28.1209605 62.6863173,30.2039946 62.1251866,32.0466786 C64.1292249,29.0823609 67.8166553,26.67886 74.4700624,27.1595601 C74.9510316,27.1595601 75.3518392,27.2396768 75.7526469,27.2396768 C80.3218541,26.8390934 87.2959073,26.7589767 92.5064069,26.2782765 C99.4804601,25.5572262 108.939521,26.9993268 113.749213,26.67886 C118.558904,26.4385099 125.532958,23.6344255 127.056027,21.7917415 C128.418773,19.7888241 126.414735,13.0590215 124.891665,8.97307002 Z" id="XMLID_36_"></path>
                        </g>
                        <g id="XMLID_33_" transform="translate(57.716302, 112.163375)" fill="#FACCDB">
                            <path d="M72.4660241,24.035009 C67.8968168,20.4297576 52.1049952,24.1151257 43.928519,24.8361759 C35.7520429,25.5572262 17.3950522,23.1537253 11.8639066,20.7502244 C6.25259942,18.3467235 4.00807655,13.2192549 4.00807655,8.97307002 C4.00807655,4.7268851 6.25259942,0.320466786 6.25259942,0.320466786 C2.88581512,3.28478456 2.16436134,9.21342011 2.16436134,9.21342011 C2.16436134,9.21342011 1.20242297,10.3350539 2.84217094e-14,11.8572711 C0.72145378,12.0175045 1.36274603,12.1777379 2.00403828,12.418088 C2.00403828,12.418088 3.36678431,24.1151257 19.2387675,25.4771095 C19.2387675,25.4771095 15.4711755,26.1180431 8.89792995,27.0794435 C17.1545677,29.1624776 37.5155965,29.0022442 38.3172119,29.0022442 C39.1989887,29.0022442 58.7584023,29.0022442 58.7584023,29.0022442 C58.7584023,29.0022442 76.9550698,27.6402603 72.4660241,24.035009 Z" id="XMLID_34_"></path>
                        </g>
                        <g id="XMLID_31_" transform="translate(57.716302, 106.555206)" fill="#FACCDB">
                            <path d="M9.77970679,3.68536804 C9.77970679,3.68536804 5.21049952,5.60816876 3.92791502,13.7800718 L3.44694584,17.2250898 L0.240484593,16.5841562 C0.240484593,16.5841562 -0.0801615311,6.72980251 7.53518392,0.721050269" id="XMLID_32_"></path>
                        </g>
                        <g id="XMLID_29_" transform="translate(123.448758, 112.964542)" fill="#FACCDB">
                            <path d="M1.0420999,0.400583483 C1.0420999,0.400583483 1.2825845,0.48070018 1.68339215,0.721050269 C2.08419981,0.881283663 2.64533053,1.20175045 3.36678431,1.60233393 C4.00807655,2.00291742 4.80969186,2.64385099 5.45098411,3.52513465 C5.61130718,3.76548474 5.69146871,3.92571813 5.85179177,4.24618492 C6.01211483,4.48653501 6.09227636,4.7268851 6.17243789,4.96723519 C6.41292249,5.44793537 6.57324555,6.00875225 6.65340708,6.48945242 C6.81373014,6.9701526 6.89389167,7.53096948 6.9740532,8.09178636 C7.05421473,8.65260323 7.05421473,9.13330341 7.05421473,9.69412029 C7.05421473,9.85435368 7.05421473,9.93447038 7.05421473,10.0947038 L7.05421473,10.1748205 C7.05421473,10.2549372 7.05421473,10.2549372 7.05421473,10.3350539 L7.05421473,10.4952873 C7.05421473,10.6555206 6.9740532,10.7356373 6.9740532,10.8958707 C6.9740532,10.9759874 6.89389167,11.1362208 6.89389167,11.2163375 C6.73356861,11.616921 6.57324555,12.0175045 6.41292249,12.418088 C5.69146871,13.7800718 4.97001493,14.5812388 4.97001493,14.5812388 C4.8898534,14.6613555 4.6493688,14.7414722 4.56920727,14.5812388 C4.48904574,14.5011221 4.48904574,14.4210054 4.48904574,14.3408887 C4.48904574,14.3408887 4.56920727,14.1005386 4.6493688,13.6198384 C4.72953033,13.2192549 4.8898534,12.5783214 5.05017646,11.8572711 C5.13033799,11.5368043 5.21049952,11.1362208 5.29066105,10.7356373 L5.37082258,10.4151706 L5.37082258,10.1748205 L5.37082258,10.0145871 C5.37082258,10.0145871 5.37082258,9.93447038 5.37082258,9.93447038 L5.37082258,9.85435368 C5.37082258,9.77423699 5.37082258,9.69412029 5.37082258,9.5338869 C5.37082258,8.65260323 5.29066105,7.69120287 5.13033799,6.80991921 C5.05017646,6.32921903 4.97001493,5.84851885 4.80969186,5.44793537 C4.72953033,5.20758528 4.6493688,4.96723519 4.56920727,4.8070018 C4.48904574,4.6467684 4.32872268,4.32630162 4.32872268,4.24618492 C3.92791502,3.52513465 3.36678431,2.96431777 2.80565359,2.48361759 C2.24452287,2.00291742 1.76355368,1.68245063 1.36274603,1.44210054 C1.0420999,1.20175045 0.801615311,1.04151706 0.801615311,1.04151706 C0.641292249,0.961400359 0.561130718,0.721050269 0.641292249,0.560816876 C0.72145378,0.400583483 0.881776842,0.320466786 1.0420999,0.400583483 Z" id="XMLID_30_"></path>
                        </g>
                        <g id="XMLID_27_" transform="translate(109.019682, 100.947038)" fill="#FACCDB">
                            <path d="M18.0363445,8.89295332 C18.0363445,8.89295332 6.25259942,8.73271993 1.44290756,8.09178636 C-3.36678431,7.37073609 18.2768291,0.721050269 18.2768291,0.721050269 C18.2768291,0.721050269 19.6395751,7.130386 28.9383127,3.52513465" id="XMLID_28_"></path>
                        </g>
                        <g id="XMLID_25_" transform="translate(117.035835, 114.566876)" fill="#FACCDB">
                            <path d="M2.08419981,1.28186715 C2.08419981,1.28186715 2.08419981,1.44210054 2.00403828,1.84268402 C1.92387675,2.16315081 1.92387675,2.64385099 1.84371521,3.20466786 C1.84371521,3.52513465 1.76355368,3.76548474 1.76355368,4.08595153 C1.76355368,4.40641831 1.76355368,4.7268851 1.76355368,4.96723519 C1.92387675,5.68828546 2.00403828,6.40933573 2.16436134,7.130386 C2.3246844,7.85143627 2.48500746,8.65260323 2.64533053,9.21342011 C2.72549206,9.3736535 2.72549206,9.5338869 2.80565359,9.5338869 C2.80565359,9.5338869 2.88581512,9.61400359 2.88581512,9.69412029 L3.04613818,9.93447038 C3.20646124,10.2549372 3.36678431,10.4952873 3.44694584,10.7356373 C3.92791502,11.7771544 4.08823808,12.5783214 4.08823808,12.5783214 C4.16839962,12.8186715 4.00807655,13.0590215 3.76759196,13.0590215 C3.6072689,13.0590215 3.52710737,13.0590215 3.44694584,12.9789048 L3.44694584,12.9789048 C3.44694584,12.9789048 2.80565359,12.4982047 2.08419981,11.5368043 C1.92387675,11.2964542 1.76355368,11.0561041 1.52306909,10.7356373 L1.36274603,10.4952873 C1.2825845,10.4151706 1.2825845,10.3350539 1.20242297,10.2549372 C1.0420999,10.0145871 1.0420999,9.77423699 0.961938373,9.61400359 C0.72145378,8.81283663 0.641292249,8.09178636 0.561130718,7.29061939 C0.480969186,6.89003591 0.480969186,6.48945242 0.400807655,6.08886894 C0.400807655,5.92863555 0.400807655,5.68828546 0.320646124,5.52805207 C0.320646124,5.36781867 0.320646124,5.20758528 0.240484593,4.88711849 C0.240484593,4.40641831 0.320646124,4.08595153 0.400807655,3.68536804 C0.480969186,3.36490126 0.561130718,3.04443447 0.641292249,2.72396768 C0.961938373,1.60233393 1.2825845,0.881283663 1.2825845,0.881283663 C1.36274603,0.721050269 1.60323062,0.640933573 1.76355368,0.721050269 C2.00403828,0.961400359 2.08419981,1.12163375 2.08419981,1.28186715 Z" id="XMLID_26_"></path>
                        </g>
                        <g id="XMLID_23_" transform="translate(490.588570, 159.432226)" fill="#FACCDB">
                            <path d="M0.961938373,13.459605 C0.961938373,13.459605 0.961938373,13.3794883 0.881776842,13.1391382 C0.801615311,12.9789048 0.801615311,12.6584381 0.72145378,12.3379713 C0.641292249,11.6970377 0.561130718,10.6555206 0.801615311,9.5338869 C0.881776842,8.97307002 1.0420999,8.33213645 1.2825845,7.69120287 C1.52306909,7.0502693 1.84371521,6.32921903 2.3246844,5.68828546 C2.80565359,5.04735189 3.36678431,4.40641831 4.00807655,3.92571813 C4.16839962,3.76548474 4.32872268,3.68536804 4.48904574,3.52513465 L4.80969186,3.28478456 L5.05017646,3.12455117 C5.37082258,2.96431777 5.61130718,2.72396768 5.9319533,2.56373429 C6.65340708,2.16315081 7.29469933,1.76256733 8.01615311,1.52221724 C8.73760689,1.20175045 9.45906067,0.961400359 10.1805144,0.801166966 C10.9019682,0.640933573 11.623422,0.48070018 12.3448758,0.48070018 C13.0663296,0.48070018 13.7076218,0.48070018 14.3489141,0.640933573 C15.551337,0.881283663 16.5132754,1.28186715 17.0744061,1.60233393 C17.6355368,1.92280072 17.956183,2.08303411 17.956183,2.08303411 C18.4371521,2.3233842 18.5974752,2.96431777 18.2768291,3.44501795 C18.0363445,3.84560144 17.5553753,4.00583483 17.1545677,3.92571813 L17.1545677,3.92571813 C17.1545677,3.92571813 16.8339215,3.84560144 16.1926293,3.68536804 C15.8719832,3.60525135 15.551337,3.52513465 15.2306909,3.44501795 C14.8298832,3.36490126 14.4290756,3.28478456 14.0282679,3.28478456 C13.5472988,3.28478456 13.0663296,3.28478456 12.5853604,3.36490126 C12.1043912,3.44501795 11.5432605,3.60525135 10.9821298,3.76548474 C10.420999,3.92571813 9.85986832,4.16606822 9.2987376,4.48653501 C8.73760689,4.7268851 8.17647617,5.04735189 7.61534545,5.36781867 C7.29469933,5.52805207 6.9740532,5.76840216 6.73356861,5.92863555 L6.49308402,6.08886894 L6.33276095,6.16898564 C6.25259942,6.24910233 6.09227636,6.32921903 6.01211483,6.40933573 C5.53114564,6.72980251 5.21049952,7.21050269 4.80969186,7.61108618 C4.08823808,8.49236984 3.6072689,9.4537702 3.20646124,10.2549372 C2.80565359,11.1362208 2.48500746,11.9373878 2.3246844,12.4982047 C2.16436134,13.0590215 2.00403828,13.3794883 2.00403828,13.3794883 L2.00403828,13.3794883 C1.92387675,13.6999551 1.60323062,13.8601885 1.2825845,13.6999551 C1.12226144,13.7800718 1.0420999,13.6999551 0.961938373,13.459605 Z" id="XMLID_24_"></path>
                        </g>
                        <g id="XMLID_240_" transform="translate(41.683996, 0.000000)">
                            <path d="M478.644502,0.48070018 C467.582211,11.3765709 451.870551,24.9162926 443.132944,36.2928636 C430.627745,52.4764363 415.637539,74.2681777 415.637539,74.2681777 L433.593722,187.47307 C447.381505,192.680655 452.511843,188.43447 459.485896,185.069569 C462.131227,183.787702 469.746572,178.5 478.644502,171.609964 L478.644502,0.48070018 Z" id="XMLID_7_" fill="#FDE5E5"></path>
                            <path d="M478.644502,0.48070018 C467.582211,11.3765709 451.870551,24.9162926 443.132944,36.2928636 C430.627745,52.4764363 415.637539,74.2681777 415.637539,74.2681777 L412.190593,79.8763465 L403.773632,79.1552962 C384.695188,80.3570467 331.067123,95.1786356 307.740118,100.065754 C289.062481,103.911355 251.146077,108.15754 236.877324,109.679758 L236.717001,109.679758 C236.717001,109.679758 235.354255,109.839991 233.109732,110.080341 C231.827148,110.240575 231.185856,110.240575 231.185856,110.240575 C230.785048,110.320691 230.304079,110.320691 229.82311,110.400808 C229.82311,110.400808 229.82311,110.400808 229.82311,110.400808 C229.82311,110.400808 229.82311,110.400808 229.82311,110.400808 C229.34214,110.480925 228.861171,110.480925 228.380202,110.561041 C228.380202,110.561041 228.380202,110.561041 228.380202,110.561041 C228.380202,110.561041 228.380202,110.561041 228.380202,110.561041 C227.177779,110.721275 225.815033,110.801391 224.452287,110.961625 C224.372125,110.961625 224.291964,110.961625 224.291964,110.961625 C224.051479,110.961625 223.730833,111.041741 223.490349,111.041741 C223.490349,111.041741 223.490349,111.041741 223.490349,111.041741 C221.48631,111.282092 219.402111,111.442325 217.237749,111.682675 C217.157588,111.682675 217.077426,111.682675 216.917103,111.682675 C216.917103,111.682675 216.836942,111.682675 216.836942,111.682675 C216.275811,111.762792 215.71468,111.762792 215.153549,111.842908 C215.153549,111.842908 215.073388,111.842908 215.073388,111.842908 C214.913065,111.842908 214.67258,111.842908 214.512257,111.923025 C214.432096,111.923025 214.351934,111.923025 214.191611,111.923025 C213.710642,112.003142 213.309834,112.003142 212.828865,112.083259 C212.828865,112.083259 212.748703,112.083259 212.748703,112.083259 C212.748703,112.083259 212.748703,112.083259 212.668542,112.083259 C212.428057,112.083259 212.187573,112.163375 212.02725,112.163375 C211.786765,112.163375 211.546281,112.243492 211.305796,112.243492 C211.225634,112.243492 211.225634,112.243492 211.145473,112.243492 C210.504181,112.323609 209.862888,112.403725 209.221596,112.403725 C209.141435,112.403725 209.061273,112.403725 209.061273,112.403725 C208.981112,112.403725 208.981112,112.403725 208.90095,112.403725 C208.419981,112.483842 208.019173,112.483842 207.618365,112.563959 C207.538204,112.563959 207.538204,112.563959 207.458042,112.563959 C207.458042,112.563959 207.458042,112.563959 207.377881,112.563959 C206.977073,112.563959 206.656427,112.644075 206.255619,112.644075 C206.175458,112.644075 206.015135,112.644075 205.934973,112.644075 C205.934973,112.644075 205.854812,112.644075 205.854812,112.644075 C205.854812,112.644075 205.854812,112.644075 205.77465,112.644075 C205.694489,112.644075 205.694489,112.644075 205.614327,112.644075 C205.534166,112.644075 205.454004,112.644075 205.373843,112.644075 C205.053196,112.644075 204.73255,112.724192 204.411904,112.724192 C204.411904,112.724192 204.411904,112.724192 204.411904,112.724192 C204.411904,112.724192 204.411904,112.724192 204.411904,112.724192 C202.247543,112.884426 200.323666,113.124776 198.640274,113.204892 C198.560112,113.204892 198.399789,113.204892 198.319628,113.204892 C198.319628,113.204892 198.319628,113.204892 198.319628,113.204892 C197.998982,113.204892 197.678336,113.285009 197.35769,113.285009 C197.35769,113.285009 197.277528,113.285009 197.277528,113.285009 C197.277528,113.285009 197.277528,113.285009 197.277528,113.285009 C197.277528,113.285009 197.277528,113.285009 197.197366,113.285009 C196.87672,113.285009 196.636236,113.365126 196.31559,113.365126 L196.31559,113.365126 C196.31559,113.365126 196.31559,113.365126 196.31559,113.365126 C195.994943,113.365126 195.674297,113.445242 195.433813,113.445242 C195.433813,113.445242 195.433813,113.445242 195.433813,113.445242 C195.353651,113.445242 195.27349,113.445242 195.193328,113.445242 C195.193328,113.445242 195.193328,113.445242 195.193328,113.445242 C194.952844,113.445242 194.712359,113.445242 194.471874,113.445242 C193.990905,113.445242 193.509936,113.445242 193.028967,113.445242 C192.788482,113.445242 192.547998,113.445242 192.307513,113.445242 C192.067028,113.445242 191.826544,113.445242 191.586059,113.445242 C191.185252,113.445242 190.784444,113.365126 190.383636,113.365126 C190.223313,113.365126 190.143152,113.365126 189.982829,113.365126 C189.742344,113.365126 189.421698,113.285009 189.181213,113.285009 C189.02089,113.285009 188.860567,113.285009 188.700244,113.204892 C188.45976,113.204892 188.219275,113.124776 187.97879,113.124776 C187.818467,113.124776 187.658144,113.044659 187.497821,113.044659 C187.257337,113.044659 187.016852,112.964542 186.856529,112.964542 C186.696206,112.964542 186.535883,112.884426 186.455721,112.884426 C186.215237,112.804309 186.054914,112.804309 185.814429,112.724192 C185.654106,112.724192 185.573944,112.644075 185.413621,112.644075 C185.173137,112.563959 184.932652,112.563959 184.772329,112.483842 C184.692168,112.483842 184.612006,112.403725 184.531845,112.403725 C183.890552,112.243492 183.409583,112.083259 182.848452,112.003142 C182.768291,112.003142 182.688129,111.923025 182.607968,111.923025 C182.447645,111.842908 182.287322,111.842908 182.126999,111.762792 C182.046837,111.762792 181.966676,111.682675 181.886514,111.682675 C181.726191,111.682675 181.646029,111.602558 181.565868,111.602558 C181.485706,111.602558 181.405545,111.522442 181.325383,111.522442 C181.245222,111.522442 181.16506,111.442325 181.004737,111.442325 C180.924576,111.442325 180.924576,111.442325 180.844414,111.362208 C180.764253,111.362208 180.684091,111.282092 180.60393,111.282092 C180.60393,111.282092 180.523768,111.282092 180.523768,111.282092 C180.443606,111.282092 180.443606,111.201975 180.363445,111.201975 C180.363445,111.201975 180.363445,111.201975 180.363445,111.201975 C180.283283,111.201975 180.283283,111.201975 180.283283,111.201975 C180.283283,111.201975 180.283283,111.201975 180.203122,111.201975 C180.203122,111.201975 180.203122,111.201975 180.203122,111.201975 C180.203122,111.201975 180.12296,111.201975 180.042799,111.121858 C180.042799,111.121858 179.962637,111.121858 179.962637,111.121858 C179.882476,111.121858 179.882476,111.041741 179.802314,111.041741 C179.802314,111.041741 179.722153,111.041741 179.722153,110.961625 C179.641991,110.961625 179.56183,110.881508 179.481668,110.881508 C179.401507,110.881508 179.401507,110.801391 179.321345,110.801391 C179.161022,110.721275 179.08086,110.641158 178.920537,110.641158 C178.840376,110.641158 178.840376,110.561041 178.760214,110.561041 C178.680053,110.480925 178.51973,110.480925 178.359407,110.400808 C178.279245,110.400808 178.199084,110.320691 178.118922,110.320691 C177.958599,110.240575 177.878437,110.240575 177.718114,110.160458 C177.637953,110.160458 177.557791,110.080341 177.47763,110.080341 C177.317307,110.000224 177.156984,109.920108 176.996661,109.839991 C176.916499,109.839991 176.836338,109.759874 176.756176,109.759874 C176.515691,109.679758 176.275207,109.519524 176.034722,109.439408 C175.954561,109.439408 175.874399,109.359291 175.794238,109.359291 C175.553753,109.279174 175.39343,109.199057 175.152945,109.118941 C175.072784,109.038824 174.912461,109.038824 174.832299,108.958707 C174.671976,108.878591 174.431492,108.798474 174.271169,108.718357 C174.191007,108.638241 174.030684,108.638241 173.870361,108.558124 C173.710038,108.478007 173.469553,108.397891 173.229069,108.317774 C173.148907,108.237657 172.988584,108.237657 172.908423,108.15754 C172.587776,108.077424 172.347292,107.91719 172.026646,107.837074 C172.026646,107.837074 171.946484,107.837074 171.946484,107.756957 C171.545677,107.596724 171.22503,107.43649 170.824223,107.276257 C170.343254,107.035907 169.782123,106.875673 169.220992,106.635323 C169.060669,106.555206 168.980508,106.555206 168.820184,106.47509 C168.259054,106.23474 167.697923,106.074506 167.136792,105.834156 C166.255015,105.513689 165.373239,105.193223 164.491462,104.872756 C164.491462,104.872756 164.491462,104.872756 164.491462,104.872756 C163.609685,104.552289 162.727908,104.231822 161.76597,103.991472 C161.124677,103.831239 160.563547,103.590889 159.922254,103.430655 C159.761931,103.350539 159.601608,103.350539 159.441285,103.270422 C158.799993,103.110189 158.158701,102.869838 157.59757,102.709605 C156.956278,102.549372 156.395147,102.389138 155.753855,102.228905 C155.593532,102.148788 155.433209,102.148788 155.272886,102.068671 C154.631593,101.908438 154.070463,101.748205 153.42917,101.587971 C152.948201,101.507855 152.387071,101.347621 151.906101,101.267505 C151.745778,101.267505 151.585455,101.187388 151.425132,101.187388 C151.104486,101.107271 150.703678,101.027154 150.383032,101.027154 C150.222709,101.027154 150.062386,100.947038 149.902063,100.947038 C149.581417,100.866921 149.180609,100.866921 148.859963,100.786804 C148.69964,100.786804 148.539317,100.706688 148.378994,100.706688 C147.898025,100.626571 147.417056,100.626571 146.936086,100.546454 C146.535279,100.546454 146.134471,100.466338 145.733663,100.386221 C145.653502,100.386221 145.493179,100.386221 145.413017,100.306104 C145.092371,100.225987 144.771725,100.225987 144.531241,100.145871 C144.451079,100.145871 144.290756,100.065754 144.210594,100.065754 C143.889948,99.9856374 143.649464,99.9856374 143.328818,99.9055207 C143.248656,99.9055207 143.168494,99.825404 143.088333,99.825404 C142.767687,99.7452873 142.447041,99.6651706 142.206556,99.5850539 C142.126395,99.5850539 142.046233,99.5049372 141.966072,99.5049372 C141.645425,99.4248205 141.324779,99.3447038 141.004133,99.1844704 C140.923972,99.1844704 140.923972,99.1844704 140.84381,99.1043537 C140.523164,99.024237 140.202518,98.8640036 139.80171,98.7037702 C139.80171,98.7037702 139.721549,98.7037702 139.721549,98.6236535 C139.400903,98.4634201 139.000095,98.3833034 138.679449,98.22307 C138.679449,98.22307 138.679449,98.22307 138.599287,98.22307 C138.19848,98.0628366 137.877833,97.9026032 137.477026,97.7423699 C137.477026,97.7423699 137.477026,97.7423699 137.477026,97.7423699 C137.477026,97.7423699 137.477026,97.7423699 137.477026,97.7423699 C136.595249,97.3417864 135.713472,96.8610862 134.751534,96.380386 C134.751534,96.380386 134.751534,96.380386 134.751534,96.380386 C134.751534,96.380386 134.751534,96.380386 134.751534,96.380386 C134.190403,96.0599192 133.549111,95.7394524 132.98798,95.338869 C132.98798,95.338869 132.98798,95.338869 132.98798,95.338869 C132.98798,95.338869 132.98798,95.338869 132.98798,95.338869 C132.507011,95.0184022 132.026042,94.7780521 131.464911,94.4575853 C131.464911,94.4575853 131.464911,94.4575853 131.464911,94.4575853 C131.464911,94.4575853 131.464911,94.4575853 131.384749,94.4575853 C130.90378,94.2172352 130.502973,93.8967684 130.022003,93.5763016 C129.941842,93.4961849 129.781519,93.4160682 129.701357,93.3359515 C129.30055,93.0956015 128.81958,92.7751347 128.418773,92.5347846 C128.418773,92.5347846 128.418773,92.5347846 128.418773,92.5347846 C128.418773,92.5347846 128.418773,92.5347846 128.418773,92.5347846 C128.017965,92.2944345 127.617157,91.9739677 127.21635,91.7336176 L127.21635,91.7336176 C127.21635,91.7336176 127.21635,91.7336176 127.21635,91.7336176 C126.735381,91.4131508 126.17425,91.092684 125.693281,90.7722172 C125.613119,90.6921006 125.532958,90.6921006 125.452796,90.6119839 C125.13215,90.3716338 124.811504,90.2114004 124.490858,89.9710503 C124.330535,89.8909336 124.250373,89.8108169 124.09005,89.7307002 C123.769404,89.5704668 123.448758,89.3301167 123.128112,89.1698833 C122.967789,89.0897666 122.887627,89.0096499 122.727304,88.9295332 C122.406658,88.6891831 122.086012,88.5289497 121.685204,88.2885997 C121.605043,88.208483 121.44472,88.1283663 121.364558,88.0482496 C120.883589,87.8078995 120.482781,87.4874327 120.001812,87.2470826 C120.001812,87.2470826 120.001812,87.2470826 120.001812,87.2470826 C119.520843,86.9266158 119.039874,86.6862657 118.558904,86.3657989 C118.478743,86.2856822 118.31842,86.2055655 118.238258,86.2055655 C117.837451,85.9652155 117.436643,85.7248654 117.035835,85.4845153 C116.875512,85.4043986 116.715189,85.3242819 116.554866,85.1640485 C116.23422,85.0038151 115.913574,84.763465 115.512766,84.6032316 C115.272282,84.5231149 115.111959,84.3628815 114.871474,84.2827648 C114.550828,84.1225314 114.230182,83.8821813 113.909536,83.7219479 C113.669051,83.5617146 113.428566,83.4815979 113.268243,83.3213645 C112.947597,83.1611311 112.626951,82.920781 112.226144,82.7605476 C111.985659,82.6003142 111.745174,82.5201975 111.50469,82.3599641 C111.184044,82.1997307 110.783236,81.9593806 110.46259,81.7991472 C110.222105,81.6389138 109.981621,81.5587971 109.741136,81.3985637 C109.340328,81.2383304 109.019682,80.9979803 108.618875,80.8377469 C108.37839,80.6775135 108.137905,80.5973968 107.897421,80.4371634 C107.496613,80.1968133 107.095806,80.0365799 106.614836,79.7962298 C106.374352,79.7161131 106.214029,79.5558797 105.973544,79.475763 C105.332252,79.1552962 104.69096,78.8348295 103.969506,78.5143627 C103.328214,78.1938959 102.686921,77.9535458 102.125791,77.633079 C101.965468,77.5529623 101.805144,77.4728456 101.644821,77.3927289 C101.163852,77.1523788 100.763045,76.9921454 100.362237,76.831912 C100.201914,76.7517953 100.041591,76.6716786 99.8011062,76.591562 C99.320137,76.3512119 98.7590063,76.1108618 98.2780371,75.8705117 C98.1978756,75.790395 98.117714,75.790395 97.957391,75.7102783 C97.4764218,75.4699282 96.9954526,75.3096948 96.5144834,75.0693447 C96.3541604,74.989228 96.1938373,74.9091113 95.9533527,74.8289946 C95.6327066,74.6687612 95.2318989,74.5085278 94.9112528,74.3482944 C94.7509297,74.2681777 94.5906067,74.1880611 94.4302836,74.1079444 C93.9493144,73.8675943 93.4683452,73.7073609 92.987376,73.4670108 C92.2659223,73.146544 91.62463,72.9061939 90.9833378,72.5857271 C90.8230147,72.5056104 90.6626916,72.4254937 90.5023686,72.345377 C89.8610763,72.1050269 89.2197841,71.7845602 88.6586534,71.5442101 C88.0975227,71.30386 87.5363919,71.0635099 86.9752612,70.8231598 C86.8149382,70.7430431 86.6546151,70.6629264 86.494292,70.6629264 C85.9331613,70.4225763 85.4521921,70.2623429 84.9712229,70.0219928 C84.9712229,70.0219928 84.8910614,70.0219928 84.8910614,70.0219928 C84.0894461,69.701526 83.3679923,69.461176 82.6465385,69.1407092 C82.6465385,69.1407092 82.6465385,69.1407092 82.6465385,69.1407092 C81.9250848,68.9003591 81.203631,68.5798923 80.5623387,68.3395422 C80.2416926,68.1793088 79.9210465,68.0991921 79.5202388,67.9389587 C78.9591081,67.6986086 78.3178159,67.5383752 77.7566851,67.3781418 C77.6765236,67.3781418 77.6765236,67.3781418 77.5963621,67.2980251 C77.0352314,67.1377918 76.5542622,66.9775584 75.9931315,66.7372083 C75.9129699,66.7372083 75.8328084,66.6570916 75.7526469,66.6570916 C75.2716777,66.4968582 74.710547,66.3366248 74.2295778,66.1763914 C74.1494162,66.1763914 74.0692547,66.0962747 73.9890932,66.0962747 C73.508124,65.9360413 72.9469933,65.7758079 72.4660241,65.6155745 C72.3858626,65.6155745 72.305701,65.5354578 72.145378,65.5354578 C71.6644088,65.3752244 71.1032781,65.214991 70.5421473,65.1348743 C70.4619858,65.1348743 70.3818243,65.0547576 70.2215012,65.0547576 C69.6603705,64.8945242 69.0992398,64.7342909 68.5381091,64.6541742 C68.4579475,64.6541742 68.2976245,64.5740575 68.2174629,64.5740575 C67.6563322,64.4138241 67.01504,64.2535907 66.4539093,64.0933573 C66.3737477,64.0933573 66.2935862,64.0132406 66.2134247,64.0132406 C65.5721324,63.8530072 64.9308402,63.6927738 64.2093864,63.5325404 C63.247448,63.2921903 62.3656712,63.0518402 61.4838943,62.7313734 C61.3235713,62.6512567 61.0830867,62.57114 60.9227636,62.57114 C60.9227636,62.57114 60.9227636,62.57114 60.8426021,62.57114 C59.5600176,62.1705566 58.2774331,61.6898564 56.9948486,61.2091562 L56.9948486,61.2091562 C56.6742025,61.0489228 56.2733948,60.8886894 55.9527487,60.8085727 C55.9527487,60.8085727 55.9527487,60.8085727 55.9527487,60.8085727 C55.551941,60.6483393 55.1511334,60.4881059 54.7503257,60.3278725 C54.7503257,60.3278725 54.7503257,60.3278725 54.7503257,60.3278725 C54.5900027,60.2477558 54.4296796,60.1676391 54.2693565,60.0875225 C53.7082258,59.8471724 53.1470951,59.6068223 52.5058029,59.2863555 L52.5058029,59.2863555 C52.1049952,59.1261221 51.7843491,58.9658887 51.3835414,58.7255386 C51.3835414,58.7255386 51.3835414,58.7255386 51.3835414,58.7255386 C49.6199877,57.8442549 47.7762725,56.9629713 46.0127188,56.0816876 C45.9325573,56.0015709 45.8523958,56.0015709 45.7722342,55.9214542 C49.3795031,58.9658887 55.391618,63.4524237 61.4037328,65.7758079 C70.8627935,69.3009426 86.9752612,74.5085278 92.987376,77.2324955 C98.9994909,79.9564632 121.204235,93.2558348 124.731342,96.7809695 C128.25845,100.306104 120.643104,101.668088 116.23422,101.267505 C111.825336,100.866921 99.8011062,101.507855 95.8731912,103.831239 C91.8651146,106.154623 82.7267001,108.638241 80.2416926,108.958707 C80.2416926,108.958707 88.8189764,110.080341 95.1517374,107.67684 C102.125791,104.952873 113.669051,104.151706 117.516805,104.792639 C121.364558,105.513689 136.274603,104.071589 143.809787,104.632406 C151.344971,105.193223 157.918216,109.839991 162.006454,112.323609 C166.094692,114.807226 176.916499,116.008977 179.641991,122.418312 C182.367483,128.827648 182.688129,129.388465 181.726191,132.9136 C180.764253,136.438734 184.451683,130.750449 184.612006,127.465664 C184.772329,124.18088 184.371521,120.735862 189.02089,120.655745 C193.670259,120.495512 204.091258,118.572711 212.187573,118.492594 C227.017456,118.252244 318.642086,106.555206 355.356067,99.9055207 C355.356067,99.9055207 388.382618,92.3745512 403.773632,94.6178187 L402.731532,94.8581688 C416.118508,93.4961849 428.864191,108.718357 428.864191,108.718357 C428.864191,108.718357 424.455307,84.4429982 432.150814,69.6214093 C439.685998,54.9600539 464.776557,23.4741921 478.564341,12.4982047 L478.564341,0.48070018 L478.644502,0.48070018 Z" id="XMLID_3_" fill="#FACCDB"></path>
                            <path d="M478.644502,156.227558 C474.716587,159.111759 471.029157,161.915844 467.983018,164.559695 C456.279435,174.654399 443.934559,180.983618 433.593722,178.820467 L413.6335,180.022217 C399.284586,182.265485 350.065406,184.829219 350.065406,184.829219 C315.114979,184.668986 212.989188,180.903501 203.209481,180.262567 C189.341536,179.381284 184.050875,179.541517 174.591815,182.425718 C165.132754,185.309919 159.120639,183.307002 150.543355,181.784785 C141.966072,180.342684 118.238258,172.331014 104.370313,167.043312 C90.5023686,161.75561 71.2636011,153.343357 71.2636011,148.296005 C71.2636011,143.248654 78.798785,142.287253 84.1696076,143.80947 C89.5404302,145.331688 97.957391,151.58079 102.526598,155.186041 C107.015644,158.711176 122.486819,161.995961 125.372635,161.75561 C128.25845,161.51526 135.472988,160.55386 140.683487,161.915844 C145.893987,163.277828 155.192724,165.360862 147.817863,162.636894 C140.443002,159.912926 132.106203,153.904174 132.106203,153.904174 C125.933765,154.464991 113.348405,151.019973 107.576775,148.696589 C101.805144,146.373205 92.3460838,136.358618 85.9331613,135.557451 C79.5202388,134.756284 68.377786,137.640485 60.8426021,138.121185 C56.9146871,138.441652 47.4556264,137.560368 40.000604,136.999551 C39.8402809,136.999551 39.6799579,137.079668 39.5196348,137.079668 C39.4394733,137.079668 39.4394733,137.079668 39.3593118,137.079668 C39.3593118,137.079668 39.3593118,137.079668 39.3593118,137.079668 C39.2791502,137.079668 39.2791502,137.079668 39.1989887,137.079668 C39.0386656,137.079668 38.798181,137.159785 38.637858,137.159785 C38.5576964,137.159785 38.5576964,137.159785 38.4775349,137.159785 C38.3172119,137.159785 38.1568888,137.239901 37.9965657,137.239901 C37.9164042,137.239901 37.8362427,137.239901 37.6759196,137.320018 C37.6759196,137.320018 37.6759196,137.320018 37.6759196,137.320018 C36.9544658,137.480251 36.1528505,137.560368 35.1909121,137.720601 C35.1909121,137.720601 35.1107506,137.720601 35.1107506,137.720601 C34.9504275,137.720601 34.709943,137.800718 34.5496199,137.800718 C34.4694584,137.800718 34.4694584,137.800718 34.3892968,137.800718 C34.3091353,137.800718 34.2289738,137.800718 34.1488122,137.880835 C34.1488122,137.880835 34.1488122,137.880835 34.0686507,137.880835 C34.0686507,137.880835 34.0686507,137.880835 34.0686507,137.880835 C33.5876815,137.960952 33.1868739,138.041068 32.7059047,138.121185 C32.7059047,138.121185 32.6257431,138.121185 32.6257431,138.121185 C38.4775349,140.124102 49.2191801,141.966786 53.4677412,142.767953 C58.3575946,143.649237 62.0450251,149.818223 60.6021175,151.260323 C59.1592099,152.702424 48.9786955,154.064408 46.8143341,154.304758 C44.6499728,154.464991 28.377182,156.708259 15.3108524,155.586625 C3.12629971,154.545108 0.480969186,148.215889 0.160323062,147.414722 C0.160323062,147.494838 0.160323062,147.494838 0.160323062,147.574955 C0.160323062,148.055655 0.240484593,149.337522 0.320646124,150.779623 C0.320646124,150.939856 0.400807655,151.019973 0.400807655,151.10009 C0.480969186,151.420557 0.561130718,151.660907 0.641292249,151.981373 C0.641292249,151.981373 0.641292249,152.06149 0.72145378,152.06149 C0.72145378,152.141607 0.801615311,152.221724 0.801615311,152.30184 C0.881776842,152.54219 1.0420999,152.862657 1.20242297,153.103007 C1.2825845,153.183124 1.36274603,153.263241 1.36274603,153.423474 C1.52306909,153.663824 1.68339215,153.904174 1.84371521,154.144524 C1.92387675,154.224641 2.00403828,154.304758 2.00403828,154.304758 C2.00403828,154.304758 2.00403828,154.304758 2.00403828,154.384874 C2.24452287,154.625224 2.40484593,154.785458 2.64533053,155.025808 C2.72549206,155.105925 2.80565359,155.186041 2.88581512,155.266158 C3.12629971,155.426391 3.36678431,155.666741 3.68743043,155.826975 C3.76759196,155.907092 3.92791502,155.907092 4.00807655,155.987208 C4.32872268,156.147442 4.56920727,156.307675 4.8898534,156.467908 C4.97001493,156.548025 5.13033799,156.548025 5.21049952,156.628142 C5.53114564,156.788375 5.85179177,156.948609 6.25259942,157.028725 C6.41292249,157.108842 6.49308402,157.108842 6.65340708,157.108842 C7.05421473,157.269075 7.37486086,157.349192 7.77566851,157.429309 C7.93599158,157.429309 8.01615311,157.509426 8.17647617,157.509426 C8.57728383,157.589542 8.97809148,157.749776 9.45906067,157.829892 C9.5392222,157.829892 9.69954526,157.910009 9.85986832,157.910009 C9.85986832,157.910009 9.94002985,157.910009 9.94002985,157.910009 C10.3408375,157.990126 10.8218067,158.070242 11.3027759,158.150359 C11.4630989,158.150359 11.5432605,158.150359 11.7035835,158.230476 C11.7837451,158.230476 11.7837451,158.230476 11.8639066,158.230476 C12.3448758,158.310592 12.825845,158.390709 13.3068142,158.390709 C13.4671372,158.390709 13.7076218,158.390709 13.8679449,158.470826 C14.3489141,158.550943 14.8298832,158.550943 15.391014,158.631059 C15.6314986,158.631059 15.8719832,158.631059 16.1124677,158.711176 C16.5934369,158.711176 17.0744061,158.791293 17.6355368,158.791293 C17.956183,158.791293 18.2768291,158.791293 18.5173137,158.791293 C18.9982829,158.791293 19.4792521,158.791293 19.9602212,158.871409 C20.4411904,158.871409 20.9221596,158.871409 21.4031288,158.871409 C21.4031288,158.871409 21.4832903,158.871409 21.4832903,158.871409 C21.8039365,158.871409 22.1245826,158.871409 22.4452287,158.871409 C23.3270055,158.871409 24.2087824,158.871409 25.0905592,158.871409 C25.6516899,158.871409 26.2128207,158.871409 26.7739514,158.871409 C26.9342744,158.871409 27.0945975,158.871409 27.2549206,158.871409 C27.6557282,158.871409 28.0565359,158.871409 28.5375051,158.871409 C28.6978281,158.871409 28.8581512,158.871409 29.0986358,158.871409 C29.579605,158.871409 30.1407357,158.871409 30.6217049,158.791293 C30.7018664,158.791293 30.7820279,158.791293 30.8621895,158.791293 C31.5034817,158.791293 32.0646124,158.711176 32.7059047,158.711176 C32.8662277,158.711176 33.1067123,158.711176 33.2670354,158.711176 C33.7480046,158.711176 34.1488122,158.711176 34.6297814,158.631059 C34.870266,158.631059 35.0305891,158.631059 35.2710737,158.631059 C35.7520429,158.631059 36.233012,158.550943 36.7941428,158.550943 C36.9544658,158.550943 37.1147889,158.550943 37.2751119,158.550943 C37.9164042,158.550943 38.5576964,158.470826 39.1989887,158.470826 C39.3593118,158.470826 39.5997964,158.470826 39.7601194,158.470826 C40.2410886,158.470826 40.7220578,158.390709 41.2831885,158.390709 C41.5236731,158.390709 41.6839962,158.390709 41.9244808,158.390709 C42.4054499,158.390709 42.8864191,158.310592 43.4475498,158.310592 C44.2491652,158.230476 45.130942,158.230476 45.9325573,158.150359 C45.9325573,158.150359 45.9325573,158.150359 46.0127188,158.150359 C46.6540111,158.150359 47.2151418,158.070242 47.8564341,158.070242 C48.0969186,158.070242 48.2572417,158.070242 48.4977263,158.070242 C48.9786955,158.070242 49.4596647,157.990126 49.9406339,157.990126 C50.1009569,157.990126 50.3414415,157.990126 50.5017646,157.990126 C51.1430568,157.990126 51.7843491,157.910009 52.4256413,157.910009 C52.5058029,157.910009 52.5859644,157.910009 52.6661259,157.910009 C53.2272566,157.910009 53.7883874,157.829892 54.3495181,157.829892 C54.5098411,157.829892 54.7503257,157.829892 54.9106488,157.829892 C55.391618,157.829892 55.7924256,157.829892 56.2733948,157.749776 C56.4337179,157.749776 56.6742025,157.749776 56.8345255,157.749776 C57.3956562,157.749776 58.0369485,157.669659 58.5980792,157.669659 C58.5980792,157.669659 58.5980792,157.669659 58.5980792,157.669659 C59.0790484,157.669659 59.5600176,157.669659 60.0409868,157.669659 C60.0409868,157.669659 60.1211483,157.669659 60.1211483,157.669659 C60.6021175,157.669659 61.0830867,157.669659 61.5640559,157.669659 C61.7243789,157.669659 61.884702,157.669659 62.0450251,157.669659 C62.3656712,157.669659 62.6863173,157.669659 63.087125,157.669659 C63.247448,157.669659 63.4077711,157.669659 63.6482557,157.669659 C63.9689018,157.669659 64.2895479,157.669659 64.610194,157.669659 C64.7705171,157.669659 64.9308402,157.669659 65.0911632,157.669659 C65.4919709,157.669659 65.9729401,157.669659 66.3737477,157.749776 C66.3737477,157.749776 66.3737477,157.749776 66.4539093,157.749776 C66.8547169,157.749776 67.2555246,157.829892 67.6563322,157.829892 C67.7364938,157.829892 67.8968168,157.829892 67.9769784,157.829892 C68.2174629,157.829892 68.4579475,157.910009 68.6984321,157.910009 C68.8587552,157.910009 68.9389167,157.910009 69.0190783,157.990126 C69.2595628,157.990126 69.5000474,158.070242 69.6603705,158.070242 C69.740532,158.070242 69.8206936,158.070242 69.9810166,158.150359 C70.3016628,158.230476 70.5421473,158.230476 70.7826319,158.310592 C71.1032781,158.390709 71.4239242,158.470826 71.7445703,158.550943 C71.8247318,158.550943 71.9048934,158.631059 71.9850549,158.631059 C72.305701,158.711176 72.7065087,158.871409 73.1073163,158.951526 C73.1073163,158.951526 73.1874779,158.951526 73.1874779,158.951526 C73.5882855,159.031643 73.9089317,159.191876 74.3097393,159.271993 C74.3899008,159.271993 74.4700624,159.35211 74.5502239,159.35211 C74.9510316,159.512343 75.4320007,159.672576 75.9129699,159.752693 C75.9129699,159.752693 75.9931315,159.752693 75.9931315,159.752693 C76.4741006,159.912926 76.9550698,160.07316 77.5162005,160.233393 C77.5162005,160.233393 77.5963621,160.233393 77.5963621,160.233393 C85.0513845,162.717011 95.4723835,166.562612 103.568698,170.167864 C103.568698,170.167864 103.64886,170.167864 103.64886,170.167864 C104.20999,170.408214 104.771121,170.648564 105.332252,170.888914 C105.412413,170.969031 105.492575,170.969031 105.652898,171.049147 C106.214029,171.289497 106.694998,171.529847 107.175967,171.770198 C107.496613,171.930431 107.817259,172.090664 108.137905,172.250898 C108.218067,172.331014 108.37839,172.331014 108.458552,172.411131 C108.699036,172.491248 108.939521,172.651481 109.260167,172.731598 C109.42049,172.811715 109.500651,172.811715 109.660975,172.891831 C109.981621,173.052065 110.222105,173.132181 110.542751,173.292415 C110.622913,173.372531 110.783236,173.372531 110.863397,173.452648 C111.264205,173.612882 111.665013,173.773115 112.145982,173.933348 C112.226144,174.013465 112.386467,174.013465 112.466628,174.093582 C112.787274,174.253815 113.188082,174.333932 113.508728,174.494165 C113.669051,174.574282 113.829374,174.654399 113.989697,174.654399 C114.310343,174.814632 114.630989,174.894749 115.031797,175.054982 C115.19212,175.135099 115.352443,175.215215 115.512766,175.215215 C115.913574,175.375449 116.394543,175.535682 116.795351,175.695916 C116.875512,175.695916 116.955674,175.776032 116.955674,175.776032 C117.436643,175.936266 117.997774,176.176616 118.478743,176.336849 C118.639066,176.416966 118.799389,176.497083 118.959712,176.497083 C119.36052,176.657316 119.681166,176.737433 120.081974,176.897666 C120.242297,176.977783 120.482781,177.057899 120.643104,177.138016 C121.043912,177.29825 121.44472,177.378366 121.845527,177.5386 C122.00585,177.618716 122.166173,177.698833 122.406658,177.698833 C122.967789,177.859066 123.528919,178.099417 124.09005,178.25965 C124.250373,178.339767 124.330535,178.339767 124.490858,178.419883 C124.971827,178.580117 125.372635,178.74035 125.853604,178.900584 C126.094088,178.9807 126.254411,179.060817 126.494896,179.140934 C126.895704,179.301167 127.296511,179.381284 127.697319,179.541517 C127.937804,179.621634 128.098127,179.70175 128.338611,179.781867 C128.81958,179.942101 129.30055,180.102334 129.86168,180.262567 C129.941842,180.262567 130.102165,180.342684 130.182326,180.342684 C130.823619,180.502917 131.384749,180.743268 132.026042,180.903501 C132.186365,180.983618 132.426849,180.983618 132.587172,181.063734 C132.98798,181.223968 133.468949,181.304084 133.869757,181.464318 C134.110241,181.544434 134.270565,181.624551 134.511049,181.624551 C134.911857,181.784785 135.392826,181.864901 135.793634,182.025135 C135.953957,182.105251 136.194441,182.105251 136.354764,182.185368 C136.996057,182.345601 137.557187,182.505835 138.19848,182.746185 C138.278641,182.746185 138.358803,182.826302 138.438964,182.826302 C139.000095,182.986535 139.481064,183.146768 140.042195,183.307002 C140.282679,183.387119 140.443002,183.387119 140.683487,183.467235 C141.084295,183.547352 141.565264,183.707585 141.966072,183.787702 C142.206556,183.867819 142.366879,183.867819 142.607364,183.947935 C143.088333,184.108169 143.569302,184.188285 144.050271,184.348519 C144.210594,184.348519 144.290756,184.428636 144.451079,184.428636 C145.01221,184.588869 145.653502,184.749102 146.214633,184.909336 C146.374956,184.989452 146.535279,184.989452 146.695602,184.989452 C147.09641,185.069569 147.577379,185.229803 147.978186,185.309919 C148.138509,185.390036 148.378994,185.390036 148.539317,185.470153 C148.940125,185.550269 149.340932,185.630386 149.74174,185.790619 C149.902063,185.870736 150.142548,185.870736 150.302871,185.950853 C150.864001,186.111086 151.425132,186.191203 151.906101,186.351436 C151.906101,186.351436 151.906101,186.351436 151.906101,186.351436 C152.547394,186.51167 153.108524,186.591786 153.669655,186.75202 C154.230786,186.832136 154.711755,186.99237 155.192724,187.072487 C155.353047,187.072487 155.51337,187.152603 155.593532,187.152603 C155.994339,187.23272 156.314986,187.312837 156.715793,187.312837 C156.876116,187.312837 157.036439,187.392953 157.116601,187.392953 C158.078539,187.553187 158.960316,187.71342 159.842093,187.793537 C160.002416,187.793537 160.082578,187.793537 160.242901,187.873654 C160.563547,187.873654 160.884193,187.95377 161.204839,187.95377 C161.285001,187.95377 161.445324,187.95377 161.525485,187.95377 C161.926293,187.95377 162.3271,188.033887 162.647747,188.033887 C165.132754,188.19412 167.216954,188.114004 169.060669,187.95377 C169.701961,187.873654 170.263092,187.793537 170.824223,187.71342 C170.824223,187.71342 170.824223,187.71342 170.824223,187.71342 C171.385353,187.633303 171.946484,187.553187 172.507615,187.392953 C173.30923,187.23272 174.110845,187.072487 174.912461,186.912253 C174.912461,186.912253 174.912461,186.912253 174.912461,186.912253 C175.313268,186.832136 175.633915,186.75202 176.034722,186.671903 C176.836338,186.51167 177.637953,186.27132 178.439568,186.111086 C178.51973,186.111086 178.599891,186.03097 178.760214,186.03097 C179.56183,185.870736 180.363445,185.710503 181.16506,185.550269 C181.245222,185.550269 181.405545,185.550269 181.485706,185.470153 C181.886514,185.390036 182.367483,185.309919 182.768291,185.229803 C182.768291,185.229803 182.768291,185.229803 182.768291,185.229803 C183.24926,185.149686 183.650068,185.149686 184.131037,185.069569 C184.29136,185.069569 184.371521,185.069569 184.531845,184.989452 C185.012814,184.909336 185.493783,184.909336 186.054914,184.829219 C186.054914,184.829219 186.054914,184.829219 186.054914,184.829219 C186.455721,184.829219 186.856529,184.749102 187.177175,184.749102 C187.337498,184.749102 187.41766,184.749102 187.577983,184.749102 C187.818467,184.749102 188.139113,184.749102 188.379598,184.749102 C188.539921,184.749102 188.700244,184.749102 188.860567,184.749102 C189.101052,184.749102 189.421698,184.749102 189.662183,184.749102 C189.822506,184.749102 190.06299,184.749102 190.223313,184.749102 C190.463798,184.749102 190.784444,184.749102 191.024929,184.749102 C191.185252,184.749102 191.425736,184.749102 191.586059,184.749102 C191.906705,184.749102 192.14719,184.749102 192.467836,184.749102 C192.628159,184.749102 192.868644,184.749102 193.028967,184.749102 C193.349613,184.749102 193.670259,184.749102 194.071067,184.749102 C194.23139,184.749102 194.391713,184.749102 194.632197,184.749102 C195.193328,184.749102 195.674297,184.829219 196.235428,184.829219 C196.956882,184.909336 197.758497,184.909336 198.560112,184.989452 C198.96092,184.989452 199.281566,185.069569 199.682374,185.069569 C200.163343,185.069569 200.644312,185.149686 201.125281,185.149686 C202.968997,185.229803 204.892873,185.390036 206.81675,185.470153 C209.862888,185.630386 212.909027,185.790619 215.794842,185.950853 C218.680657,186.111086 221.566472,186.191203 224.211802,186.351436 L226.937294,186.51167 C238.72104,187.23272 275.034213,191.639138 275.034213,191.639138 C275.034213,191.639138 322.650163,194.763689 338.522146,194.443223 C372.350312,193.802289 428.543545,189.075404 444.014721,190.277154 C444.014721,190.277154 455.638143,191.959605 459.325573,185.309919 C462.692357,183.547352 470.067218,178.419883 478.484179,172.010548 L478.484179,156.227558 L478.644502,156.227558 Z" id="XMLID_6_" fill="#FACCDB"></path>
                            <path d="M478.644502,115.528276 C468.624311,120.415395 452.912651,120.655745 452.912651,120.655745 C439.525675,123.379713 464.776557,129.468582 474.155456,127.065081 C475.598364,126.664497 477.121433,126.183797 478.644502,125.542864 L478.644502,115.528276 Z" id="XMLID_8_" fill="#FACCDB"></path>
                            <g id="XMLID_16_" transform="translate(433.673883, 161.034560)" fill="#FACCDB">
                                <path d="M0.561130718,9.85435368 C0.561130718,9.85435368 0.561130718,9.77423699 0.561130718,9.5338869 C0.561130718,9.3736535 0.561130718,9.13330341 0.641292249,8.81283663 C0.72145378,8.17190305 0.961938373,7.29061939 1.44290756,6.24910233 C1.68339215,5.76840216 2.00403828,5.20758528 2.40484593,4.6467684 C2.80565359,4.08595153 3.28662277,3.60525135 3.92791502,3.12455117 C4.48904574,2.64385099 5.21049952,2.2432675 5.9319533,1.92280072 C6.09227636,1.84268402 6.33276095,1.76256733 6.49308402,1.68245063 L6.81373014,1.60233393 L7.05421473,1.52221724 C7.37486086,1.44210054 7.69550698,1.28186715 8.01615311,1.20175045 C8.73760689,1.04151706 9.5392222,0.881283663 10.1805144,0.801166966 C10.9019682,0.721050269 11.623422,0.640933573 12.3448758,0.721050269 C13.0663296,0.721050269 13.7877833,0.801166966 14.4290756,0.961400359 C15.0703678,1.12163375 15.7116601,1.36198384 16.2727908,1.60233393 C17.3148907,2.16315081 18.116506,2.80408438 18.5173137,3.20466786 C18.9181213,3.68536804 19.1586059,3.92571813 19.1586059,3.92571813 C19.5594136,4.32630162 19.4792521,4.96723519 19.1586059,5.28770198 C18.8379598,5.60816876 18.3569906,5.60816876 17.956183,5.44793537 L17.956183,5.44793537 C17.956183,5.44793537 17.6355368,5.28770198 17.1545677,4.96723519 C16.9140831,4.8070018 16.6735985,4.6467684 16.2727908,4.48653501 C15.9521447,4.32630162 15.6314986,4.16606822 15.1505294,4.08595153 C14.7497217,3.92571813 14.2687525,3.84560144 13.7877833,3.76548474 C13.3068142,3.76548474 12.825845,3.68536804 12.2647143,3.68536804 C11.7035835,3.68536804 11.1424528,3.76548474 10.5813221,3.92571813 C9.94002985,4.00583483 9.37889914,4.16606822 8.81776842,4.32630162 C8.49712229,4.40641831 8.17647617,4.48653501 7.85583005,4.6467684 L7.61534545,4.7268851 C7.61534545,4.7268851 7.53518392,4.7268851 7.45502239,4.8070018 C7.29469933,4.88711849 7.2145378,4.88711849 7.05421473,4.96723519 C6.57324555,5.20758528 6.09227636,5.44793537 5.69146871,5.76840216 C4.80969186,6.32921903 4.08823808,7.0502693 3.52710737,7.77131957 C2.88581512,8.49236984 2.40484593,9.13330341 2.08419981,9.5338869 C1.76355368,10.0145871 1.52306909,10.2549372 1.52306909,10.2549372 L1.52306909,10.2549372 C1.36274603,10.4952873 0.961938373,10.575404 0.72145378,10.4151706 C0.641292249,10.1748205 0.561130718,10.0145871 0.561130718,9.85435368 Z" id="XMLID_222_"></path>
                            </g>
                        </g>
                    </g>
                </g>
            </g>
        </g>
    </g>
</svg>