<?xml version="1.0" encoding="UTF-8"?>
<svg width="153px" height="549px" viewBox="0 0 153 549" version="1.1" xmlns="http://www.w3.org/2000/svg" xmlns:xlink="http://www.w3.org/1999/xlink">
    <!-- Generator: Sketch 46.2 (44496) - http://www.bohemiancoding.com/sketch -->
    <title>goat</title>
    <desc>Created with Sketch.</desc>
    <defs></defs>
    <g id="Page-1" stroke="none" stroke-width="1" fill="none" fill-rule="evenodd">
        <g id="Desktop" transform="translate(-436.000000, -2431.000000)" fill-rule="nonzero">
            <g id="Group-5" transform="translate(-63.000000, 2385.000000)">
                <g id="goat" transform="translate(499.000000, 46.000000)">
                    <g id="XMLID_220_" transform="translate(14.000000, 519.000000)" fill="#937D6F">
                        <path d="M6.9,25.9 C6.9,25.9 13.8,23.7 19.5,25.6 C25.2,27.4 24.5,12.4 21.6,8.3 C18.7,4.1 14.7,-0.7 11.4,0.5 C8.1,1.8 -1.40998324e-14,4 0.8,11 C1.5,18 6.9,25.9 6.9,25.9 Z" id="XMLID_221_"></path>
                    </g>
                    <g id="XMLID_218_" transform="translate(0.000000, 507.000000)" fill="#B09584">
                        <path d="M4.6,6.5 C4.6,6.5 1.7,16.3 0.8,24.3 C-0.1,32.3 3.3,38.8 10.8,40.7 C18.4,42.6 22.5,41.1 22.5,41.1 C22.5,41.1 20.9,32 21.1,27.9 C21.2,23.8 22.2,14.8 26.7,15 C31.2,15.2 32.2,24.6 31.9,28.3 C31.6,32 31,41.2 31,41.2 C31,41.2 37,41.8 45.6,37.8 C54.2,33.8 53.1,25.1 52.6,22.4 C52.2,19.7 50,10.6 48,6.5 C46.3,3 45.3,0.8 45.3,0.8 C45.3,0.8 8.1,0.1 4.6,6.5 Z" id="XMLID_219_"></path>
                    </g>
                    <g id="XMLID_216_" transform="translate(42.000000, 507.000000)" fill="#937D6F">
                        <path d="M6,6.5 C4.3,3 3.3,0.8 3.3,0.8 C3.3,0.8 3.3,0.8 3.3,0.8 L0.5,2.9 C0.5,2.9 6.4,14.8 6.7,22.4 C7,28.7 7.1,33 5,37.1 C12.2,32.9 11.1,24.9 10.7,22.4 C10.1,19.8 8,10.7 6,6.5 Z" id="XMLID_217_"></path>
                    </g>
                    <g id="XMLID_214_" transform="translate(2.000000, 336.000000)" fill="#FFFFFF">
                        <path d="M7.9,1.6 C7.9,1.6 5.7,29.2 8.3,46.9 C11,64.5 13.2,73.4 11.2,82.8 C9.2,92.2 6.1,99.1 6.7,115.3 C7.4,131.6 5.4,134.9 2,143.8 C-1.3,152.7 0.9,171.9 2.4,177.5 C2.4,177.5 29.4,182.2 43,172.6 C43,172.6 45.2,165.2 43.7,155 C42.1,144.7 37.7,140.5 40.1,131.1 C42.6,121.7 43,111.5 42.8,105.2 C42.6,99 41.7,93.4 45.5,86 C49.3,78.6 57.8,67.7 61.1,58.8 C64.6,50 26.9,-7 7.9,1.6 Z" id="XMLID_215_"></path>
                    </g>
                    <g id="XMLID_212_" transform="translate(0.000000, 509.000000)" fill="#937D6F">
                        <path d="M4.6,4.5 C4.6,4.5 1.7,14.3 0.8,22.3 C-0.1,30.3 3.3,36.8 10.8,38.7 C12.3,39.1 13.6,39.3 14.9,39.5 C13.2,38.1 9.8,35.2 8.7,32 C6.6,26 7.4,21.1 9.5,15.2 C11.5,9.4 15.1,5.3 15.1,5.3 L12.1,0.9 C8.3,1.8 5.4,3 4.6,4.5 Z" id="XMLID_213_"></path>
                    </g>
                    <g id="XMLID_210_" transform="translate(2.000000, 336.000000)" fill="#F7E5E6">
                        <path d="M7.9,1.6 C7.9,1.6 5.7,29.2 8.3,46.9 C11,64.5 13.2,73.4 11.2,82.8 C9.2,92.2 6.1,99.1 6.7,115.3 C7.4,131.6 5.4,134.9 2,143.8 C-1.3,152.7 0.9,171.9 2.4,177.5 C2.4,177.5 7.3,178.3 13.9,178.6 C8,154.3 11,133.6 13.1,128.7 C15.3,123.6 12.7,121.1 11.8,111.1 C10.9,101.1 15.6,86.1 17.4,83.5 C19.2,80.8 23.6,79.7 21.9,72.6 C20.1,65.5 19.7,57 22.1,54.8 C24.6,52.6 27,54.6 36.1,60.6 C42.9,65.1 52.9,66.2 57.5,66.5 C58.9,63.9 60.2,61.4 61.1,59 C64.6,50 26.9,-7 7.9,1.6 Z" id="XMLID_211_"></path>
                    </g>
                    <g id="XMLID_208_" transform="translate(113.000000, 519.000000)" fill="#937D6F">
                        <path d="M17.4,25.9 C17.4,25.9 10.5,23.7 4.8,25.6 C-0.9,27.4 -0.2,12.4 2.7,8.3 C5.6,4.1 9.6,-0.7 12.9,0.5 C16.2,1.8 24.3,4 23.5,11 C22.8,18 17.4,25.9 17.4,25.9 Z" id="XMLID_209_"></path>
                    </g>
                    <g id="XMLID_206_" transform="translate(98.000000, 507.000000)" fill="#B09584">
                        <path d="M48.7,6.5 C48.7,6.5 51.6,16.3 52.5,24.3 C53.4,32.3 50,38.8 42.5,40.7 C34.9,42.6 30.8,41.1 30.8,41.1 C30.8,41.1 32.4,32 32.2,27.9 C32.1,23.8 31.1,14.8 26.6,15 C22.1,15.2 21.1,24.6 21.4,28.3 C21.7,32 22.3,41.2 22.3,41.2 C22.3,41.2 16.3,41.8 7.7,37.8 C-0.9,33.8 0.2,25.1 0.7,22.4 C1.1,19.7 3.3,10.6 5.3,6.5 C7,3 8,0.8 8,0.8 C8,0.8 45.2,0.1 48.7,6.5 Z" id="XMLID_207_"></path>
                    </g>
                    <g id="XMLID_204_" transform="translate(98.000000, 507.000000)" fill="#937D6F">
                        <path d="M5.3,6.5 C7,3 8,0.8 8,0.8 C8,0.8 8,0.8 8,0.8 L10.8,2.9 C10.8,2.9 4.9,14.8 4.6,22.4 C4.3,28.7 4.2,33 6.3,37.1 C-0.9,32.9 0.2,24.9 0.6,22.4 C1.1,19.8 3.3,10.7 5.3,6.5 Z" id="XMLID_205_"></path>
                    </g>
                    <g id="XMLID_202_" transform="translate(87.000000, 336.000000)" fill="#FFFFFF">
                        <path d="M54.3,1.6 C54.3,1.6 56.5,29.2 53.9,46.9 C51.2,64.5 49,73.4 51,82.8 C53,92.2 56.1,99.1 55.5,115.3 C54.8,131.6 56.8,134.9 60.2,143.8 C63.5,152.7 61.3,171.9 59.8,177.5 C59.8,177.5 32.8,182.2 19.2,172.6 C19.2,172.6 17,165.2 18.5,155 C20.1,144.7 24.5,140.5 22.1,131.1 C19.6,121.7 19.2,111.5 19.4,105.2 C19.6,99 20.5,93.4 16.7,86 C12.9,78.6 4.4,67.7 1.1,58.8 C-2.3,50 35.4,-7 54.3,1.6 Z" id="XMLID_203_"></path>
                    </g>
                    <g id="XMLID_200_" transform="translate(136.000000, 509.000000)" fill="#937D6F">
                        <path d="M10.7,4.5 C10.7,4.5 13.6,14.3 14.5,22.3 C15.4,30.3 12,36.8 4.5,38.7 C3,39.1 1.7,39.3 0.4,39.5 C2.1,38.1 5.5,35.2 6.6,32 C8.7,26 7.9,21.1 5.8,15.2 C3.8,9.4 0.2,5.3 0.2,5.3 L3.2,0.9 C7,1.8 9.8,3 10.7,4.5 Z" id="XMLID_201_"></path>
                    </g>
                    <g id="XMLID_198_" transform="translate(87.000000, 336.000000)" fill="#F7E5E6">
                        <path d="M54.3,1.6 C54.3,1.6 56.5,29.2 53.9,46.9 C51.2,64.5 49,73.4 51,82.8 C53,92.2 56.1,99.1 55.5,115.3 C54.8,131.6 56.8,134.9 60.2,143.8 C63.5,152.7 61.3,171.9 59.8,177.5 C59.8,177.5 54.9,178.3 48.3,178.6 C54.2,154.3 51.2,133.6 49.1,128.7 C46.9,123.6 49.5,121.1 50.4,111.1 C51.3,101.1 46.6,86.1 44.8,83.5 C43,80.8 38.6,79.7 40.3,72.6 C42.1,65.5 42.5,57 40.1,54.8 C37.6,52.6 35.2,54.6 26.1,60.6 C19.3,65.1 9.3,66.2 4.7,66.5 C3.3,63.9 2,61.4 1.1,59 C-2.3,50 35.4,-7 54.3,1.6 Z" id="XMLID_199_"></path>
                    </g>
                    <g id="XMLID_196_" transform="translate(87.000000, 389.000000)" fill="#F7E5E6">
                        <path d="M19.1,119.6 C20,120.2 20.9,120.7 21.8,121.2 C20.4,111.5 22.2,99.6 22.3,96.8 C22.4,94 25,87.7 25.5,84.4 C26.1,81.2 24.9,78.6 23.8,74.5 C22.7,70.4 21.5,59.8 21.3,55.3 C21.2,50.8 23,43.3 21.7,37.5 C20.5,31.7 15.6,25.7 12.9,22 C10.2,18.3 8.7,14.8 9.3,13.9 C9.9,13.1 13.1,12.3 13.1,12.3 L1.8,0 C0.9,2.7 0.6,4.8 1.1,6 C4.4,14.9 12.9,25.8 16.7,33.2 C20.5,40.6 19.6,46.1 19.4,52.4 C19.2,58.6 19.6,68.9 22.1,78.3 C24.6,87.7 20.1,91.9 18.5,102.2 C16.9,112.3 19.1,119.6 19.1,119.6 Z" id="XMLID_197_"></path>
                    </g>
                    <g id="XMLID_194_" transform="translate(7.000000, 186.000000)" fill="#FFFFFF">
                        <path d="M135.4,117 C131.3,87 121.7,56.7 118.4,44.9 C115.1,33.1 106.9,2.3 106.9,2.3 C106.9,2.3 106.8,2.3 103.9,1.7 C94.6,-0.2 80.4,0.1 72.7,0.4 C71.4,0.3 70,0.3 68.4,0.3 L68.4,0.3 C68.4,0.3 68.4,0.3 68.4,0.3 C68.4,0.3 68.4,0.3 68.4,0.3 L68.4,0.3 C66.8,0.3 65.4,0.4 64.1,0.4 C56.4,0.1 42.3,-0.2 32.9,1.7 C30,2.3 29.9,2.3 29.9,2.3 C29.9,2.3 21.7,33.1 18.4,44.9 C15.1,56.7 5.5,87 1.4,117 C-2.5,145.5 3.7,154.5 9.6,168.2 C15.5,181.9 19.1,197 33.2,206.7 C42.9,213.4 56.5,214.5 64,214.6 L64,214.6 C64,214.6 64,214.6 64,214.6 C64,214.6 64,214.6 64,214.6 L64,214.6 C65.3,214.6 66.7,214.5 68.3,214.5 C69.9,214.6 71.3,214.6 72.6,214.6 L72.6,214.6 C72.6,214.6 72.6,214.6 72.6,214.6 C72.6,214.6 72.6,214.6 72.6,214.6 L72.6,214.6 C80.1,214.5 93.7,213.4 103.4,206.7 C117.5,197 121.1,182 127,168.2 C133.1,154.4 139.3,145.5 135.4,117 Z" id="XMLID_195_"></path>
                    </g>
                    <g id="XMLID_192_" transform="translate(36.000000, 87.000000)" fill="#FFFFFF">
                        <path d="M64,6.4 L39.8,0.4 L39.8,0.2 L39.5,0.3 L39.2,0.2 L39.2,0.4 L15,6.4 C15,6.4 6,76.1 0,105.3 C12,109.9 25.1,112.4 38.7,112.4 C52.9,112.4 66.4,109.7 78.8,104.8 C72.9,75.3 64,6.4 64,6.4" id="XMLID_193_"></path>
                    </g>
                    <g id="XMLID_190_" transform="translate(68.000000, 123.000000)" fill="#FFFFFF">
                        <path d="M10.3,0 L0.3,0.6 C0.3,0.6 1.5,18.5 3.3,27.7 C5.1,36.9 6.5,36.5 10.3,36.4 C13.4,36.4 15.5,36.8 17.3,27.7 C19.1,18.5 20.3,0.6 20.3,0.6 L10.3,0 Z" id="XMLID_191_"></path>
                    </g>
                    <g id="XMLID_188_" transform="translate(65.000000, 111.000000)" fill="#F7E5E6">
                        <path d="M60.4,119.9 C57.8,110.5 52.1,89.2 49.9,80.8 C49.9,80.8 49.9,80.8 49.9,80.8 C45.9,60.9 40.5,23.1 37.5,0.6 L0.2,11.8 C0.2,11.8 1.7,18.2 10,18.8 C18.3,19.5 28.1,13.2 28.1,13.2 C28.1,13.2 29.2,15 30.9,16.2 C32.7,17.4 35.9,21.1 37.7,31.3 C37.7,31.3 43.3,67.3 43.8,74.7 C44.3,82.1 45.6,90.7 44.8,96.5 L49.1,107.2 C49.1,107.2 57.6,138.2 61.6,154.2 C65.6,170.3 71.4,202.8 66.1,219.3 C60.7,235.8 60.7,248.3 54.5,261.2 C48.3,274.1 35.8,289.7 5.5,289.3 L5.6,289.5 C5.8,289.5 6,289.5 6.2,289.5 L6.2,289.5 C6.2,289.5 6.2,289.5 6.2,289.5 C6.2,289.5 6.2,289.5 6.2,289.5 L6.2,289.5 C7.5,289.5 8.9,289.4 10.5,289.4 C12.1,289.5 13.5,289.5 14.8,289.5 L14.8,289.5 C14.8,289.5 14.8,289.5 14.8,289.5 C14.8,289.5 14.8,289.5 14.8,289.5 L14.8,289.5 C22.3,289.4 35.9,288.3 45.6,281.6 C59.7,271.9 63.3,256.9 69.2,243.1 C75.1,229.4 81.3,220.5 77.4,191.9 C73.2,162 63.6,131.7 60.4,119.9 Z" id="XMLID_189_"></path>
                    </g>
                    <g id="XMLID_186_" transform="translate(68.000000, 123.000000)" fill="#F7E5E6">
                        <path d="M20.2,0.7 L16.9,0.6 C16.6,4.6 16.1,17.3 15.7,22.7 C15.3,27.7 14.2,33.5 13.3,34.4 C12.4,35.3 8.9,35.6 7.4,35 C5.9,34.3 4.9,30.4 3.8,21.3 C3,14.3 2.2,4.7 1.6,0.6 L0.2,0.6 C0.2,0.6 1.4,18.5 3.2,27.7 C5,36.9 6.4,36.5 10.2,36.4 C13.3,36.4 15.4,36.8 17.2,27.7 C19,18.6 20.2,0.7 20.2,0.7" id="XMLID_187_"></path>
                    </g>
                    <g id="XMLID_184_" transform="translate(53.000000, 0.000000)" fill="#B09584">
                        <path d="M0.6,16.4 C0.6,16.4 0.2,1.7 4.7,0.6 C9.3,-0.5 13.2,1.4 18.6,13.2 C24,25.1 0.6,16.4 0.6,16.4" id="XMLID_185_"></path>
                    </g>
                    <g id="XMLID_182_" transform="translate(80.000000, 0.000000)" fill="#B09584">
                        <path d="M19.6,16.4 C19.6,16.4 20,1.7 15.5,0.6 C10.9,-0.5 7,1.4 1.6,13.2 C-3.8,25.1 19.6,16.4 19.6,16.4" id="XMLID_183_"></path>
                    </g>
                    <g id="XMLID_180_" transform="translate(91.000000, 1.000000)" fill="#937D6F">
                        <path d="M5.5,0.2 C5.8,3 6.3,10.4 2.2,14 C0.4,15.5 0.8,16.7 2,17.5 C5.6,16.6 8.6,15.5 8.6,15.5 C8.6,15.5 9,3 5.5,0.2" id="XMLID_181_"></path>
                    </g>
                    <g id="XMLID_178_" transform="translate(61.000000, 0.000000)" fill="#937D6F">
                        <path d="M0,0.5 C1.7,2.6 6.3,8.8 4.7,15.2 C3.4,20.3 7.9,19.9 11,17.9 C11.6,16.9 11.5,15.5 10.6,13.3 C6.5,4.4 3.3,1.1 0,0.5" id="XMLID_179_"></path>
                    </g>
                    <g id="XMLID_176_" transform="translate(68.000000, 123.000000)" fill="#F7E5E6">
                        <path d="M20.2,0.7 L10.2,0.1 L0.2,0.7 C0.2,0.7 0.3,2.5 0.5,5.3 C2.9,6.7 6,7.7 9.7,7.8 L9.9,7.8 C14,7.8 16.5,7.6 19.7,6.1 C20,3.6 20.2,0.7 20.2,0.7" id="XMLID_177_"></path>
                    </g>
                    <g id="XMLID_174_" transform="translate(1.000000, 12.000000)" fill="#FFFFFF">
                        <path d="M82.2,0.7 C85.3,0.3 91.5,0.2 95.1,1.9 C98.6,3.7 100.8,4.9 102.5,5.3 C104.1,5.7 111.2,9 113,18.7 C113,18.7 125.5,18.7 133.2,21.4 C140.9,24.1 147.8,29.3 150.6,32.1 C153.3,34.8 152.1,40.1 146,46.7 C139.9,53.3 133,57.5 128.5,56.3 C124,55.1 115.4,49.3 113.8,48 C112.2,46.7 109.2,47.1 108.9,47.9 C108.6,48.7 107.7,64.2 107,69.4 C106.3,74.7 105.8,80.5 102.6,84.3 C99.4,88.1 95.6,95.4 95,99 C94.3,102.5 90.1,115.1 76,115.2 L75.8,115.2 C61.7,115 58,102.5 57.3,99 C56.6,95.5 52.9,88.2 49.7,84.3 C46.5,80.5 46,74.6 45.3,69.4 C44.6,64.1 43.8,48.6 43.4,47.9 C43.1,47.1 40.1,46.7 38.5,48 C36.9,49.3 28.3,55.1 23.8,56.3 C19.3,57.5 12.5,53.3 6.3,46.7 C0.1,40.1 -1.1,34.8 1.7,32.1 C4.4,29.4 11.4,24.2 19.1,21.4 C26.8,18.7 39.3,18.7 39.3,18.7 C41.2,9 48.2,5.7 49.8,5.3 C51.4,4.9 53.6,3.7 57.2,1.9 C60.7,0.1 67,0.1 70.1,0.7 C69.9,0.7 77.1,1.3 82.2,0.7" id="XMLID_175_"></path>
                    </g>
                    <g id="XMLID_170_" transform="translate(42.000000, 33.000000)" fill="#937D6F">
                        <path d="M8.1,22.2 C3.6,22.2 0.4,18 0.4,12.2 C0.4,6.7 3.7,0.8 10.9,0.8 L11,0.8 C12.9,0.8 14.5,1.5 15.8,2.8 C17.5,4.5 18.3,7.3 18.2,10.5 C17.9,17.1 12.6,22.2 8.1,22.2 L8.1,22.2 Z M10.9,2.7 C5,2.7 2.3,7.6 2.3,12.2 C2.3,16.9 4.8,20.4 8.2,20.4 C11.8,20.4 16.2,16 16.4,10.5 C16.5,7.8 15.8,5.5 14.5,4.1 C13.5,3.2 12.3,2.7 10.9,2.7 L10.9,2.7 Z" id="XMLID_171_"></path>
                    </g>
                    <g id="XMLID_168_" transform="translate(84.000000, 30.000000)" fill="#F7E5E6">
                        <path d="M67.5,14.1 C64.8,11.4 57.8,6.2 50.1,3.4 C44.6,1.4 36.5,0.9 32.5,0.7 L25.6,2.3 C25.6,2.3 19,-0.8 13.7,0.6 C8.4,2 4.6,6.4 4.6,13.5 C4.6,20.7 2,40.6 1,43.7 C-6.66133815e-16,46.8 13.5,50 11,69.1 L11,74.2 C11,74.2 12.7,73.8 15,73.1 C16.4,70.5 18,68 19.5,66.2 C22.7,62.4 23.2,56.5 23.9,51.3 C24.6,46 25.4,30.5 25.8,29.8 C26.1,29 29.1,28.6 30.7,29.9 C32.3,31.2 40.9,37 45.4,38.2 C49.9,39.4 56.7,35.2 62.9,28.6 C69.1,22.1 70.3,16.8 67.5,14.1" id="XMLID_169_"></path>
                    </g>
                    <g id="XMLID_166_" transform="translate(46.000000, 34.000000)" fill="#937D6F">
                        <path d="M13,8.6 C13,12.9 11.9,16.4 6.7,16.4 C3.2,16.4 0.4,12.9 0.4,8.6 C0.4,4.3 3.2,0.8 6.7,0.8 C10.2,0.9 13,4.3 13,8.6" id="XMLID_167_"></path>
                    </g>
                    <g id="XMLID_164_" transform="translate(50.000000, 37.000000)" fill="#F1F3F3">
                        <path d="M3,2.7 C2.6,3.7 1.6,4.2 0.8,3.9 C0.1,3.6 -0.2,2.5 0.3,1.5 C0.7,0.5 1.7,-5.55111512e-17 2.5,0.3 C3.2,0.6 3.4,1.7 3,2.7" id="XMLID_165_"></path>
                    </g>
                    <g id="XMLID_162_" transform="translate(49.000000, 43.000000)" fill="#F1F3F3">
                        <path d="M4.1,2.8 C4.3,4.2 3.5,5.4 2.5,5.5 C1.5,5.6 0.5,4.6 0.3,3.2 C0.1,1.8 0.9,0.6 1.9,0.5 C2.9,0.4 3.9,1.5 4.1,2.8" id="XMLID_163_"></path>
                    </g>
                    <g id="XMLID_160_" transform="translate(96.000000, 36.000000)" fill="#F1F3F3">
                        <path d="M14.4,9.2 C14.4,14.1 11.4,18.2 7.6,18.2 C3.8,18.2 0.8,14.2 0.8,9.2 C0.8,4.3 3.8,0.2 7.6,0.2 C11.4,0.3 14.4,4.3 14.4,9.2" id="XMLID_161_"></path>
                    </g>
                    <g id="XMLID_156_" transform="translate(94.000000, 33.000000)" fill="#937D6F">
                        <path d="M10.2,22.2 C5.7,22.2 0.4,17.1 0.2,10.5 C0.1,7.2 1,4.5 2.6,2.8 C3.8,1.5 5.5,0.8 7.4,0.8 L7.5,0.8 C14.7,0.8 18,6.7 18,12.2 C17.9,18 14.6,22.2 10.2,22.2 M7.4,2.7 L7.4,2.7 C5.9,2.7 4.8,3.2 3.9,4.1 C2.6,5.5 1.9,7.8 2,10.5 C2.2,16 6.6,20.4 10.2,20.4 C13.6,20.4 16.1,17 16.1,12.2 C16,7.6 13.3,2.7 7.4,2.7" id="XMLID_157_"></path>
                    </g>
                    <g id="XMLID_154_" transform="translate(95.000000, 34.000000)" fill="#937D6F">
                        <path d="M0.2,8.6 C0.2,12.9 1.3,16.4 6.5,16.4 C10,16.4 12.8,12.9 12.8,8.6 C12.8,4.3 10,0.8 6.5,0.8 C3.1,0.9 0.2,4.3 0.2,8.6" id="XMLID_155_"></path>
                    </g>
                    <g id="XMLID_152_" transform="translate(88.000000, 59.000000)" fill="#F7E5E6">
                        <path d="M21.8,0.8 C21,1.4 18.4,3.4 18,5 C17.6,6.9 17.6,22 16.4,27.4 C15.2,32.8 8.9,41.3 7.8,44.5 C6.6,47.7 0.2,53.6 0.2,53.6 C0.2,53.6 -0.3,59.5 2.2,62.7 C6,58.8 7.5,53.9 7.9,51.9 C8.6,48.4 12.3,41.1 15.5,37.2 C18.7,33.4 19.2,27.5 19.9,22.3 C20.6,17.1 21.5,1.6 21.8,0.8 C21.8,0.8 21.8,0.8 21.8,0.8" id="XMLID_153_"></path>
                    </g>
                    <g id="XMLID_150_" transform="translate(101.000000, 37.000000)" fill="#F1F3F3">
                        <path d="M0.3,2.7 C0.7,3.7 1.7,4.2 2.5,3.9 C3.2,3.6 3.5,2.5 3,1.5 C2.6,0.5 1.6,-5.55111512e-17 0.8,0.3 C0.1,0.6 -0.1,1.7 0.3,2.7" id="XMLID_151_"></path>
                    </g>
                    <g id="XMLID_148_" transform="translate(101.000000, 43.000000)" fill="#F1F3F3">
                        <path d="M0.2,2.8 C-1.11022302e-16,4.2 0.8,5.4 1.8,5.5 C2.8,5.6 3.8,4.6 4,3.2 C4.2,1.8 3.4,0.6 2.4,0.5 C1.3,0.4 0.3,1.5 0.2,2.8" id="XMLID_149_"></path>
                    </g>
                    <g id="XMLID_146_" transform="translate(67.000000, 85.000000)" fill="#FDE5E5">
                        <path d="M4.4,5.5 C4.4,8.1 3.5,10.3 2.3,10.3 C1.1,10.3 0.2,8.2 0.2,5.5 C0.2,2.9 1.1,0.7 2.3,0.7 C3.4,0.8 4.4,2.9 4.4,5.5" id="XMLID_147_"></path>
                    </g>
                    <g id="XMLID_144_" transform="translate(83.000000, 85.000000)" fill="#FDE5E5">
                        <path d="M4.7,5.5 C4.7,8.1 3.8,10.3 2.6,10.3 C1.4,10.3 0.5,8.2 0.5,5.5 C0.5,2.9 1.4,0.7 2.6,0.7 C3.7,0.8 4.7,2.9 4.7,5.5" id="XMLID_145_"></path>
                    </g>
                    <g id="XMLID_142_" transform="translate(5.000000, 47.000000)" fill="#FDE5E5">
                        <path d="M31.1,6.7 C31.1,6.7 27.9,1.8 23.4,0.9 C18.9,1.11022302e-16 13.1,1.5 10.7,1.6 C8.3,1.7 2.9,1.7 1.4,1.4 C-0.1,1.2 0.1,5.8 5.2,9 C10.3,12.2 14.4,14 21.4,12.1 C28.4,10.3 31,8.4 31.1,6.7" id="XMLID_143_"></path>
                    </g>
                    <g id="XMLID_140_" transform="translate(63.000000, 102.000000)" fill="#FACCDB">
                        <path d="M0.3,6.8 L0.8,1.4 C0.8,1.4 6.4,2.1 8.8,1.6 C11.1,1.1 13.2,0.3 15.7,0.7 C18.1,1.1 24.4,1.8 24.8,1.8 C25.3,1.8 27.8,7.1 27.9,7.4 C28,7.7 24.3,12.3 22.7,12.8 C21.1,13.3 10.3,14.7 6.7,13 C3.1,11.3 1.1,9.1 1.1,8.7 C1,8.1 0.3,6.8 0.3,6.8" id="XMLID_141_"></path>
                    </g>
                    <g id="XMLID_138_" transform="translate(54.000000, 82.000000)" fill="#FDE5E5">
                        <path d="M14,22.5 C10.3,22.5 6,21.7 4.1,18.8 C1.5,14.8 0.3,2.5 0.2,1.9 C0.2,1.4 0.5,0.9 1,0.9 C1.5,0.9 2,1.2 2,1.7 C2,1.8 3.2,14.1 5.6,17.7 C7.8,21 15.1,20.8 18.4,20.2 C21.5,19.6 22.3,19.5 22.4,19.5 L23.4,19.5 C23.6,19.5 24.3,19.5 27.4,20.2 C30.6,20.8 38,21.1 40.2,17.7 C42.2,14.7 43.5,5.1 43.8,1.7 C43.8,1.2 44.3,0.8 44.8,0.9 C45.3,0.9 45.7,1.4 45.6,1.9 C45.5,2.4 44.3,14.8 41.7,18.8 C38.7,23.3 30.1,22.7 27,22.1 C24,21.5 23.3,21.5 23.3,21.5 L22.3,21.5 C22.3,21.5 21.7,21.5 18.6,22.1 C17.6,22.3 15.9,22.5 14,22.5" id="XMLID_139_"></path>
                    </g>
                    <g id="XMLID_136_" transform="translate(65.000000, 107.000000)" fill="#FFFFFF">
                        <path d="M1,2.9 C1,2.9 0.9,0.9 1.5,0.5 C2.2,0.1 5.9,3.8 12.7,3.5 C19.6,3.2 21.9,1.2 21.9,1.2 C21.9,1.2 24.3,4.5 23.2,5.6 C22.1,6.7 17.9,9.8 13.6,8.9 C9.3,8 2.4,6.7 2.1,6.1" id="XMLID_137_"></path>
                    </g>
                    <g id="XMLID_134_" transform="translate(59.000000, 101.000000)" fill="#FDE5E5">
                        <path d="M29.9,2.6 C29.9,2.6 31.9,5.6 29,9.1 C26.2,12.5 18.5,12.6 18.1,12.6 C17.7,12.6 10.1,12.5 7.3,9.1 C4.4,5.6 6.4,2.6 6.4,2.6 C6.4,2.6 1.9,1.6 0.7,0.8 C0.7,0.8 2.5,6.3 3.2,9.3 C3.9,12.3 7.7,16.9 18.1,16.7 C28.6,17 32.4,12.3 33.1,9.3 C33.8,6.3 35.6,0.8 35.6,0.8 C34.4,1.6 29.9,2.6 29.9,2.6" id="XMLID_135_"></path>
                    </g>
                    <g id="XMLID_132_" transform="translate(84.000000, 101.000000)" fill="#F16056">
                        <path d="M19.8,10.6 C19,8.9 12.9,2.8 11.6,0 C9.8,2.5 6.1,3.4 2.8,3.5 C2,3.7 0.9,3.5 0.3,3.4 C0.3,3.4 4.4,12.1 5.3,14.6 C6.2,17.1 9.8,22.4 15.9,21.2 C21.9,20 20.7,12.5 19.8,10.6" id="XMLID_133_"></path>
                    </g>
                    <g id="XMLID_130_" transform="translate(37.000000, 176.000000)" fill="#937D6F">
                        <path d="M1.9,0.7 C1.5,3.3 1,5.7 0.6,8.1 C12.5,12.3 25,14.4 37.8,14.4 C51.1,14.4 64,12.1 76.4,7.6 C76,5.3 75.6,2.8 75.1,0.2 C63.2,4.7 50.7,7 37.8,7 C25.4,7 13.4,4.9 1.9,0.7 Z" id="XMLID_131_"></path>
                    </g>
                    <g id="XMLID_128_" transform="translate(69.000000, 12.000000)" fill="#F7E5E6">
                        <path d="M65.2,21.4 C57.5,18.7 45,18.7 45,18.7 C43.1,9 36.1,5.7 34.5,5.3 C32.9,4.9 30.7,3.7 27.1,1.9 C23.6,0.1 17.3,0.3 14.2,0.7 C9.1,1.4 1.9,0.7 1.9,0.7 C1.5,0.6 1,0.6 0.5,0.5 C1.6,0.7 8,1.9 12,2.4 C16.4,2.9 22.5,2.1 27,4.9 C31.4,7.7 34.8,8.4 36.5,9.8 C38.1,11.2 41.2,17.1 40.4,20.5 C40.4,20.5 52.3,20.4 61.4,23.5 C70.1,26.4 79.8,30.1 83.8,37.4 C84.3,35.2 83.8,33.5 82.6,32.3 C79.8,29.3 72.9,24.2 65.2,21.4" id="XMLID_129_"></path>
                    </g>
                    <g id="XMLID_126_" transform="translate(87.000000, 106.000000)" fill="#F58964">
                        <path d="M10.6,14.8 C7.1,14.8 4.5,11.6 3.3,8.6 C2.4,6.5 0.4,1.4 0.4,1.3 C0.2,0.8 0.5,0.3 0.9,0.1 C1.4,-0.1 1.9,0.1 2.1,0.6 C2.1,0.7 4.1,5.8 5,7.8 C6.1,10.4 8.3,13.3 11.2,12.8 C11.7,12.7 12.2,13.1 12.3,13.6 C12.4,14.1 12,14.6 11.5,14.7 C11.3,14.8 10.9,14.8 10.6,14.8" id="XMLID_127_"></path>
                    </g>
                    <g id="XMLID_124_" transform="translate(6.000000, 47.000000)" fill="#FACCDB">
                        <path d="M22.4,1 C17.9,0.1 12.1,1.6 9.7,1.7 C7.3,1.8 1.9,1.8 0.4,1.5 C0.3,1.5 0.2,1.5 0.1,1.5 C1.4,2.3 4.3,3.5 9.9,3.4 C18.1,3.2 26.8,5.7 26.4,10.1 C29,8.9 30.1,7.8 30.2,6.7 C30.1,6.7 26.9,1.9 22.4,1" id="XMLID_125_"></path>
                    </g>
                    <g id="XMLID_122_" transform="translate(117.000000, 47.000000)" fill="#FACCDB">
                        <path d="M0.9,6.7 C0.9,6.7 4.1,1.8 8.6,0.9 C13.1,1.11022302e-16 18.9,1.5 21.3,1.6 C23.7,1.7 29.1,1.7 30.6,1.4 C32.1,1.2 31.9,5.8 26.8,9 C21.7,12.2 17.6,14 10.6,12.1 C3.7,10.3 1.1,8.4 0.9,6.7" id="XMLID_123_"></path>
                    </g>
                    <g id="XMLID_120_" transform="translate(73.000000, 144.000000)" fill="#F7E5E6">
                        <path d="M2.1,14 C2.1,14 0.9,9.2 0.7,2.4 C0.5,-4.4 2,10.8 4.3,15.1" id="XMLID_121_"></path>
                    </g>
                    <g id="XMLID_118_" transform="translate(79.000000, 144.000000)" fill="#F7E5E6">
                        <path d="M0.1,15 C2.4,10.7 3.9,-4.5 3.7,2.3 C3.5,9.1 2.3,13.9 2.3,13.9" id="XMLID_119_"></path>
                    </g>
                    <g id="XMLID_116_" transform="translate(77.000000, 142.000000)" fill="#F7E5E6">
                        <path d="M0.4,16.9 C0.4,16.9 0.3,3.9 0.6,1.2 C0.9,-1.5 1.7,7.4 2.1,16.9" id="XMLID_117_"></path>
                    </g>
                    <g id="XMLID_114_" transform="translate(36.000000, 200.000000)" fill="#F7E5E6">
                        <path d="M5.3,0 C5.3,0 4.5,6.6 8.7,20.9 C12.9,35.2 18.8,58.8 19.6,81 L16.5,82.8 C16.5,82.8 15.6,66.4 13.1,55.9 C10.5,45.3 5.1,32.6 2,20.8 C-1.1,8.9 -0.1,3.7 5.3,0 Z" id="XMLID_115_"></path>
                    </g>
                    <g id="XMLID_112_" transform="translate(95.000000, 200.000000)" fill="#F7E5E6">
                        <path d="M15,0.5 C15,0.5 15.8,7.1 11.6,21.4 C7.4,35.7 1.5,59.3 0.7,81.5 L3.8,83.3 C3.8,83.3 4.7,66.9 7.2,56.4 C9.8,45.8 15.2,33.1 18.3,21.3 C21.4,9.3 20.5,4.2 15,0.5 Z" id="XMLID_113_"></path>
                    </g>
                    <g id="XMLID_110_" transform="translate(98.000000, 217.000000)" fill="#F7E5E6">
                        <path d="M4.8,71.4 C4.8,71.4 4.5,62.9 6.1,52.5 C7.7,42.1 18.2,15.4 18.7,5.6 C19.1,-4.2 13.3,3.4 13.3,5.3 C13.3,7.2 7.2,26.8 6.9,27.6 C6.7,28.4 2,47.6 2,47.9 C2,48.2 0.7,63.6 0.7,63.6 L0.9,70.1" id="XMLID_111_"></path>
                    </g>
                    <g id="XMLID_108_" transform="translate(73.000000, 209.000000)" fill="#F7E5E6">
                        <path d="M1.2,74.1 C1.2,74.1 0.8,21 1,15.9 C1.2,10.8 2.6,-15.4 3.9,14 C5.1,41.2 4.5,74.5 4.5,74.5" id="XMLID_109_"></path>
                    </g>
                    <g id="XMLID_106_" transform="translate(55.000000, 283.000000)" fill="#F7E5E6">
                        <path d="M49.4,18.6 C49.4,18.5 49.3,18.4 49.3,18.2 L48,4.4 C48,4.2 47.9,4 47.7,3.9 C43.8,1.5 39.8,0.3 35.9,0.3 C29.9,0.3 25.4,3.1 24.6,3.7 C20.8,1.5 17,0.3 13.2,0.3 C6.6,0.3 1.9,3.6 1.7,3.8 C1.5,3.9 1.4,4.1 1.4,4.3 L0.6,18.2 C0.6,18.3 0.5,18.5 0.5,18.6 C0.3,21.9 7.2,23.4 13.7,23.4 C18.1,23.4 22.6,22.7 25,21.2 C27.4,22.7 32,23.4 36.4,23.4 C42.8,23.4 49.7,21.9 49.4,18.6 Z" id="XMLID_107_"></path>
                    </g>
                    <g id="XMLID_85_" transform="translate(73.000000, 277.000000)">
                        <g id="XMLID_101_" fill="#B09584">
                            <g id="XMLID_102_">
                                <path d="M1.7,21.5 C1.5,21.5 1.4,21.5 1.2,21.4 C1,21.3 0.9,21 0.9,20.8 L1.9,5.1 C1.9,4.9 2,4.7 2.2,4.6 C2.4,4.4 7.5,0.9 14.6,0.9 C18.9,0.9 23.1,2.2 27.4,4.8 C27.6,4.9 27.7,5.1 27.8,5.3 L29.3,20.8 C29.3,21.1 29.2,21.3 29,21.5 C28.8,21.6 28.5,21.7 28.2,21.6 C28.1,21.6 22.7,19.4 15.1,19.4 C10.6,19.4 6.2,20.1 2,21.6 C1.9,21.5 1.8,21.5 1.7,21.5 Z M3.3,5.3 L2.6,19.6 C6.7,18.3 10.8,17.7 15.1,17.7 C21,17.7 25.5,18.9 27.5,19.6 L26.3,5.5 C22.4,3.2 18.5,2 14.6,2 C8.8,2 4.4,4.6 3.3,5.3 Z" id="XMLID_103_"></path>
                            </g>
                        </g>
                        <g id="XMLID_98_" transform="translate(1.000000, 1.000000)" fill="#B09584">
                            <g id="XMLID_99_">
                                <path d="M1.6,4 C1.6,4 12.7,-4 26,4.2 L27.4,19.7 C27.4,19.7 15.2,14.7 0.7,19.7 L1.6,4 Z" id="XMLID_100_"></path>
                            </g>
                        </g>
                        <g id="XMLID_89_" transform="translate(0.000000, 15.000000)">
                            <g id="XMLID_93_" fill="#B09584">
                                <g id="XMLID_94_">
                                    <path d="M15.2,10.7 C8.2,10.7 0.7,9 0.9,5.5 C1.1,2.1 8.4,0.6 15,0.6 C21.6,0.6 28.9,2.1 29.3,5.5 C29.6,9 22.2,10.7 15.2,10.7 Z M15,2.8 C7,2.8 3.3,4.8 3.3,5.4 C3.3,6 6.9,8.1 15.1,8.1 C23.3,8.1 26.9,6 26.8,5.4 C26.8,4.9 23,2.8 15,2.8 Z" id="XMLID_95_"></path>
                                </g>
                            </g>
                            <g id="XMLID_90_" transform="translate(3.000000, 2.000000)" fill="#937D6F">
                                <g id="XMLID_91_">
                                    <path d="M23.8,3.5 C24,5.4 18.8,7.1 12.2,7.1 C5.6,7.1 0.3,5.5 0.4,3.5 C0.5,1.6 5.7,0.1 12,0.1 C18.4,0.1 23.6,1.6 23.8,3.5 Z" id="XMLID_92_"></path>
                                </g>
                            </g>
                        </g>
                        <g id="XMLID_86_" transform="translate(11.000000, 5.000000)" fill="#937D6F">
                            <g id="XMLID_87_">
                                <path d="M7,13.2 C7.1,14.9 5.7,16.3 3.9,16.3 L3.9,16.3 C2.2,16.3 0.7,14.9 0.7,13.2 L0.7,2.6 C0.7,1.1 2,-5.68434189e-14 3.6,-5.68434189e-14 L3.6,-5.68434189e-14 C5.2,-5.68434189e-14 6.5,1.2 6.6,2.6 L7,13.2 Z" id="XMLID_88_"></path>
                            </g>
                        </g>
                    </g>
                    <g id="XMLID_64_" transform="translate(50.000000, 277.000000)">
                        <g id="XMLID_80_" fill="#B09584">
                            <g id="XMLID_81_">
                                <path d="M1.6,21.5 C1.4,21.5 1.3,21.5 1.1,21.4 C0.9,21.3 0.8,21 0.8,20.8 L1.8,5.1 C1.8,4.9 1.9,4.7 2.1,4.6 C2.3,4.4 7.4,0.9 14.5,0.9 C18.8,0.9 23,2.2 27.3,4.8 C27.5,4.9 27.6,5.1 27.7,5.3 L29.2,20.8 C29.2,21.1 29.1,21.3 28.9,21.5 C28.7,21.6 28.4,21.7 28.1,21.6 C28,21.6 22.6,19.4 15,19.4 C10.5,19.4 6.1,20.1 1.9,21.6 C1.8,21.5 1.7,21.5 1.6,21.5 Z M3.2,5.3 L2.5,19.6 C6.6,18.3 10.7,17.7 15,17.7 C20.9,17.7 25.4,18.9 27.4,19.6 L26.2,5.5 C22.3,3.2 18.4,2 14.5,2 C8.7,2 4.3,4.6 3.2,5.3 Z" id="XMLID_82_"></path>
                            </g>
                        </g>
                        <g id="XMLID_77_" transform="translate(1.000000, 1.000000)" fill="#B09584">
                            <g id="XMLID_78_">
                                <path d="M1.5,4 C1.5,4 12.6,-4 25.9,4.2 L27.3,19.7 C27.3,19.7 15.1,14.7 0.6,19.7 L1.5,4 Z" id="XMLID_79_"></path>
                            </g>
                        </g>
                        <g id="XMLID_68_" transform="translate(0.000000, 15.000000)">
                            <g id="XMLID_72_" fill="#B09584">
                                <g id="XMLID_73_">
                                    <path d="M15.1,10.7 C8.1,10.7 0.6,9 0.8,5.5 C1,2.1 8.3,0.6 14.9,0.6 C21.5,0.6 28.8,2.1 29.2,5.5 C29.5,9 22.1,10.7 15.1,10.7 Z M14.9,2.8 C6.9,2.8 3.2,4.8 3.2,5.4 C3.2,6 6.8,8.1 15,8.1 C23.2,8.1 26.8,6 26.7,5.4 C26.7,4.9 22.9,2.8 14.9,2.8 Z" id="XMLID_74_"></path>
                                </g>
                            </g>
                            <g id="XMLID_69_" transform="translate(3.000000, 2.000000)" fill="#937D6F">
                                <g id="XMLID_70_">
                                    <path d="M23.7,3.5 C23.9,5.4 18.7,7.1 12.1,7.1 C5.5,7.1 0.2,5.5 0.3,3.5 C0.4,1.6 5.6,0.1 11.9,0.1 C18.3,0.1 23.5,1.6 23.7,3.5 Z" id="XMLID_71_"></path>
                                </g>
                            </g>
                        </g>
                        <g id="XMLID_65_" transform="translate(11.000000, 5.000000)" fill="#937D6F">
                            <g id="XMLID_66_">
                                <path d="M6.9,13.2 C7,14.9 5.6,16.3 3.8,16.3 L3.8,16.3 C2.1,16.3 0.6,14.9 0.6,13.2 L0.6,2.6 C0.6,1.1 1.9,-5.68434189e-14 3.5,-5.68434189e-14 L3.5,-5.68434189e-14 C5.1,-5.68434189e-14 6.4,1.2 6.5,2.6 L6.9,13.2 Z" id="XMLID_67_"></path>
                            </g>
                        </g>
                    </g>
                </g>
            </g>
        </g>
    </g>
</svg>