<svg width="153" height="549" xmlns="http://www.w3.org/2000/svg"><g fill-rule="nonzero" fill="none"><path d="M20.9 544.9s6.9-2.2 12.6-.3c5.7 1.8 5-13.2 2.1-17.3-2.9-4.2-6.9-9-10.2-7.8-3.3 1.3-11.4 3.5-10.6 10.5.7 7 6.1 14.9 6.1 14.9z" fill="#937D6F"/><path d="M4.6 513.5s-2.9 9.8-3.8 17.8c-.9 8 2.5 14.5 10 16.4 7.6 1.9 11.7.4 11.7.4s-1.6-9.1-1.4-13.2c.1-4.1 1.1-13.1 5.6-12.9 4.5.2 5.5 9.6 5.2 13.3-.3 3.7-.9 12.9-.9 12.9s6 .6 14.6-3.4 7.5-12.7 7-15.4c-.4-2.7-2.6-11.8-4.6-15.9-1.7-3.5-2.7-5.7-2.7-5.7s-37.2-.7-40.7 5.7z" fill="#B09584"/><path d="M48 513.5c-1.7-3.5-2.7-5.7-2.7-5.7l-2.8 2.1s5.9 11.9 6.2 19.5c.3 6.3.4 10.6-1.7 14.7 7.2-4.2 6.1-12.2 5.7-14.7-.6-2.6-2.7-11.7-4.7-15.9z" fill="#937D6F"/><path d="M9.9 337.6s-2.2 27.6.4 45.3c2.7 17.6 4.9 26.5 2.9 35.9-2 9.4-5.1 16.3-4.5 32.5.7 16.3-1.3 19.6-4.7 28.5-3.3 8.9-1.1 28.1.4 33.7 0 0 27 4.7 40.6-4.9 0 0 2.2-7.4.7-17.6-1.6-10.3-6-14.5-3.6-23.9 2.5-9.4 2.9-19.6 2.7-25.9-.2-6.2-1.1-11.8 2.7-19.2 3.8-7.4 12.3-18.3 15.6-27.2 3.5-8.8-34.2-65.8-53.2-57.2z" fill="#FFF"/><path d="M4.6 513.5s-2.9 9.8-3.8 17.8c-.9 8 2.5 14.5 10 16.4 1.5.4 2.8.6 4.1.8-1.7-1.4-5.1-4.3-6.2-7.5-2.1-6-1.3-10.9.8-16.8 2-5.8 5.6-9.9 5.6-9.9l-3-4.4c-3.8.9-6.7 2.1-7.5 3.6z" fill="#937D6F"/><path d="M9.9 337.6s-2.2 27.6.4 45.3c2.7 17.6 4.9 26.5 2.9 35.9-2 9.4-5.1 16.3-4.5 32.5.7 16.3-1.3 19.6-4.7 28.5-3.3 8.9-1.1 28.1.4 33.7 0 0 4.9.8 11.5 1.1-5.9-24.3-2.9-45-.8-49.9 2.2-5.1-.4-7.6-1.3-17.6-.9-10 3.8-25 5.6-27.6 1.8-2.7 6.2-3.8 4.5-10.9-1.8-7.1-2.2-15.6.2-17.8 2.5-2.2 4.9-.2 14 5.8 6.8 4.5 16.8 5.6 21.4 5.9 1.4-2.6 2.7-5.1 3.6-7.5 3.5-9-34.2-66-53.2-57.4z" fill="#F7E5E6"/><path d="M130.4 544.9s-6.9-2.2-12.6-.3c-5.7 1.8-5-13.2-2.1-17.3 2.9-4.2 6.9-9 10.2-7.8 3.3 1.3 11.4 3.5 10.6 10.5-.7 7-6.1 14.9-6.1 14.9z" fill="#937D6F"/><path d="M146.7 513.5s2.9 9.8 3.8 17.8c.9 8-2.5 14.5-10 16.4-7.6 1.9-11.7.4-11.7.4s1.6-9.1 1.4-13.2c-.1-4.1-1.1-13.1-5.6-12.9-4.5.2-5.5 9.6-5.2 13.3.3 3.7.9 12.9.9 12.9s-6 .6-14.6-3.4-7.5-12.7-7-15.4c.4-2.7 2.6-11.8 4.6-15.9 1.7-3.5 2.7-5.7 2.7-5.7s37.2-.7 40.7 5.7z" fill="#B09584"/><path d="M103.3 513.5c1.7-3.5 2.7-5.7 2.7-5.7l2.8 2.1s-5.9 11.9-6.2 19.5c-.3 6.3-.4 10.6 1.7 14.7-7.2-4.2-6.1-12.2-5.7-14.7.5-2.6 2.7-11.7 4.7-15.9z" fill="#937D6F"/><path d="M141.3 337.6s2.2 27.6-.4 45.3c-2.7 17.6-4.9 26.5-2.9 35.9 2 9.4 5.1 16.3 4.5 32.5-.7 16.3 1.3 19.6 4.7 28.5 3.3 8.9 1.1 28.1-.4 33.7 0 0-27 4.7-40.6-4.9 0 0-2.2-7.4-.7-17.6 1.6-10.3 6-14.5 3.6-23.9-2.5-9.4-2.9-19.6-2.7-25.9.2-6.2 1.1-11.8-2.7-19.2-3.8-7.4-12.3-18.3-15.6-27.2-3.4-8.8 34.3-65.8 53.2-57.2z" fill="#FFF"/><path d="M146.7 513.5s2.9 9.8 3.8 17.8c.9 8-2.5 14.5-10 16.4-1.5.4-2.8.6-4.1.8 1.7-1.4 5.1-4.3 6.2-7.5 2.1-6 1.3-10.9-.8-16.8-2-5.8-5.6-9.9-5.6-9.9l3-4.4c3.8.9 6.6 2.1 7.5 3.6z" fill="#937D6F"/><path d="M141.3 337.6s2.2 27.6-.4 45.3c-2.7 17.6-4.9 26.5-2.9 35.9 2 9.4 5.1 16.3 4.5 32.5-.7 16.3 1.3 19.6 4.7 28.5 3.3 8.9 1.1 28.1-.4 33.7 0 0-4.9.8-11.5 1.1 5.9-24.3 2.9-45 .8-49.9-2.2-5.1.4-7.6 1.3-17.6.9-10-3.8-25-5.6-27.6-1.8-2.7-6.2-3.8-4.5-10.9 1.8-7.1 2.2-15.6-.2-17.8-2.5-2.2-4.9-.2-14 5.8-6.8 4.5-16.8 5.6-21.4 5.9-1.4-2.6-2.7-5.1-3.6-7.5-3.4-9 34.3-66 53.2-57.4z" fill="#F7E5E6"/><path d="M106.1 508.6c.9.6 1.8 1.1 2.7 1.6-1.4-9.7.4-21.6.5-24.4.1-2.8 2.7-9.1 3.2-12.4.6-3.2-.6-5.8-1.7-9.9-1.1-4.1-2.3-14.7-2.5-19.2-.1-4.5 1.7-12 .4-17.8-1.2-5.8-6.1-11.8-8.8-15.5-2.7-3.7-4.2-7.2-3.6-8.1.6-.8 3.8-1.6 3.8-1.6L88.8 389c-.9 2.7-1.2 4.8-.7 6 3.3 8.9 11.8 19.8 15.6 27.2 3.8 7.4 2.9 12.9 2.7 19.2-.2 6.2.2 16.5 2.7 25.9 2.5 9.4-2 13.6-3.6 23.9-1.6 10.1.6 17.4.6 17.4z" fill="#F7E5E6"/><path d="M142.4 303c-4.1-30-13.7-60.3-17-72.1-3.3-11.8-11.5-42.6-11.5-42.6s-.1 0-3-.6c-9.3-1.9-23.5-1.6-31.2-1.3-1.3-.1-2.7-.1-4.3-.1-1.6 0-3 .1-4.3.1-7.7-.3-21.8-.6-31.2 1.3-2.9.6-3 .6-3 .6s-8.2 30.8-11.5 42.6c-3.3 11.8-12.9 42.1-17 72.1-3.9 28.5 2.3 37.5 8.2 51.2 5.9 13.7 9.5 28.8 23.6 38.5 9.7 6.7 23.3 7.8 30.8 7.9 1.3 0 2.7-.1 4.3-.1 1.6.1 3 .1 4.3.1 7.5-.1 21.1-1.2 30.8-7.9 14.1-9.7 17.7-24.7 23.6-38.5 6.1-13.8 12.3-22.7 8.4-51.2z" fill="#FFF"/><path d="M100 93.4l-24.2-6v-.2l-.3.1-.3-.1v.2l-24.2 6s-9 69.7-15 98.9c12 4.6 25.1 7.1 38.7 7.1 14.2 0 27.7-2.7 40.1-7.6-5.9-29.5-14.8-98.4-14.8-98.4" fill="#FFF"/><path d="M78.3 123l-10 .6s1.2 17.9 3 27.1c1.8 9.2 3.2 8.8 7 8.7 3.1 0 5.2.4 7-8.7 1.8-9.2 3-27.1 3-27.1l-10-.6z" fill="#FFF"/><path d="M125.4 230.9c-2.6-9.4-8.3-30.7-10.5-39.1-4-19.9-9.4-57.7-12.4-80.2l-37.3 11.2s1.5 6.4 9.8 7c8.3.7 18.1-5.6 18.1-5.6s1.1 1.8 2.8 3c1.8 1.2 5 4.9 6.8 15.1 0 0 5.6 36 6.1 43.4.5 7.4 1.8 16 1 21.8l4.3 10.7s8.5 31 12.5 47c4 16.1 9.8 48.6 4.5 65.1-5.4 16.5-5.4 29-11.6 41.9-6.2 12.9-18.7 28.5-49 28.1l.1.2h.6c1.3 0 2.7-.1 4.3-.1 1.6.1 3 .1 4.3.1 7.5-.1 21.1-1.2 30.8-7.9 14.1-9.7 17.7-24.7 23.6-38.5 5.9-13.7 12.1-22.6 8.2-51.2-4.2-29.9-13.8-60.2-17-72z" fill="#F7E5E6"/><path d="M88.2 123.7l-3.3-.1c-.3 4-.8 16.7-1.2 22.1-.4 5-1.5 10.8-2.4 11.7-.9.9-4.4 1.2-5.9.6-1.5-.7-2.5-4.6-3.6-13.7-.8-7-1.6-16.6-2.2-20.7h-1.4s1.2 17.9 3 27.1c1.8 9.2 3.2 8.8 7 8.7 3.1 0 5.2.4 7-8.7 1.8-9.1 3-27 3-27" fill="#F7E5E6"/><path d="M53.6 16.4S53.2 1.7 57.7.6c4.6-1.1 8.5.8 13.9 12.6 5.4 11.9-18 3.2-18 3.2M99.6 16.4S100 1.7 95.5.6c-4.6-1.1-8.5.8-13.9 12.6-5.4 11.9 18 3.2 18 3.2" fill="#B09584"/><path d="M96.5 1.2c.3 2.8.8 10.2-3.3 13.8-1.8 1.5-1.4 2.7-.2 3.5 3.6-.9 6.6-2 6.6-2S100 4 96.5 1.2M61 .5c1.7 2.1 6.3 8.3 4.7 14.7-1.3 5.1 3.2 4.7 6.3 2.7.6-1 .5-2.4-.4-4.6C67.5 4.4 64.3 1.1 61 .5" fill="#937D6F"/><path d="M88.2 123.7l-10-.6-10 .6s.1 1.8.3 4.6c2.4 1.4 5.5 2.4 9.2 2.5h.2c4.1 0 6.6-.2 9.8-1.7.3-2.5.5-5.4.5-5.4" fill="#F7E5E6"/><path d="M83.2 12.7c3.1-.4 9.3-.5 12.9 1.2 3.5 1.8 5.7 3 7.4 3.4 1.6.4 8.7 3.7 10.5 13.4 0 0 12.5 0 20.2 2.7 7.7 2.7 14.6 7.9 17.4 10.7 2.7 2.7 1.5 8-4.6 14.6s-13 10.8-17.5 9.6c-4.5-1.2-13.1-7-14.7-8.3-1.6-1.3-4.6-.9-4.9-.1-.3.8-1.2 16.3-1.9 21.5-.7 5.3-1.2 11.1-4.4 14.9-3.2 3.8-7 11.1-7.6 14.7-.7 3.5-4.9 16.1-19 16.2h-.2C62.7 127 59 114.5 58.3 111c-.7-3.5-4.4-10.8-7.6-14.7-3.2-3.8-3.7-9.7-4.4-14.9-.7-5.3-1.5-20.8-1.9-21.5-.3-.8-3.3-1.2-4.9.1-1.6 1.3-10.2 7.1-14.7 8.3-4.5 1.2-11.3-3-17.5-9.6-6.2-6.6-7.4-11.9-4.6-14.6 2.7-2.7 9.7-7.9 17.4-10.7 7.7-2.7 20.2-2.7 20.2-2.7 1.9-9.7 8.9-13 10.5-13.4 1.6-.4 3.8-1.6 7.4-3.4 3.5-1.8 9.8-1.8 12.9-1.2-.2 0 7 .6 12.1 0" fill="#FFF"/><path d="M50.1 55.2c-4.5 0-7.7-4.2-7.7-10 0-5.5 3.3-11.4 10.5-11.4h.1c1.9 0 3.5.7 4.8 2 1.7 1.7 2.5 4.5 2.4 7.7-.3 6.6-5.6 11.7-10.1 11.7zm2.8-19.5c-5.9 0-8.6 4.9-8.6 9.5 0 4.7 2.5 8.2 5.9 8.2 3.6 0 8-4.4 8.2-9.9.1-2.7-.6-5-1.9-6.4-1-.9-2.2-1.4-3.6-1.4z" fill="#937D6F"/><path d="M151.5 44.1c-2.7-2.7-9.7-7.9-17.4-10.7-5.5-2-13.6-2.5-17.6-2.7l-6.9 1.6s-6.6-3.1-11.9-1.7c-5.3 1.4-9.1 5.8-9.1 12.9 0 7.2-2.6 27.1-3.6 30.2-1 3.1 12.5 6.3 10 25.4v5.1s1.7-.4 4-1.1c1.4-2.6 3-5.1 4.5-6.9 3.2-3.8 3.7-9.7 4.4-14.9.7-5.3 1.5-20.8 1.9-21.5.3-.8 3.3-1.2 4.9.1 1.6 1.3 10.2 7.1 14.7 8.3 4.5 1.2 11.3-3 17.5-9.6 6.2-6.5 7.4-11.8 4.6-14.5" fill="#F7E5E6"/><path d="M59 42.6c0 4.3-1.1 7.8-6.3 7.8-3.5 0-6.3-3.5-6.3-7.8s2.8-7.8 6.3-7.8c3.5.1 6.3 3.5 6.3 7.8" fill="#937D6F"/><path d="M53 39.7c-.4 1-1.4 1.5-2.2 1.2-.7-.3-1-1.4-.5-2.4.4-1 1.4-1.5 2.2-1.2.7.3.9 1.4.5 2.4M53.1 45.8c.2 1.4-.6 2.6-1.6 2.7-1 .1-2-.9-2.2-2.3-.2-1.4.6-2.6 1.6-2.7 1-.1 2 1 2.2 2.3M110.4 45.2c0 4.9-3 9-6.8 9s-6.8-4-6.8-9c0-4.9 3-9 6.8-9 3.8.1 6.8 4.1 6.8 9" fill="#F1F3F3"/><path d="M104.2 55.2c-4.5 0-9.8-5.1-10-11.7-.1-3.3.8-6 2.4-7.7 1.2-1.3 2.9-2 4.8-2h.1c7.2 0 10.5 5.9 10.5 11.4-.1 5.8-3.4 10-7.8 10m-2.8-19.5c-1.5 0-2.6.5-3.5 1.4-1.3 1.4-2 3.7-1.9 6.4.2 5.5 4.6 9.9 8.2 9.9 3.4 0 5.9-3.4 5.9-8.2-.1-4.6-2.8-9.5-8.7-9.5" fill="#937D6F"/><path d="M95.2 42.6c0 4.3 1.1 7.8 6.3 7.8 3.5 0 6.3-3.5 6.3-7.8s-2.8-7.8-6.3-7.8c-3.4.1-6.3 3.5-6.3 7.8" fill="#937D6F"/><path d="M109.8 59.8c-.8.6-3.4 2.6-3.8 4.2-.4 1.9-.4 17-1.6 22.4-1.2 5.4-7.5 13.9-8.6 17.1-1.2 3.2-7.6 9.1-7.6 9.1s-.5 5.9 2 9.1c3.8-3.9 5.3-8.8 5.7-10.8.7-3.5 4.4-10.8 7.6-14.7 3.2-3.8 3.7-9.7 4.4-14.9.7-5.2 1.6-20.7 1.9-21.5" fill="#F7E5E6"/><path d="M101.3 39.7c.4 1 1.4 1.5 2.2 1.2.7-.3 1-1.4.5-2.4-.4-1-1.4-1.5-2.2-1.2-.7.3-.9 1.4-.5 2.4M101.2 45.8c-.2 1.4.6 2.6 1.6 2.7 1 .1 2-.9 2.2-2.3.2-1.4-.6-2.6-1.6-2.7-1.1-.1-2.1 1-2.2 2.3" fill="#F1F3F3"/><path d="M71.4 90.5c0 2.6-.9 4.8-2.1 4.8-1.2 0-2.1-2.1-2.1-4.8 0-2.6.9-4.8 2.1-4.8 1.1.1 2.1 2.2 2.1 4.8M87.7 90.5c0 2.6-.9 4.8-2.1 4.8-1.2 0-2.1-2.1-2.1-4.8 0-2.6.9-4.8 2.1-4.8 1.1.1 2.1 2.2 2.1 4.8M36.1 53.7s-3.2-4.9-7.7-5.8c-4.5-.9-10.3.6-12.7.7-2.4.1-7.8.1-9.3-.2-1.5-.2-1.3 4.4 3.8 7.6 5.1 3.2 9.2 5 16.2 3.1 7-1.8 9.6-3.7 9.7-5.4" fill="#FDE5E5"/><path d="M63.3 108.8l.5-5.4s5.6.7 8 .2c2.3-.5 4.4-1.3 6.9-.9 2.4.4 8.7 1.1 9.1 1.1.5 0 3 5.3 3.1 5.6.1.3-3.6 4.9-5.2 5.4s-12.4 1.9-16 .2c-3.6-1.7-5.6-3.9-5.6-4.3-.1-.6-.8-1.9-.8-1.9" fill="#FACCDB"/><path d="M68 104.5c-3.7 0-8-.8-9.9-3.7-2.6-4-3.8-16.3-3.9-16.9 0-.5.3-1 .8-1s1 .3 1 .8c0 .1 1.2 12.4 3.6 16 2.2 3.3 9.5 3.1 12.8 2.5 3.1-.6 3.9-.7 4-.7h1c.2 0 .9 0 4 .7 3.2.6 10.6.9 12.8-2.5 2-3 3.3-12.6 3.6-16 0-.5.5-.9 1-.8.5 0 .9.5.8 1-.1.5-1.3 12.9-3.9 16.9-3 4.5-11.6 3.9-14.7 3.3-3-.6-3.7-.6-3.7-.6h-1s-.6 0-3.7.6c-1 .2-2.7.4-4.6.4" fill="#FDE5E5"/><path d="M66 109.9s-.1-2 .5-2.4c.7-.4 4.4 3.3 11.2 3 6.9-.3 9.2-2.3 9.2-2.3s2.4 3.3 1.3 4.4c-1.1 1.1-5.3 4.2-9.6 3.3-4.3-.9-11.2-2.2-11.5-2.8" fill="#FFF"/><path d="M88.9 103.6s2 3-.9 6.5c-2.8 3.4-10.5 3.5-10.9 3.5-.4 0-8-.1-10.8-3.5-2.9-3.5-.9-6.5-.9-6.5s-4.5-1-5.7-1.8c0 0 1.8 5.5 2.5 8.5s4.5 7.6 14.9 7.4c10.5.3 14.3-4.4 15-7.4.7-3 2.5-8.5 2.5-8.5-1.2.8-5.7 1.8-5.7 1.8" fill="#FDE5E5"/><path d="M103.8 111.6c-.8-1.7-6.9-7.8-8.2-10.6-1.8 2.5-5.5 3.4-8.8 3.5-.8.2-1.9 0-2.5-.1 0 0 4.1 8.7 5 11.2.9 2.5 4.5 7.8 10.6 6.6 6-1.2 4.8-8.7 3.9-10.6" fill="#F16056"/><path d="M38.9 176.7c-.4 2.6-.9 5-1.3 7.4 11.9 4.2 24.4 6.3 37.2 6.3 13.3 0 26.2-2.3 38.6-6.8-.4-2.3-.8-4.8-1.3-7.4-11.9 4.5-24.4 6.8-37.3 6.8-12.4 0-24.4-2.1-35.9-6.3z" fill="#937D6F"/><path d="M134.2 33.4c-7.7-2.7-20.2-2.7-20.2-2.7-1.9-9.7-8.9-13-10.5-13.4-1.6-.4-3.8-1.6-7.4-3.4-3.5-1.8-9.8-1.6-12.9-1.2-5.1.7-12.3 0-12.3 0-.4-.1-.9-.1-1.4-.2 1.1.2 7.5 1.4 11.5 1.9 4.4.5 10.5-.3 15 2.5 4.4 2.8 7.8 3.5 9.5 4.9 1.6 1.4 4.7 7.3 3.9 10.7 0 0 11.9-.1 21 3 8.7 2.9 18.4 6.6 22.4 13.9.5-2.2 0-3.9-1.2-5.1-2.8-3-9.7-8.1-17.4-10.9" fill="#F7E5E6"/><path d="M97.6 120.8c-3.5 0-6.1-3.2-7.3-6.2-.9-2.1-2.9-7.2-2.9-7.3-.2-.5.1-1 .5-1.2.5-.2 1 0 1.2.5 0 .1 2 5.2 2.9 7.2 1.1 2.6 3.3 5.5 6.2 5 .5-.1 1 .3 1.1.8.1.5-.3 1-.8 1.1-.2.1-.6.1-.9.1" fill="#F58964"/><path d="M28.4 48c-4.5-.9-10.3.6-12.7.7-2.4.1-7.8.1-9.3-.2h-.3c1.3.8 4.2 2 9.8 1.9 8.2-.2 16.9 2.3 16.5 6.7 2.6-1.2 3.7-2.3 3.8-3.4-.1 0-3.3-4.8-7.8-5.7M117.9 53.7s3.2-4.9 7.7-5.8c4.5-.9 10.3.6 12.7.7 2.4.1 7.8.1 9.3-.2 1.5-.2 1.3 4.4-3.8 7.6-5.1 3.2-9.2 5-16.2 3.1-6.9-1.8-9.5-3.7-9.7-5.4" fill="#FACCDB"/><path d="M75.1 158s-1.2-4.8-1.4-11.6c-.2-6.8 1.3 8.4 3.6 12.7M79.1 159c2.3-4.3 3.8-19.5 3.6-12.7-.2 6.8-1.4 11.6-1.4 11.6M77.4 158.9s-.1-13 .2-15.7c.3-2.7 1.1 6.2 1.5 15.7M41.3 200s-.8 6.6 3.4 20.9c4.2 14.3 10.1 37.9 10.9 60.1l-3.1 1.8s-.9-16.4-3.4-26.9c-2.6-10.6-8-23.3-11.1-35.1-3.1-11.9-2.1-17.1 3.3-20.8zM110 200.5s.8 6.6-3.4 20.9c-4.2 14.3-10.1 37.9-10.9 60.1l3.1 1.8s.9-16.4 3.4-26.9c2.6-10.6 8-23.3 11.1-35.1 3.1-12 2.2-17.1-3.3-20.8z" fill="#F7E5E6"/><path d="M102.8 288.4s-.3-8.5 1.3-18.9c1.6-10.4 12.1-37.1 12.6-46.9.4-9.8-5.4-2.2-5.4-.3 0 1.9-6.1 21.5-6.4 22.3-.2.8-4.9 20-4.9 20.3 0 .3-1.3 15.7-1.3 15.7l.2 6.5M74.2 283.1s-.4-53.1-.2-58.2c.2-5.1 1.6-31.3 2.9-1.9 1.2 27.2.6 60.5.6 60.5" fill="#F7E5E6"/><path d="M104.4 301.6c0-.1-.1-.2-.1-.4l-1.3-13.8c0-.2-.1-.4-.3-.5-3.9-2.4-7.9-3.6-11.8-3.6-6 0-10.5 2.8-11.3 3.4-3.8-2.2-7.6-3.4-11.4-3.4-6.6 0-11.3 3.3-11.5 3.5-.2.1-.3.3-.3.5l-.8 13.9c0 .1-.1.3-.1.4-.2 3.3 6.7 4.8 13.2 4.8 4.4 0 8.9-.7 11.3-2.2 2.4 1.5 7 2.2 11.4 2.2 6.4 0 13.3-1.5 13-4.8z" fill="#F7E5E6"/><path d="M74.7 298.5c-.2 0-.3 0-.5-.1s-.3-.4-.3-.6l1-15.7c0-.2.1-.4.3-.5.2-.2 5.3-3.7 12.4-3.7 4.3 0 8.5 1.3 12.8 3.9.2.1.3.3.4.5l1.5 15.5c0 .3-.1.5-.3.7-.2.1-.5.2-.8.1-.1 0-5.5-2.2-13.1-2.2-4.5 0-8.9.7-13.1 2.2-.1-.1-.2-.1-.3-.1zm1.6-16.2l-.7 14.3c4.1-1.3 8.2-1.9 12.5-1.9 5.9 0 10.4 1.2 12.4 1.9l-1.2-14.1c-3.9-2.3-7.8-3.5-11.7-3.5-5.8 0-10.2 2.6-11.3 3.3z" fill="#B09584"/><path d="M75.6 282s11.1-8 24.4.2l1.4 15.5s-12.2-5-26.7 0l.9-15.7z" fill="#B09584"/><path d="M88.2 302.7c-7 0-14.5-1.7-14.3-5.2.2-3.4 7.5-4.9 14.1-4.9s13.9 1.5 14.3 4.9c.3 3.5-7.1 5.2-14.1 5.2zm-.2-7.9c-8 0-11.7 2-11.7 2.6 0 .6 3.6 2.7 11.8 2.7 8.2 0 11.8-2.1 11.7-2.7 0-.5-3.8-2.6-11.8-2.6z" fill="#B09584"/><path d="M99.8 297.5c.2 1.9-5 3.6-11.6 3.6s-11.9-1.6-11.8-3.6c.1-1.9 5.3-3.4 11.6-3.4 6.4 0 11.6 1.5 11.8 3.4z" fill="#937D6F"/><g fill="#937D6F"><path d="M91 295.2c.1 1.7-1.3 3.1-3.1 3.1-1.7 0-3.2-1.4-3.2-3.1v-10.6c0-1.5 1.3-2.6 2.9-2.6 1.6 0 2.9 1.2 3 2.6l.4 10.6z"/></g><g><path d="M51.6 298.5c-.2 0-.3 0-.5-.1s-.3-.4-.3-.6l1-15.7c0-.2.1-.4.3-.5.2-.2 5.3-3.7 12.4-3.7 4.3 0 8.5 1.3 12.8 3.9.2.1.3.3.4.5l1.5 15.5c0 .3-.1.5-.3.7-.2.1-.5.2-.8.1-.1 0-5.5-2.2-13.1-2.2-4.5 0-8.9.7-13.1 2.2-.1-.1-.2-.1-.3-.1zm1.6-16.2l-.7 14.3c4.1-1.3 8.2-1.9 12.5-1.9 5.9 0 10.4 1.2 12.4 1.9l-1.2-14.1c-3.9-2.3-7.8-3.5-11.7-3.5-5.8 0-10.2 2.6-11.3 3.3z" fill="#B09584"/><path d="M52.5 282s11.1-8 24.4.2l1.4 15.5s-12.2-5-26.7 0l.9-15.7z" fill="#B09584"/><path d="M65.1 302.7c-7 0-14.5-1.7-14.3-5.2.2-3.4 7.5-4.9 14.1-4.9s13.9 1.5 14.3 4.9c.3 3.5-7.1 5.2-14.1 5.2zm-.2-7.9c-8 0-11.7 2-11.7 2.6 0 .6 3.6 2.7 11.8 2.7 8.2 0 11.8-2.1 11.7-2.7 0-.5-3.8-2.6-11.8-2.6z" fill="#B09584"/><path d="M76.7 297.5c.2 1.9-5 3.6-11.6 3.6s-11.9-1.6-11.8-3.6c.1-1.9 5.3-3.4 11.6-3.4 6.4 0 11.6 1.5 11.8 3.4z" fill="#937D6F"/><g fill="#937D6F"><path d="M67.9 295.2c.1 1.7-1.3 3.1-3.1 3.1-1.7 0-3.2-1.4-3.2-3.1v-10.6c0-1.5 1.3-2.6 2.9-2.6 1.6 0 2.9 1.2 3 2.6l.4 10.6z"/></g></g></g></svg>