<svg width="55" height="80" xmlns="http://www.w3.org/2000/svg"><g fill-rule="nonzero" fill="none"><path d="M35.405 46.473l-8.522 2.107-.118.047-.118.024-8.523-2.178L12.404.681H42.67c-3.51 23.195-5.931 38.46-7.265 45.792z" fill="#FFF"/><path d="M35.405 46.473l-3.824.947-11.143-8.757s.094-3.053 1.605-4.9c.968-1.183 3.589-1.846 3.589-1.846l.306-6.864.142-3.479s.52-1.065 2.267-.923c1.44.095 1.77 2.485 1.959 3.385.189.899.496 8 .496 8s1.51.804 2.172 1.42c0 0 .85.946 1.558.71.708-.237 1.723-3.81 2.125-7.243.401-3.432 2.354-23.876.489-26.148l5.524-.07-7.265 45.768z" fill="#F8E6E6"/><path d="M19.021 73.74s-.165 5.183 1.464 5.585c1.605.38 2.975-.26 4.91-4.473 1.913-4.213-6.374-1.112-6.374-1.112zM35.287 73.74s.166 5.183-1.463 5.585c-1.606.38-2.975-.26-4.91-4.473C27 70.64 35.286 73.74 35.286 73.74z" fill="#B09584"/><path d="M34.178 79.112c.118-.97.283-3.62-1.157-4.875-.637-.545-.52-.947-.07-1.231 1.274.308 2.336.71 2.336.71s.118 4.402-1.11 5.396z" fill="#937C6E"/><path d="M27.237 34.426l-3.518-.237s.425-6.343 1.063-9.585c.637-3.243 1.133-3.101 2.455-3.101 1.086 0 1.818-.142 2.455 3.1.638 3.243 1.063 9.586 1.063 9.586l-3.518.237z" fill="#FFF"/><path d="M30.778 34.19l-1.157.047c-.094-1.397-.283-5.917-.425-7.835-.141-1.775-.519-3.834-.85-4.142-.306-.307-1.558-.426-2.077-.189-.52.237-.897 1.61-1.275 4.828-.283 2.486-.566 5.87-.755 7.314l-.52-.024s.425-6.343 1.063-9.585c.637-3.243 1.133-3.101 2.455-3.101 1.086 0 1.818-.142 2.455 3.1.661 3.243 1.086 9.586 1.086 9.586z" fill="#F8E6E6"/><path d="M26.15 22.071s-.424 1.704-.495 4.118c-.07 2.415.472-2.982 1.275-4.497M27.544 21.692c.803 1.515 1.346 6.912 1.275 4.497-.071-2.414-.496-4.118-.496-4.118M26.954 21.74s-.024 4.591.047 5.562c.094.97.378-2.201.543-5.562" fill="#F8E6E6"/><path d="M21.642 79.373c.614-.734 2.219-2.935 1.652-5.184-.448-1.798 1.11-1.68 2.22-.946.212.355.188.852-.166 1.61-1.416 3.123-2.55 4.283-3.706 4.52z" fill="#937C6E"/><path d="M24.215 32.509s3.47-.97 6.233-.473l-.118 1.42-6.115.118v-1.065z" fill="#F8E6E6"/><path d="M29.48 75.041c1.086.142 3.305.19 4.532-.426 1.252-.615 2.007-1.041 2.597-1.207.59-.165 3.07-1.325 3.73-4.733 0 0 4.415 0 7.13-.97 2.715-.971 5.147-2.794 6.115-3.764.968-.97.543-2.84-1.63-5.16-2.171-2.343-4.58-3.81-6.161-3.385-1.582.427-4.604 2.486-5.194 2.96-.59.472-1.629.307-1.747.046-.118-.26-.425-5.751-.66-7.62-.237-1.87-.426-3.93-1.559-5.279-1.133-1.35-2.078-4-2.314-5.23-.236-1.255-.495-7.314-7.106-7.409h-.07c-6.398-.19-6.658 5.68-6.894 6.935-.236 1.254-1.204 4.355-2.314 5.704-1.133 1.35-1.322 3.432-1.558 5.278-.236 1.87-.543 7.337-.66 7.621-.119.26-1.158.426-1.748-.047-.59-.473-3.612-2.532-5.194-2.959-1.581-.426-3.99 1.042-6.161 3.385-2.172 2.343-2.597 4.19-1.63 5.16.968.97 3.424 2.793 6.115 3.763 2.715.97 7.13.97 7.13.97.66 3.433 3.14 4.592 3.73 4.734.59.166 1.346.592 2.597 1.207 1.251.616 3.447.616 4.533.426.047 0 2.573-.213 4.39 0z" fill="#FFF"/><path d="M53.584 63.94c-.968.971-3.423 2.794-6.115 3.764-1.96.71-4.792.9-6.232.947l-2.432-.544s-2.337 1.112-4.179.615c-1.865-.497-3.234-2.036-3.234-4.568 0-2.533-.449-6.911-.803-8.024-.354-1.112 5.076-2.485 2.928-11.503l-.19-2.722s.922.923 1.724 1.16c.472.9 1.063 1.799 1.582 2.438 1.133 1.35 1.322 3.432 1.558 5.278.236 1.87.543 7.337.661 7.621.118.26 1.157.426 1.747-.047.59-.473 3.612-2.532 5.194-2.959 1.582-.426 3.99 1.042 6.162 3.385 2.172 2.32 2.597 4.19 1.629 5.16z" fill="#F8E6E6"/><path d="M38.876 58.379c-.307-.213-1.204-.923-1.322-1.468-.142-.662-.142-6.012-.543-7.929-.402-1.917-2.644-4.923-3.046-6.059C33.564 41.787 30 38.118 30 38.118s1.842-1.633 2.715-2.769c1.346 1.373 1.464 4.047 1.605 4.758.236 1.254 1.228 4.023 2.361 5.396 1.133 1.35 1.322 3.432 1.558 5.278.19 1.846.52 7.314.638 7.598z" fill="#F8E6E6"/><ellipse cx=".897" cy="1.728" rx="1" ry="1.68" transform="matrix(1 0 0 -1 23.648 52.627)" fill="#FFE6E6"/><ellipse cx=".755" cy="1.728" rx="1" ry="1.68" transform="matrix(1 0 0 -1 29.078 52.627)" fill="#FFE6E6"/><path d="M12.86 60.533s-1.134 1.727-2.74 2.035c-1.604.331-3.635-.213-4.485-.237-.85-.023-2.762-.023-3.281.048-.52.094-.472-1.539 1.345-2.675 1.795-1.136 3.258-1.775 5.737-1.112 2.456.686 3.353 1.349 3.423 1.94z" fill="#FFE6E6"/><path d="M47.47 67.704c-2.716.97-7.13.97-7.13.97-.662 3.433-3.14 4.592-3.73 4.734-.59.166-1.346.592-2.598 1.207-1.25.616-3.446.568-4.532.426-1.818-.236-4.344 0-4.344 0a12.43 12.43 0 0 1-.496.071c.401-.07 2.644-.497 4.06-.662 1.582-.166 3.73.118 5.289-.876 1.582-.994 2.762-1.23 3.352-1.728.59-.497 1.653-2.603 1.37-3.787 0 0 4.225.024 7.413-1.041 3.045-1.042 6.515-2.32 7.908-4.9.166.758 0 1.373-.425 1.823-.991.97-3.423 2.793-6.138 3.763z" fill="#F8E6E6"/><path d="M10.12 62.568c-1.604.331-3.635-.213-4.485-.237-.85-.023-2.762-.023-3.281.048-.047 0-.071 0-.118-.024.448-.284 1.463-.71 3.47-.663 2.88.048 5.973-.828 5.831-2.367.898.427 1.299.829 1.322 1.208 0 0-1.133 1.704-2.738 2.035zM41.732 60.533s1.134 1.727 2.739 2.035c1.605.331 3.636-.213 4.486-.237.85-.023 2.762-.023 3.281.048.52.094.472-1.539-1.346-2.675-1.794-1.136-3.258-1.775-5.736-1.112-2.456.686-3.353 1.349-3.424 1.94zM34.083 49.219c-.637-.379-3.659-1.823-4.367-1.823-.59 0-1.11.071-1.417.143-.897.213-1.086.236-1.086.236H27.072s-.19-.023-1.086-.236a7.086 7.086 0 0 0-1.417-.143c-.708 0-4.273 1.444-4.91 1.823 0 0 .897-3.148.92-5.586 0-1.61.874-3.48.874-4.497.024-2.461 2.904-.852 4.367-.852.378 0 .85 0 1.322-.024.496.024.945.024 1.323.024 1.463 0 4.343-1.61 4.367.852.024 1.184.874 3.148.638 4.97-.26 1.989.613 5.113.613 5.113z" fill="#FFCDDB"/><path d="M21.382 48.32s-.212-.805 0-1.137c.236-.378.874-1.207 3.352-1.207h4.486c2.455-.047 3.14.616 3.329.734.59.331.141 1.373.165 1.491.024.119-2.573-.639-3.4-.615-.826.024-1.841.284-2.974.19-1.133-.095-2.644-.356-3.022-.309" fill="#FFF"/><g fill="#F8E6E6"><path d="M22.728 37.408c-.402 0-.78.095-1.086.308-.378.284-.567.757-.567 1.42 0 .426-.425 2.367-.826 4.237-.732 3.313-1.18 5.538-1.133 6.177 0 .119.07.213.189.284.094.048.212.071.33 0 1.794-.875 2.904-1.61 2.951-1.633.59-.355 1.393-.426 1.96-.426.684 0 1.204.119 1.345.142.874.213 1.11.237 1.157.237H27.237c.047 0 .26-.024 1.157-.237.141-.023.66-.142 1.345-.142.567 0 1.37.071 1.983.45l2.409 1.61c.118.07.26.07.377 0a.352.352 0 0 0 .166-.356c-.496-3.171-1.464-9.443-1.464-10.32 0-.638-.19-1.112-.567-1.42-.684-.544-1.77-.283-2.81-.047-.519.119-.99.237-1.345.237-.401 0-.85 0-1.322-.024-.472.024-.92.024-1.346.024-.354 0-.85-.118-1.345-.237-.614-.142-1.204-.284-1.747-.284zM19.87 48.935c.142-1.112.661-3.456 1.086-5.396.52-2.415.85-3.906.85-4.38 0-.425.094-.71.283-.851.425-.332 1.37-.095 2.22.094.542.119 1.062.26 1.51.26.402 0 .874 0 1.346-.023.449.024.897.024 1.322.024.449 0 .968-.119 1.511-.26.85-.19 1.794-.427 2.22-.095.188.142.283.426.283.852 0 .97.991 7.337 1.345 9.633l-1.747-1.16h-.023c-.756-.45-1.7-.544-2.338-.544-.519 0-1.086.07-1.51.165-.732.166-.968.213-1.04.213h-.117c-.048 0-.284-.047-1.04-.213a7.383 7.383 0 0 0-1.51-.165c-.661 0-1.582.094-2.337.544-.024-.023-.897.568-2.314 1.302z"/></g><g><path d="M22.633 38.024c.803-.024 1.77.355 2.739.473.66.071 2.691.047 3.494.024.354 0 .968-.237 1.582-.332 1.133-.213 1.393-.142 1.393-.142l-.52 1.397s-2.668.308-3.116.331c-.449 0-2.172-.19-2.432-.19 0 0-2.006.072-2.479.072-.495-.024-.66-1.633-.66-1.633z" fill="#FFF"/><path d="M26.481 41.243c1.063.78 2.314 1.017 4.368 1.207 3.116.284 5.36-1.586 6.067-2.675.709-1.089.543-2.627-.141-3.408-.685-.781-2.149-.994-3.07-.426-.92.568-2.242 2.627-3.257 3.1-1.016.474-2.503.758-3.542.616-1.086-.166-1.676-.095-1.676-.095s.284.97 1.251 1.68z" fill="#F15F55"/><path d="M34.933 36.533c-.212 0-.401.023-.614.094-.779.26-1.322.994-1.7 1.491-.07.095-.117.166-.165.237-.543.686-1.25 1.065-1.274 1.065-.166.095-.237.308-.142.474.094.165.307.236.472.142.024-.024.874-.45 1.487-1.255.048-.07.118-.166.19-.237.33-.45.778-1.065 1.345-1.254.614-.213 1.157.095 1.322.379.118.165.33.213.496.094.165-.118.212-.331.094-.497-.26-.402-.85-.733-1.51-.733z" fill="#FF8961"/></g><g fill="#937C6E"><path d="M16.472 60.627v.095c0 .07-.024.166-.024.26 0 .237.024.568.118.947.094.402.283.852.614 1.278a2.8 2.8 0 0 0 .59.592c.236.19.496.331.755.426l.166.07.212.072c.142.047.26.07.402.095.26.047.543.07.826.07a3.021 3.021 0 0 0 1.393-.402c.377-.213.614-.473.755-.663.142-.189.213-.307.213-.33.094-.12.07-.309-.048-.38-.118-.094-.306-.07-.377.048 0 0-.071.047-.236.142a3.846 3.846 0 0 1-.685.307c-.283.095-.637.119-.992.095a4.716 4.716 0 0 1-.566-.095c-.095-.023-.189-.047-.283-.094l-.142-.048-.165-.07a4.991 4.991 0 0 1-.496-.26c-.142-.12-.283-.238-.401-.356a3.012 3.012 0 0 1-.59-.876c-.142-.284-.237-.544-.308-.733-.07-.19-.094-.284-.094-.284l-.024-.048a.298.298 0 0 0-.401-.19.773.773 0 0 0-.212.332z"/></g><g fill="#937C6E"><path d="M37.813 60.604s-.047.094-.094.284c-.07.189-.165.45-.307.733-.142.284-.33.592-.59.876-.118.142-.26.26-.401.355a2.44 2.44 0 0 1-.496.26l-.165.071-.142.048c-.095.023-.189.07-.283.094-.19.048-.378.095-.567.095a3.287 3.287 0 0 1-.992-.095 3.846 3.846 0 0 1-.684-.307c-.165-.095-.236-.166-.236-.142a.266.266 0 0 0-.378-.048.267.267 0 0 0-.047.38s.07.141.212.33c.142.19.402.45.756.663.354.213.85.379 1.393.403.26 0 .543-.024.826-.071.142-.024.26-.071.401-.095l.213-.071.165-.071c.283-.118.52-.26.755-.426a2.8 2.8 0 0 0 .59-.592c.331-.426.496-.9.614-1.278.095-.402.118-.734.118-.947 0-.118 0-.213-.023-.26v-.095c-.024-.165-.165-.284-.354-.284a.34.34 0 0 0-.26.213l-.024-.023z"/></g></g></svg>