<?xml version="1.0" encoding="UTF-8"?>
<svg width="258px" height="541px" viewBox="0 0 258 541" version="1.1" xmlns="http://www.w3.org/2000/svg" xmlns:xlink="http://www.w3.org/1999/xlink">
    <!-- Generator: Sketch 46.2 (44496) - http://www.bohemiancoding.com/sketch -->
    <title>goat squeezed mode</title>
    <desc>Created with Sketch.</desc>
    <defs></defs>
    <g id="Page-1" stroke="none" stroke-width="1" fill="none" fill-rule="evenodd">
        <g id="Desktop" transform="translate(-383.000000, -2431.000000)" fill-rule="nonzero">
            <g id="goat-squeezed-mode" transform="translate(383.000000, 2431.000000)">
                <g id="XMLID_18_">
                    <g id="XMLID_450_" transform="translate(0.000000, 329.000000)">
                        <g id="XMLID_461_" transform="translate(14.000000, 181.000000)" fill="#937D6F">
                            <path d="M3.9,24.5 C3.9,24.5 11.1,23.8 16.3,26.8 C21.5,29.8 23.9,15 22,10.3 C20,5.6 17.1,0 13.7,0.6 C10.2,1.1 1.8,1.6 1.1,8.7 C0.3,15.6 3.9,24.5 3.9,24.5 Z" id="XMLID_462_"></path>
                        </g>
                        <g id="XMLID_459_" transform="translate(0.000000, 169.000000)" fill="#B09584">
                            <path d="M8.6,2.4 C8.6,2.4 3.7,11.4 1.2,19 C-1.4,26.7 0.6,33.7 7.6,37.1 C14.6,40.5 18.9,40 18.9,40 C18.9,40 19.3,30.7 20.3,26.8 C21.3,22.8 24.1,14.2 28.5,15.4 C32.8,16.6 31.9,26 30.8,29.5 C29.8,33 27.2,41.9 27.2,41.9 C27.2,41.9 32.9,43.7 42.2,41.6 C51.5,39.5 52.2,30.7 52.3,28 C52.4,25.2 52.2,15.9 51.1,11.4 C50.2,7.6 49.6,5.3 49.6,5.3 C49.6,5.3 13.4,-3.1 8.6,2.4 Z" id="XMLID_460_"></path>
                        </g>
                        <g id="XMLID_457_" transform="translate(43.000000, 174.000000)" fill="#937D6F">
                            <path d="M8,6.5 C7.1,2.7 6.5,0.4 6.5,0.4 C6.5,0.4 6.5,0.4 6.5,0.4 L3.3,1.9 C3.3,1.9 6.6,14.8 5.3,22.3 C4.3,28.5 3.5,32.8 0.5,36.3 C8.4,33.7 9,25.7 9.1,23.1 C9.3,20.3 9.1,11 8,6.5 Z" id="XMLID_458_"></path>
                        </g>
                        <g id="XMLID_455_" transform="translate(8.000000, 0.000000)" fill="#FFFFFF">
                            <path d="M42.8,0.6 C42.8,0.6 34.8,27.2 33.7,44.9 C32.6,62.7 32.9,71.9 29,80.6 C25.1,89.3 20.6,95.4 17.8,111.5 C15,127.6 12.4,130.4 7.2,138.4 C2.1,146.4 0.2,165.6 0.6,171.4 C0.6,171.4 26,181.6 41.3,175.1 C41.3,175.1 45,168.4 45.7,158 C46.3,147.6 42.9,142.6 47.2,133.9 C51.6,125.3 54.1,115.3 55.2,109.2 C56.3,103 56.6,97.4 61.8,91 C67.1,84.6 77.6,75.7 82.8,67.7 C88,59.8 63.1,-3.9 42.8,0.6 Z" id="XMLID_456_"></path>
                        </g>
                        <g id="XMLID_453_" transform="translate(0.000000, 169.000000)" fill="#937D6F">
                            <path d="M8.6,2.4 C8.6,2.4 3.7,11.4 1.2,19 C-1.4,26.7 0.6,33.7 7.6,37.1 C9,37.8 10.3,38.3 11.4,38.7 C10,36.9 7.3,33.4 6.9,30.1 C6.1,23.8 7.9,19.2 11.2,13.8 C14.4,8.5 18.7,5.3 18.7,5.3 L16.7,0.4 C12.8,0.6 9.8,1.1 8.6,2.4 Z" id="XMLID_454_"></path>
                        </g>
                        <g id="XMLID_451_" transform="translate(8.000000, 0.000000)" fill="#F7E5E6">
                            <path d="M42.8,0.6 C42.8,0.6 34.8,27.2 33.7,44.9 C32.6,62.7 32.9,71.9 29,80.6 C25.1,89.3 20.6,95.4 17.8,111.5 C15,127.6 12.4,130.4 7.2,138.4 C2.1,146.4 0.2,165.6 0.6,171.4 C0.6,171.4 5.2,173.2 11.6,174.9 C11,149.9 18.2,130.3 21.3,125.9 C24.6,121.4 22.5,118.4 23.7,108.4 C24.9,98.4 32.6,84.8 35,82.5 C37.3,80.3 41.9,80.1 41.7,72.8 C41.5,65.5 41.4,61 44.3,59.3 C47.2,57.6 49.1,60.1 56.8,67.9 C62.5,73.7 73.4,73 77.8,74.2 C79.7,72 81.5,69.8 82.9,67.6 C88,59.8 63.1,-3.9 42.8,0.6 Z" id="XMLID_452_"></path>
                        </g>
                    </g>
                    <g id="XMLID_115_" transform="translate(54.000000, 0.000000)">
                        <g id="XMLID_448_" transform="translate(35.000000, 86.000000)" fill="#FFFFFF">
                            <path d="M63.7,6.6 L39.7,0.7 L39.7,0.5 L39.4,0.6 L39.1,0.5 L39.1,0.7 L15.2,6.6 C15.2,6.6 6.2,75.7 0.4,104.6 C12.3,109.1 25.3,111.6 38.8,111.6 C52.8,111.6 66.3,108.9 78.6,104 C72.5,74.9 63.7,6.6 63.7,6.6" id="XMLID_449_"></path>
                        </g>
                        <g id="XMLID_446_" transform="translate(56.000000, 89.000000)" fill="#F7E5E6">
                            <path d="M42.7,3.6 L32,0.9 L0.7,25.4 C0.7,25.4 1,33.9 5.2,39.1 C7.9,42.4 15.3,44.2 15.3,44.2 L16.2,63.5 L16.6,73.2 C16.6,73.2 18.1,76.2 23,75.8 C27,75.5 28,68.8 28.5,66.3 C29,63.8 29.9,43.9 29.9,43.9 C29.9,43.9 34.1,41.7 36,39.9 C36,39.9 38.4,37.3 40.4,37.9 C42.4,38.6 45.2,48.6 46.4,58.2 C47.5,67.8 48.5,89.2 45.3,99.8 C45.3,99.8 41.3,103.3 41.3,105.9 C46.9,104.7 52.4,103 57.6,100.9 C51.5,71.9 42.7,3.6 42.7,3.6" id="XMLID_447_"></path>
                        </g>
                        <g id="XMLID_444_" transform="translate(52.000000, 0.000000)" fill="#B09584">
                            <path d="M0.7,16.3 C0.7,16.3 0.3,1.8 4.8,0.7 C9.3,-0.4 13.2,1.5 18.6,13.2 C23.9,25 0.7,16.3 0.7,16.3" id="XMLID_445_"></path>
                        </g>
                        <g id="XMLID_442_" transform="translate(79.000000, 0.000000)" fill="#B09584">
                            <path d="M19.3,16.3 C19.3,16.3 19.7,1.8 15.2,0.7 C10.7,-0.4 6.8,1.5 1.4,13.2 C-3.9,25 19.3,16.3 19.3,16.3" id="XMLID_443_"></path>
                        </g>
                        <g id="XMLID_440_" transform="translate(90.000000, 1.000000)" fill="#937D6F">
                            <path d="M5.2,0.2 C5.5,2.9 6,10.3 1.9,13.8 C0.1,15.3 0.5,16.5 1.7,17.3 C5.3,16.4 8.3,15.3 8.3,15.3 C8.3,15.3 8.7,3 5.2,0.2" id="XMLID_441_"></path>
                        </g>
                        <g id="XMLID_438_" transform="translate(65.000000, 126.000000)" fill="#FFFFFF">
                            <path d="M10.8,0.4 L0.9,1 C0.9,1 2.1,18.7 3.9,27.8 C5.7,36.9 7.1,36.5 10.8,36.5 C13.8,36.5 15.9,36.9 17.7,27.8 C19.5,18.7 20.7,1 20.7,1 L10.8,0.4 Z" id="XMLID_439_"></path>
                        </g>
                        <g id="XMLID_436_" transform="translate(66.000000, 127.000000)" fill="#F7E5E6">
                            <path d="M19.7,0.1 L16.5,0 C16.2,3.9 15.7,16.6 15.3,21.9 C14.9,26.9 13.8,32.6 12.9,33.5 C12,34.3 8.5,34.7 7.1,34.1 C5.6,33.4 4.6,29.6 3.5,20.6 C2.7,13.6 1.9,4.2 1.4,0.1 L0,0.1 C0,0.1 1.2,17.8 3,26.9 C4.8,36 6.2,35.6 9.9,35.6 C12.9,35.6 15,36 16.8,26.9 C18.5,17.8 19.7,0.1 19.7,0.1" id="XMLID_437_"></path>
                        </g>
                        <g id="XMLID_434_" transform="translate(71.000000, 147.000000)" fill="#F7E5E6">
                            <path d="M1.7,14 C1.7,14 0.5,9.2 0.3,2.5 C0.1,-4.3 1.6,10.8 3.9,15.1" id="XMLID_435_"></path>
                        </g>
                        <g id="XMLID_432_" transform="translate(76.000000, 147.000000)" fill="#F7E5E6">
                            <path d="M0.6,15.1 C2.9,10.8 4.4,-4.2 4.2,2.5 C4,9.3 2.8,14 2.8,14" id="XMLID_433_"></path>
                        </g>
                        <g id="XMLID_430_" transform="translate(74.000000, 145.000000)" fill="#F7E5E6">
                            <path d="M0.9,16.9 C0.9,16.9 0.8,4.1 1.1,1.4 C1.4,-1.3 2.2,7.6 2.6,16.9" id="XMLID_431_"></path>
                        </g>
                        <g id="XMLID_428_" transform="translate(60.000000, 0.000000)" fill="#937D6F">
                            <path d="M0.1,0.6 C1.8,2.6 6.4,8.8 4.7,15.1 C3.4,20.1 7.8,19.8 11,17.8 C11.6,16.8 11.5,15.4 10.6,13.3 C6.5,4.4 3.3,1.2 0.1,0.6" id="XMLID_429_"></path>
                        </g>
                        <g id="XMLID_426_" transform="translate(67.000000, 128.000000)" fill="#F7E5E6">
                            <path d="M0.3,3.8 C0.3,3.8 10,6.5 17.8,5.2 L17.5,1.2 L0.3,0.9 L0.3,3.8 Z" id="XMLID_427_"></path>
                        </g>
                        <g id="XMLID_424_" transform="translate(0.000000, 12.000000)" fill="#FFFFFF">
                            <path d="M82.1,0.6 C85.2,0.2 91.4,0.1 94.8,1.8 C98.3,3.5 100.5,4.7 102.1,5.2 C103.7,5.6 110.7,8.9 112.6,18.5 C112.6,18.5 125,18.5 132.6,21.2 C140.2,23.9 147.1,29 149.8,31.8 C152.5,34.5 151.3,39.7 145.2,46.3 C139.1,52.8 132.4,57 127.9,55.8 C123.4,54.6 114.9,48.8 113.3,47.5 C111.7,46.2 108.7,46.6 108.4,47.4 C108.1,48.2 107.2,63.5 106.5,68.7 C105.8,73.9 105.3,79.7 102.1,83.5 C98.9,87.3 96.3,94.7 95.6,98.2 C94.9,101.7 94.2,118.7 75.7,118.9 L75.5,118.9 C57.5,119.4 56.8,103 56.1,99.5 C55.4,96 52.7,87.3 49.6,83.5 C46.4,79.7 45.9,73.9 45.2,68.7 C44.5,63.5 43.7,48.1 43.4,47.4 C43.1,46.6 40.1,46.2 38.5,47.5 C36.9,48.8 28.4,54.6 23.9,55.8 C19.4,57 12.7,52.9 6.6,46.3 C0.5,39.8 -0.7,34.5 2,31.8 C4.7,29.1 11.6,24 19.2,21.2 C26.8,18.5 39.2,18.5 39.2,18.5 C41,8.9 48,5.7 49.6,5.2 C51.2,4.8 53.4,3.6 56.9,1.8 C60.4,0.1 66.6,0.1 69.6,0.6 C69.8,0.6 77,1.3 82.1,0.6" id="XMLID_425_"></path>
                        </g>
                        <g id="XMLID_168_" transform="translate(41.000000, 33.000000)" fill="#937D6F">
                            <path d="M8.2,21.8 C3.8,21.8 0.5,17.6 0.5,11.9 C0.5,6.5 3.8,0.6 10.9,0.6 L11,0.6 C12.9,0.6 14.5,1.3 15.7,2.6 C17.4,4.3 18.2,7.1 18.1,10.3 C18,16.7 12.7,21.8 8.2,21.8 L8.2,21.8 Z M11,2.4 C5.1,2.4 2.5,7.3 2.5,11.9 C2.5,16.6 5,20 8.3,20 C11.8,20 16.2,15.6 16.4,10.2 C16.5,7.5 15.8,5.2 14.5,3.9 C13.6,2.9 12.4,2.4 11,2.4 L11,2.4 Z" id="XMLID_421_"></path>
                        </g>
                        <g id="XMLID_166_" transform="translate(85.000000, 29.000000)" fill="#F7E5E6">
                            <path d="M64.8,14.8 C62.1,12.1 55.2,7 47.6,4.2 C42.1,2.2 34.1,1.7 30.1,1.5 L23.3,3 C23.3,3 16.8,-0.1 11.5,1.3 C6.3,2.7 2.4,7 2.4,14.1 C2.4,21.2 1.1,33.5 0.2,36.6 C-0.8,39.7 14.5,43.6 8.4,68.8 L7.9,76.4 C7.9,76.4 10.5,73.8 12.8,73.2 C14.2,70.7 15.8,68.2 17.2,66.4 C20.4,62.6 20.9,56.8 21.6,51.6 C22.3,46.4 23.1,31 23.5,30.3 C23.8,29.5 26.8,29.1 28.4,30.4 C30,31.7 38.5,37.5 43,38.7 C47.5,39.9 54.2,35.8 60.3,29.2 C66.3,22.7 67.5,17.5 64.8,14.8" id="XMLID_167_"></path>
                        </g>
                        <g id="XMLID_164_" transform="translate(45.000000, 34.000000)" fill="#937D6F">
                            <path d="M13.1,8.3 C13.1,12.6 12,16 6.8,16 C3.3,16 0.5,12.6 0.5,8.3 C0.5,4 3.3,0.6 6.8,0.6 C10.3,0.6 13.1,4.1 13.1,8.3" id="XMLID_165_"></path>
                        </g>
                        <g id="XMLID_162_" transform="translate(49.000000, 36.000000)" fill="#F1F3F3">
                            <path d="M3.1,3.4 C2.7,4.4 1.7,4.9 1,4.6 C0.3,4.3 0,3.2 0.5,2.2 C0.9,1.2 1.9,0.7 2.6,1 C3.3,1.4 3.5,2.4 3.1,3.4" id="XMLID_163_"></path>
                        </g>
                        <g id="XMLID_160_" transform="translate(48.000000, 43.000000)" fill="#F1F3F3">
                            <path d="M4.2,2.5 C4.4,3.9 3.7,5.1 2.6,5.2 C1.6,5.3 0.6,4.3 0.4,2.9 C0.2,1.5 0.9,0.3 2,0.2 C3.1,0.1 4,1.1 4.2,2.5" id="XMLID_161_"></path>
                        </g>
                        <g id="XMLID_158_" transform="translate(95.000000, 36.000000)" fill="#F1F3F3">
                            <path d="M14,8.9 C14,13.8 11,17.8 7.3,17.8 C3.6,17.8 0.6,13.8 0.6,8.9 C0.6,4 3.6,0 7.3,0 C11,0 14,4 14,8.9" id="XMLID_159_"></path>
                        </g>
                        <g id="XMLID_154_" transform="translate(92.000000, 33.000000)" fill="#937D6F">
                            <path d="M10.8,21.8 C6.4,21.8 1.1,16.8 0.8,10.2 C0.7,7 1.5,4.2 3.2,2.5 C4.4,1.2 6.1,0.5 7.9,0.5 L8,0.5 C15.1,0.5 18.4,6.4 18.4,11.8 C18.5,17.6 15.3,21.8 10.8,21.8 M8.1,2.4 L8.1,2.4 C6.6,2.4 5.5,2.9 4.6,3.8 C3.3,5.2 2.6,7.4 2.7,10.1 C2.9,15.5 7.3,19.9 10.8,19.9 C14.2,19.9 16.6,16.5 16.6,11.8 C16.6,7.3 14,2.4 8.1,2.4" id="XMLID_155_"></path>
                        </g>
                        <g id="XMLID_152_" transform="translate(94.000000, 34.000000)" fill="#937D6F">
                            <path d="M0,8.3 C0,12.6 1.1,16 6.3,16 C9.8,16 12.6,12.6 12.6,8.3 C12.6,4 9.8,0.6 6.3,0.6 C2.8,0.6 0,4.1 0,8.3" id="XMLID_153_"></path>
                        </g>
                        <g id="XMLID_150_" transform="translate(83.000000, 59.000000)" fill="#F7E5E6">
                            <path d="M25.4,0.3 C24.6,0.9 22,2.9 21.7,4.4 C21.3,6.3 21.3,21.2 20.1,26.6 C19,32 12.7,40.4 11.5,43.6 C10.4,46.8 0.4,57.1 0.4,57.1 C0.4,57.1 5.6,61.6 8,64.9 C11.8,61 12.1,53.6 12.5,51.6 C13.2,48.1 16,40.3 19.1,36.5 C22.3,32.7 22.8,26.9 23.5,21.7 C24.2,16.4 25.1,1.1 25.4,0.3 C25.4,0.3 25.4,0.3 25.4,0.3" id="XMLID_151_"></path>
                        </g>
                        <g id="XMLID_148_" transform="translate(99.000000, 36.000000)" fill="#F1F3F3">
                            <path d="M1,3.4 C1.4,4.4 2.4,4.9 3.1,4.6 C3.8,4.3 4.1,3.2 3.6,2.2 C3.2,1.2 2.2,0.7 1.5,1 C0.8,1.4 0.5,2.4 1,3.4" id="XMLID_149_"></path>
                        </g>
                        <g id="XMLID_146_" transform="translate(99.000000, 43.000000)" fill="#F1F3F3">
                            <path d="M0.9,2.5 C0.7,3.9 1.4,5.1 2.5,5.2 C3.5,5.3 4.5,4.3 4.7,2.9 C4.9,1.5 4.2,0.3 3.1,0.2 C2,0.1 1,1.1 0.9,2.5" id="XMLID_147_"></path>
                        </g>
                        <g id="XMLID_144_" transform="translate(66.000000, 75.000000)" fill="#FDE5E5">
                            <path d="M4.3,5.3 C4.3,7.9 3.4,10 2.2,10 C1.1,10 0.1,7.9 0.1,5.3 C0.1,2.7 1,0.6 2.2,0.6 C3.4,0.5 4.3,2.7 4.3,5.3" id="XMLID_145_"></path>
                        </g>
                        <g id="XMLID_142_" transform="translate(80.000000, 75.000000)" fill="#FDE5E5">
                            <path d="M5.1,5.3 C5.1,7.9 4.2,10 3,10 C1.9,10 0.9,7.9 0.9,5.3 C0.9,2.7 1.8,0.6 3,0.6 C4.2,0.5 5.1,2.7 5.1,5.3" id="XMLID_143_"></path>
                        </g>
                        <g id="XMLID_140_" transform="translate(5.000000, 47.000000)" fill="#FDE5E5">
                            <path d="M30.4,6.3 C30.4,6.3 27.2,1.5 22.7,0.6 C18.2,-0.3 12.5,1.2 10.1,1.3 C7.7,1.4 2.3,1.4 0.9,1.1 C-0.6,0.9 -0.4,5.4 4.7,8.6 C9.8,11.8 13.8,13.6 20.8,11.7 C27.7,9.8 30.2,7.9 30.4,6.3" id="XMLID_141_"></path>
                        </g>
                        <g id="XMLID_138_" transform="translate(68.000000, 12.000000)" fill="#F7E5E6">
                            <path d="M64.6,21.2 C57,18.5 44.6,18.5 44.6,18.5 C42.8,8.9 35.8,5.7 34.1,5.2 C32.5,4.8 30.3,3.6 26.8,1.8 C23.3,0.1 17.1,0.2 14.1,0.6 C9,1.2 1.9,0.6 1.9,0.6 C1.5,0.5 1,0.5 0.5,0.4 C1.6,0.6 7.9,1.8 11.9,2.2 C16.3,2.7 22.4,1.9 26.8,4.6 C31.2,7.4 34.6,8 36.2,9.4 C37.8,10.8 40.9,16.7 40,20 C40,20 51.8,19.9 60.8,22.9 C69.4,25.8 79.1,29.4 83,36.7 C83.5,34.6 83,32.8 81.8,31.6 C79,29 72.2,23.9 64.6,21.2" id="XMLID_139_"></path>
                        </g>
                        <g id="XMLID_136_" transform="translate(5.000000, 47.000000)" fill="#FACCDB">
                            <path d="M22.7,0.6 C18.2,-0.3 12.5,1.2 10.1,1.3 C7.7,1.4 2.3,1.4 0.9,1.1 C0.8,1.1 0.7,1.1 0.6,1.1 C1.9,1.9 4.7,3.1 10.3,3 C18.4,2.8 27.1,5.3 26.7,9.7 C29.2,8.5 30.3,7.4 30.4,6.3 C30.4,6.3 27.2,1.5 22.7,0.6" id="XMLID_137_"></path>
                        </g>
                        <g id="XMLID_134_" transform="translate(116.000000, 47.000000)" fill="#FACCDB">
                            <path d="M0.5,6.3 C0.5,6.3 3.7,1.5 8.2,0.6 C12.7,-0.3 18.4,1.2 20.8,1.3 C23.2,1.4 28.6,1.4 30,1.1 C31.5,0.9 31.3,5.4 26.2,8.6 C21.1,11.8 17.1,13.6 10.1,11.7 C3.2,9.8 0.6,7.9 0.5,6.3" id="XMLID_135_"></path>
                        </g>
                        <g id="XMLID_132_" transform="translate(54.000000, 85.000000)" fill="#FACCDB">
                            <path d="M41,0 C39.2,1.1 30.7,5.1 28.7,5.1 C27.1,5.1 25.6,4.9 24.7,4.7 C22.2,4.1 21.6,4.1 21.6,4.1 L21.4,4.1 L21.2,4.1 C21.2,4.1 20.7,4.1 18.1,4.7 C17.2,4.9 15.7,5.1 14.1,5.1 C12.1,5.1 2.1,1.1 0.3,0 C0.3,0 2.8,8.8 2.9,15.6 C2.9,20.1 5.3,25.4 5.4,28.2 C5.5,35.1 13.5,30.6 17.7,30.6 C18.8,30.6 20.1,30.6 21.4,30.7 C22.8,30.7 24.1,30.6 25.1,30.6 C29.2,30.6 37.3,35.1 37.4,28.2 C37.4,24.9 39.9,19.4 39.2,14.3 C38.5,8.7 41,0 41,0" id="XMLID_133_"></path>
                        </g>
                        <g id="XMLID_130_" transform="translate(59.000000, 87.000000)" fill="#FFFFFF">
                            <path d="M0.3,0.5 C0.3,0.5 -0.3,2.8 0.3,3.7 C1,4.7 2.7,7.1 9.7,7.1 C13.2,7.1 20.4,7.1 22.3,7.1 C29.2,7.3 31.1,5.4 31.7,5 C33.4,4.1 32.1,1.1 32.2,0.8 C32.3,0.5 25,2.6 22.6,2.5 C20.3,2.4 17.4,1.7 14.2,2 C11,2.3 6.8,3 5.7,2.9" id="XMLID_131_"></path>
                        </g>
                        <g id="XMLID_126_" transform="translate(52.000000, 82.000000)" fill="#F7E5E6">
                            <path d="M35.8,36.5 C34.2,36.5 32.5,36.1 30.9,35.7 C29.5,35.4 28.2,35.1 27.2,35.1 C26.1,35.1 24.9,35.1 23.5,35.2 C22.1,35.2 20.8,35.1 19.7,35.1 C18.7,35.1 17.4,35.4 16,35.7 C13.1,36.4 9.8,37.2 7.7,35.5 C6.5,34.6 5.9,33.1 5.9,31.2 C5.9,30 4.7,24.4 3.6,19.4 C1.6,10.1 0.3,3.8 0.4,2 C0.4,1.5 0.7,1.1 1.2,0.8 C1.6,0.6 2.1,0.5 2.6,0.8 C7.7,3.2 10.8,5.3 10.9,5.4 C12.5,6.3 14.6,6.5 16.1,6.5 C18,6.5 19.4,6.2 19.7,6.1 C22.1,5.5 22.8,5.4 23,5.4 L23.3,5.4 L23.5,5.4 C23.8,5.4 24.5,5.5 26.9,6.1 C27.3,6.2 28.7,6.5 30.5,6.5 C32,6.5 34.1,6.3 35.8,5.3 L42.6,0.8 C43.1,0.5 43.7,0.5 44.2,0.8 C44.7,1.1 45,1.7 44.9,2.3 C43.8,9.5 40.8,28.6 40.8,31.1 C40.8,33.1 40.2,34.5 39,35.4 C38.2,36.3 37,36.5 35.8,36.5 Z M27.2,32.1 C28.5,32.1 30,32.5 31.6,32.8 C33.7,33.3 36.4,33.9 37.4,33.2 C37.8,32.9 38,32.2 38,31.2 C38,28.6 40.5,12.5 41.6,5.3 L37.7,7.9 C37.7,7.9 37.7,7.9 37.6,7.9 C35.4,9.2 32.7,9.5 30.8,9.5 C29.3,9.5 27.7,9.3 26.5,9 C24.6,8.5 23.9,8.4 23.7,8.4 L23.6,8.4 L23.5,8.4 C23.3,8.4 22.6,8.5 20.7,9 C19.5,9.3 17.8,9.5 16.4,9.5 C14.5,9.5 11.8,9.2 9.6,7.9 C9.5,7.8 7.4,6.4 4,4.6 C4.5,8 5.8,14 6.9,18.7 C8.4,25.5 9.3,29.7 9.3,31.1 C9.3,32.1 9.5,32.8 9.9,33.1 C10.9,33.9 13.5,33.2 15.7,32.7 C17.3,32.3 18.8,32 20.1,32 L20.1,32 C21.2,32 22.5,32 23.9,32.1 C24.8,32.1 26.1,32.1 27.2,32.1 Z" id="XMLID_127_"></path>
                        </g>
                        <g id="XMLID_124_" transform="translate(62.000000, 111.000000)" fill="#FFFFFF">
                            <path d="M0.8,5.4 C3,5.4 5.8,4.4 8.5,4.1 C10.4,3.9 16.1,4 18.3,4 C19.3,4 21.1,4.6 22.7,5 C25.9,5.6 26.6,5.4 26.6,5.4 L25.2,1.5 C25.2,1.5 17.7,0.6 16.4,0.6 C15.1,0.6 10.3,1.1 9.5,1.2 C9.5,1.2 3.9,1 2.5,1 C1.3,0.8 0.8,5.4 0.8,5.4" id="XMLID_125_"></path>
                        </g>
                        <g id="XMLID_122_" transform="translate(70.000000, 103.000000)" fill="#F16056">
                            <path d="M3.7,4.3 C6.7,2.1 10.2,1.4 16,0.9 C24.8,0.1 31.1,5.3 33.1,8.4 C35.1,11.5 34.6,15.7 32.7,17.9 C30.8,20.1 26.7,20.7 24.1,19.1 C21.5,17.5 17.8,11.7 15,10.4 C12.2,9.1 8,8.3 5.1,8.7 C2.1,9.1 0.4,8.9 0.4,8.9 C0.4,8.9 0.9,6.3 3.7,4.3" id="XMLID_123_"></path>
                        </g>
                        <g id="XMLID_120_" transform="translate(85.000000, 110.000000)" fill="#F58964">
                            <path d="M12.4,11 C11.8,11 11.1,10.9 10.5,10.7 C8.2,9.9 6.6,7.8 5.5,6.3 C5.3,6.1 5.2,5.8 5,5.7 C3.6,3.9 1.6,2.8 1.6,2.8 C0.9,2.4 0.6,1.5 1,0.8 C1.4,0.1 2.3,-0.2 3,0.2 C3.1,0.3 5.5,1.5 7.4,3.9 C7.6,4.1 7.7,4.3 7.9,4.6 C8.8,5.8 10,7.4 11.4,7.9 C13,8.4 14.2,7.6 14.5,7.1 C15,6.4 15.9,6.2 16.6,6.7 C17.3,7.2 17.5,8.1 17,8.8 C16.2,10 14.4,11 12.4,11 Z" id="XMLID_121_"></path>
                        </g>
                        <g id="XMLID_118_" transform="translate(45.000000, 46.000000)" fill="#FFFFFF">
                            <path d="M0.5,9 C0.5,9 2.4,5.5 5.7,2.8 C9.1,0.1 15.1,0.2 18.5,2.2 C21.9,4.2 12.5,13.5 11.4,13.8" id="XMLID_119_"></path>
                        </g>
                        <g id="XMLID_116_" transform="translate(89.000000, 46.000000)" fill="#F7E5E6">
                            <path d="M18.8,9 C18.8,9 16.9,5.5 13.6,2.8 C10.2,0.1 4.2,0.2 0.8,2.2 C-2.6,4.2 6.8,13.5 7.9,13.8" id="XMLID_117_"></path>
                        </g>
                    </g>
                    <g id="XMLID_100_" transform="translate(159.000000, 329.000000)">
                        <g id="XMLID_113_" transform="translate(61.000000, 179.000000)" fill="#937D6F">
                            <path d="M20.1,24.4 C20.1,24.4 12.9,24.1 7.8,27.3 C2.8,30.5 -0.4,15.9 1.4,11.1 C3.2,6.3 5.8,0.6 9.3,1 C12.8,1.4 21.2,1.5 22.3,8.5 C23.3,15.4 20.1,24.4 20.1,24.4 Z" id="XMLID_114_"></path>
                        </g>
                        <g id="XMLID_111_" transform="translate(46.000000, 167.000000)" fill="#B09584">
                            <path d="M42.8,1.9 C42.8,1.9 48.1,10.6 51,18.2 C53.9,25.7 52.4,32.8 45.5,36.6 C38.7,40.4 34.3,40 34.3,40 C34.3,40 33.5,30.8 32.3,26.9 C31.1,23 27.9,14.5 23.6,15.9 C19.3,17.3 20.7,26.6 22,30.1 C23.2,33.6 26.2,42.3 26.2,42.3 C26.2,42.3 20.6,44.4 11.2,42.8 C1.8,41.2 0.7,32.4 0.4,29.7 C0.1,26.9 -0.1,17.6 0.8,13.1 C1.5,9.3 2,6.9 2,6.9 C2,6.9 37.8,-3.4 42.8,1.9 Z" id="XMLID_112_"></path>
                        </g>
                        <g id="XMLID_109_" transform="translate(46.000000, 173.000000)" fill="#937D6F">
                            <path d="M0.9,7.1 C1.6,3.3 2.1,0.9 2.1,0.9 C2.1,0.9 2.1,0.9 2.1,0.9 L5.4,2.2 C5.4,2.2 2.8,15.2 4.4,22.7 C5.7,28.8 6.8,33.1 9.8,36.5 C1.8,34.3 0.8,26.3 0.5,23.7 C0.3,20.9 1.11022302e-16,11.6 0.9,7.1 Z" id="XMLID_110_"></path>
                        </g>
                        <g id="XMLID_107_" fill="#FFFFFF">
                            <path d="M38.5,0.3 C38.5,0.3 47.8,26.4 49.7,44.2 C51.6,61.9 51.8,71.1 56.1,79.6 C60.4,88.1 65.2,94 68.8,109.9 C72.3,125.8 75.1,128.5 80.7,136.3 C86.2,144.1 89,163.2 88.9,168.9 C88.9,168.9 64,180.4 48.4,174.6 C48.4,174.6 44.4,168.1 43.2,157.8 C42.1,147.5 45.3,142.2 40.5,133.8 C35.7,125.4 32.7,115.6 31.3,109.5 C29.9,103.4 29.3,97.8 23.8,91.7 C18.2,85.6 7.3,77.2 1.7,69.4 C-3.8,61.6 17.9,-3.2 38.5,0.3 Z" id="XMLID_108_"></path>
                        </g>
                        <g id="XMLID_105_" transform="translate(79.000000, 167.000000)" fill="#937D6F">
                            <path d="M9.8,1.9 C9.8,1.9 15.1,10.6 18,18.2 C20.9,25.7 19.4,32.8 12.5,36.6 C11.2,37.3 9.9,37.9 8.8,38.4 C10.1,36.6 12.6,32.9 12.9,29.6 C13.4,23.3 11.4,18.8 7.9,13.6 C4.4,8.5 5.68434189e-14,5.5 5.68434189e-14,5.5 L1.8,0.5 C5.6,0.3 8.6,0.7 9.8,1.9 Z" id="XMLID_106_"></path>
                        </g>
                        <g id="XMLID_103_" fill="#F7E5E6">
                            <path d="M38.5,0.3 C38.5,0.3 47.8,26.4 49.7,44.2 C51.6,61.9 51.8,71.1 56.1,79.6 C60.4,88.1 65.2,94 68.8,109.9 C72.3,125.8 75.1,128.5 80.7,136.3 C86.2,144.1 89,163.2 88.9,168.9 C88.9,168.9 84.4,171 78.1,172.9 C77.5,147.9 69.4,128.7 66.1,124.5 C62.6,120.1 64.6,117.1 62.9,107.1 C61.2,97.2 52.8,83.9 50.4,81.8 C48,79.7 43.4,79.7 43.3,72.4 C43.2,65 41.4,56.7 38.5,55.2 C35.6,53.7 33.7,56.2 26.4,64.4 C21,70.5 11.6,74.2 7.3,75.6 C5.2,73.5 3.4,71.4 1.9,69.3 C-3.8,61.6 17.9,-3.2 38.5,0.3 Z" id="XMLID_104_"></path>
                        </g>
                        <g id="XMLID_101_" transform="translate(0.000000, 63.000000)" fill="#F7E5E6">
                            <path d="M48.3,111.6 C49.3,112 50.3,112.3 51.3,112.5 C47.5,103.5 46.1,91.5 45.5,88.8 C44.9,86.1 45.7,79.3 45.4,76 C45.1,72.7 43.4,70.5 41.2,66.8 C39.1,63.1 35.2,53.2 33.9,48.9 C32.6,44.6 32.4,36.8 29.7,31.5 C27,26.2 20.8,21.6 17.2,18.7 C13.7,15.8 11.2,12.8 11.6,11.8 C12,10.8 14.8,9.3 14.8,9.3 L0.6,0.3 C0.4,3.1 0.7,5.2 1.4,6.3 C6.9,14.1 17.9,22.4 23.5,28.6 C29.1,34.7 29.6,40.4 31,46.4 C32.4,52.5 35.5,62.3 40.2,70.7 C45,79.1 41.8,84.4 42.9,94.7 C44.3,105.1 48.3,111.6 48.3,111.6 Z" id="XMLID_102_"></path>
                        </g>
                    </g>
                    <g id="XMLID_98_" transform="translate(41.000000, 187.000000)" fill="#FFFFFF">
                        <path d="M164.9,114.2 C160.8,84.2 144.6,53.5 140.2,42.1 C132.4,21.8 125.7,2.5 125.7,2.5 C125.7,2.5 125.6,2.5 122.7,1.9 C113.4,2.32036612e-14 99.2,0.3 91.5,0.6 C90.2,0.5 88.8,0.5 87.2,0.5 L87.2,0.5 C87.2,0.5 87.2,0.5 87.2,0.5 C87.2,0.5 87.2,0.5 87.2,0.5 L87.2,0.5 C85.6,0.5 84.2,0.6 82.9,0.6 C75.2,0.3 61.1,2.32036612e-14 51.7,1.9 C48.8,2.5 48.7,2.5 48.7,2.5 C48.7,2.5 40.7,24 27.5,47.4 C21.5,58.1 6.4,87.2 2.3,117.2 C-1.6,145.7 1.2,160.3 7.1,174 C13,187.7 20,197.1 34.1,206.8 C43.8,213.5 57.4,214.6 64.9,214.7 L64.9,214.7 C64.9,214.7 64.9,214.7 64.9,214.7 C64.9,214.7 64.9,214.7 64.9,214.7 L64.9,214.7 C66.2,214.7 67.6,214.6 69.2,214.6 C70.8,214.7 72.2,214.7 73.5,214.7 L73.5,214.7 C73.5,214.7 73.5,214.7 73.5,214.7 C73.5,214.7 73.5,214.7 73.5,214.7 L73.5,214.7 C81,214.6 125.8,214.1 135.9,208 C156.4,195.6 158.8,183.8 164.7,170.1 C170.7,156.5 168.8,142.8 164.9,114.2 Z" id="XMLID_99_"></path>
                    </g>
                    <path d="M209.5,336.9 C205.4,325.1 190.7,284.1 190.7,284.1 C190.7,284.1 192.9,290.3 182.3,294.6 C174.7,297.7 168,295.8 163.7,289.8 C161.5,286.7 159.1,280.1 162.1,250.7 C164,232.3 147.3,292.2 147.3,292.2 L110.6,289.8 L106.3,278.7 L104,264.4 L98.1,243 L96.5,243.2 C96.5,243.2 103.7,268.6 96.5,284.5 C89.3,300.4 77.2,306 71.2,320.3 C65.2,334.6 67.4,358.3 83.5,366.8 C102.4,376.8 125.4,371.2 146.1,367.8 C165.2,364.7 172.7,384.6 149.6,400.4 C161.3,399.4 172.5,397.8 176.9,395.2 C197.4,382.8 199.8,371 205.7,357.3 C208.5,350.9 209.6,344.6 209.5,336.9 Z" id="XMLID_47_" fill="#FDE5E5"></path>
                    <g id="XMLID_94_" transform="translate(90.000000, 176.000000)" fill="#937D6F">
                        <path d="M1.7,0.8 C1.3,3.4 0.8,5.8 0.4,8.2 C12.3,12.4 24.8,14.5 37.6,14.5 C50.9,14.5 63.8,12.2 76.2,7.7 C75.8,5.4 75.4,2.9 74.9,0.3 C63,4.8 50.5,7.1 37.6,7.1 C25.3,7.1 13.2,4.9 1.7,0.8 Z" id="XMLID_95_"></path>
                    </g>
                    <g id="XMLID_92_" transform="translate(87.000000, 201.000000)" fill="#F7E5E6">
                        <path d="M5.8,0.8 C5.8,0.8 5,7.4 9.2,21.7 C13.4,36 20.7,59.4 21.5,81.7 L18.3,83.4 C18.3,83.4 16.4,65.9 13.8,55.3 C11.2,44.7 5.4,33.3 2.4,21.5 C-0.6,9.6 0.3,4.5 5.8,0.8 Z" id="XMLID_93_"></path>
                    </g>
                    <g id="XMLID_90_" transform="translate(148.000000, 201.000000)" fill="#F7E5E6">
                        <path d="M16.5,0.8 C16.5,0.8 17.3,7.4 13.1,21.7 C8.9,36 1.3,60.2 0.5,82.5 L5,83.1 C5,83.1 6.5,66.8 9.1,56.2 C11.7,45.6 16.7,33.4 19.8,21.5 C23,9.6 22,4.5 16.5,0.8 Z" id="XMLID_91_"></path>
                    </g>
                    <g id="XMLID_88_" transform="translate(153.000000, 218.000000)" fill="#F7E5E6">
                        <path d="M4.2,71.7 C4.2,71.7 3.9,63.2 5.5,52.8 C7.1,42.4 17.6,15.7 18.1,5.9 C18.5,-3.9 12.7,3.7 12.7,5.6 C12.7,7.5 6.6,27.1 6.3,27.9 C6.1,28.7 1.4,47.9 1.4,48.2 C1.4,48.5 0.1,63.9 0.1,63.9 L0.3,70.4" id="XMLID_89_"></path>
                    </g>
                    <g id="XMLID_86_" transform="translate(157.000000, 186.000000)" fill="#F7E5E6">
                        <path d="M48.9,114 C44.8,84 28.6,53.3 24.2,41.9 C16.4,21.6 9.7,2.3 9.7,2.3 C9.7,2.3 9.6,2.3 6.7,1.7 C4.9,1.3 2.8,1 0.7,0.8 C2,4.7 5.5,14.5 6.7,16.9 C8.2,19.9 11,37.2 11,37.2 C11,37.2 26.5,69.2 30.3,81.7 C34.1,94.2 35.2,107.8 34.3,112.8 C33.4,117.8 26,130.3 7,133.3 C7,133.3 30.6,139.6 38.9,133.2 C42.4,130.5 46.4,125.8 49.9,120.8 C49.6,118.5 49.3,116.3 48.9,114 Z" id="XMLID_87_"></path>
                    </g>
                    <g id="XMLID_84_" transform="translate(126.000000, 209.000000)" fill="#F7E5E6">
                        <path d="M1,74.1 C1,74.1 0.6,21 0.8,15.9 C1,10.8 2.4,-15.4 3.7,14 C4.9,41.2 4.2,75.4 4.2,75.4" id="XMLID_85_"></path>
                    </g>
                    <g id="XMLID_82_" transform="translate(108.000000, 283.000000)" fill="#F7E5E6">
                        <path d="M49.2,18.7 C49.2,18.6 49.1,18.5 49.1,18.3 L47.8,4.5 C47.8,4.3 47.7,4.1 47.5,4 C43.6,1.6 39.6,0.4 35.7,0.4 C29.7,0.4 25.2,3.2 24.4,3.8 C20.6,1.6 16.8,0.4 13,0.4 C6.4,0.4 1.7,3.7 1.5,3.9 C1.3,4 1.2,4.2 1.2,4.4 L0.4,18.3 C0.4,18.4 0.3,18.6 0.3,18.7 C0.1,22 7,23.5 13.5,23.5 C17.9,23.5 22.4,22.8 24.8,21.3 C27.2,22.8 31.8,23.5 36.2,23.5 C42.7,23.5 49.5,21.9 49.2,18.7 Z" id="XMLID_83_"></path>
                    </g>
                    <g id="XMLID_41_" transform="translate(127.000000, 280.000000)">
                        <path d="M28.7,18 L27.3,5.1 C27.3,4.9 27.1,4.7 26.9,4.6 C22.7,2 18.4,0.7 14.1,0.7 C7,0.7 1.9,4.3 1.7,4.4 C1.5,4.5 1.4,4.7 1.4,4.9 L0.5,18.1 C0.5,18.2 0.4,18.3 0.4,18.4 C0.2,21.9 7.6,23.6 14.7,23.6 C21.7,23.6 29.1,21.9 28.8,18.4 C28.8,18.3 28.8,18.1 28.7,18 Z" id="XMLID_43_" fill="#B09584"></path>
                        <path d="M14.7,23.6 C15.5,23.6 16.4,23.6 17.2,23.5 L17.2,7.5 C17.2,6 15.8,4.9 14.2,4.9 C12.6,4.9 11.3,6.1 11.3,7.5 L11.3,23.4 C12.4,23.6 13.6,23.6 14.7,23.6 Z" id="XMLID_42_" fill="#937D6F"></path>
                    </g>
                    <g id="XMLID_2_" transform="translate(103.000000, 280.000000)">
                        <path d="M29.3,18 L27.9,5.1 C27.9,4.9 27.7,4.7 27.5,4.6 C23.3,2 19,0.7 14.7,0.7 C7.6,0.7 2.5,4.3 2.3,4.4 C2.1,4.5 2,4.7 2,4.9 L1.1,18.1 C1.1,18.2 1,18.3 1,18.4 C0.8,21.9 8.2,23.6 15.3,23.6 C22.3,23.6 29.7,21.9 29.4,18.4 C29.4,18.3 29.3,18.1 29.3,18 Z" id="XMLID_173_" fill="#B09584"></path>
                        <path d="M15.3,23.6 C16.1,23.6 17,23.6 17.8,23.5 L17.8,7.5 C17.8,6 16.4,4.9 14.8,4.9 C13.2,4.9 11.9,6.1 11.9,7.5 L11.9,23.4 C13,23.6 14.2,23.6 15.3,23.6 Z" id="XMLID_174_" fill="#937D6F"></path>
                    </g>
                </g>
            </g>
        </g>
    </g>
</svg>