<svg width="258" height="541" xmlns="http://www.w3.org/2000/svg"><g fill-rule="nonzero" fill="none"><path d="M17.9 534.5s7.2-.7 12.4 2.3 7.6-11.8 5.7-16.5c-2-4.7-4.9-10.3-8.3-9.7-3.5.5-11.9 1-12.6 8.1-.8 6.9 2.8 15.8 2.8 15.8z" fill="#937D6F"/><path d="M8.6 500.4s-4.9 9-7.4 16.6c-2.6 7.7-.6 14.7 6.4 18.1 7 3.4 11.3 2.9 11.3 2.9s.4-9.3 1.4-13.2c1-4 3.8-12.6 8.2-11.4 4.3 1.2 3.4 10.6 2.3 14.1-1 3.5-3.6 12.4-3.6 12.4s5.7 1.8 15-.3 10-10.9 10.1-13.6c.1-2.8-.1-12.1-1.2-16.6-.9-3.8-1.5-6.1-1.5-6.1s-36.2-8.4-41-2.9z" fill="#B09584"/><path d="M51 509.5c-.9-3.8-1.5-6.1-1.5-6.1l-3.2 1.5s3.3 12.9 2 20.4c-1 6.2-1.8 10.5-4.8 14 7.9-2.6 8.5-10.6 8.6-13.2.2-2.8 0-12.1-1.1-16.6z" fill="#937D6F"/><path d="M50.8 329.6s-8 26.6-9.1 44.3c-1.1 17.8-.8 27-4.7 35.7-3.9 8.7-8.4 14.8-11.2 30.9-2.8 16.1-5.4 18.9-10.6 26.9-5.1 8-7 27.2-6.6 33 0 0 25.4 10.2 40.7 3.7 0 0 3.7-6.7 4.4-17.1.6-10.4-2.8-15.4 1.5-24.1 4.4-8.6 6.9-18.6 8-24.7 1.1-6.2 1.4-11.8 6.6-18.2 5.3-6.4 15.8-15.3 21-23.3 5.2-7.9-19.7-71.6-40-67.1z" fill="#FFF"/><path d="M8.6 500.4s-4.9 9-7.4 16.6c-2.6 7.7-.6 14.7 6.4 18.1 1.4.7 2.7 1.2 3.8 1.6-1.4-1.8-4.1-5.3-4.5-8.6-.8-6.3 1-10.9 4.3-16.3 3.2-5.3 7.5-8.5 7.5-8.5l-2-4.9c-3.9.2-6.9.7-8.1 2z" fill="#937D6F"/><path d="M50.8 329.6s-8 26.6-9.1 44.3c-1.1 17.8-.8 27-4.7 35.7-3.9 8.7-8.4 14.8-11.2 30.9-2.8 16.1-5.4 18.9-10.6 26.9-5.1 8-7 27.2-6.6 33 0 0 4.6 1.8 11 3.5-.6-25 6.6-44.6 9.7-49 3.3-4.5 1.2-7.5 2.4-17.5s8.9-23.6 11.3-25.9c2.3-2.2 6.9-2.4 6.7-9.7-.2-7.3-.3-11.8 2.6-13.5 2.9-1.7 4.8.8 12.5 8.6 5.7 5.8 16.6 5.1 21 6.3 1.9-2.2 3.7-4.4 5.1-6.6 5.1-7.8-19.8-71.5-40.1-67z" fill="#F7E5E6"/><path d="M152.7 92.6l-24-5.9v-.2l-.3.1-.3-.1v.2l-23.9 5.9s-9 69.1-14.8 98c11.9 4.5 24.9 7 38.4 7 14 0 27.5-2.7 39.8-7.6-6.1-29.1-14.9-97.4-14.9-97.4" fill="#FFF"/><path d="M152.7 92.6L142 89.9l-31.3 24.5s.3 8.5 4.5 13.7c2.7 3.3 10.1 5.1 10.1 5.1l.9 19.3.4 9.7s1.5 3 6.4 2.6c4-.3 5-7 5.5-9.5s1.4-22.4 1.4-22.4 4.2-2.2 6.1-4c0 0 2.4-2.6 4.4-2 2 .7 4.8 10.7 6 20.3 1.1 9.6 2.1 31-1.1 41.6 0 0-4 3.5-4 6.1 5.6-1.2 11.1-2.9 16.3-5-6.1-29-14.9-97.3-14.9-97.3" fill="#F7E5E6"/><path d="M106.7 16.3s-.4-14.5 4.1-15.6c4.5-1.1 8.4.8 13.8 12.5 5.3 11.8-17.9 3.1-17.9 3.1M152.3 16.3s.4-14.5-4.1-15.6c-4.5-1.1-8.4.8-13.8 12.5-5.3 11.8 17.9 3.1 17.9 3.1" fill="#B09584"/><path d="M149.2 1.2c.3 2.7.8 10.1-3.3 13.6-1.8 1.5-1.4 2.7-.2 3.5 3.6-.9 6.6-2 6.6-2s.4-12.3-3.1-15.1" fill="#937D6F"/><path d="M129.8 126.4l-9.9.6s1.2 17.7 3 26.8c1.8 9.1 3.2 8.7 6.9 8.7 3 0 5.1.4 6.9-8.7 1.8-9.1 3-26.8 3-26.8l-9.9-.6z" fill="#FFF"/><path d="M139.7 127.1l-3.2-.1c-.3 3.9-.8 16.6-1.2 21.9-.4 5-1.5 10.7-2.4 11.6-.9.8-4.4 1.2-5.8.6-1.5-.7-2.5-4.5-3.6-13.5-.8-7-1.6-16.4-2.1-20.5H120s1.2 17.7 3 26.8c1.8 9.1 3.2 8.7 6.9 8.7 3 0 5.1.4 6.9-8.7 1.7-9.1 2.9-26.8 2.9-26.8" fill="#F7E5E6"/><path d="M126.7 161s-1.2-4.8-1.4-11.5c-.2-6.8 1.3 8.3 3.6 12.6M130.6 162.1c2.3-4.3 3.8-19.3 3.6-12.6-.2 6.8-1.4 11.5-1.4 11.5M128.9 161.9s-.1-12.8.2-15.5c.3-2.7 1.1 6.2 1.5 15.5" fill="#F7E5E6"/><path d="M114.1.6c1.7 2 6.3 8.2 4.6 14.5-1.3 5 3.1 4.7 6.3 2.7.6-1 .5-2.4-.4-4.5-4.1-8.9-7.3-12.1-10.5-12.7" fill="#937D6F"/><path d="M121.3 131.8s9.7 2.7 17.5 1.4l-.3-4-17.2-.3v2.9z" fill="#F7E5E6"/><path d="M136.1 12.6c3.1-.4 9.3-.5 12.7 1.2 3.5 1.7 5.7 2.9 7.3 3.4 1.6.4 8.6 3.7 10.5 13.3 0 0 12.4 0 20 2.7s14.5 7.8 17.2 10.6c2.7 2.7 1.5 7.9-4.6 14.5-6.1 6.5-12.8 10.7-17.3 9.5-4.5-1.2-13-7-14.6-8.3-1.6-1.3-4.6-.9-4.9-.1-.3.8-1.2 16.1-1.9 21.3-.7 5.2-1.2 11-4.4 14.8-3.2 3.8-5.8 11.2-6.5 14.7-.7 3.5-1.4 20.5-19.9 20.7h-.2c-18 .5-18.7-15.9-19.4-19.4-.7-3.5-3.4-12.2-6.5-16-3.2-3.8-3.7-9.6-4.4-14.8-.7-5.2-1.5-20.6-1.8-21.3-.3-.8-3.3-1.2-4.9.1-1.6 1.3-10.1 7.1-14.6 8.3-4.5 1.2-11.2-2.9-17.3-9.5-6.1-6.5-7.3-11.8-4.6-14.5 2.7-2.7 9.6-7.8 17.2-10.6 7.6-2.7 20-2.7 20-2.7 1.8-9.6 8.8-12.8 10.4-13.3 1.6-.4 3.8-1.6 7.3-3.4 3.5-1.7 9.7-1.7 12.7-1.2.2 0 7.4.7 12.5 0" fill="#FFF"/><path d="M103.2 54.8c-4.4 0-7.7-4.2-7.7-9.9 0-5.4 3.3-11.3 10.4-11.3h.1c1.9 0 3.5.7 4.7 2 1.7 1.7 2.5 4.5 2.4 7.7-.1 6.4-5.4 11.5-9.9 11.5zm2.8-19.4c-5.9 0-8.5 4.9-8.5 9.5 0 4.7 2.5 8.1 5.8 8.1 3.5 0 7.9-4.4 8.1-9.8.1-2.7-.6-5-1.9-6.3-.9-1-2.1-1.5-3.5-1.5z" fill="#937D6F"/><path d="M203.8 43.8c-2.7-2.7-9.6-7.8-17.2-10.6-5.5-2-13.5-2.5-17.5-2.7l-6.8 1.5s-6.5-3.1-11.8-1.7c-5.2 1.4-9.1 5.7-9.1 12.8 0 7.1-1.3 19.4-2.2 22.5-1 3.1 14.3 7 8.2 32.2l-.5 7.6s2.6-2.6 4.9-3.2c1.4-2.5 3-5 4.4-6.8 3.2-3.8 3.7-9.6 4.4-14.8.7-5.2 1.5-20.6 1.9-21.3.3-.8 3.3-1.2 4.9.1 1.6 1.3 10.1 7.1 14.6 8.3 4.5 1.2 11.2-2.9 17.3-9.5 6-6.5 7.2-11.7 4.5-14.4" fill="#F7E5E6"/><path d="M112.1 42.3c0 4.3-1.1 7.7-6.3 7.7-3.5 0-6.3-3.4-6.3-7.7 0-4.3 2.8-7.7 6.3-7.7s6.3 3.5 6.3 7.7" fill="#937D6F"/><path d="M106.1 39.4c-.4 1-1.4 1.5-2.1 1.2-.7-.3-1-1.4-.5-2.4.4-1 1.4-1.5 2.1-1.2.7.4.9 1.4.5 2.4M106.2 45.5c.2 1.4-.5 2.6-1.6 2.7-1 .1-2-.9-2.2-2.3-.2-1.4.5-2.6 1.6-2.7 1.1-.1 2 .9 2.2 2.3M163 44.9c0 4.9-3 8.9-6.7 8.9s-6.7-4-6.7-8.9 3-8.9 6.7-8.9 6.7 4 6.7 8.9" fill="#F1F3F3"/><path d="M156.8 54.8c-4.4 0-9.7-5-10-11.6-.1-3.2.7-6 2.4-7.7 1.2-1.3 2.9-2 4.7-2h.1c7.1 0 10.4 5.9 10.4 11.3.1 5.8-3.1 10-7.6 10m-2.7-19.4c-1.5 0-2.6.5-3.5 1.4-1.3 1.4-2 3.6-1.9 6.3.2 5.4 4.6 9.8 8.1 9.8 3.4 0 5.8-3.4 5.8-8.1 0-4.5-2.6-9.4-8.5-9.4" fill="#937D6F"/><path d="M148 42.3c0 4.3 1.1 7.7 6.3 7.7 3.5 0 6.3-3.4 6.3-7.7 0-4.3-2.8-7.7-6.3-7.7s-6.3 3.5-6.3 7.7" fill="#937D6F"/><path d="M162.4 59.3c-.8.6-3.4 2.6-3.7 4.1-.4 1.9-.4 16.8-1.6 22.2-1.1 5.4-7.4 13.8-8.6 17-1.1 3.2-11.1 13.5-11.1 13.5s5.2 4.5 7.6 7.8c3.8-3.9 4.1-11.3 4.5-13.3.7-3.5 3.5-11.3 6.6-15.1 3.2-3.8 3.7-9.6 4.4-14.8.7-5.3 1.6-20.6 1.9-21.4" fill="#F7E5E6"/><path d="M154 39.4c.4 1 1.4 1.5 2.1 1.2.7-.3 1-1.4.5-2.4-.4-1-1.4-1.5-2.1-1.2-.7.4-1 1.4-.5 2.4M153.9 45.5c-.2 1.4.5 2.6 1.6 2.7 1 .1 2-.9 2.2-2.3.2-1.4-.5-2.6-1.6-2.7-1.1-.1-2.1.9-2.2 2.3" fill="#F1F3F3"/><path d="M124.3 80.3c0 2.6-.9 4.7-2.1 4.7-1.1 0-2.1-2.1-2.1-4.7s.9-4.7 2.1-4.7c1.2-.1 2.1 2.1 2.1 4.7M139.1 80.3c0 2.6-.9 4.7-2.1 4.7-1.1 0-2.1-2.1-2.1-4.7s.9-4.7 2.1-4.7c1.2-.1 2.1 2.1 2.1 4.7M89.4 53.3s-3.2-4.8-7.7-5.7c-4.5-.9-10.2.6-12.6.7-2.4.1-7.8.1-9.2-.2-1.5-.2-1.3 4.3 3.8 7.5s9.1 5 16.1 3.1c6.9-1.9 9.4-3.8 9.6-5.4" fill="#FDE5E5"/><path d="M186.6 33.2c-7.6-2.7-20-2.7-20-2.7-1.8-9.6-8.8-12.8-10.5-13.3-1.6-.4-3.8-1.6-7.3-3.4-3.5-1.7-9.7-1.6-12.7-1.2-5.1.6-12.2 0-12.2 0-.4-.1-.9-.1-1.4-.2 1.1.2 7.4 1.4 11.4 1.8 4.4.5 10.5-.3 14.9 2.4 4.4 2.8 7.8 3.4 9.4 4.8 1.6 1.4 4.7 7.3 3.8 10.6 0 0 11.8-.1 20.8 2.9 8.6 2.9 18.3 6.5 22.2 13.8.5-2.1 0-3.9-1.2-5.1-2.8-2.6-9.6-7.7-17.2-10.4" fill="#F7E5E6"/><path d="M81.7 47.6c-4.5-.9-10.2.6-12.6.7-2.4.1-7.8.1-9.2-.2h-.3c1.3.8 4.1 2 9.7 1.9 8.1-.2 16.8 2.3 16.4 6.7 2.5-1.2 3.6-2.3 3.7-3.4 0 0-3.2-4.8-7.7-5.7M170.5 53.3s3.2-4.8 7.7-5.7c4.5-.9 10.2.6 12.6.7 2.4.1 7.8.1 9.2-.2 1.5-.2 1.3 4.3-3.8 7.5s-9.1 5-16.1 3.1c-6.9-1.9-9.5-3.8-9.6-5.4M149 85c-1.8 1.1-10.3 5.1-12.3 5.1-1.6 0-3.1-.2-4-.4-2.5-.6-3.1-.6-3.1-.6h-.4s-.5 0-3.1.6c-.9.2-2.4.4-4 .4-2 0-12-4-13.8-5.1 0 0 2.5 8.8 2.6 15.6 0 4.5 2.4 9.8 2.5 12.6.1 6.9 8.1 2.4 12.3 2.4 1.1 0 2.4 0 3.7.1 1.4 0 2.7-.1 3.7-.1 4.1 0 12.2 4.5 12.3-2.4 0-3.3 2.5-8.8 1.8-13.9-.7-5.6 1.8-14.3 1.8-14.3" fill="#FACCDB"/><path d="M113.3 87.5s-.6 2.3 0 3.2c.7 1 2.4 3.4 9.4 3.4h12.6c6.9.2 8.8-1.7 9.4-2.1 1.7-.9.4-3.9.5-4.2.1-.3-7.2 1.8-9.6 1.7-2.3-.1-5.2-.8-8.4-.5-3.2.3-7.4 1-8.5.9" fill="#FFF"/><path d="M141.8 118.5c-1.6 0-3.3-.4-4.9-.8-1.4-.3-2.7-.6-3.7-.6-1.1 0-2.3 0-3.7.1-1.4 0-2.7-.1-3.8-.1-1 0-2.3.3-3.7.6-2.9.7-6.2 1.5-8.3-.2-1.2-.9-1.8-2.4-1.8-4.3 0-1.2-1.2-6.8-2.3-11.8-2-9.3-3.3-15.6-3.2-17.4 0-.5.3-.9.8-1.2.4-.2.9-.3 1.4 0 5.1 2.4 8.2 4.5 8.3 4.6 1.6.9 3.7 1.1 5.2 1.1 1.9 0 3.3-.3 3.6-.4 2.4-.6 3.1-.7 3.3-.7h.5c.3 0 1 .1 3.4.7.4.1 1.8.4 3.6.4 1.5 0 3.6-.2 5.3-1.2l6.8-4.5c.5-.3 1.1-.3 1.6 0s.8.9.7 1.5c-1.1 7.2-4.1 26.3-4.1 28.8 0 2-.6 3.4-1.8 4.3-.8.9-2 1.1-3.2 1.1zm-8.6-4.4c1.3 0 2.8.4 4.4.7 2.1.5 4.8 1.1 5.8.4.4-.3.6-1 .6-2 0-2.6 2.5-18.7 3.6-25.9l-3.9 2.6h-.1c-2.2 1.3-4.9 1.6-6.8 1.6-1.5 0-3.1-.2-4.3-.5-1.9-.5-2.6-.6-2.8-.6h-.2c-.2 0-.9.1-2.8.6-1.2.3-2.9.5-4.3.5-1.9 0-4.6-.3-6.8-1.6-.1-.1-2.2-1.5-5.6-3.3.5 3.4 1.8 9.4 2.9 14.1 1.5 6.8 2.4 11 2.4 12.4 0 1 .2 1.7.6 2 1 .8 3.6.1 5.8-.4 1.6-.4 3.1-.7 4.4-.7 1.1 0 2.4 0 3.8.1h3.3z" fill="#F7E5E6"/><path d="M116.8 116.4c2.2 0 5-1 7.7-1.3 1.9-.2 7.6-.1 9.8-.1 1 0 2.8.6 4.4 1 3.2.6 3.9.4 3.9.4l-1.4-3.9s-7.5-.9-8.8-.9c-1.3 0-6.1.5-6.9.6 0 0-5.6-.2-7-.2-1.2-.2-1.7 4.4-1.7 4.4" fill="#FFF"/><path d="M127.7 107.3c3-2.2 6.5-2.9 12.3-3.4 8.8-.8 15.1 4.4 17.1 7.5 2 3.1 1.5 7.3-.4 9.5s-6 2.8-8.6 1.2c-2.6-1.6-6.3-7.4-9.1-8.7-2.8-1.3-7-2.1-9.9-1.7-3 .4-4.7.2-4.7.2s.5-2.6 3.3-4.6" fill="#F16056"/><path d="M151.4 121c-.6 0-1.3-.1-1.9-.3-2.3-.8-3.9-2.9-5-4.4-.2-.2-.3-.5-.5-.6-1.4-1.8-3.4-2.9-3.4-2.9-.7-.4-1-1.3-.6-2s1.3-1 2-.6c.1.1 2.5 1.3 4.4 3.7.2.2.3.4.5.7.9 1.2 2.1 2.8 3.5 3.3 1.6.5 2.8-.3 3.1-.8.5-.7 1.4-.9 2.1-.4.7.5.9 1.4.4 2.1-.8 1.2-2.6 2.2-4.6 2.2z" fill="#F58964"/><path d="M99.5 55s1.9-3.5 5.2-6.2c3.4-2.7 9.4-2.6 12.8-.6 3.4 2-6 11.3-7.1 11.6" fill="#FFF"/><path d="M161.8 55s-1.9-3.5-5.2-6.2c-3.4-2.7-9.4-2.6-12.8-.6-3.4 2 6 11.3 7.1 11.6" fill="#F7E5E6"/><g><path d="M240.1 532.4s-7.2-.3-12.3 2.9c-5 3.2-8.2-11.4-6.4-16.2 1.8-4.8 4.4-10.5 7.9-10.1 3.5.4 11.9.5 13 7.5 1 6.9-2.2 15.9-2.2 15.9z" fill="#937D6F"/><path d="M247.8 497.9s5.3 8.7 8.2 16.3c2.9 7.5 1.4 14.6-5.5 18.4-6.8 3.8-11.2 3.4-11.2 3.4s-.8-9.2-2-13.1c-1.2-3.9-4.4-12.4-8.7-11-4.3 1.4-2.9 10.7-1.6 14.2 1.2 3.5 4.2 12.2 4.2 12.2s-5.6 2.1-15 .5-10.5-10.4-10.8-13.1c-.3-2.8-.5-12.1.4-16.6.7-3.8 1.2-6.2 1.2-6.2s35.8-10.3 40.8-5z" fill="#B09584"/><path d="M205.9 509.1c.7-3.8 1.2-6.2 1.2-6.2l3.3 1.3s-2.6 13-1 20.5c1.3 6.1 2.4 10.4 5.4 13.8-8-2.2-9-10.2-9.3-12.8-.2-2.8-.5-12.1.4-16.6z" fill="#937D6F"/><path d="M197.5 329.3s9.3 26.1 11.2 43.9c1.9 17.7 2.1 26.9 6.4 35.4 4.3 8.5 9.1 14.4 12.7 30.3 3.5 15.9 6.3 18.6 11.9 26.4 5.5 7.8 8.3 26.9 8.2 32.6 0 0-24.9 11.5-40.5 5.7 0 0-4-6.5-5.2-16.8-1.1-10.3 2.1-15.6-2.7-24-4.8-8.4-7.8-18.2-9.2-24.3-1.4-6.1-2-11.7-7.5-17.8-5.6-6.1-16.5-14.5-22.1-22.3-5.5-7.8 16.2-72.6 36.8-69.1z" fill="#FFF"/><path d="M247.8 497.9s5.3 8.7 8.2 16.3c2.9 7.5 1.4 14.6-5.5 18.4-1.3.7-2.6 1.3-3.7 1.8 1.3-1.8 3.8-5.5 4.1-8.8.5-6.3-1.5-10.8-5-16-3.5-5.1-7.9-8.1-7.9-8.1l1.8-5c3.8-.2 6.8.2 8 1.4z" fill="#937D6F"/><path d="M197.5 329.3s9.3 26.1 11.2 43.9c1.9 17.7 2.1 26.9 6.4 35.4 4.3 8.5 9.1 14.4 12.7 30.3 3.5 15.9 6.3 18.6 11.9 26.4 5.5 7.8 8.3 26.9 8.2 32.6 0 0-4.5 2.1-10.8 4-.6-25-8.7-44.2-12-48.4-3.5-4.4-1.5-7.4-3.2-17.4-1.7-9.9-10.1-23.2-12.5-25.3-2.4-2.1-7-2.1-7.1-9.4-.1-7.4-1.9-15.7-4.8-17.2s-4.8 1-12.1 9.2c-5.4 6.1-14.8 9.8-19.1 11.2-2.1-2.1-3.9-4.2-5.4-6.3-5.7-7.7 16-72.5 36.6-69z" fill="#F7E5E6"/><path d="M207.3 503.6c1 .4 2 .7 3 .9-3.8-9-5.2-21-5.8-23.7-.6-2.7.2-9.5-.1-12.8-.3-3.3-2-5.5-4.2-9.2-2.1-3.7-6-13.6-7.3-17.9-1.3-4.3-1.5-12.1-4.2-17.4-2.7-5.3-8.9-9.9-12.5-12.8-3.5-2.9-6-5.9-5.6-6.9.4-1 3.2-2.5 3.2-2.5l-14.2-9c-.2 2.8.1 4.9.8 6 5.5 7.8 16.5 16.1 22.1 22.3 5.6 6.1 6.1 11.8 7.5 17.8 1.4 6.1 4.5 15.9 9.2 24.3 4.8 8.4 1.6 13.7 2.7 24 1.4 10.4 5.4 16.9 5.4 16.9z" fill="#F7E5E6"/></g><g fill="#FFF"><path d="M205.9 301.2c-4.1-30-20.3-60.7-24.7-72.1-7.8-20.3-14.5-39.6-14.5-39.6s-.1 0-3-.6c-9.3-1.9-23.5-1.6-31.2-1.3-1.3-.1-2.7-.1-4.3-.1-1.6 0-3 .1-4.3.1-7.7-.3-21.8-.6-31.2 1.3-2.9.6-3 .6-3 .6s-8 21.5-21.2 44.9c-6 10.7-21.1 39.8-25.2 69.8-3.9 28.5-1.1 43.1 4.8 56.8 5.9 13.7 12.9 23.1 27 32.8 9.7 6.7 23.3 7.8 30.8 7.9 1.3 0 2.7-.1 4.3-.1 1.6.1 3 .1 4.3.1 7.5-.1 52.3-.6 62.4-6.7 20.5-12.4 22.9-24.2 28.8-37.9 6-13.6 4.1-27.3.2-55.9z"/></g><path d="M209.5 336.9c-4.1-11.8-18.8-52.8-18.8-52.8s2.2 6.2-8.4 10.5c-7.6 3.1-14.3 1.2-18.6-4.8-2.2-3.1-4.6-9.7-1.6-39.1 1.9-18.4-14.8 41.5-14.8 41.5l-36.7-2.4-4.3-11.1-2.3-14.3-5.9-21.4-1.6.2s7.2 25.4 0 41.3c-7.2 15.9-19.3 21.5-25.3 35.8-6 14.3-3.8 38 12.3 46.5 18.9 10 41.9 4.4 62.6 1 19.1-3.1 26.6 16.8 3.5 32.6 11.7-1 22.9-2.6 27.3-5.2 20.5-12.4 22.9-24.2 28.8-37.9 2.8-6.4 3.9-12.7 3.8-20.4z" fill="#FDE5E5"/><g fill="#937D6F"><path d="M91.7 176.8c-.4 2.6-.9 5-1.3 7.4 11.9 4.2 24.4 6.3 37.2 6.3 13.3 0 26.2-2.3 38.6-6.8-.4-2.3-.8-4.8-1.3-7.4-11.9 4.5-24.4 6.8-37.3 6.8-12.3 0-24.4-2.2-35.9-6.3z"/></g><g fill="#F7E5E6"><path d="M92.8 201.8s-.8 6.6 3.4 20.9c4.2 14.3 11.5 37.7 12.3 60l-3.2 1.7s-1.9-17.5-4.5-28.1c-2.6-10.6-8.4-22-11.4-33.8-3-11.9-2.1-17 3.4-20.7z"/></g><g fill="#F7E5E6"><path d="M164.5 201.8s.8 6.6-3.4 20.9c-4.2 14.3-11.8 38.5-12.6 60.8l4.5.6s1.5-16.3 4.1-26.9c2.6-10.6 7.6-22.8 10.7-34.7 3.2-11.9 2.2-17-3.3-20.7z"/></g><g fill="#F7E5E6"><path d="M157.2 289.7s-.3-8.5 1.3-18.9c1.6-10.4 12.1-37.1 12.6-46.9.4-9.8-5.4-2.2-5.4-.3 0 1.9-6.1 21.5-6.4 22.3-.2.8-4.9 20-4.9 20.3 0 .3-1.3 15.7-1.3 15.7l.2 6.5"/></g><g fill="#F7E5E6"><path d="M205.9 300c-4.1-30-20.3-60.7-24.7-72.1-7.8-20.3-14.5-39.6-14.5-39.6s-.1 0-3-.6c-1.8-.4-3.9-.7-6-.9 1.3 3.9 4.8 13.7 6 16.1 1.5 3 4.3 20.3 4.3 20.3s15.5 32 19.3 44.5c3.8 12.5 4.9 26.1 4 31.1-.9 5-8.3 17.5-27.3 20.5 0 0 23.6 6.3 31.9-.1 3.5-2.7 7.5-7.4 11-12.4-.3-2.3-.6-4.5-1-6.8z"/></g><g fill="#F7E5E6"><path d="M127 283.1s-.4-53.1-.2-58.2c.2-5.1 1.6-31.3 2.9-1.9 1.2 27.2.5 61.4.5 61.4"/></g><g fill="#F7E5E6"><path d="M157.2 301.7c0-.1-.1-.2-.1-.4l-1.3-13.8c0-.2-.1-.4-.3-.5-3.9-2.4-7.9-3.6-11.8-3.6-6 0-10.5 2.8-11.3 3.4-3.8-2.2-7.6-3.4-11.4-3.4-6.6 0-11.3 3.3-11.5 3.5-.2.1-.3.3-.3.5l-.8 13.9c0 .1-.1.3-.1.4-.2 3.3 6.7 4.8 13.2 4.8 4.4 0 8.9-.7 11.3-2.2 2.4 1.5 7 2.2 11.4 2.2 6.5 0 13.3-1.6 13-4.8z"/></g><g><path d="M155.7 298l-1.4-12.9c0-.2-.2-.4-.4-.5-4.2-2.6-8.5-3.9-12.8-3.9-7.1 0-12.2 3.6-12.4 3.7-.2.1-.3.3-.3.5l-.9 13.2c0 .1-.1.2-.1.3-.2 3.5 7.2 5.2 14.3 5.2 7 0 14.4-1.7 14.1-5.2 0-.1 0-.3-.1-.4z" fill="#B09584"/><path d="M141.7 303.6c.8 0 1.7 0 2.5-.1v-16c0-1.5-1.4-2.6-3-2.6s-2.9 1.2-2.9 2.6v15.9c1.1.2 2.3.2 3.4.2z" fill="#937D6F"/></g><g><path d="M132.3 298l-1.4-12.9c0-.2-.2-.4-.4-.5-4.2-2.6-8.5-3.9-12.8-3.9-7.1 0-12.2 3.6-12.4 3.7-.2.1-.3.3-.3.5l-.9 13.2c0 .1-.1.2-.1.3-.2 3.5 7.2 5.2 14.3 5.2 7 0 14.4-1.7 14.1-5.2 0-.1-.1-.3-.1-.4z" fill="#B09584"/><path d="M118.3 303.6c.8 0 1.7 0 2.5-.1v-16c0-1.5-1.4-2.6-3-2.6s-2.9 1.2-2.9 2.6v15.9c1.1.2 2.3.2 3.4.2z" fill="#937D6F"/></g></g></svg>