<svg width="521" height="195" xmlns="http://www.w3.org/2000/svg"><g fill-rule="nonzero" fill="none"><path d="M516.56 165.681c-6.091 5.448-16.993 22.433-19.96 22.513-15.47.4-82.405 5.368-116.234 6.009-15.872.32-63.487-2.804-63.487-2.804s-36.314-4.487-48.097-5.128l-2.726-.16c-8.497-.4-18.998-.881-27.976-1.442-18.999-1.122-20.602 3.846-33.748 3.125-13.147-.722-44.73-10.976-55.632-16.264-10.982-5.288-29.42-11.857-36.314-13.7-6.974-1.843-31.022.881-45.451.881-14.43 0-23.568-1.121-24.85-8.172-1.283-7.13 4.008-8.572 15.872-10.014 11.864-1.442 19.078-2.724 19.078-2.724-15.872-1.362-17.234-13.06-17.234-13.06-9.86-2.884-27.576-2.243-38.879-5.928-11.303-3.685-5.691-15.703-5.691-15.703-6.012 0-13.948-2.724-14.75-9.053-.802-6.33 3.287-10.095 10.421-10.415 7.134-.24 36.954 0 48.498-.24 11.463-.24 25.812 2.002 32.946 3.444 7.134 1.443 2.164-4.005.4-4.406-1.843-.4-16.031-2.403-21.162-6.57-5.13-4.166-11.703-4.406-24.128-8.732-12.425-4.407-26.614-9.855-29.42-13.46-2.725-3.685-3.286-11.457 4.169-13.139 7.455-1.602 33.587 4.567 47.295 8.412 13.708 3.846 23.568 12.018 36.714 15.303 13.147 3.284 16.994 4.406 39.68 14.741 22.686 10.415 30.14 20.83 42.967 21.872 12.906 1.122 33.106 10.655 33.106 10.655s6.493 2.644 14.109 2.244c5.771-.24 26.774-2.404 36.874-3.445 0 0 53.147-5.368 76.474-10.255 23.327-4.807 76.955-19.709 96.034-20.91" fill="#FDE5E5"/><path d="M120.162 103.43c-.24 0-8.417-2.483-11.623-4.726-3.207-2.243-7.535-4.567-9.059-7.29-1.442-2.725-5.21-1.603-3.126 2.082 2.084 3.766 10.421 9.935 4.89 12.098-5.451 2.163 11.944 2.724 12.906 2.644.882-.08 5.852-2.404 6.092-2.484M96.434 73.627c-.721.4-3.126 5.288-3.767 5.368-.642.08-5.451-.881-11.704-2.804-6.172-1.923-9.138-4.006-15.07-6.65s-19.159-6.57-24.29-8.172c-5.13-1.602-19.318-6.81-21.803-9.694-2.245-2.563-1.844-8.172-1.764-9.133-3.046 3.044-2.244 8.252-.16 11.056 2.726 3.685 16.994 9.133 29.42 13.46 12.424 4.406 18.998 4.566 24.128 8.732 5.13 4.166 19.319 6.17 21.163 6.57 1.442.32 4.649 3.605 2.805 4.406h.481s.401-.08 1.122-.72c.722-.642-1.202-5.208-1.362-7.291-.16-2.003 1.523-5.448.801-5.128zM30.622 102.63s-1.123-3.205-.802-8.012c.24-4.807 2.084 4.887 4.89 8.092M39.84 120.576s-1.122-3.205-.801-8.012c.24-4.807 2.084 4.887 4.89 8.092M67.256 157.75s-1.363-3.125-1.443-7.932c-.16-4.807 2.485 4.727 5.61 7.691M58.277 104.713s-1.282-3.766-.962-9.454c.321-5.689 2.486 5.768 5.772 9.534M86.494 155.747s-1.683-3.605-2.084-9.214c-.32-5.688 3.126 5.448 6.894 8.813" fill="#FACCDB"/><path d="M66.454 71.704s.4-3.925 3.126-8.893c2.726-4.967-.24 6.25 1.122 11.057M41.444 61.93s.4-3.445 2.805-7.931c2.405-4.407-.24 5.528 1.042 9.774" fill="#FACCDB"/><g fill="#FACCDB"><path d="M84.17 114.967l-1.443-.24c5.05 1.122 5.851 3.605 4.81 6.25-.321.88-1.123 1.602-2.165 2.162 1.764-.64 2.966-1.442 3.447-2.563.882-2.404.16-4.647-4.65-5.609z"/><path d="M75.352 129.148c-.641 0-1.283 0-2.004-.08h-.24l-.161-.08c-6.974-3.365-6.814-12.018-5.772-16.104l.16-.72.722-.16c2.405-.562 10.982-2.324 18.598-.161 3.928 1.122 5.45 3.205 6.092 4.727a5.91 5.91 0 0 1-.32 5.047c-2.165 3.525-6.814 7.531-17.075 7.531zm-1.603-2.403c8.176.32 13.868-1.843 16.513-6.25.4-.64.641-1.762.16-2.884-.56-1.522-2.164-2.644-4.489-3.284-5.37-1.523-11.944-1.042-16.673 0-.401 2.243-1.203 9.453 4.489 12.418z"/></g><path d="M214.592 183.387s10.421-.72 14.109-15.863c0 0 4.57 0 .24 14.741M124.892 91.493c-1.523-4.086-1.123-7.29-2.726-8.172-1.603-.88-2.164 2.484-1.523 6.33.722 3.845.561 10.415-.24 12.418-.802 2.083-6.814 3.445-8.738 3.525-1.924.16-10.421-.962-14.269-.962-3.847 0-23.247.721-27.415-.16-4.088-.801-9.62-2.884-11.463-2.564-1.924.24-25.331-.4-26.854-.8-1.523-.401-7.936.96-18.598-.962C3.286 98.383 1.122 90.852.802 89.65a9.563 9.563 0 0 0-.321 4.326c.802 6.33 8.738 9.053 14.75 9.053 0 0-5.692 12.018 5.691 15.703 9.38 3.044 27.896 4.166 39.6 6.169l-.721-.24s-.241-2.244.24-4.968c-2.645.481-7.776.16-11.463-.08-4.249-.24-16.674-1.762-18.598-1.923-1.923-.16-10.26-1.602-12.184-4.486-1.603-2.323-1.203-7.21-1.042-8.893 1.523.24 2.725.4 3.206.4 1.764 0 18.518 1.603 21.484 1.763 3.046.16 15.47.4 17.956.4 2.485 0 5.611 2.084 5.611 2.084-1.363 1.682-2.325 3.765-2.886 5.608 2.004-2.964 5.692-5.368 12.345-4.887.481 0 .882.08 1.283.08 4.569-.4 11.543-.48 16.753-.962 6.974-.72 16.434.722 21.243.401 4.81-.24 11.784-3.044 13.307-4.887 1.363-2.003-.641-8.733-2.164-12.819z" fill="#FACCDB"/><path d="M130.182 136.198c-4.569-3.605-20.36.08-28.537.802-8.177.72-26.534-1.683-32.065-4.086-5.611-2.404-7.856-7.531-7.856-11.778 0-4.246 2.245-8.652 2.245-8.652-3.367 2.964-4.088 8.893-4.088 8.893s-.962 1.121-2.165 2.644c.722.16 1.363.32 2.004.56 0 0 1.363 11.698 17.235 13.06 0 0-3.768.64-10.34 1.602 8.256 2.083 28.617 1.923 29.419 1.923h20.44s18.197-1.362 13.708-4.968z" fill="#FACCDB"/><path d="M67.496 110.24s-4.57 1.923-5.852 10.095l-.48 3.445-3.207-.64s-.32-9.855 7.294-15.864M124.49 113.365s.241.08.642.32c.401.16.962.481 1.684.882a7.597 7.597 0 0 1 2.084 1.923c.16.24.24.4.4.72.16.241.241.481.321.722.24.48.401 1.041.481 1.522.16.48.24 1.042.32 1.602.081.561.081 1.042.081 1.603v.8c0 .161-.08.241-.08.401 0 .08-.08.24-.08.32l-.481 1.203c-.722 1.362-1.443 2.163-1.443 2.163-.08.08-.32.16-.401 0-.08-.08-.08-.16-.08-.24 0 0 .08-.24.16-.722.08-.4.24-1.041.4-1.762.081-.32.161-.721.241-1.122l.08-.32v-.4-.161-.32c0-.882-.08-1.843-.24-2.725-.08-.48-.16-.96-.32-1.362-.08-.24-.16-.48-.241-.64-.08-.16-.24-.481-.24-.561-.401-.721-.962-1.282-1.524-1.763a10.33 10.33 0 0 0-1.442-1.041c-.321-.24-.562-.4-.562-.4-.16-.081-.24-.321-.16-.482.08-.16.24-.24.4-.16zM127.056 109.84s-11.784-.16-16.593-.801c-4.81-.721 16.834-7.37 16.834-7.37s1.362 6.408 10.661 2.803M119.12 115.849s0 .16-.08.56c-.08.321-.08.802-.16 1.363 0 .32-.08.56-.08.88v.882c.16.721.24 1.442.4 2.163.16.721.32 1.522.481 2.083.08.16.08.32.16.32 0 0 .08.08.08.161l.161.24c.16.32.32.561.4.802.482 1.041.642 1.842.642 1.842.08.24-.08.48-.32.48-.16 0-.241 0-.321-.08 0 0-.642-.48-1.363-1.441-.16-.24-.32-.481-.561-.801l-.16-.24c-.08-.081-.08-.161-.16-.241-.161-.24-.161-.48-.241-.641-.24-.801-.32-1.522-.401-2.324-.08-.4-.08-.8-.16-1.201 0-.16 0-.4-.08-.561 0-.16 0-.32-.08-.641 0-.48.08-.801.16-1.202l.24-.961c.32-1.122.641-1.843.641-1.843.08-.16.321-.24.481-.16.24.24.321.4.321.56zM491.55 172.892s0-.08-.08-.32c-.08-.16-.08-.481-.16-.802-.08-.64-.16-1.682.08-2.804.08-.56.24-1.202.481-1.843.24-.64.561-1.362 1.042-2.002.481-.641 1.042-1.282 1.684-1.763.16-.16.32-.24.48-.4l.321-.241.24-.16c.321-.16.562-.4.883-.561.721-.4 1.362-.801 2.084-1.042.721-.32 1.443-.56 2.164-.72.722-.16 1.443-.321 2.164-.321.722 0 1.363 0 2.004.16 1.203.24 2.165.641 2.726.962.561.32.882.48.882.48.48.24.641.882.32 1.362-.24.4-.721.561-1.122.48l-.962-.24-.962-.24c-.4-.08-.801-.16-1.202-.16-.481 0-.962 0-1.443.08-.481.08-1.042.24-1.603.4-.561.16-1.123.401-1.684.722-.56.24-1.122.56-1.683.881-.32.16-.641.4-.882.56l-.24.161-.16.08c-.08.08-.241.16-.321.24-.481.321-.802.802-1.203 1.202-.721.882-1.202 1.843-1.603 2.644-.4.881-.721 1.683-.882 2.243-.16.561-.32.882-.32.882-.08.32-.401.48-.722.32-.16.08-.24 0-.32-.24z" fill="#FACCDB"/><path d="M520.328.48c-11.062 10.897-26.773 24.436-35.511 35.813-12.505 16.183-27.495 37.975-27.495 37.975l17.956 113.205c13.788 5.208 18.918.961 25.892-2.403 2.645-1.282 10.26-6.57 19.158-13.46V.48z" fill="#FDE5E5"/><path d="M520.328.48c-11.062 10.897-26.773 24.436-35.511 35.813-12.505 16.183-27.495 37.975-27.495 37.975l-3.447 5.608-8.417-.72c-19.079 1.201-72.707 16.023-96.034 20.91-18.678 3.845-56.594 8.092-70.863 9.614h-.16s-1.363.16-3.607.4c-1.283.16-1.924.16-1.924.16-.401.08-.882.08-1.363.16-.48.08-.962.08-1.443.161-1.202.16-2.565.24-3.928.4h-.16c-.24 0-.561.08-.802.08-2.004.241-4.088.401-6.252.642h-.32-.081c-.561.08-1.122.08-1.683.16h-.08c-.16 0-.401 0-.562.08h-.32c-.481.08-.882.08-1.363.16h-.08-.08c-.24 0-.481.08-.642.08-.24 0-.48.08-.721.08h-.16c-.642.08-1.283.16-1.924.16h-.321c-.481.08-.882.08-1.283.161h-.16-.08c-.4 0-.722.08-1.122.08h-.321-.08-.481c-.32 0-.641.08-.962.08-2.164.16-4.088.4-5.772.48h-.32c-.321 0-.642.081-.962.081h-.08-.08c-.321 0-.562.08-.882.08-.321 0-.642.08-.882.08H233.27c-.4 0-.802-.08-1.202-.08h-.401c-.24 0-.561-.08-.802-.08-.16 0-.32 0-.48-.08-.241 0-.482-.08-.722-.08-.16 0-.32-.08-.481-.08-.24 0-.481-.08-.641-.08-.16 0-.321-.08-.401-.08-.24-.08-.401-.08-.642-.16-.16 0-.24-.08-.4-.08-.24-.081-.481-.081-.642-.161-.08 0-.16-.08-.24-.08-.641-.16-1.122-.32-1.684-.4-.08 0-.16-.081-.24-.081-.16-.08-.32-.08-.481-.16-.08 0-.16-.08-.24-.08-.16 0-.241-.08-.321-.08-.08 0-.16-.08-.24-.08-.08 0-.16-.08-.321-.08-.08 0-.08 0-.16-.08-.08 0-.16-.08-.241-.08h-.08c-.08 0-.08-.081-.16-.081h-.08-.08s-.081 0-.161-.08h-.08c-.08 0-.08-.08-.16-.08 0 0-.08 0-.08-.08-.081 0-.161-.08-.241-.08-.08 0-.08-.08-.16-.08-.161-.08-.241-.16-.401-.16-.08 0-.08-.081-.16-.081-.081-.08-.241-.08-.402-.16-.08 0-.16-.08-.24-.08-.16-.08-.24-.08-.4-.16-.081 0-.161-.08-.241-.08l-.481-.241c-.08 0-.16-.08-.24-.08-.241-.08-.482-.24-.722-.32-.08 0-.16-.08-.24-.08-.241-.08-.402-.16-.642-.241-.08-.08-.24-.08-.32-.16-.161-.08-.402-.16-.562-.24-.08-.08-.24-.08-.4-.16-.161-.081-.401-.161-.642-.241-.08-.08-.24-.08-.32-.16-.321-.08-.562-.24-.882-.32 0 0-.08 0-.08-.081-.401-.16-.722-.32-1.123-.48-.48-.241-1.042-.401-1.603-.642-.16-.08-.24-.08-.4-.16-.562-.24-1.123-.4-1.684-.64l-2.646-.962c-.881-.32-1.763-.641-2.725-.882-.641-.16-1.202-.4-1.844-.56-.16-.08-.32-.08-.48-.16-.642-.16-1.283-.401-1.844-.561-.642-.16-1.203-.32-1.844-.481-.16-.08-.32-.08-.481-.16-.641-.16-1.203-.32-1.844-.481-.48-.08-1.042-.24-1.523-.32-.16 0-.32-.08-.48-.08-.322-.08-.722-.16-1.043-.16-.16 0-.32-.081-.48-.081-.322-.08-.722-.08-1.043-.16-.16 0-.32-.08-.481-.08-.481-.08-.962-.08-1.443-.16-.4 0-.802-.08-1.202-.16-.08 0-.24 0-.321-.08-.32-.081-.641-.081-.882-.161-.08 0-.24-.08-.32-.08-.321-.08-.562-.08-.882-.16-.08 0-.16-.08-.24-.08-.321-.08-.642-.16-.882-.24-.08 0-.16-.081-.24-.081-.322-.08-.642-.16-.963-.32-.08 0-.08 0-.16-.08-.32-.08-.641-.241-1.042-.401 0 0-.08 0-.08-.08-.321-.16-.722-.24-1.043-.4h-.08c-.4-.161-.721-.321-1.122-.482-.882-.4-1.764-.88-2.725-1.362-.562-.32-1.203-.64-1.764-1.041-.481-.32-.962-.56-1.523-.881h-.08c-.481-.24-.882-.561-1.363-.882-.08-.08-.24-.16-.32-.24-.401-.24-.882-.56-1.283-.801-.401-.24-.802-.561-1.203-.801-.48-.32-1.042-.641-1.523-.962-.08-.08-.16-.08-.24-.16-.32-.24-.641-.4-.962-.64-.16-.081-.24-.161-.401-.241-.32-.16-.641-.4-.962-.561-.16-.08-.24-.16-.4-.24-.321-.24-.642-.401-1.043-.641-.08-.08-.24-.16-.32-.24-.481-.241-.882-.562-1.363-.802-.481-.32-.962-.56-1.443-.881-.08-.08-.24-.16-.32-.16l-1.203-.721c-.16-.08-.32-.16-.481-.321-.32-.16-.641-.4-1.042-.56-.24-.08-.401-.241-.642-.321-.32-.16-.64-.4-.961-.561-.241-.16-.481-.24-.642-.4-.32-.16-.641-.401-1.042-.561-.24-.16-.48-.24-.721-.401-.321-.16-.722-.4-1.042-.56-.24-.161-.481-.241-.722-.401-.4-.16-.721-.401-1.122-.561-.24-.16-.481-.24-.722-.4-.4-.241-.801-.401-1.282-.642-.24-.08-.401-.24-.641-.32-.642-.32-1.283-.641-2.004-.962-.642-.32-1.283-.56-1.844-.88l-.481-.241c-.481-.24-.882-.4-1.283-.561a3.91 3.91 0 0 0-.56-.24c-.482-.24-1.043-.481-1.524-.721-.08-.08-.16-.08-.32-.16-.482-.241-.963-.401-1.444-.642a3.91 3.91 0 0 0-.56-.24c-.321-.16-.722-.32-1.043-.48l-.48-.241c-.482-.24-.963-.4-1.444-.641-.721-.32-1.362-.56-2.004-.881l-.48-.24c-.642-.241-1.283-.561-1.844-.802l-1.684-.72c-.16-.081-.32-.161-.48-.161-.562-.24-1.043-.4-1.524-.641h-.08c-.802-.32-1.523-.56-2.244-.881-.722-.24-1.443-.561-2.085-.801-.32-.16-.641-.24-1.042-.401-.56-.24-1.202-.4-1.763-.56-.08 0-.08 0-.16-.081-.562-.16-1.043-.32-1.604-.56-.08 0-.16-.08-.24-.08-.481-.161-1.042-.321-1.523-.482-.08 0-.16-.08-.24-.08-.482-.16-1.043-.32-1.524-.48-.08 0-.16-.08-.32-.08a9.38 9.38 0 0 0-1.604-.401c-.08 0-.16-.08-.32-.08-.562-.16-1.123-.32-1.684-.4-.08 0-.24-.08-.32-.08-.562-.161-1.203-.321-1.764-.482-.08 0-.16-.08-.24-.08-.642-.16-1.283-.32-2.005-.48-.962-.24-1.843-.481-2.725-.802-.16-.08-.4-.16-.561-.16h-.08c-1.283-.4-2.566-.881-3.848-1.362-.32-.16-.722-.32-1.042-.4l-1.203-.481-.48-.24c-.562-.24-1.123-.481-1.764-.802-.401-.16-.722-.32-1.122-.56-1.764-.882-3.608-1.763-5.371-2.644-.08-.08-.16-.08-.24-.16 3.606 3.044 9.619 7.53 15.63 9.854 9.46 3.525 25.572 8.733 31.584 11.456 6.012 2.724 28.217 16.024 31.744 19.549 3.527 3.525-4.088 4.887-8.497 4.487-4.409-.401-16.433.24-20.36 2.563-4.009 2.324-13.147 4.807-15.632 5.128 0 0 8.577 1.121 14.91-1.282 6.974-2.724 18.517-3.525 22.365-2.884 3.848.72 18.758-.721 26.293-.16 7.535.56 14.108 5.207 18.196 7.69 4.089 2.484 14.91 3.686 17.636 10.095 2.725 6.41 3.046 6.97 2.084 10.496-.962 3.525 2.726-2.164 2.886-5.448.16-3.285-.24-6.73 4.409-6.81 4.65-.16 15.07-2.083 23.167-2.163 14.83-.24 106.454-11.938 143.168-18.587 0 0 33.027-7.531 48.418-5.288l-1.042.24c13.387-1.362 26.132 13.86 26.132 13.86s-4.409-24.275 3.287-39.097c7.535-14.66 32.626-46.147 46.413-57.123V.481h.08zM520.328 156.228c-3.927 2.884-7.615 5.688-10.661 8.332-11.704 10.094-24.048 16.424-34.39 14.26l-19.96 1.202c-14.348 2.243-63.568 4.807-63.568 4.807-34.95-.16-137.076-3.925-146.856-4.566-13.867-.882-19.158-.721-28.617 2.163-9.46 2.884-15.471.881-24.049-.641-8.577-1.442-32.305-9.454-46.173-14.742-13.868-5.287-33.106-13.7-33.106-18.747 0-5.047 7.535-6.009 12.906-4.487 5.37 1.523 13.787 7.772 18.357 11.377 4.489 3.525 19.96 6.81 22.846 6.57 2.885-.24 10.1-1.202 15.31.16 5.211 1.362 14.51 3.445 7.135.72-7.375-2.723-15.712-8.732-15.712-8.732-6.172.561-18.758-2.884-24.53-5.207-5.77-2.324-15.23-12.338-21.643-13.14-6.413-.8-17.555 2.083-25.09 2.564-3.928.32-13.387-.56-20.842-1.121-.16 0-.321.08-.481.08h-.321c-.16 0-.4.08-.561.08h-.16c-.16 0-.321.08-.481.08-.08 0-.16 0-.321.08-.722.16-1.523.24-2.485.4h-.08c-.16 0-.401.08-.561.08h-.16c-.08 0-.161 0-.241.08h-.08c-.481.081-.882.161-1.363.241h-.08c5.852 2.003 16.593 3.846 20.842 4.647 4.89.881 8.577 7.05 7.134 8.492-1.443 1.442-11.623 2.804-13.788 3.045-2.164.16-18.437 2.403-31.503 1.282-12.185-1.042-14.83-7.371-15.15-8.172v.16c0 .48.08 1.763.16 3.205 0 .16.08.24.08.32.08.32.16.56.24.881 0 0 0 .08.08.08 0 .08.08.16.08.24.08.241.241.562.401.802.08.08.16.16.16.32l.482.722.16.16v.08l.641.64.24.241c.241.16.482.4.802.561.08.08.24.08.321.16.32.16.561.32.882.48.08.081.24.081.32.161.321.16.642.32 1.043.4.16.08.24.08.4.08.401.161.722.241 1.123.321.16 0 .24.08.4.08.401.08.802.24 1.283.32.08 0 .24.081.4.081h.081c.4.08.882.16 1.363.24.16 0 .24 0 .4.08h.16c.482.08.963.16 1.444.16.16 0 .4 0 .56.08.482.08.963.08 1.524.161.24 0 .481 0 .721.08.481 0 .962.08 1.524.08h.881c.481 0 .962 0 1.443.08H70.782c.482 0 1.043 0 1.524-.08h.24c.641 0 1.203-.08 1.844-.08h.561c.481 0 .882 0 1.363-.08h.641c.481 0 .962-.08 1.523-.08h.481c.641 0 1.283-.08 1.924-.08h.561c.481 0 .962-.08 1.523-.08h.641c.481 0 .962-.08 1.524-.08.801-.08 1.683-.08 2.485-.16h.08c.641 0 1.202-.08 1.843-.08h.642c.48 0 .962-.08 1.443-.08h.56c.642 0 1.283-.081 1.925-.081h.24c.561 0 1.122-.08 1.684-.08h.56c.482 0 .882 0 1.363-.08h.562c.56 0 1.202-.08 1.763-.08H106.775c.401 0 .882 0 1.283.08h.08c.4 0 .802.08 1.202.08h.321c.24 0 .48.08.721.08.16 0 .24 0 .321.08.24 0 .481.08.641.08.08 0 .16 0 .321.08.32.08.561.08.802.16l.962.24c.08 0 .16.081.24.081.32.08.722.24 1.122.32h.08c.401.08.722.24 1.123.321.08 0 .16.08.24.08.401.16.882.32 1.363.4h.08c.481.16.962.321 1.523.481h.08c7.455 2.484 17.876 6.33 25.973 9.935h.08l1.683.72c.08.081.16.081.32.161.562.24 1.043.48 1.524.721l.962.48c.08.081.24.081.32.161.241.08.482.24.802.32.16.08.24.08.401.16.32.161.561.241.882.401.08.08.24.08.32.16.401.16.802.321 1.283.481.08.08.24.08.32.16.321.16.722.24 1.043.401.16.08.32.16.48.16.321.16.642.24 1.043.401.16.08.32.16.48.16.402.16.883.32 1.283.48.08 0 .16.081.16.081.482.16 1.043.4 1.524.56.16.081.32.161.48.161.402.16.722.24 1.123.4.16.08.4.16.561.241.4.16.802.24 1.203.4.16.08.32.16.56.16.562.161 1.123.401 1.684.562.16.08.24.08.4.16.482.16.883.32 1.364.48.24.08.4.16.64.24.402.161.803.241 1.203.402.24.08.401.16.642.24.48.16.962.32 1.523.48.08 0 .24.08.32.08.642.16 1.203.401 1.844.562.16.08.4.08.561.16.401.16.882.24 1.283.4.24.08.4.16.641.16.4.16.882.24 1.283.401.16.08.4.08.56.16.642.16 1.203.32 1.844.561.08 0 .16.08.241.08.561.16 1.042.32 1.603.481.24.08.401.08.641.16.401.08.882.24 1.283.32.24.08.4.08.641.16.481.161.962.241 1.443.402.16 0 .24.08.401.08.561.16 1.202.32 1.764.48.16.08.32.08.48.08.401.08.882.24 1.283.32.16.081.401.081.561.161.401.08.802.16 1.203.32.16.08.4.08.56.16.562.161 1.123.241 1.604.401.641.16 1.203.24 1.764.401.56.08 1.042.24 1.523.32.16 0 .32.08.4.08.401.08.722.16 1.123.16.16 0 .32.081.4.081.963.16 1.844.32 2.726.4.16 0 .24 0 .4.08.322 0 .642.08.963.08h.32c.401 0 .802.08 1.123.08 2.485.161 4.569.081 6.413-.08.641-.08 1.202-.16 1.763-.24.561-.08 1.122-.16 1.684-.32l2.404-.48c.401-.08.722-.161 1.123-.241.801-.16 1.603-.4 2.405-.56.08 0 .16-.081.32-.081l2.405-.48c.08 0 .24 0 .32-.08.402-.081.882-.161 1.283-.241.481-.08.882-.08 1.363-.16.16 0 .24 0 .4-.08.482-.08.963-.08 1.524-.16.4 0 .802-.08 1.122-.08h7.455c.561 0 1.042.08 1.603.08.722.08 1.523.08 2.325.16.4 0 .722.08 1.122.08.481 0 .962.08 1.443.08 1.844.08 3.768.24 5.692.32 3.046.16 6.092.32 8.978.48 2.886.161 5.771.241 8.417.401l2.725.16c11.784.722 48.097 5.128 48.097 5.128s47.616 3.125 63.488 2.804c33.828-.64 90.022-5.368 105.493-4.166 0 0 11.623 1.683 15.31-4.967 3.367-1.763 10.742-6.89 19.16-13.3v-15.782h.16zM520.328 115.528c-10.02 4.887-25.731 5.128-25.731 5.128-13.387 2.724 11.864 8.813 21.242 6.41 1.443-.402 2.966-.882 4.49-1.523v-10.015z" fill="#FACCDB"/><path d="M475.919 170.889v-.32c0-.16 0-.401.08-.722.08-.64.32-1.522.802-2.563.24-.481.56-1.042.962-1.603.4-.56.882-1.041 1.523-1.522.56-.48 1.282-.881 2.004-1.202.16-.08.4-.16.561-.24l.32-.08.241-.08c.32-.08.641-.24.962-.32.721-.16 1.523-.321 2.164-.401.722-.08 1.443-.16 2.165-.08.721 0 1.443.08 2.084.24.641.16 1.283.4 1.844.64 1.042.562 1.843 1.203 2.244 1.603.401.48.641.721.641.721.401.4.321 1.042 0 1.362-.32.32-.801.32-1.202.16 0 0-.32-.16-.802-.48-.24-.16-.48-.32-.881-.48-.321-.161-.642-.321-1.123-.401-.4-.16-.881-.24-1.362-.321-.481 0-.962-.08-1.523-.08-.562 0-1.123.08-1.684.24-.641.08-1.202.24-1.763.4-.321.081-.642.161-.962.321l-.24.08s-.08 0-.161.08c-.16.08-.24.08-.4.16-.482.241-.963.481-1.364.802-.881.56-1.603 1.282-2.164 2.003-.641.72-1.122 1.362-1.443 1.762-.32.481-.561.721-.561.721-.16.24-.561.321-.802.16-.08-.24-.16-.4-.16-.56z" fill="#FACCDB"/></g></svg>