<?xml version="1.0" encoding="UTF-8"?>
<svg width="20px" height="16px" viewBox="0 0 20 16" version="1.1" xmlns="http://www.w3.org/2000/svg" xmlns:xlink="http://www.w3.org/1999/xlink">
    <!-- Generator: Sketch 46.2 (44496) - http://www.bohemiancoding.com/sketch -->
    <title>twitter</title>
    <desc>Created with Sketch.</desc>
    <defs></defs>
    <g id="Page-1" stroke="none" stroke-width="1" fill="none" fill-rule="evenodd">
        <g id="Desktop" transform="translate(-90.000000, -3414.000000)" fill-rule="nonzero" fill="#FFFFFF">
            <g id="Group-4" transform="translate(6.000000, 3394.000000)">
                <g id="twitter" transform="translate(84.000000, 20.000000)">
                    <path d="M17.9442107,3.91498575 C17.9569061,4.08679572 17.9569061,4.25864348 17.9569061,4.43045345 C17.9569061,9.67088442 13.832554,15.7090909 6.29443865,15.7090909 C3.97208583,15.7090909 1.81473365,15.0586081 0,13.9295657 C0.329962226,13.9663605 0.647190028,13.978638 0.989847617,13.978638 C2.90606604,13.978638 4.6700573,13.3527481 6.07869562,12.2850178 C4.27665733,12.2481852 2.76649518,11.1068275 2.24618065,9.53590705 C2.50000977,9.57270189 2.75379982,9.59725697 3.0203243,9.59725697 C3.38833355,9.59725697 3.75638186,9.54814682 4.09900039,9.4622796 C2.22082899,9.0940668 0.81215161,7.49862907 0.81215161,5.57181116 L0.81215161,5.52273878 C1.3578178,5.81728636 1.9923906,6.00137388 2.66493228,6.02589118 C1.56086547,5.31405841 0.837542334,4.09907326 0.837542334,2.72451789 C0.837542334,1.98816783 1.04055094,1.31316768 1.39590389,0.724072522 C3.41368521,3.12952553 6.44670487,4.70040818 9.84769472,4.87225593 C9.78425697,4.57770835 9.74617088,4.27092101 9.74617088,3.9640959 C9.74617088,1.77952524 11.5735999,0 13.8451713,0 C15.0253712,0 16.0913519,0.478635095 16.8401048,1.25181777 C17.7664757,1.08000779 18.6547994,0.748627598 19.4416384,0.29454758 C19.1370279,1.21502293 18.4898379,1.98820561 17.6396002,2.47908046 C18.4644862,2.39321325 19.2639815,2.17225534 20,1.865468 C19.4417166,2.65089044 18.743706,3.35040788 17.9442107,3.91498575 Z" id="Shape"></path>
                </g>
            </g>
        </g>
    </g>
</svg>