<?xml version="1.0" encoding="UTF-8"?>
<svg width="14px" height="13px" viewBox="0 0 14 13" version="1.1" xmlns="http://www.w3.org/2000/svg" xmlns:xlink="http://www.w3.org/1999/xlink">
    <!-- Generator: Sketch 46.2 (44496) - http://www.bohemiancoding.com/sketch -->
    <title>Shape</title>
    <desc>Created with Sketch.</desc>
    <defs></defs>
    <g id="Page-1" stroke="none" stroke-width="1" fill="none" fill-rule="evenodd">
        <g id="Desktop" transform="translate(-503.000000, -3378.000000)" fill-rule="nonzero" fill="#FD64A0">
            <g id="footer" transform="translate(312.000000, 3375.000000)">
                <path d="M204.982242,11.4498648 C204.478098,13.2606817 203.930619,14.9107232 202.861111,14.8895616 C202.294026,15.2591103 201.439915,15.7117484 200.885708,15.9444311 C200.38523,16.1536234 200.158598,15.7261435 200.677963,15.425998 C201.329529,14.9348509 201.373383,14.7105748 201.694444,14.3285714 C200.315767,13.9283775 199.231458,11.1861006 197.437289,11.1861006 L195.83198,11.1861006 C193.320144,11.1861006 192.309743,10.7222394 192.309743,9.08508225 C192.309743,7.44792509 191.242685,7.21144683 191.176584,6.22005722 L191.016053,3.70065427 C190.968838,2.9912195 191.00661,3.00031482 191.393773,3.00031482 L191.620405,3.00031482 C191.941467,3.00031482 191.922581,2.9912195 192.092554,3.70065427 L192.630805,5.61067095 C193.329587,5.92900706 194.897124,5.89262579 195.728107,7.24782811 C197.257872,7.20235152 198.797081,7.29330469 199.722494,7.47521104 L200.336289,3.664273 C200.440162,3.00941014 200.553478,3.00031482 200.789552,3.00031482 L201.167272,3.00031482 C201.422233,3.00031482 201.460005,2.96393355 201.393904,3.67336832 L201.22393,5.56519436 C200.789552,10.367522 201.828282,11.713629 203.688552,10.767716 C204.491206,10.3584267 205.114444,10.967813 204.982242,11.4498648 Z M197.010744,3.69185632 C196.974771,2.96294331 197.028731,3.00032346 197.178618,3.00032346 L197.412442,3.00032346 C197.556334,3.00032346 197.580316,3.00032346 197.652262,3.68251128 L198,7 L197.172623,6.8785145 L197.010744,3.69185632 Z M194.921583,6 L194,5.65625075 L194.275802,3.8020881 C194.396886,3.00000651 194.329617,3.00000651 194.585239,3.00000651 L194.793772,3.00000651 C195.009032,3.00000651 195.015759,2.98958987 194.988852,3.8020881 L194.921583,6 Z" id="Shape" transform="translate(198.000000, 9.500000) scale(-1, 1) rotate(-180.000000) translate(-198.000000, -9.500000) "></path>
            </g>
        </g>
    </g>
</svg>