<svg width="219" height="28" xmlns="http://www.w3.org/2000/svg"><path d="M98.483 13.528H88.07v4.453h5.456v2.597c-1.696 1.485-3.859 2.463-6.254 2.463-5.057 0-9.149-4.082-9.149-9.075 0-4.959 4.092-9.007 9.149-9.007 3.06 0 5.523 1.113 7.519 3.846l3.493-3.61C95.622 2.058 91.83 0 87.272 0 79.387 0 73 6.241 73 13.966 73 21.894 79.42 28 87.272 28c3.992 0 8.184-1.687 11.211-5.465v-9.007zm31.24.472c0 7.759-6.388 14-14.107 14-7.751 0-14.139-6.207-14.139-14 0-7.86 6.388-14 14.14-14 7.718 0 14.105 6.173 14.105 14zm-6.048-1.066c-1.489-1.497-3.107-2.844-4.673-4.255-.894-.805-1.666-.681-2.762-.91-.905-.19-2.105-.654-3-.446-1.15.267-2.095.364-3.017 1.093-.414.328-2.562 1.739-2.254 2.46.197.463 2.315-1.187 2.74-1.424.914-.51 2.145-.302 2.998.127-1.078 1.19-1.777 2.334-2.356 3.83-.54 1.395-1.292 2.365-2.489 3.22 1.208.559 2.262.93 3.177 1.885l3.416 3.568c.468-1.275.723-2.283.87-3.632.046-.436.818-1.017 1.046-1.412.258-.447-.03-1.126.776-1.194a7.16 7.16 0 0 1 1.716.043c.447.063 1.453.033 1.787.283 1 .75.291 2.549 1.238 3.228.056-.777.147-1.552.262-2.32.038-.252.414-1.038.302-1.245-.205-.38-.92-.193-1.116-.718.725.198 1.348.685 1.722-.111.322-.688-.138-1.455-.383-2.07zM145.824.506l12.575 26.988h-5.655l-2.462-5.398h-12.908l-2.495 5.398h-5.656L141.798.506h4.026zm-6.487 17.239h8.915l-4.424-9.716-4.491 9.716zM175 .54v4.655h-7.352v22.299h-5.223V5.195h-7.353V.54H175zM15.927 5.32h3.874l-8.26 10.561v11.861H8.26v-11.86L0 5.32h3.874l5.986 7.736 6.067-7.736zM31.919 5c3.458 0 6.336 1.097 8.636 3.29 2.3 2.194 3.45 4.944 3.45 8.25s-1.161 6.043-3.482 8.21c-2.321 2.167-5.248 3.25-8.78 3.25-3.372 0-6.181-1.083-8.428-3.25-2.246-2.167-3.37-4.882-3.37-8.146 0-3.349 1.132-6.12 3.394-8.314C25.602 6.097 28.462 5 31.92 5zm.128 3.05c-2.561 0-4.666.802-6.315 2.407-1.648 1.605-2.473 3.654-2.473 6.147 0 2.419.827 4.43 2.481 6.035 1.654 1.605 3.725 2.408 6.211 2.408 2.497 0 4.58-.819 6.25-2.456s2.506-3.675 2.506-6.115c0-2.376-.835-4.374-2.505-5.995-1.67-1.62-3.722-2.431-6.155-2.431zM64.783 5.32H68v12.728c0 1.723-.125 3.023-.376 3.9-.25.877-.56 1.608-.929 2.19a6.975 6.975 0 0 1-1.352 1.566C63.57 27.235 61.256 28 58.396 28c-2.914 0-5.25-.76-7.011-2.28a7.298 7.298 0 0 1-1.353-1.58c-.368-.583-.672-1.297-.912-2.143-.24-.845-.36-2.172-.36-3.98V5.32h3.217v12.728c0 2.108.24 3.574.72 4.398.48.824 1.211 1.484 2.193 1.982.982.497 2.14.746 3.474.746 1.9 0 3.447-.497 4.642-1.493a4.624 4.624 0 0 0 1.36-1.893c.278-.728.417-1.975.417-3.74V5.32zM196.89 5h2.982v23h-3.222V10.104l-6.894 8.89h-.593l-6.958-8.89V28H179V5h3.014l7.455 9.45L196.89 5zm9.107 0h12.697v2.93h-9.49v7.014h9.17v2.947h-9.17v7.146H219v2.93h-13.002V5z" fill="#FFF" fill-rule="evenodd"/></svg>