<svg viewBox="0 0 525 1572" xmlns="http://www.w3.org/2000/svg"><g fill="none" fill-rule="evenodd"><g stroke="#4AD5FD" stroke-width="2"><path d="M262.5 1c-3.01 7.877-19.486 21.785-49.424 41.723-44.908 29.907-206.07 69.996-206.07 209.28s511 265.65 511 498-505.29 337.71-511 501c-5.71 163.29 256.01 204.59 256.01 321" opacity=".117"/><path d="M256.5 1c-3.01 7.876-19.486 21.782-49.425 41.718-44.908 29.904-204.1 70.016-204.1 209.28s509.02 265.67 509.02 498-504.9 337.73-510.61 501c-5.71 163.27 261.62 204.6 261.62 321" opacity=".15"/><path d="M269.5 1c-3.01 7.874-19.486 21.776-49.424 41.706-44.908 29.896-209.08 70.068-209.08 209.29s513 265.24 513 497.5-505.79 338.28-511.5 501.5c-5.71 163.22 249.51 200.63 249.51 317" opacity=".063"/></g><path d="M251.164 963.925l5.146 3.946 4.141-2.092-3.703-.495a.114.114 0 0 1-.098-.09.118.118 0 0 1 .132-.14l3.88.521a.119.119 0 0 1 .093.052l.734-.371-4.773-2.89-5.552 1.559zm1.186 2.23l-.331 1.957s2.1 1.182 4.517.919l2.416-.264.22-1.47-3.217 1.624-3.605-2.765zm8.723.088l.013-.006-.013.006zm0 0l-.174.102.274.517.02 2.218 1.133.676.061-1.3-1.041-1.664-.272-.548zm-.042 6.903l.236 1.109c.033.185-.014-.106.022.117.138.859.127.8.223 1.4l3.247 2.88c-.062-1.383-.474-2.588-.474-2.588l-.05-.184-.473-.765-.292-.447-.114-.157h-.002c-.466-.726-.29-.52-.764-1.087-.43-.512-.998-.623-1.558-.278h-.001zm-7.684 5.91a3.11 3.11 0 0 0-.536.358c-1.353 1.12-1.517 3.151-.348 4.546 1.168 1.396 3.207 1.603 4.559.482 1.353-1.12 1.515-3.152.346-4.547-1.022-1.22-2.709-1.53-4.02-.839zm8.255-2.41l-.065.584c.075.352.095 1.435-.138 2.622-.046.234.003.862-.144 1.83-.024.156-.074.18-.096.335v.244c-.042.298-.68.969-.68.969-.734.465-1.221.77-1.632 1.055.004.007 1.79 2.945 1.171 4.288-.62 1.345-4.26-1.173-4.26-1.173l-.71.838a3.19 3.19 0 0 0-.04.555c.003.004.007.016.01.023l.068 1.509.023.194a32.54 32.54 0 0 0-.089 1.382 60.71 60.71 0 0 0-.062 2.077 6.468 6.468 0 0 1-.27 1.755l1.721 2.591.02-.02 1.524 2.537.71-4.49c.34-.853.766-1.464 1.202-1.464.38.58.726 1.008 1.097 1.284l.004-.004 4.116 7.077 3.565-3.096 2.264-2.395.633-.993 1.051-2.746-5.22-3.395-.006.003-2.884-3.29v-.001c-.243-.278-.04-1.151-.007-1.288l.039.043c-.01-.032-.016-.06-.026-.094l2.019-3.614-1.465-2.444-3.443-3.289zm-9.934 19.685c-.37.264-.515.696-.518.703a.112.112 0 0 0-.016.042.215.215 0 0 0 .01.111c.031.086.112.187.3.31.08.053.267.206.493.398.2.17.436.376.664.578-.012.02-.042.06-.046.07-.017.038-.022.085-.027.125-.007.05-.018.143-.019.197 0 .056 0 .105-.002.167-.002.066.002.117.008.187.01.07.013.123.033.197a.996.996 0 0 0 .185.38c.042.05.1.105.145.152.052.048.116.09.19.125.06.03.137.067.204.089.06.02.12.035.18.05.067.016.134.02.195.03.03.006.064.005.097.009.165.02.347.012.347.012.343-.026.19-.008.405-.047a.662.662 0 0 1 .053-.04c.088.12.173.231.26.363.29.44.549.89.641 1.036l.14-.075c-.066-.147-.06-.34.007-.521a.844.844 0 0 1 .304-.38l.006.02c-.271.2-.385.548-.22.833a.208.208 0 0 0 .048.06c.018.015.051.043.137.127l.02.02.385.03.006-.001a.673.673 0 0 0 .578-.425 1.04 1.04 0 0 0 .05-.645l-.004-.015-.01-.013c-.01-.013-.033-.006-.045-.018l.016-.014-.002-.003a.66.66 0 0 0-.039-.04c-.004-.005-.01-.009-.015-.013-.003-.002-.006-.006-.013-.01l-.012-.005-.146-.122-.03.001c.007 0-.015 0-.044-.014a1.055 1.055 0 0 1-.114-.065 4.81 4.81 0 0 1-.347-.25 21.675 21.675 0 0 1-.763-.634l.503-.507-1.543-2.212-.918.923c-.15-.214-.28-.528-.368-.815a6.319 6.319 0 0 1-.167-.664l-.013-.072-.72.095a.986.986 0 0 0-.443.177l-.006.003zm.09.126a.817.817 0 0 1 .377-.15l.577-.076c.01.057.052.281.154.61.094.304.225.639.406.88l-.536.54c-.02.027-.028.046-.049.076a52.697 52.697 0 0 0-.646-.562 6.899 6.899 0 0 0-.509-.409c-.171-.113-.223-.195-.237-.233-.007-.02-.006-.029-.005-.031l.003-.002.004-.01s.144-.403.463-.632h-.001zm3.472 3.059c.276.236.555.475.776.646.095.073.168.121.244.175-.129.003-.26-.001-.384.071a.99.99 0 0 0-.418.518c-.042.113-.003.224-.002.34-.121-.204-.274-.467-.504-.816-.088-.134-.178-.25-.267-.373l.555-.561zm.714 1.029c.056-.033.113-.017.17-.032-.053.021-.114.02-.16.048l-.04.023c.013-.01.016-.031.03-.04zm.088.151a.97.97 0 0 1 .42-.125c.133-.006.238.033.304.11a.908.908 0 0 1-.04.521.493.493 0 0 1-.44.327l-.312-.022a3.539 3.539 0 0 0-.126-.116c-.018-.016-.001.003-.014-.019-.134-.23-.043-.53.208-.676zm.792-.165l.006-.003v.002l.003.006-.009-.005zm.006.06v.001a.047.047 0 0 1-.005.012l-.02.02-.02.01.045-.043zm16.33-5.752l-1.084 2.639.351.009c.65.016 1.143.018 1.506.013.063.037.113.064.203.12.288.18.675.436 1.056.695.76.517 1.493 1.041 1.493 1.041l.838.597 2.652-2.193c1.42-1.139-.314-3.215-1.698-2.033l-1.056.874c-.275-.192-.339-.241-.695-.484-.395-.27-.8-.538-1.145-.753a8.208 8.208 0 0 0-.479-.283 2.626 2.626 0 0 0-.256-.122c-.105-.042-.154-.14-.64-.12.028-.002-.466.005-1.046 0zm-3.707 5.864l-2.74 2.271c.14.047.248.086.265.094.48.218.621.175.899.205.277.03.588.05.917.066a49.8 49.8 0 0 0 1.923.048c.386.004.598.007.79 0 .383-.016.332-.044.482-.075.15-.032.332-.073.54-.121.42-.097.942-.222 1.456-.347.544-.133.686-.17 1.068-.264l.692 1.122c.919 1.536 3.252.1 2.29-1.41l-1.703-2.761-.95.237s-.985.246-2.002.493c-.509.124-1.025.25-1.424.341a25.7 25.7 0 0 1-.489.109c-.046.01-.1.014-.142.018-.058 0-.243.004-.55.002a54.73 54.73 0 0 1-1.322-.028zm8.425 11.227c-2.26 1.32-4.271 2.573-5.695 3.53-.712.48-1.276.886-1.65 1.187a3.95 3.95 0 0 0-.409.366.564.564 0 0 0-.079.104l-.002.006h.006a.548.548 0 0 0 .13-.018 3.96 3.96 0 0 0 .522-.176c.446-.177 1.075-.47 1.842-.854 1.534-.77 3.616-1.905 5.876-3.224 2.26-1.32 4.27-2.574 5.694-3.533a25.374 25.374 0 0 0 1.65-1.185c.187-.15.327-.275.41-.366a.564.564 0 0 0 .079-.104c.001-.004 0-.004.002-.007h-.006a.563.563 0 0 0-.13.018c-.12.027-.297.088-.52.176-.446.178-1.077.47-1.845.855-1.534.769-3.615 1.905-5.875 3.225z" fill="#E4F9FF"/><path d="M291.604 986.553c-.986-3.162-1.76-6.12-.23-7.033.455-1.055 1.236-2.487 1.8-3.325.511-.756 1.232-.314.78.594-.46 1.312-.311 1.687-.406 2.544 2.322-.616 6.424 2.541 8.958.958l2.266-1.416c3.547-2.217 5.409-2.412 6.944.044 1.535 2.456 3.263 1.87 4.286 3.299l2.589 3.638c.732 1.023.67 1.043.123 1.384l-.32.2c-.453.284-.418.28-1.323-.634l-2.551-2.39c-1.285.138-3.465 1.576-5.909.276-2.117 1.418-4.376 2.64-5.853 3.183l2.706 6.26c.467 1.074.316 1.188-.017 1.396l-.534.333c-.36.225-.38.313-.95-.81l-1.535-2.988c-3.889-7.589-6.617-8.692-8.357-5.631-.75 1.322-2.201.958-2.467.118zm.357-4.806c.272.437.75.46 1.084.252s.522-.648.249-1.085c-.298-.477-.777-.501-1.11-.293s-.522.649-.223 1.126zm17.348 9.966c.745 1.015.591 1.035.258 1.244l-.52.325c-.32.2-.374.233-1.156-.663l-3.8-4.362 1.95-.972 3.268 4.428zm-16.417-4.39l-.004-.026c-.243.005-.418-.009-.523-.042a1.777 1.777 0 0 1-.336-.154c.026-.09.054-.186.085-.286l.898.214-.12.294zm-.022.054l-.298.732c-.157.288-.352.4-.585.335-.206-.057-.197-.49.03-1.299.14.088.25.142.326.16.082.021.258.045.527.072zm18.734-1.158l2.108-.692.971 2.771c.417 1.2.55 1.118.044 1.434l-.414.258c-.426.267-.431.29-1.043-.809l-1.666-2.962zm-19.338 1.21a5.16 5.16 0 0 0-.151.418 4.159 4.159 0 0 0-.064.46c.071-.222.116-.374.135-.456.02-.081.046-.222.08-.422z" fill="#FD64A0" fill-opacity=".221" fill-rule="nonzero"/><path d="M287.708 973.924l4.514.354 1.931-3.205.565 1.388-1.94 1.585c-1.94 1.585-4.352 1.748-4.352 1.748l-.718-1.87zm-2.666-.803l3.97-4.462 5.582-.196-.44.732a.113.113 0 0 0-.106.008l-3.602 1.733a.127.127 0 0 0-.058.058c-.023.047-.016.101.017.136s.086.044.13.022l3.436-1.655-2.485 4.128-6.444-.504zm9.06-5.599l.514.319 1.748.848.614 1.152-1.32.055-1.155-1.897-.5-.292.099-.185z" fill="#FFDDEA"/><g fill-rule="nonzero"><path d="M343.447 494.353c.931-3.178 1.653-6.15.107-7.035-.472-1.047-1.279-2.466-1.858-3.294-.524-.746-1.237-.292-.769.608.483 1.304.34 1.682.451 2.536-2.332-.575-6.379 2.654-8.94 1.115l-2.29-1.377c-3.586-2.154-5.45-2.317-6.943.166-1.491 2.483-3.23 1.926-4.228 3.373l-2.524 3.683c-.714 1.036-.652 1.054-.1 1.386l.324.195c.458.275.423.272 1.312-.658l2.509-2.435c1.287.117 3.491 1.516 5.912.174 2.142 1.38 4.422 2.563 5.908 3.08l-2.596 6.306c-.449 1.082-.295 1.193.042 1.396l.539.324c.364.218.385.306.937-.827l1.481-3.014c3.756-7.656 6.465-8.806 8.258-5.777.773 1.31 2.218.92 2.468.075zm-.44-4.798c-.265.441-.743.473-1.08.27s-.533-.638-.268-1.08c.29-.483.768-.515 1.105-.312s.533.64.243 1.122zm-17.172 10.267c-.727 1.028-.573 1.045-.236 1.248l.526.316c.323.194.377.226 1.144-.683l3.724-4.427-1.968-.939-3.19 4.485zm16.338-4.676l.003-.026c.244.001.418-.016.523-.051a1.8 1.8 0 0 0 .333-.16c-.027-.09-.057-.185-.09-.285l-.894.23.125.292zm.023.053l.311.727c.162.285.358.394.59.325.206-.06.189-.493-.052-1.298-.139.09-.247.146-.323.166a4.83 4.83 0 0 1-.526.08zm-18.751-.83l-2.12-.655-.923 2.787c-.396 1.208-.53 1.127-.018 1.435l.418.25c.431.26.436.282 1.029-.826l1.614-2.992zm19.356.873c.088.213.14.351.159.414.017.062.041.216.07.46a7.677 7.677 0 0 1-.142-.454 7.794 7.794 0 0 1-.087-.42z" fill="#FD64A0" fill-opacity=".221"/><path d="M305.6 465.096l-.511-15.426-.04.073.028-.078s-3.688-2.064-4.925-2.739c-1.458-.795-6.233-1.936-6.233-1.936a.733.733 0 0 0-.906.288l-1.84 2.858-1.19-.397-3.067 4.916 1.035.646-.375.601 4.489 2.553c.186.264.402.508.631.741l-5.476 8.41 1.469.814-4.69 8.534 2.14 1.123 5.782-7.865.468.26-4.716 8.454 1.938 1.075 5.921-7.788 1.835 1.017 5.07-14.18.841 6.76 2.322 1.287zm-12.327-8.787a4.962 4.962 0 0 1-.602-.826l5.118-8.204c.41.028.75.227 1.144.358l-5.66 8.673zm14.079-15.65c1.723 1.169 2.167 3.525.988 5.261-1.179 1.738-3.533 2.196-5.256 1.027-1.466-.995-1.999-2.847-1.4-4.448l-3.68-.473-2.333 1.163-.07-2.423 2.387.703 5.954-1.22c.356-.13.73-.207 1.108-.227l.105-.022.005.016a3.727 3.727 0 0 1 2.192.642zm13.792 39.135l-.43-13.397-.033.063.023-.067s-3.097-1.793-4.136-2.379c-1.225-.69-5.236-1.68-5.236-1.68a.605.605 0 0 0-.762.25l-1.545 2.48-1-.344-2.576 4.27.87.56-.315.522 3.77 2.217c.157.23.338.442.53.644l-4.6 7.303 1.235.707-3.94 7.412 1.798.974 4.857-6.83.393.225-3.962 7.343 1.628.933 4.974-6.763 1.541.883 4.259-12.315.707 5.87 1.95 1.118zm-10.355-7.63a4.306 4.306 0 0 1-.506-.718l4.3-7.125c.344.025.63.198.96.311l-4.754 7.532zm11.826-13.592c1.447 1.015 1.82 3.061.83 4.569-.99 1.509-2.968 1.907-4.415.891-1.231-.863-1.68-2.472-1.177-3.862l-3.09-.41-1.96 1.01-.06-2.105 2.006.61 5.001-1.059c.3-.113.613-.18.931-.197l.089-.019.004.014a3.057 3.057 0 0 1 1.841.558z" fill="#E4F9FF"/></g><g fill-rule="nonzero"><path d="M171.24 43.99c-.403-3.142-.639-6.058.957-6.665.604-.918 1.581-2.14 2.254-2.836.608-.627 1.214-.092.636.69-.653 1.16-.576 1.538-.808 2.33 2.293-.197 5.636 3.458 8.29 2.385l2.375-.96c3.717-1.5 5.506-1.377 6.543 1.192 1.038 2.569 2.767 2.302 3.493 3.818l1.835 3.857c.52 1.085.458 1.093-.115 1.325l-.335.135c-.475.192-.442.195-1.143-.816l-2.007-2.676c-1.236-.081-3.532.913-5.62-.717-2.235.986-4.57 1.763-6.054 2.031l1.508 6.347c.261 1.09.1 1.171-.25 1.312l-.559.226c-.377.153-.41.232-.762-.92l-.948-3.07c-2.402-7.795-4.792-9.287-6.944-6.69-.928 1.121-2.237.538-2.347-.298zm1.138-4.469c.184.457.632.558.98.417s.601-.525.417-.981c-.202-.5-.65-.601-.998-.46s-.601.525-.4 1.024zm14.703 12.263c.533 1.08.384 1.073.035 1.214l-.545.22c-.335.136-.391.159-.98-.815l-2.857-4.74 2.003-.593 2.343 4.714zm-14.756-6.854l.001-.025c-.23-.036-.393-.078-.487-.127a1.7 1.7 0 0 1-.29-.2c.039-.082.082-.167.128-.256l.81.35-.162.258zm-.03.047l-.403.64c-.196.246-.398.319-.608.22-.185-.089-.103-.495.245-1.22.118.107.212.175.281.206.074.032.236.084.486.153zm17.869 2.009l2.104-.302.453 2.771c.193 1.2.333 1.144-.198 1.359l-.433.175c-.447.18-.456.2-.85-.935l-1.076-3.068zm-18.446-2.06a4.946 4.946 0 0 0-.213.368 3.981 3.981 0 0 0-.137.424c.104-.198.172-.334.204-.407s.08-.202.146-.385zm-39.271-27.505c-2.003-1.639-3.922-3.065-5.033-2.222-.898.021-2.167.17-2.941.334-.698.15-.59.801.202.74 1.087.05 1.315.266 1.964.448-1.129 1.504-.043 5.403-1.936 6.778l-1.693 1.23c-2.65 1.925-3.339 3.218-2.008 5.05 1.33 1.831.397 2.914 1.133 4.073l1.879 2.942c.526.83.559.79.967.494l.24-.174c.338-.246.325-.221-.072-1.145l-.985-2.55c.479-.891 2.162-2.052 1.937-4.205 1.65-1.121 3.2-2.402 4.029-3.315l3.744 3.793c.642.653.77.576 1.018.395l.399-.29c.269-.195.338-.183-.308-.926l-1.717-1.986c-4.362-5.04-4.36-7.342-1.629-7.709 1.18-.157 1.341-1.317.81-1.755zm-3.59-1.146c.237.326.113.68-.136.86-.249.182-.623.19-.86-.136-.259-.356-.135-.71.114-.89.249-.182.623-.19.882.166zm2.132 15.498c.516.837.576.732.826.55l.388-.282c.239-.173.279-.202-.141-1.032l-2.047-4.032-1.278 1.131 2.252 3.665zm1.638-13.192l-.017-.01c.075-.175.116-.306.123-.392a1.39 1.39 0 0 0-.013-.289 9.55 9.55 0 0 0-.233-.021l-.108.713h.248zm.046 0l.618-.002c.255-.03.394-.138.415-.326.02-.167-.297-.286-.95-.359.022.128.03.223.02.284-.01.066-.044.2-.103.403zm-6.344 13.251l-1.12 1.327 1.723 1.515c.749.653.65.725 1.028.45l.309-.224c.318-.232.336-.229-.28-.993l-1.66-2.075zm6.56-13.674c.18.002.296.006.347.012.05.007.168.036.353.09-.183-.015-.306-.026-.371-.036s-.175-.032-.33-.066z" fill="#FEDCE9"/><path fill="#E4F9FF" d="M163.413 24.462l4.31-2.89-.023-.034 5.375-2.932-.383-.703-5.44 2.967-.052-.08 2.69-5.114-.707-.373-2.732 5.195-4.479 3.004-6.576 1.086.168-3.037 5.072-6.533 3.968-4.025-.568-.563-3.817 3.872-.147-.114 1.254-4.843-.773-.202-1.31 5.059-4.501 5.8-1.59-4.129-.688-3.94-.786.136.698 4-.237.09-3.273-3.401-.574.555 3.608 3.75 1.323 3.439-.29 5.237-3.613 6.124-1.286-1.642-2.787-7.246-.969-5.6-.237-5.83-.8.03.209 5.094-.334.057-1.908-3.552-.703.378 2.2 4.097.786 4.545-4.405-2.283-3.364-3.302-.56.57 2.79 2.738-.199.386-1.745-.267-.12.79 2.116.324 4.964 2.573 2.308 5.998-6.356-.063-3.852-4.188-1.879-3.7-.712.361 1.653 3.253-.117.108-3.48-1.693-.348.72 3.328 1.617 3.934 4.28-7.486-.688-1.995-1.756-.526.6 1.802 1.587-.034.367-2.215 1.4.427.677 2.075-1.312 16.511 1.52 1.495 1.91 4.841 14.516-5.807-10.57-.052.029.01-.099-11.472-1.073-7.892-2.32-.006.022-3.816-1.89-.352.718 3.941 1.95-.109.377-4.956 1.296.202.774 5.542-1.45 5.412 1.591-3.726 4.375-6.49 1.379.168.783 6.461-1.374.199.17-.244 3.317.796.06.234-3.187 3.64-4.276 10.019.938-4.665 4.218-8.763 5.087v.002l-6.18.263.036.8 6.552-.28-3.794 6.051.676.426 3.784-6.035 7.415-4.305-.204 6.816-3.09 5.718.702.381 3.2-5.92.011.001 2.055 5.18.743-.292-2.022-5.097.04-1.32.057-.11-.054-.028.158-5.299 4.535-4.1 12.735 23.18.284.853.155-.052.18.328 1.783-.981 2.426-.808-10.684-32.034 3.828-6.49 6.436-1.063 4.833 1.095 3.937 4.11.576-.553-3.858-4.026.076-.338 4.985.12.018-.799-5.666-.138z"/></g></g></svg>