<svg width="412" height="599" xmlns="http://www.w3.org/2000/svg"><g fill="none" fill-rule="evenodd" opacity=".27"><path d="M342.5 516c-.828 0-1.5-.569-1.5-1.27v-2.96h3v2.96c0 .701-.672 1.27-1.5 1.27m1.5-6.769h-3v-2.962c0-.7.672-1.269 1.5-1.269s1.5.569 1.5 1.27v2.961" fill="#FFF"/><path d="M346.73 511h-8.46c-.701 0-1.27-.448-1.27-1 0-.553.569-1 1.27-1h8.46c.701 0 1.27.447 1.27 1 0 .552-.569 1-1.27 1M147 394a5.002 5.002 0 0 1-5-5 5.002 5.002 0 0 1 5-5 5.002 5.002 0 0 1 5 5 5.002 5.002 0 0 1-5 5m0-7.556a2.56 2.56 0 0 0-2.556 2.555 2.561 2.561 0 0 0 2.557 2.557 2.56 2.56 0 0 0 2.555-2.557 2.56 2.56 0 0 0-2.555-2.555M338.5 369c-.394 0-.781-.107-1.06-.293-.28-.186-.44-.444-.44-.707 0-.264.16-.521.44-.708.279-.186.666-.292 1.06-.292.396 0 .781.106 1.06.292.281.187.44.444.44.708 0 .263-.159.521-.44.707-.279.186-.664.293-1.06.293M112.5 342c-.394 0-.781-.107-1.06-.293-.28-.186-.44-.444-.44-.707 0-.264.16-.521.44-.707.279-.187.666-.293 1.06-.293s.781.106 1.06.293c.28.186.44.443.44.707 0 .263-.16.521-.44.707-.279.186-.666.293-1.06.293M4.5 403c-.394 0-.781-.107-1.06-.293-.281-.186-.44-.444-.44-.707 0-.264.159-.521.44-.707.279-.187.666-.293 1.06-.293s.782.106 1.06.293c.28.186.44.443.44.707 0 .263-.16.521-.44.707-.278.186-.665.293-1.06.293M346.797 298a1.25 1.25 0 0 1-1.223-1l-2.549-12.501a1.254 1.254 0 0 1 .341-1.134 1.26 1.26 0 0 1 1.134-.34l12.5 2.549a1.25 1.25 0 0 1 .635 2.109l-9.952 9.952a1.254 1.254 0 0 1-.886.365m.002-1.249l1.224-.25-1.224.25m-.946-10.898l1.706 8.37 6.663-6.664-8.37-1.706M127.803 214c-.333 0-.66-.13-.902-.372l-7.53-7.53a1.275 1.275 0 0 1-.317-1.265c.133-.447.506-.786.962-.88l9.458-1.928a1.27 1.27 0 0 1 1.5 1.499l-1.928 9.459a1.275 1.275 0 0 1-1.243 1.017m-4.96-8.028l4.184 4.186 1.072-5.258-5.257 1.072M389.9 423c-1.6-.005-3.2-.633-4.292-1.86-.806-.918-1.2-1.96-1.487-2.923-.284-.968-.475-1.884-.758-2.643a4.095 4.095 0 0 0-1.046-1.55c-.441-.404-.889-.586-1.196-.586h-.018a.962.962 0 0 0-.36.071c-.157.06-.319.09-.478.09-.498 0-.971-.286-1.17-.758-.265-.624.046-1.335.692-1.59a3.582 3.582 0 0 1 1.309-.251h.007c1.191.007 2.186.56 2.949 1.25a6.514 6.514 0 0 1 1.692 2.504c.365.993.558 1.96.809 2.793.246.837.537 1.513.981 2.013.535.615 1.453 1.002 2.353 1.002h.016c.454 0 .893-.094 1.274-.275.18-.085.37-.125.557-.125.467 0 .916.25 1.136.68.308.605.05 1.335-.577 1.633-.759.36-1.58.525-2.392.525M310.5 219c-.83 0-1.5-.569-1.5-1.27v-2.96h3v2.96c0 .701-.672 1.27-1.5 1.27m1.5-6.769h-3v-2.96c0-.702.67-1.271 1.5-1.271.828 0 1.5.569 1.5 1.27v2.961M314.73 206h-8.46c-.701 0-1.27-.448-1.27-1 0-.553.569-1 1.27-1h8.46c.701 0 1.27.447 1.27 1 0 .552-.569 1-1.27 1M64.5 279c-.828 0-1.5-.569-1.5-1.27v-2.96h3v2.96c0 .701-.67 1.27-1.5 1.27m1.5-6.769h-3v-2.962c0-.7.672-1.269 1.5-1.269.83 0 1.5.569 1.5 1.27v2.961" fill="#FFF"/><path d="M68.73 274h-8.46c-.701 0-1.27-.448-1.27-1 0-.553.569-1 1.27-1h8.46c.701 0 1.27.447 1.27 1 0 .552-.569 1-1.27 1M66.5 109c-.828 0-1.5-.373-1.5-.832V102h3v6.168c0 .46-.672.832-1.5.832m1.5-8h-3v-6.168c0-.46.672-.832 1.5-.832s1.5.373 1.5.832V101M17.204 157H3.796c-.44 0-.796-.448-.796-1s.357-1 .796-1h13.408c.44 0 .796.448.796 1s-.356 1-.796 1M273.5 451c-.83 0-1.5-.57-1.5-1.274v-9.452h3v9.452c0 .703-.67 1.274-1.5 1.274m1.5-13.274h-3v-9.45c0-.705.67-1.276 1.5-1.276s1.5.57 1.5 1.276v9.45M283.726 440h-21.452c-.703 0-1.274-.447-1.274-1 0-.552.57-1 1.274-1h21.452c.704 0 1.274.448 1.274 1 0 .553-.57 1-1.274 1M242 205a5 5 0 1 1 0-10 5 5 0 0 1 0 10m0-7.556a2.56 2.56 0 0 0-2.556 2.556 2.56 2.56 0 0 0 2.556 2.556 2.558 2.558 0 0 0 2.556-2.556 2.56 2.56 0 0 0-2.556-2.556M24 10A5 5 0 1 1 24-.001 5 5 0 0 1 24 10m0-7.556A2.56 2.56 0 0 0 21.445 5a2.56 2.56 0 0 0 2.557 2.556A2.56 2.56 0 0 0 26.556 5 2.56 2.56 0 0 0 24 2.444M63 564a5.001 5.001 0 1 1 5-5 5 5 0 0 1-5 5m0-7.556A2.56 2.56 0 0 0 60.444 559 2.56 2.56 0 0 0 63 561.556a2.56 2.56 0 0 0 2.556-2.557A2.56 2.56 0 0 0 63 556.444M410.498 487c-.394 0-.78-.107-1.06-.293-.279-.187-.438-.444-.438-.707 0-.264.159-.521.438-.708.28-.186.666-.292 1.06-.292.397 0 .782.106 1.063.292.279.187.439.444.439.708 0 .263-.16.52-.44.707-.28.186-.666.293-1.062.293M105.5 599c-.396 0-.781-.107-1.06-.293-.281-.187-.44-.444-.44-.707 0-.264.159-.521.44-.708.279-.186.664-.292 1.06-.292.394 0 .781.106 1.06.292.28.187.44.444.44.708 0 .263-.16.52-.44.707-.279.186-.666.293-1.06.293M176.5 225c-.396 0-.781-.107-1.062-.293-.279-.186-.438-.444-.438-.707 0-.264.159-.521.438-.708.28-.186.666-.292 1.062-.292.394 0 .781.106 1.06.292.28.187.44.444.44.708 0 .263-.16.521-.44.707-.279.186-.666.293-1.06.293M302.5 136c-.394 0-.781-.107-1.06-.293-.28-.186-.44-.443-.44-.707 0-.263.16-.521.44-.707.279-.186.666-.293 1.06-.293s.781.107 1.06.293c.28.186.44.444.44.707 0 .264-.16.521-.44.707-.279.186-.666.293-1.06.293M140.5 2c-.394 0-.781-.107-1.06-.293-.28-.187-.44-.444-.44-.707 0-.264.16-.521.44-.707.279-.187.666-.293 1.06-.293.396 0 .781.106 1.06.293.281.186.44.443.44.707 0 .263-.159.52-.44.707-.279.186-.664.293-1.06.293M202.501 500c-.395 0-.782-.107-1.061-.293-.28-.186-.44-.444-.44-.707 0-.263.16-.521.44-.707.279-.186.666-.293 1.061-.293.395 0 .78.107 1.06.293s.439.444.439.707c0 .263-.159.521-.44.707-.279.186-.664.293-1.059.293M12.5 567c-.395 0-.781-.107-1.06-.293-.28-.186-.44-.444-.44-.707 0-.263.16-.521.44-.707.279-.186.665-.293 1.06-.293s.781.107 1.06.293c.28.186.44.444.44.707 0 .263-.16.521-.44.707-.279.186-.665.293-1.06.293M242.5 316c-.394 0-.781-.107-1.06-.293-.28-.186-.44-.444-.44-.707 0-.263.16-.521.44-.707.279-.186.666-.293 1.06-.293s.781.107 1.06.293c.28.186.44.444.44.707 0 .263-.16.521-.44.707-.279.186-.666.293-1.06.293M194.803 38c-.333 0-.66-.13-.902-.371l-7.53-7.53a1.273 1.273 0 0 1 .646-2.145l9.457-1.929a1.274 1.274 0 0 1 1.5 1.5l-1.928 9.46A1.274 1.274 0 0 1 194.803 38m-4.96-8.027l4.184 4.185 1.072-5.257-5.257 1.072M8.801 522a1.28 1.28 0 0 1-.9-.371l-7.53-7.53a1.272 1.272 0 1 1 .645-2.145l9.458-1.929a1.28 1.28 0 0 1 1.153.346c.302.302.433.738.347 1.153l-1.928 9.459A1.275 1.275 0 0 1 8.8 522m-4.959-8.027l4.185 4.185 1.072-5.257-5.257 1.072M202.379 138a1.22 1.22 0 0 1-1.129-.788 3.563 3.563 0 0 1-.25-1.315c.006-1.19.558-2.186 1.249-2.948a6.487 6.487 0 0 1 2.504-1.692c.994-.367 1.96-.56 2.793-.81.838-.246 1.513-.537 2.013-.982.62-.536 1.006-1.462 1.002-2.367 0-.455-.093-.894-.274-1.275-.297-.627-.049-1.384.555-1.693.173-.088.357-.13.538-.13.45 0 .882.26 1.094.706.36.758.526 1.581.526 2.392-.005 1.602-.633 3.201-1.86 4.294-.919.807-1.96 1.2-2.923 1.487-.967.284-1.885.474-2.644.759a4.107 4.107 0 0 0-1.55 1.044c-.411.451-.592.907-.584 1.215 0 .12.018.23.069.36.255.648-.045 1.385-.67 1.65-.15.063-.305.093-.459.093M167.9 549c-1.601-.004-3.2-.632-4.293-1.86-.807-.919-1.199-1.96-1.486-2.923-.284-.967-.475-1.884-.758-2.644a4.11 4.11 0 0 0-1.046-1.55c-.442-.404-.889-.584-1.197-.584h-.017c-.12 0-.231.019-.361.069a1.282 1.282 0 0 1-.477.091c-.498 0-.971-.286-1.17-.76-.265-.622.046-1.334.692-1.59.427-.167.876-.249 1.311-.249h.005c1.19.007 2.185.56 2.948 1.25a6.5 6.5 0 0 1 1.693 2.503c.365.995.558 1.962.808 2.794.246.837.538 1.514.982 2.012.534.617 1.453 1.002 2.353 1.002h.014c.455 0 .895-.092 1.276-.274.18-.085.37-.125.557-.125.467 0 .916.25 1.136.681.308.604.05 1.335-.577 1.631-.759.361-1.58.526-2.392.526M368.9 81c-1.601-.004-3.2-.632-4.293-1.86-.807-.919-1.199-1.96-1.486-2.923-.284-.967-.475-1.884-.758-2.644a4.11 4.11 0 0 0-1.046-1.55c-.442-.404-.889-.584-1.197-.584h-.017c-.12 0-.231.019-.361.069a1.282 1.282 0 0 1-.477.091c-.498 0-.971-.286-1.17-.76-.265-.622.046-1.334.692-1.59.427-.167.876-.249 1.311-.249h.005c1.19.007 2.185.56 2.948 1.25a6.5 6.5 0 0 1 1.693 2.503c.365.995.558 1.962.808 2.794.246.837.538 1.514.982 2.012.534.617 1.453 1.002 2.353 1.002h.014c.455 0 .895-.092 1.276-.274.18-.085.37-.125.557-.125.467 0 .916.25 1.136.681.308.604.05 1.335-.577 1.631-.759.361-1.58.526-2.392.526M301.9 22c-1.601-.004-3.2-.632-4.293-1.86-.807-.919-1.199-1.96-1.486-2.923-.284-.967-.475-1.884-.758-2.644a4.11 4.11 0 0 0-1.046-1.55c-.442-.404-.889-.584-1.197-.584h-.017c-.12 0-.231.019-.361.069a1.282 1.282 0 0 1-.477.091c-.498 0-.971-.286-1.17-.76-.265-.622.046-1.334.692-1.59.427-.167.876-.249 1.311-.249h.005c1.19.007 2.185.56 2.948 1.25a6.5 6.5 0 0 1 1.693 2.503c.365.995.558 1.962.808 2.794.246.837.538 1.514.982 2.012.534.617 1.453 1.002 2.353 1.002h.014c.455 0 .895-.092 1.276-.274.18-.085.37-.125.557-.125.467 0 .916.25 1.136.681.308.604.05 1.335-.577 1.631-.759.361-1.58.526-2.392.526M352.379 204a1.222 1.222 0 0 1-1.129-.788 3.569 3.569 0 0 1-.25-1.316c.006-1.19.558-2.186 1.249-2.948a6.515 6.515 0 0 1 2.504-1.692c.994-.365 1.96-.559 2.793-.808.838-.248 1.513-.538 2.013-.982.62-.538 1.007-1.463 1.002-2.367a2.99 2.99 0 0 0-.274-1.276c-.297-.626-.049-1.384.555-1.693.173-.088.357-.13.538-.13.45 0 .882.26 1.094.707.361.758.526 1.58.526 2.392-.005 1.602-.632 3.2-1.86 4.292-.919.807-1.96 1.2-2.923 1.487-.967.285-1.884.476-2.644.759a4.11 4.11 0 0 0-1.55 1.045c-.411.45-.592.907-.584 1.214 0 .119.019.232.069.362.255.646-.045 1.384-.668 1.647a1.171 1.171 0 0 1-.461.095M71.379 437a1.222 1.222 0 0 1-1.129-.788 3.569 3.569 0 0 1-.25-1.316c.006-1.19.558-2.186 1.249-2.948a6.515 6.515 0 0 1 2.504-1.692c.994-.365 1.96-.559 2.793-.808.838-.248 1.513-.538 2.013-.982.62-.538 1.007-1.463 1.002-2.367a2.99 2.99 0 0 0-.274-1.276c-.297-.626-.049-1.384.555-1.693.173-.088.357-.13.538-.13.45 0 .882.26 1.094.707.361.758.526 1.58.526 2.392-.005 1.602-.632 3.2-1.86 4.292-.919.807-1.96 1.2-2.923 1.487-.967.285-1.884.476-2.644.759a4.11 4.11 0 0 0-1.55 1.045c-.411.45-.592.907-.584 1.214 0 .119.019.232.069.362.255.646-.045 1.384-.668 1.647a1.171 1.171 0 0 1-.461.095" fill="#FFF"/></g></svg>