<?xml version="1.0" encoding="UTF-8"?>
<svg width="412px" height="599px" viewBox="0 0 412 599" version="1.1" xmlns="http://www.w3.org/2000/svg" xmlns:xlink="http://www.w3.org/1999/xlink">
    <!-- Generator: Sketch 46.2 (44496) - http://www.bohemiancoding.com/sketch -->
    <title>sparks</title>
    <desc>Created with Sketch.</desc>
    <defs></defs>
    <g id="Page-1" stroke="none" stroke-width="1" fill="none" fill-rule="evenodd" opacity="0.270097373">
        <g id="Artboard" transform="translate(-209.000000, -47.000000)">
            <g id="sparks" transform="translate(209.000000, 47.000000)">
                <g id="Group-5" transform="translate(344.000000, 196.000000) rotate(90.000000) translate(-344.000000, -196.000000) translate(338.000000, 189.000000)">
                    <g id="Group-Copy"></g>
                </g>
                <path d="M342.5,516 C341.672,516 341,515.431406 341,514.730818 L341,511.769817 L344,511.769817 L344,514.730818 C344,515.431406 343.328,516 342.5,516 M344,509.231453 L341,509.231453 L341,506.269182 C341,505.568594 341.672,505 342.5,505 C343.328,505 344,505.568594 344,506.269182 L344,509.231453" id="Fill-548" fill="#FFFFFF"></path>
                <path d="M346.730818,511 L338.269182,511 C337.568594,511 337,510.552 337,510 C337,509.447 337.568594,509 338.269182,509 L346.730818,509 C347.431406,509 348,509.447 348,510 C348,510.552 347.431406,511 346.730818,511" id="Fill-549" fill="#FFFFFF"></path>
                <path d="M147.000611,394 C144.238788,393.998778 142.001222,391.761212 142,388.999389 C142.001222,386.238788 144.238788,384.001222 147.000611,384 C149.761212,384.001222 151.998778,386.238788 152,388.999389 C151.998778,391.761212 149.761212,393.998778 147.000611,394 M147.000611,386.444091 C145.589148,386.446536 144.446536,387.589148 144.444091,388.999389 C144.446536,390.410852 145.589148,391.552242 147.000611,391.555909 C148.410852,391.552242 149.553464,390.410852 149.555909,388.999389 C149.553464,387.589148 148.410852,386.446536 147.000611,386.444091" id="Fill-558" fill="#FFFFFF"></path>
                <path d="M338.5,369 C338.1055,369 337.7185,368.893 337.4395,368.707 C337.1605,368.521 337,368.263 337,368 C337,367.736 337.1605,367.479 337.4395,367.292 C337.7185,367.106 338.1055,367 338.5,367 C338.896,367 339.2815,367.106 339.5605,367.292 C339.841,367.479 340,367.736 340,368 C340,368.263 339.841,368.521 339.5605,368.707 C339.2815,368.893 338.896,369 338.5,369" id="Fill-560" fill="#FFFFFF"></path>
                <path d="M112.5,342 C112.1055,342 111.7185,341.893 111.4395,341.707 C111.1605,341.521 111,341.263 111,341 C111,340.736 111.1605,340.479 111.4395,340.293 C111.7185,340.106 112.1055,340 112.5,340 C112.8945,340 113.2815,340.106 113.5605,340.293 C113.8395,340.479 114,340.736 114,341 C114,341.263 113.8395,341.521 113.5605,341.707 C113.2815,341.893 112.8945,342 112.5,342" id="Fill-561" fill="#FFFFFF"></path>
                <path d="M4.5,403 C4.1055,403 3.7185,402.893 3.4395,402.707 C3.159,402.521 3,402.263 3,402 C3,401.736 3.159,401.479 3.4395,401.293 C3.7185,401.106 4.1055,401 4.5,401 C4.8945,401 5.2815,401.106 5.5605,401.293 C5.8395,401.479 6,401.736 6,402 C6,402.263 5.8395,402.521 5.5605,402.707 C5.2815,402.893 4.8945,403 4.5,403" id="Fill-567" fill="#FFFFFF"></path>
                <path d="M346.796563,298 C346.676557,298 346.55655,297.983749 346.439044,297.947496 C345.999021,297.816235 345.665253,297.449954 345.573998,296.999917 L343.025112,284.498875 C342.941358,284.090091 343.070115,283.661305 343.366381,283.36503 C343.602643,283.130011 343.92391,283 344.251428,283 C344.333932,283 344.417687,283.007501 344.500191,283.025002 L357.000856,285.573964 C357.44963,285.665222 357.8159,285.999 357.947157,286.439037 C358.079664,286.877823 357.958407,287.357863 357.63464,287.68289 L347.68286,297.63497 C347.445348,297.872489 347.124081,298 346.796563,298 M346.799063,296.751146 L346.799063,296.751146 L348.022878,296.501125 L346.799063,296.751146 M345.852763,285.852738 L347.559104,294.222185 L354.221958,287.55913 L345.852763,285.852738" id="Fill-570" fill="#FFFFFF"></path>
                <path d="M127.802637,214 C127.469563,214 127.142846,213.869054 126.901305,213.627503 L119.371558,206.097468 C119.042298,205.768196 118.918985,205.278737 119.05374,204.832503 C119.187223,204.38627 119.559706,204.046827 120.016093,203.952749 L129.47436,202.025426 C129.558264,202.007628 129.643439,202 129.727343,202 C130.061688,202 130.388405,202.130946 130.627404,202.371226 C130.928696,202.672529 131.059637,203.108592 130.974462,203.524314 L129.045941,212.982943 C128.953138,213.439347 128.613709,213.811844 128.166221,213.946605 C128.046721,213.982202 127.924679,214 127.802637,214 M122.842132,205.971607 L127.027161,210.158068 L128.098843,204.899883 L122.842132,205.971607" id="Fill-572" fill="#FFFFFF"></path>
                <path d="M389.9009,423 C388.300186,422.995123 386.700735,422.367266 385.608305,421.139592 C384.801625,420.221579 384.408401,419.180433 384.121385,418.217312 C383.836898,417.249314 383.645975,416.332521 383.362753,415.574215 C383.161715,415.023164 382.764697,414.425785 382.317104,414.024688 C381.875833,413.619933 381.42824,413.438281 381.120993,413.438281 L381.103292,413.438281 C380.983175,413.4395 380.873174,413.457787 380.742942,413.508991 C380.586158,413.569948 380.424316,413.599208 380.265003,413.599208 C379.766834,413.599208 379.293954,413.31271 379.09418,412.840902 C378.829923,412.216702 379.140963,411.505943 379.787065,411.251143 C380.213163,411.082902 380.662021,411 381.095706,411 L381.103292,411 C382.294345,411.007315 383.289418,411.559585 384.051844,412.249619 C384.818063,412.950625 385.395888,413.825968 385.743594,414.753734 C386.109002,415.747333 386.302453,416.714112 386.552802,417.546785 C386.799358,418.384334 387.090167,419.059738 387.533967,419.559585 C388.068803,420.175251 388.986748,420.561719 389.886992,420.561719 L389.9009,420.561719 L389.903429,420.561719 C390.357344,420.561719 390.796087,420.467845 391.176667,420.287412 C391.35621,420.202073 391.547133,420.161841 391.734262,420.161841 C392.200821,420.161841 392.649679,420.411765 392.869682,420.842121 C393.178193,421.446815 392.920258,422.17708 392.293121,422.47455 C391.534489,422.834197 390.712637,423 389.9009,423" id="Fill-574" fill="#FFFFFF"></path>
                <path d="M310.5,219 C309.6705,219 309,218.431406 309,217.730818 L309,214.769817 L312,214.769817 L312,217.730818 C312,218.431406 311.328,219 310.5,219 M312,212.231453 L309,212.231453 L309,209.270451 C309,208.568594 309.6705,208 310.5,208 C311.328,208 312,208.568594 312,209.270451 L312,212.231453" id="Fill-546" fill="#FFFFFF"></path>
                <path d="M314.730818,206 L306.270451,206 C305.568594,206 305,205.552 305,205 C305,204.447 305.568594,204 306.270451,204 L314.730818,204 C315.431406,204 316,204.447 316,205 C316,205.552 315.431406,206 314.730818,206" id="Fill-547" fill="#FFFFFF"></path>
                <path d="M64.5,279 C63.672,279 63,278.431406 63,277.730818 L63,274.769817 L66,274.769817 L66,277.730818 C66,278.431406 65.3295,279 64.5,279 M66,272.231453 L63,272.231453 L63,269.269182 C63,268.568594 63.672,268 64.5,268 C65.3295,268 66,268.568594 66,269.269182 L66,272.231453" id="Fill-550" fill="#FFFFFF"></path>
                <path d="M68.730818,274 L60.269182,274 C59.5685935,274 59,273.552 59,273 C59,272.447 59.5685935,272 60.269182,272 L68.730818,272 C69.4314065,272 70,272.447 70,273 C70,273.552 69.4314065,274 68.730818,274" id="Fill-551" fill="#FFFFFF"></path>
                <path d="M66.5,109 C65.672,109 65,108.627421 65,108.16835 L65,102 L68,102 L68,108.16835 C68,108.627421 67.328,109 66.5,109 M68,101 L65,101 L65,94.8316502 C65,94.3725793 65.672,94 66.5,94 C67.328,94 68,94.3725793 68,94.8316502 L68,101" id="Fill-552" fill="#FFFFFF"></path>
                <path d="M17.2043222,157 L3.79647427,157 C3.35682047,157 3,156.552 3,156 C3,155.448 3.35682047,155 3.79647427,155 L17.2043222,155 C17.643976,155 18,155.448 18,156 C18,156.552 17.643976,157 17.2043222,157" id="Fill-553" fill="#FFFFFF"></path>
                <path d="M273.50075,451 C272.670835,451 272,450.429118 272,449.725709 L272,440.274291 L275,440.274291 L275,449.725709 C275,450.429118 274.329165,451 273.50075,451 M275,437.725709 L272,437.725709 L272,428.275565 C272,427.570882 272.670835,427 273.50075,427 C274.329165,427 275,427.570882 275,428.275565 L275,437.725709" id="Fill-554" fill="#FFFFFF"></path>
                <path d="M283.725641,440 L262.274359,440 C261.570913,440 261,439.553 261,439 C261,438.448 261.570913,438 262.274359,438 L283.725641,438 C284.430362,438 285,438.448 285,439 C285,439.553 284.430362,440 283.725641,440" id="Fill-555" fill="#FFFFFF"></path>
                <path d="M242,205 C239.237839,205 237,202.762161 237,200 C237,197.237839 239.237839,195.001222 242,195 C244.762161,195.001222 246.998778,197.237839 247,200 C246.998778,202.762161 244.762161,205 242,205 M242,197.44439 C240.589587,197.446835 239.446835,198.589587 239.44439,200 C239.446835,201.411635 240.589587,202.553165 242,202.55561 C243.411635,202.553165 244.553165,201.411635 244.55561,200 C244.553165,198.589587 243.411635,197.446835 242,197.44439" id="Fill-556" fill="#FFFFFF"></path>
                <path d="M24.000611,10 C21.2387877,10 19.001222,7.76216084 19,5 C19.001222,2.23783916 21.2387877,0.00122219506 24.000611,0 C26.7612123,0.00122219506 28.998778,2.23783916 29,5 C28.998778,7.76216084 26.7612123,10 24.000611,10 M24.000611,2.44439012 C22.5891482,2.44683451 21.4465355,3.5895869 21.4440914,5 C21.4465355,6.4116353 22.5891482,7.55316549 24.000611,7.55560988 C25.4108518,7.55316549 26.5534645,6.4116353 26.5559086,5 C26.5534645,3.5895869 25.4108518,2.44683451 24.000611,2.44439012" id="Fill-557" fill="#FFFFFF"></path>
                <path d="M63,564 C60.2378392,563.998778 58.0012222,561.761212 58,558.999389 C58.0012222,556.238788 60.2378392,554.001222 63,554 C65.7621608,554.001222 68,556.238788 68,558.999389 C68,561.761212 65.7621608,563.998778 63,564 M63,556.444091 C61.5895869,556.446536 60.4468345,557.589148 60.4443901,558.999389 C60.4468345,560.410852 61.5895869,561.552242 63,561.555909 C64.4116353,561.552242 65.5531655,560.410852 65.5556099,558.999389 C65.5531655,557.589148 64.4116353,556.446536 63,556.444091" id="Fill-559" fill="#FFFFFF"></path>
                <path d="M410.4985,487 C410.104,487 409.7185,486.893 409.438,486.707 C409.159,486.52 409,486.263 409,486 C409,485.736 409.159,485.479 409.438,485.292 C409.7185,485.106 410.104,485 410.4985,485 C410.8945,485 411.28,485.106 411.5605,485.292 C411.8395,485.479 412,485.736 412,486 C412,486.263 411.8395,486.52 411.5605,486.707 C411.28,486.893 410.8945,487 410.4985,487" id="Fill-562" fill="#FFFFFF"></path>
                <path d="M105.5,599 C105.104,599 104.7185,598.893 104.4395,598.707 C104.159,598.52 104,598.263 104,598 C104,597.736 104.159,597.479 104.4395,597.292 C104.7185,597.106 105.104,597 105.5,597 C105.8945,597 106.2815,597.106 106.5605,597.292 C106.8395,597.479 107,597.736 107,598 C107,598.263 106.8395,598.52 106.5605,598.707 C106.2815,598.893 105.8945,599 105.5,599" id="Fill-563" fill="#FFFFFF"></path>
                <path d="M176.5,225 C176.104,225 175.7185,224.893 175.438,224.707 C175.159,224.521 175,224.263 175,224 C175,223.736 175.159,223.479 175.438,223.292 C175.7185,223.106 176.104,223 176.5,223 C176.8945,223 177.2815,223.106 177.5605,223.292 C177.8395,223.479 178,223.736 178,224 C178,224.263 177.8395,224.521 177.5605,224.707 C177.2815,224.893 176.8945,225 176.5,225" id="Fill-564" fill="#FFFFFF"></path>
                <path d="M302.5,136 C302.1055,136 301.7185,135.893 301.4395,135.707 C301.1605,135.521 301,135.264 301,135 C301,134.737 301.1605,134.479 301.4395,134.293 C301.7185,134.107 302.1055,134 302.5,134 C302.8945,134 303.2815,134.107 303.5605,134.293 C303.8395,134.479 304,134.737 304,135 C304,135.264 303.8395,135.521 303.5605,135.707 C303.2815,135.893 302.8945,136 302.5,136" id="Fill-565" fill="#FFFFFF"></path>
                <path d="M140.5,2 C140.1055,2 139.7185,1.893 139.4395,1.707 C139.1605,1.52 139,1.263 139,1 C139,0.736 139.1605,0.479 139.4395,0.293 C139.7185,0.106 140.1055,-5.68434189e-14 140.5,-5.68434189e-14 C140.896,-5.68434189e-14 141.2815,0.106 141.5605,0.293 C141.841,0.479 142,0.736 142,1 C142,1.263 141.841,1.52 141.5605,1.707 C141.2815,1.893 140.896,2 140.5,2" id="Fill-566" fill="#FFFFFF"></path>
                <path d="M202.5015,500 C202.1055,500 201.7185,499.893 201.4395,499.707 C201.1605,499.521 201,499.263 201,499 C201,498.737 201.1605,498.479 201.4395,498.293 C201.7185,498.107 202.1055,498 202.5015,498 C202.896,498 203.2815,498.107 203.5605,498.293 C203.841,498.479 204,498.737 204,499 C204,499.263 203.841,499.521 203.5605,499.707 C203.2815,499.893 202.896,500 202.5015,500" id="Fill-568" fill="#FFFFFF"></path>
                <path d="M12.5,567 C12.1055,567 11.7185,566.893 11.4395,566.707 C11.1605,566.521 11,566.263 11,566 C11,565.737 11.1605,565.479 11.4395,565.293 C11.7185,565.107 12.1055,565 12.5,565 C12.8945,565 13.2815,565.107 13.5605,565.293 C13.8395,565.479 14,565.737 14,566 C14,566.263 13.8395,566.521 13.5605,566.707 C13.2815,566.893 12.8945,567 12.5,567" id="Fill-569" fill="#FFFFFF"></path>
                <path d="M242.5,316 C242.1055,316 241.7185,315.893 241.4395,315.707 C241.1605,315.521 241,315.263 241,315 C241,314.737 241.1605,314.479 241.4395,314.293 C241.7185,314.107 242.1055,314 242.5,314 C242.8945,314 243.2815,314.107 243.5605,314.293 C243.8395,314.479 244,314.737 244,315 C244,315.263 243.8395,315.521 243.5605,315.707 C243.2815,315.893 242.8945,316 242.5,316" id="Fill-569-Copy" fill="#FFFFFF"></path>
                <path d="M194.802637,38 C194.469563,38 194.142846,37.8703252 193.901305,37.6287742 L186.371558,30.0987393 C186.042298,29.7694671 185.918985,29.2800085 186.05374,28.8337748 C186.187223,28.3875411 186.559706,28.046827 187.017364,27.9540206 L196.47436,26.0254264 C196.558264,26.0088992 196.643439,26 196.727343,26 C197.061688,26 197.387134,26.1322174 197.627404,26.3724971 C197.928696,26.6725289 198.059637,27.108592 197.974462,27.5255853 L196.045941,36.9842144 C195.953138,37.4406187 195.612437,37.8131158 195.166221,37.9466045 C195.046721,37.9834728 194.924679,38 194.802637,38 M189.842132,29.9728785 L194.027161,34.1580676 L195.098843,28.9011548 L189.842132,29.9728785" id="Fill-571" fill="#FFFFFF"></path>
                <path d="M8.80136552,522 C8.46956341,522 8.14284639,521.869054 7.90130463,521.628774 L0.371557924,514.098739 C0.0422983606,513.768196 -0.0810150667,513.280008 0.0537398126,512.832503 C0.18722342,512.38627 0.559706246,512.046827 1.01609305,511.954021 L10.4743601,510.025426 C10.558264,510.007628 10.6434393,510 10.7273433,510 C11.0604167,510 11.3871337,510.132217 11.6274042,510.371226 C11.9286957,510.672529 12.0596368,511.108592 11.9744615,511.524314 L10.0459412,520.982943 C9.95313835,521.440619 9.61243734,521.811844 9.16622071,521.946605 C9.0467211,521.982202 8.92340767,522 8.80136552,522 M3.8421317,513.972878 L8.0271606,518.158068 L9.09884327,512.901155 L3.8421317,513.972878" id="Fill-573" fill="#FFFFFF"></path>
                <path d="M202.379,138 C201.89861,138 201.442606,137.702854 201.249962,137.212247 C201.080485,136.783598 200.998794,136.333454 201.000013,135.897218 C201.00611,134.706105 201.558436,133.710983 202.248539,132.948519 C202.949615,132.180997 203.825046,131.603143 204.752905,131.256684 C205.746604,130.889993 206.71348,130.696532 207.546237,130.447435 C208.38387,130.200867 209.059342,129.910043 209.55924,129.464957 C210.178625,128.928829 210.565132,128.003251 210.561474,127.097905 C210.561474,126.642702 210.467591,126.203938 210.28714,125.823338 C209.98964,125.196171 210.238369,124.438764 210.841904,124.130238 C211.01504,124.041727 211.199149,124 211.379599,124 C211.829508,124 212.262346,124.259212 212.474498,124.705564 C212.83418,125.464234 213,126.287392 213,127.097905 C212.995123,128.699964 212.367202,130.299494 211.139405,131.39198 C210.2213,132.198699 209.180049,132.591944 208.216831,132.878974 C207.249956,133.163475 206.331851,133.353143 205.573469,133.637645 C205.022362,133.838692 204.424923,134.23573 204.023786,134.682081 C203.611675,135.13349 203.431224,135.588692 203.438539,135.897218 C203.438539,136.016077 203.456828,136.127348 203.508037,136.257587 C203.762863,136.904986 203.462925,137.64216 202.838662,137.906431 C202.688693,137.969653 202.532627,138 202.379,138" id="Fill-575" fill="#FFFFFF"></path>
                <path d="M167.9009,549 C166.298921,548.996342 164.700735,548.368421 163.60704,547.139403 C162.800361,546.221296 162.408401,545.180045 162.121385,544.216826 C161.836898,543.249949 161.645975,542.333062 161.362753,541.573461 C161.161715,541.022353 160.763433,540.424914 160.317104,540.023776 C159.874568,539.61898 159.42824,539.438529 159.119729,539.438529 L159.103292,539.438529 C158.983175,539.438529 158.871909,539.458037 158.741677,539.508027 C158.586158,539.570209 158.424316,539.599472 158.265003,539.599472 C157.766834,539.599472 157.293954,539.312945 157.09418,538.83987 C156.829923,538.216826 157.140963,537.504775 157.787065,537.249949 C158.214428,537.081691 158.663285,537 159.098235,537 L159.103292,537 C160.293081,537.007316 161.288154,537.559642 162.050579,538.249746 C162.818063,538.950823 163.395888,539.825036 163.743594,540.752896 C164.109002,541.747815 164.302453,542.714692 164.551538,543.54745 C164.798093,544.383865 165.090167,545.060557 165.533967,545.559236 C166.067538,546.176184 166.986748,546.561471 167.886992,546.561471 L167.9009,546.561471 C168.35608,546.561471 168.796087,546.468807 169.176667,546.287137 C169.35621,546.201788 169.547133,546.161553 169.734262,546.161553 C170.200821,546.161553 170.649679,546.411502 170.869682,546.843121 C171.178193,547.446657 170.920258,548.178216 170.293121,548.474497 C169.534489,548.835399 168.712637,549 167.9009,549" id="Fill-576" fill="#FFFFFF"></path>
                <path d="M368.9009,81 C367.298921,80.9963422 365.700735,80.3684211 364.60704,79.1394026 C363.800361,78.2212965 363.408401,77.1800447 363.121385,76.2168258 C362.836898,75.2499492 362.645975,74.3330624 362.362753,73.5734607 C362.161715,73.0223532 361.763433,72.4249136 361.317104,72.0237757 C360.874568,71.6189799 360.42824,71.4385288 360.119729,71.4385288 L360.103292,71.4385288 C359.983175,71.4385288 359.871909,71.458037 359.741677,71.5080268 C359.586158,71.5702093 359.424316,71.5994717 359.265003,71.5994717 C358.766834,71.5994717 358.293954,71.3129445 358.09418,70.8398699 C357.829923,70.2168258 358.140963,69.5047755 358.787065,69.2499492 C359.214428,69.0816907 359.663285,69 360.098235,69 L360.103292,69 C361.293081,69.0073156 362.288154,69.5596423 363.050579,70.249746 C363.818063,70.950823 364.395888,71.8250356 364.743594,72.7528958 C365.109002,73.7478155 365.302453,74.7146921 365.551538,75.5474497 C365.798093,76.3838651 366.090167,77.0605568 366.533967,77.5592359 C367.067538,78.1761837 367.986748,78.5614712 368.886992,78.5614712 L368.9009,78.5614712 C369.35608,78.5614712 369.796087,78.4688072 370.176667,78.2871368 C370.35621,78.2017883 370.547133,78.1615525 370.734262,78.1615525 C371.200821,78.1615525 371.649679,78.4115017 371.869682,78.8431213 C372.178193,79.4466572 371.920258,80.1782158 371.293121,80.4744971 C370.534489,80.8353993 369.712637,81 368.9009,81" id="Fill-576-Copy-2" fill="#FFFFFF"></path>
                <path d="M301.9009,22 C300.298921,21.9963422 298.700735,21.3684211 297.60704,20.1394026 C296.800361,19.2212965 296.408401,18.1800447 296.121385,17.2168258 C295.836898,16.2499492 295.645975,15.3330624 295.362753,14.5734607 C295.161715,14.0223532 294.763433,13.4249136 294.317104,13.0237757 C293.874568,12.6189799 293.42824,12.4385288 293.119729,12.4385288 L293.103292,12.4385288 C292.983175,12.4385288 292.871909,12.458037 292.741677,12.5080268 C292.586158,12.5702093 292.424316,12.5994717 292.265003,12.5994717 C291.766834,12.5994717 291.293954,12.3129445 291.09418,11.8398699 C290.829923,11.2168258 291.140963,10.5047755 291.787065,10.2499492 C292.214428,10.0816907 292.663285,10 293.098235,10 L293.103292,10 C294.293081,10.0073156 295.288154,10.5596423 296.050579,11.249746 C296.818063,11.950823 297.395888,12.8250356 297.743594,13.7528958 C298.109002,14.7478155 298.302453,15.7146921 298.551538,16.5474497 C298.798093,17.3838651 299.090167,18.0605568 299.533967,18.5592359 C300.067538,19.1761837 300.986748,19.5614712 301.886992,19.5614712 L301.9009,19.5614712 C302.35608,19.5614712 302.796087,19.4688072 303.176667,19.2871368 C303.35621,19.2017883 303.547133,19.1615525 303.734262,19.1615525 C304.200821,19.1615525 304.649679,19.4115017 304.869682,19.8431213 C305.178193,20.4466572 304.920258,21.1782158 304.293121,21.4744971 C303.534489,21.8353993 302.712637,22 301.9009,22" id="Fill-576-Copy" fill="#FFFFFF"></path>
                <path d="M352.379,204 C351.89861,203.998736 351.442606,203.702881 351.249962,203.212318 C351.080485,202.783708 350.998794,202.33234 351.000013,201.896144 C351.00611,200.705139 351.558436,199.710106 352.248539,198.947711 C352.949615,198.181523 353.825046,197.603721 354.752905,197.256028 C355.746604,196.890635 356.71348,196.697191 357.546237,196.448117 C358.38387,196.200307 359.059342,195.90951 359.55924,195.465727 C360.178625,194.928384 360.566351,194.00289 360.561474,193.098889 C360.561474,192.643728 360.467591,192.203739 360.28714,191.823173 C359.98964,191.197327 360.238369,190.438725 360.841904,190.130227 C361.01504,190.041723 361.199149,190 361.379599,190 C361.829508,190 362.262346,190.259189 362.474498,190.706764 C362.835399,191.465366 363,192.287185 363,193.098889 C362.995123,194.700804 362.368422,196.298925 361.139405,197.391312 C360.2213,198.197959 359.180049,198.591168 358.216831,198.878172 C357.249956,199.162648 356.33307,199.353563 355.573469,199.636774 C355.022362,199.837804 354.424923,200.23607 354.023786,200.682381 C353.611675,201.132484 353.431224,201.58891 353.438539,201.896144 C353.438539,202.014991 353.458048,202.127517 353.508037,202.257744 C353.762863,202.90382 353.462925,203.642193 352.839881,203.905175 C352.688693,203.969656 352.532627,204 352.379,204" id="Fill-577" fill="#FFFFFF"></path>
                <path d="M71.3789999,437 C70.8986103,436.998736 70.4426059,436.702881 70.2499624,436.212318 C70.0804848,435.783708 69.9987942,435.33234 70.0000134,434.896144 C70.0061098,433.705139 70.5584359,432.710106 71.2485388,431.947711 C71.949615,431.181523 72.8250458,430.603721 73.752905,430.256028 C74.7466043,429.890635 75.7134799,429.697191 76.5462366,429.448117 C77.3838702,429.200307 78.0593419,428.90951 78.5592398,428.465727 C79.1786254,427.928384 79.566351,427.00289 79.561474,426.098889 C79.561474,425.643728 79.4675907,425.203739 79.2871398,424.823173 C78.9896396,424.197327 79.2383693,423.438725 79.8419045,423.130227 C80.0150398,423.041723 80.1991485,423 80.3795995,423 C80.8295075,423 81.2623459,423.259189 81.4744976,423.706764 C81.8353995,424.465366 82,425.287185 82,426.098889 C81.9951229,427.700804 81.3684218,429.298925 80.1394046,430.391312 C79.2212996,431.197959 78.180049,431.591168 77.2168312,431.878172 C76.2499556,432.162648 75.3330699,432.353563 74.573469,432.636774 C74.0223621,432.837804 73.4249232,433.23607 73.0237857,433.682381 C72.6116748,434.132484 72.4312239,434.58891 72.4385395,434.896144 C72.4385395,435.014991 72.4580477,435.127517 72.5080375,435.257744 C72.7628634,435.90382 72.4629247,436.642193 71.8398813,436.905175 C71.6886927,436.969656 71.5326271,437 71.3789999,437" id="Fill-577-Copy" fill="#FFFFFF"></path>
            </g>
        </g>
    </g>
</svg>