<?xml version="1.0" encoding="UTF-8"?>
<svg width="126px" height="56px" viewBox="0 0 126 56" version="1.1" xmlns="http://www.w3.org/2000/svg" xmlns:xlink="http://www.w3.org/1999/xlink">
    <!-- Generator: Sketch 46.2 (44496) - http://www.bohemiancoding.com/sketch -->
    <title>thumb</title>
    <desc>Created with Sketch.</desc>
    <defs></defs>
    <g id="Page-1" stroke="none" stroke-width="1" fill="none" fill-rule="evenodd">
        <g id="Desktop" transform="translate(-630.000000, -2755.000000)">
            <g id="Group-5" transform="translate(-63.000000, 2385.000000)">
                <g id="thumb" transform="translate(693.000000, 370.000000)">
                    <path d="M77.8618297,44.1794555 C78.5884601,44.2606648 79.2343538,44.4230833 79.7187741,44.8291296 C82.0601388,46.7781519 88.2768658,55.467543 106.684837,54.9802874 C124.850597,54.5742411 129.755029,33.0689662 122.165778,18.2076712 C114.657264,3.34637629 102.648001,0.00161696664 93.2825421,0.00161696664 C83.8363465,-0.0795922954 79.6380374,2.9251504 79.6380374,2.9251504 L78.4269867,3.24998745 C77.7003562,3.49361524 77.0544625,3.81845228 76.4085688,4.14328933 C76.0048852,4.30570786 75.6012017,4.46812638 75.1975181,4.6305449 C75.0360447,4.71175417 74.8745712,4.71175417 74.7938345,4.71175417 C74.4708877,4.79296343 74.1479408,4.87417269 73.824994,4.95538195 C73.6635205,4.95538195 73.5020471,5.03659121 73.3405737,5.03659121 C73.0176268,5.11780048 72.69468,5.11780048 72.3717331,5.19900974 C72.2102597,5.19900974 72.0487862,5.280219 71.8065761,5.280219 C71.4836292,5.36142826 71.0799457,5.36142826 70.7569988,5.36142826 C70.5955254,5.36142826 70.434052,5.36142826 70.2725785,5.36142826 C69.868895,5.36142826 69.4652114,5.44263753 69.0615278,5.44263753 C68.9000544,5.44263753 68.738581,5.44263753 68.5771075,5.44263753 C68.173424,5.44263753 67.6890037,5.44263753 67.2045834,5.44263753 C66.3972163,5.44263753 65.912796,5.44263753 65.347639,5.44263753 C61.5530134,5.36142826 57.9198613,4.95538195 54.9326028,4.71175417 C54.2867091,4.71175417 53.8830255,4.6305449 53.5600787,4.6305449 C52.914185,4.6305449 52.5105014,4.54933564 52.1068178,4.54933564 C45.8900908,4.14328933 38.9467334,3.98087081 33.4566368,4.54933564 C27.9665403,5.11780048 18.7625549,6.01110236 13.918352,6.33593941 C9.07414915,6.66077646 4.7951033,7.22924129 2.85742216,12.9950989 C0.919741018,18.7609565 1.00047773,22.9838381 1.00047773,22.9838381 C1.16195116,23.7147215 1.32342459,24.3643956 1.56563473,25.0140697 C2.77668544,28.506068 6.65204773,35.1652274 18.439608,36.2209478 C18.439608,36.2209478 18.0359244,36.3021571 17.309294,36.3833664 C25.9481224,38.2511794 41.611045,39.5505276 49.523243,38.9820628 C49.7654531,38.9820628 50.0076633,38.9820628 50.2498734,38.9008535 C50.4920835,38.9008535 50.653557,38.8196442 50.8957671,38.8196442 C51.218714,38.8196442 51.3801874,38.8196442 51.5416608,38.738435 C51.783871,38.738435 51.9453444,38.6572257 52.1068178,38.6572257 C57.9198613,37.520296 64.4595351,38.0075516 68.2541607,38.6572257 C68.6578442,38.738435 68.9807911,38.738435 69.2230012,38.8196442 C72.7754167,39.4693183 77.9425664,43.5297814 77.9425664,43.5297814 C77.8618297,43.7734092 77.8618297,44.017037 77.8618297,44.1794555 Z" id="XMLID_12_" fill="#FDE5E5" fill-rule="nonzero"></path>
                    <g id="XMLID_292_" transform="translate(65.000000, 12.000000)" fill-rule="nonzero" fill="#FACCDB">
                        <path d="M0.622222222,0.631578947 C0.622222222,0.631578947 0.888888889,0.710526316 1.33333333,0.947368421 C1.77777778,1.10526316 2.4,1.42105263 3.2,1.81578947 C3.91111111,2.21052632 4.8,2.84210526 5.51111111,3.71052632 C5.68888889,3.94736842 5.77777778,4.10526316 5.95555556,4.42105263 C6.13333333,4.65789474 6.22222222,4.89473684 6.31111111,5.13157895 C6.57777778,5.60526316 6.75555556,6.15789474 6.84444444,6.63157895 C7.02222222,7.10526316 7.11111111,7.65789474 7.2,8.21052632 C7.28888889,8.76315789 7.28888889,9.23684211 7.28888889,9.78947368 C7.28888889,9.94736842 7.28888889,10.0263158 7.28888889,10.1842105 L7.28888889,10.2631579 C7.28888889,10.3421053 7.28888889,10.3421053 7.28888889,10.4210526 L7.28888889,10.5789474 C7.28888889,10.7368421 7.2,10.8157895 7.2,10.9736842 C7.2,11.0526316 7.11111111,11.2105263 7.11111111,11.2894737 C6.93333333,11.6842105 6.75555556,12.0789474 6.57777778,12.4736842 C5.77777778,13.8157895 4.97777778,14.6052632 4.97777778,14.6052632 C4.88888889,14.6842105 4.62222222,14.7631579 4.53333333,14.6052632 C4.44444444,14.5263158 4.44444444,14.4473684 4.44444444,14.3684211 C4.44444444,14.3684211 4.53333333,14.1315789 4.62222222,13.6578947 C4.71111111,13.2631579 4.88888889,12.6315789 5.06666667,11.9210526 C5.15555556,11.6052632 5.24444444,11.2105263 5.33333333,10.8157895 L5.42222222,10.5 L5.42222222,10.2631579 L5.42222222,10.1052632 C5.42222222,10.1052632 5.42222222,10.0263158 5.42222222,10.0263158 L5.42222222,9.94736842 C5.42222222,9.86842105 5.42222222,9.78947368 5.42222222,9.63157895 C5.42222222,8.76315789 5.33333333,7.81578947 5.15555556,6.94736842 C5.06666667,6.47368421 4.97777778,6 4.8,5.60526316 C4.71111111,5.36842105 4.62222222,5.13157895 4.53333333,4.97368421 C4.44444444,4.81578947 4.26666667,4.5 4.26666667,4.42105263 C3.82222222,3.71052632 3.2,3.15789474 2.57777778,2.68421053 C1.95555556,2.21052632 1.42222222,1.89473684 0.977777778,1.65789474 C0.622222222,1.42105263 0.355555556,1.26315789 0.355555556,1.26315789 C0.177777778,1.18421053 0.0888888889,0.947368421 0.177777778,0.789473684 C0.177777778,0.631578947 0.444444444,0.552631579 0.622222222,0.631578947 Z" id="XMLID_293_"></path>
                    </g>
                    <g id="XMLID_290_" transform="translate(59.000000, 14.000000)" fill-rule="nonzero" fill="#FACCDB">
                        <path d="M2.41666667,0.7 C2.41666667,0.7 2.41666667,0.875 2.33333333,1.3125 C2.25,1.6625 2.25,2.1875 2.16666667,2.8 C2.16666667,3.15 2.08333333,3.4125 2.08333333,3.7625 C2.08333333,4.1125 2.08333333,4.4625 2.08333333,4.725 C2.25,5.5125 2.33333333,6.3 2.5,7.0875 C2.66666667,7.875 2.83333333,8.75 3,9.3625 C3.08333333,9.5375 3.08333333,9.7125 3.16666667,9.7125 C3.16666667,9.7125 3.25,9.8 3.25,9.8875 L3.41666667,10.15 C3.58333333,10.5 3.75,10.7625 3.83333333,11.025 C4.33333333,12.1625 4.5,13.0375 4.5,13.0375 C4.58333333,13.3 4.41666667,13.5625 4.16666667,13.5625 C4,13.5625 3.91666667,13.5625 3.83333333,13.475 L3.83333333,13.475 C3.83333333,13.475 3.16666667,12.95 2.41666667,11.9 C2.25,11.6375 2.08333333,11.375 1.83333333,11.025 L1.66666667,10.7625 C1.58333333,10.675 1.58333333,10.5875 1.5,10.5 C1.33333333,10.2375 1.33333333,9.975 1.25,9.8 C1,8.925 0.916666667,8.1375 0.833333333,7.2625 C0.75,6.825 0.75,6.3875 0.666666667,5.95 C0.666666667,5.775 0.666666667,5.5125 0.583333333,5.3375 C0.583333333,5.1625 0.583333333,4.9875 0.5,4.6375 C0.5,4.1125 0.583333333,3.7625 0.666666667,3.325 C0.75,2.975 0.833333333,2.625 0.916666667,2.275 C1.25,1.05 1.58333333,0.2625 1.58333333,0.2625 C1.66666667,0.0875 1.91666667,1.56125113e-15 2.08333333,0.0875 C2.41666667,0.4375 2.5,0.6125 2.41666667,0.7 Z" id="XMLID_291_"></path>
                    </g>
                    <g id="XMLID_272_" transform="translate(1.000000, 19.000000)"></g>
                    <g id="XMLID_267_" transform="translate(51.000000, 3.000000)" fill-rule="nonzero" fill="#FACCDB">
                        <g id="XMLID_270_" transform="translate(0.000000, 0.875000)">
                            <path d="M25.2682292,1.3125 C20.1015625,3.7625 10.3333333,2.625 3.71354167,1.925 C0.888020833,3.2375 -0.807291667,4.2875 0.888020833,4.55 C5.73177083,5.3375 17.5989583,5.425 17.5989583,5.425 L26.8020833,0.525 C26.3177083,0.875 25.7526042,1.1375 25.2682292,1.3125 Z" id="XMLID_271_"></path>
                        </g>
                        <g id="XMLID_268_" transform="translate(26.640625, 0.000000)">
                            <path d="M0.645833333,1.05 C0.645833333,1.1375 0.645833333,1.225 0.645833333,1.225 L1.9375,0.525 C1.53385417,0.7875 1.04947917,0.9625 0.645833333,1.05 Z" id="XMLID_269_"></path>
                        </g>
                    </g>
                    <path d="M110,4.12160118 C104.104811,0.549546824 97.8058419,0 92.475945,0 C89.3264605,0.183182275 85.8539519,0.641137961 83.0274914,1.28227592 C80.2010309,2.1981873 78.8281787,3.29728094 78.8281787,3.29728094 L77.6168385,3.66364549 C77.5360825,3.66364549 77.5360825,3.75523663 77.4553265,3.75523663 C76.8900344,4.03001004 76.3247423,4.30478346 75.8402062,4.48796573 C75.6786942,4.48796573 75.6786942,4.57955687 75.5979381,4.57955687 C71.0756014,6.59456189 64.9381443,8.42638464 63,8.70115805 C63,8.70115805 71.6408935,9.98343397 78.0206186,7.23569985 C85.0463918,4.12160118 96.6752577,3.20568981 100.551546,3.93841891 C102.085911,4.39637459 105.719931,4.30478346 110,4.12160118 Z" id="XMLID_10_" fill="#FACCDB" fill-rule="nonzero"></path>
                    <path d="M76.5365053,45.2787829 C77.2600492,45.3592467 77.9031993,45.5201743 78.3855619,45.9224933 C80.7169811,47.8536245 86.9073011,56.4632511 105.23708,55.9804683 C108.613618,55.9000045 111.507793,55.0149027 114,53.5665543 C107.729286,53.9688733 95.4290402,50.5893937 89.7210829,48.3364073 C83.9327317,46.0029571 74.4462674,35.944982 68.0147662,35.140344 C61.583265,34.335706 50.4085316,37.2324028 42.8515176,37.7151856 C38.9122231,38.0370408 29.4257588,37.151939 21.9491386,36.5886924 C21.7883511,36.5886924 21.6275636,36.6691562 21.466776,36.6691562 C21.3863823,36.6691562 21.3059885,36.6691562 21.3059885,36.6691562 C21.3059885,36.6691562 21.3059885,36.6691562 21.3059885,36.6691562 C21.2255947,36.6691562 21.2255947,36.6691562 21.145201,36.6691562 C20.9844135,36.6691562 20.7432322,36.74962 20.5824446,36.74962 C20.5020509,36.74962 20.5020509,36.74962 20.4216571,36.74962 C20.2608696,36.74962 20.100082,36.8300838 19.9392945,36.8300838 C19.8589007,36.8300838 19.778507,36.8300838 19.6177194,36.9105476 C19.6177194,36.9105476 19.6177194,36.9105476 19.6177194,36.9105476 C18.8941756,36.9910114 18.0902379,37.151939 17.1255127,37.3128666 C17.1255127,37.3128666 17.0451189,37.3128666 17.0451189,37.3128666 C16.8843314,37.3128666 16.6431501,37.3933304 16.4823626,37.3933304 C16.4019688,37.3933304 16.4019688,37.3933304 16.3215751,37.3933304 C16.2411813,37.3933304 16.1607875,37.3933304 16.0803938,37.4737942 C16.0803938,37.4737942 16.0803938,37.4737942 16,37.4737942 C16,37.4737942 16,37.4737942 16,37.4737942 C24.6021329,39.4049254 40.2789171,40.6118824 48.0771124,40.0486358 C48.0771124,40.0486358 48.0771124,40.0486358 48.0771124,40.0486358 C48.3182937,40.0486358 48.559475,40.0486358 48.8006563,39.968172 C48.8006563,39.968172 48.8006563,39.968172 48.8006563,39.968172 C49.0418376,39.968172 49.2026251,39.8877082 49.4438064,39.8877082 C49.5242002,39.8877082 49.5242002,39.8877082 49.6045939,39.8877082 C49.7653815,39.8877082 49.926169,39.8877082 50.0869565,39.8072444 C50.3281378,39.8072444 50.4889253,39.7267806 50.6497129,39.7267806 C56.438064,38.6002874 62.949959,39.0830702 66.728466,39.7267806 C66.728466,39.7267806 66.8088597,39.7267806 66.8088597,39.7267806 C67.1304348,39.8072444 67.4520098,39.8072444 67.6931911,39.8877082 C71.2305168,40.5314186 76.3757178,44.5546087 76.3757178,44.5546087 C76.5365053,44.7960001 76.5365053,45.0373915 76.5365053,45.2787829 Z" id="XMLID_9_" fill="#FACCDB" fill-rule="nonzero"></path>
                    <g id="XMLID_258_" transform="translate(0.000000, 22.000000)" fill-rule="nonzero" fill="#FACCDB">
                        <path d="M0.9,0.8 L0.9,0.8 L0.9,0.8 C0.9,0.8 0.9,0.9 0.9,0.9 C1.2,0.9 1.5,1 1.8,1 L0.9,0.8 Z" id="XMLID_259_"></path>
                    </g>
                    <path d="M13.9582695,6.28703064 C18.7951079,6.28703064 27.4208029,5.955553 32.9025531,5.37546713 C38.3843032,4.79538126 45.3977189,4.96112008 51.5243808,5.37546713 C54.4264838,5.54120595 58.6184104,6.12129182 62.890951,6.28703064 C60.3113038,7.28146356 57.2479729,8.11015766 54.8295537,8.27589648 C49.9927153,8.52450471 40.4802665,7.11572474 33.4668509,7.86154943 C28.2269427,8.35876589 21.213527,8.4416353 16.6185306,8.85598235 C16.6185306,8.85598235 9.84695689,9.18745999 8.15406346,10.0161541 C7.26730976,10.8448482 3.47845305,14.4082328 3.47845305,21.0377856 C3.47845305,25.4298643 4.68766264,30.4020289 10.3306407,32.8881112 C15.9736188,35.3741935 34.3536046,37.8602759 42.5762298,37.1144512 C50.798855,36.3686265 66.6798077,32.4737642 71.2748041,36.2857571 C73.4513814,38.1088841 70.3880504,39.3519252 66.5991937,40.1806193 C62.729723,39.6834029 56.764289,39.5176641 51.4437668,40.3463582 C40.7221084,42.0037464 26.5340492,40.1806193 16.6991446,38.5232311 C5.33257442,36.7001041 1.5437177,31.4793313 0.576350028,26.5900361 C0.0120522185,23.6067373 -0.713473536,19.3803974 1.5437177,14.0767552 C2.67231332,11.2591952 4.12336483,9.60180704 5.25196045,8.69024353 C5.33257442,8.69024353 7.50915168,6.28703064 13.9582695,6.28703064 Z" id="XMLID_257_" fill="#FACCDB" fill-rule="nonzero"></path>
                    <g id="XMLID_241_" transform="translate(9.000000, 10.000000)" fill-rule="nonzero" fill="#FACCDB">
                        <g id="XMLID_246_" transform="translate(14.625000, 4.800000)">
                            <g id="XMLID_247_">
                                <path d="M4.14375,0.48 C3.9,0.4 3.65625,0.32 3.4125,0.16 C6.09375,1.92 7.39375,7.44 2.68125,10.16 C1.95,10.56 1.21875,10.88 0.325,11.12 C1.625,10.88 2.84375,10.48 3.81875,9.92 C8.45,7.28 6.90625,1.76 4.14375,0.48 Z" id="XMLID_248_"></path>
                            </g>
                        </g>
                        <g id="XMLID_242_">
                            <path d="M9.2625,19.76 C6.41875,19.76 4.30625,19.52 4.14375,19.52 L3.49375,19.44 L3.16875,18.8 C-2.03125,8.4 2.03125,1.92 2.19375,1.68 L2.51875,1.2 L3.00625,1.12 C6.6625,0.4 17.46875,0.56 21.45,2.48 C23.80625,3.68 25.59375,6.64 25.675,9.76 C25.75625,13.04 24.13125,15.84 21.125,17.6 C17.79375,19.28 12.91875,19.76 9.2625,19.76 Z M5.0375,16.48 C7.39375,16.72 15.51875,17.2 19.825,14.72 C22.425,13.2 22.99375,11.12 22.9125,9.68 C22.83125,7.76 21.775,5.76 20.3125,5.12 C17.225,3.6 7.9625,3.28 3.98125,3.84 C3.33125,5.28 1.86875,9.76 5.0375,16.48 Z" id="XMLID_243_"></path>
                        </g>
                    </g>
                </g>
            </g>
        </g>
    </g>
</svg>