<svg width="126" height="56" xmlns="http://www.w3.org/2000/svg"><g fill="none" fill-rule="evenodd"><path d="M77.862 44.18c.726.08 1.372.243 1.857.65 2.341 1.948 8.558 10.638 26.966 10.15 18.166-.406 23.07-21.911 15.48-36.772C114.658 3.346 102.649.002 93.284.002 83.836-.08 79.638 2.925 79.638 2.925l-1.211.325c-.727.244-1.373.568-2.018.893l-1.211.488c-.162.08-.323.08-.404.08l-.969.244c-.161 0-.323.082-.484.082-.323.08-.646.08-.97.162-.16 0-.322.081-.564.081-.323.081-.727.081-1.05.081h-.484c-.404 0-.808.082-1.211.082H65.348c-3.795-.082-7.428-.488-10.415-.731-.646 0-1.05-.081-1.373-.081-.646 0-1.05-.082-1.453-.082-6.217-.406-13.16-.568-18.65 0-5.49.569-14.694 1.462-19.539 1.787-4.844.325-9.123.893-11.06 6.66C.92 18.76 1 22.983 1 22.983c.162.73.323 1.38.566 2.03 1.21 3.492 5.086 10.151 16.874 11.207 0 0-.404.081-1.13.162 8.638 1.868 24.301 3.168 32.213 2.6.242 0 .485 0 .727-.082.242 0 .404-.081.646-.081.323 0 .484 0 .646-.082.242 0 .403-.08.565-.08 5.813-1.138 12.353-.65 16.147 0 .404.08.727.08.969.162 3.552.65 8.72 4.71 8.72 4.71-.081.243-.081.487-.081.65z" fill="#FDE5E5" fill-rule="nonzero"/><path d="M65.622 12.632s.267.079.711.315c.445.158 1.067.474 1.867.869.711.395 1.6 1.026 2.311 1.895.178.236.267.394.445.71.177.237.266.474.355.71.267.474.445 1.027.533 1.5.178.474.267 1.027.356 1.58.089.552.089 1.026.089 1.578v.79c0 .158-.089.237-.089.395 0 .079-.089.237-.089.315l-.533 1.185c-.8 1.342-1.6 2.131-1.6 2.131-.09.08-.356.158-.445 0-.089-.079-.089-.158-.089-.237 0 0 .09-.236.178-.71.09-.395.267-1.026.445-1.737.089-.316.177-.71.266-1.105l.09-.316v-.395-.158-.315c0-.869-.09-1.816-.267-2.685-.09-.473-.178-.947-.356-1.342a5.075 5.075 0 0 0-.267-.631c-.089-.158-.266-.474-.266-.553-.445-.71-1.067-1.263-1.69-1.737a11.532 11.532 0 0 0-1.6-1.026 15.416 15.416 0 0 0-.621-.395c-.178-.079-.267-.316-.178-.474 0-.157.266-.236.444-.157zM61.417 14.7s0 .175-.084.613c-.083.35-.083.874-.166 1.487 0 .35-.084.613-.084.963v.962c.167.788.25 1.575.417 2.363.167.787.333 1.662.5 2.275.083.175.083.35.167.35 0 0 .083.087.083.175l.167.262c.166.35.333.613.416.875.5 1.138.667 2.013.667 2.013.083.262-.083.525-.333.525-.167 0-.25 0-.334-.088 0 0-.666-.525-1.416-1.575a17.598 17.598 0 0 0-.584-.875l-.166-.262c-.084-.088-.084-.175-.167-.263-.167-.262-.167-.525-.25-.7-.25-.875-.333-1.662-.417-2.537-.083-.438-.083-.875-.166-1.313 0-.175 0-.437-.084-.612 0-.175 0-.35-.083-.7 0-.525.083-.875.167-1.313l.25-1.05c.333-1.225.666-2.012.666-2.012.084-.175.334-.263.5-.175.334.35.417.525.334.612z" fill-rule="nonzero" fill="#FACCDB"/><g fill-rule="nonzero" fill="#FACCDB"><path d="M76.268 5.188C71.102 7.638 61.333 6.5 54.714 5.8c-2.826 1.312-4.521 2.362-2.826 2.625 4.844.788 16.711.875 16.711.875l9.203-4.9c-.484.35-1.05.613-1.534.788zM78.286 4.05v.175l1.292-.7a4.023 4.023 0 0 1-1.292.525z"/></g><path d="M110 4.122C104.105.55 97.806 0 92.476 0c-3.15.183-6.622.641-9.449 1.282-2.826.916-4.199 2.015-4.199 2.015l-1.211.367c-.08 0-.08.091-.162.091-.565.275-1.13.55-1.615.733-.161 0-.161.092-.242.092C71.076 6.595 64.938 8.426 63 8.7c0 0 8.64 1.282 15.02-1.465 7.026-3.114 18.655-4.03 22.532-3.298 1.534.458 5.168.367 9.448.184zM76.537 45.279c.723.08 1.366.241 1.849.643 2.331 1.932 8.521 10.541 26.851 10.058 3.377-.08 6.27-.965 8.763-2.413-6.27.402-18.571-2.978-24.279-5.23-5.788-2.334-15.275-12.392-21.706-13.197-6.432-.804-17.606 2.092-25.163 2.575-3.94.322-13.426-.563-20.903-1.126-.16 0-.321.08-.482.08h-.321c-.162 0-.403.08-.564.08h-.16c-.161 0-.322.081-.483.081-.08 0-.16 0-.321.08-.724.081-1.528.242-2.492.403h-.08c-.162 0-.403.08-.564.08h-.16c-.08 0-.161 0-.242.08H16c8.602 1.932 24.279 3.139 32.077 2.576.241 0 .482 0 .724-.08.24 0 .402-.081.643-.081h.16c.161 0 .322 0 .483-.08.241 0 .402-.081.563-.081 5.788-1.127 12.3-.644 16.078 0h.08c.322.08.644.08.885.16 3.538.644 8.683 4.668 8.683 4.668.16.241.16.482.16.724zM.9 22.8v.1c.3 0 .6.1.9.1l-.9-.2z" fill="#FACCDB" fill-rule="nonzero"/><path d="M13.958 6.287c4.837 0 13.463-.331 18.945-.912 5.481-.58 12.495-.414 18.621 0 2.902.166 7.094.746 11.367.912-2.58.994-5.643 1.823-8.061 1.989-4.837.249-14.35-1.16-21.363-.414-5.24.497-12.253.58-16.848.994 0 0-6.772.331-8.465 1.16-.887.829-4.676 4.392-4.676 11.022 0 4.392 1.21 9.364 6.853 11.85 5.643 2.486 24.023 4.972 32.245 4.226 8.223-.745 24.104-4.64 28.699-.828 2.176 1.823-.887 3.066-4.676 3.895-3.87-.498-9.835-.663-15.155.165-10.722 1.658-24.91-.165-34.745-1.823C5.333 36.7 1.544 31.48.576 26.59c-.564-2.983-1.29-7.21.968-12.513 1.128-2.818 2.58-4.475 3.708-5.387.08 0 2.257-2.403 8.706-2.403z" fill="#FACCDB" fill-rule="nonzero"/><g fill-rule="nonzero" fill="#FACCDB"><path d="M27.769 15.28c-.244-.08-.488-.16-.731-.32 2.68 1.76 3.98 7.28-.732 10-.731.4-1.462.72-2.356.96 1.3-.24 2.519-.64 3.494-1.2 4.631-2.64 3.087-8.16.325-9.44z"/><path d="M18.262 29.76c-2.843 0-4.956-.24-5.118-.24l-.65-.08-.325-.64c-5.2-10.4-1.138-16.88-.975-17.12l.325-.48.487-.08c3.657-.72 14.463-.56 18.444 1.36 2.356 1.2 4.144 4.16 4.225 7.28.081 3.28-1.544 6.08-4.55 7.84-3.331 1.68-8.206 2.16-11.863 2.16zm-4.225-3.28c2.357.24 10.482.72 14.788-1.76 2.6-1.52 3.169-3.6 3.088-5.04-.082-1.92-1.138-3.92-2.6-4.56-3.088-1.52-12.35-1.84-16.332-1.28-.65 1.44-2.112 5.92 1.056 12.64z"/></g></g></svg>