<?xml version="1.0" encoding="UTF-8"?>
<svg width="18px" height="18px" viewBox="0 0 18 18" version="1.1" xmlns="http://www.w3.org/2000/svg" xmlns:xlink="http://www.w3.org/1999/xlink">
    <!-- Generator: Sketch 46.2 (44496) - http://www.bohemiancoding.com/sketch -->
    <title>Shape</title>
    <desc>Created with Sketch.</desc>
    <defs></defs>
    <g id="Page-1" stroke="none" stroke-width="1" fill="none" fill-rule="evenodd">
        <g id="Desktop" transform="translate(-633.000000, -621.000000)" fill="#FFFFFF">
            <g id="scroll" transform="translate(373.000000, 617.000000)">
                <path d="M269.755702,19.9424325 C270.214026,20.416021 270.208773,21.1745561 269.743934,21.6416131 C269.523099,21.8690716 269.221596,21.9980644 268.906305,21.9999784 C268.591013,22.0018924 268.287999,21.8765692 268.064477,21.6518082 L260.339651,13.8440735 C260.119191,13.619859 259.99687,13.3156708 260.000061,12.9995807 C260.000061,12.6920291 260.112697,12.3861766 260.339651,12.1567872 L268.064477,4.3473533 C268.288222,4.12281511 268.591362,3.99779644 268.906655,4.00002941 C269.221947,4.00226237 269.523324,4.13156236 269.743934,4.35924756 C270.207664,4.82610881 270.212914,5.58334539 269.755702,6.05672895 L264.224759,11.647033 L276.789581,11.647033 C277.456993,11.647033 278,12.1822749 278,12.8534512 C278,13.51953 277.478847,14.0598694 276.789581,14.0598694 L263.935604,14.0598694 L269.755702,19.9424325 Z" id="Shape" transform="translate(269.000000, 13.000000) scale(1, -1) rotate(90.000000) translate(-269.000000, -13.000000) "></path>
            </g>
        </g>
    </g>
</svg>