<?xml version="1.0" encoding="UTF-8"?>
<svg width="196px" height="35px" viewBox="0 0 196 35" version="1.1" xmlns="http://www.w3.org/2000/svg" xmlns:xlink="http://www.w3.org/1999/xlink">
    <!-- Generator: Sketch 46.2 (44496) - http://www.bohemiancoding.com/sketch -->
    <title>logo</title>
    <desc>Created with Sketch.</desc>
    <defs></defs>
    <g id="Page-1" stroke="none" stroke-width="1" fill="none" fill-rule="evenodd">
        <g id="Desktop" transform="translate(-35.000000, -25.000000)" fill="#FFFFFF">
            <g id="logo" transform="translate(35.000000, 19.000000)">
                <text id="GOATit!" font-family="Museo900-Regular, Museo" font-size="41" font-weight="700">
                    <tspan x="46" y="39">GOA</tspan>
                    <tspan x="133.658" y="39" letter-spacing="3.2">T</tspan>
                    <tspan x="164.697" y="39" font-family="Museo300-Regular, Museo" font-weight="normal">it!</tspan>
                </text>
                <path d="M35.9543363,28.749636 C34.657966,33.6249123 33.2501628,38.0673318 30.5,38.0103582 C29.0417808,39.0052969 26.8454958,40.223938 25.4203931,40.8503915 C24.1334479,41.4136015 23.5506802,40.262694 24.8861894,39.45461 C26.5616464,38.1322908 26.6744125,37.5284705 27.5,36.5 C23.9548301,35.4225547 21.166607,28.0395016 16.5530297,28.0395016 L12.4250922,28.0395016 C5.96608396,28.0395016 3.36791149,26.7906445 3.36791149,22.3829137 C3.36791149,17.9751829 0.624047107,17.3385107 0.454073207,14.6693848 L0.0412794496,7.88637688 C-0.0801304789,5.9763602 0.0169974639,6.00084759 1.01255888,6.00084759 L1.59532654,6.00084759 C2.42091405,6.00084759 2.37235008,5.9763602 2.80942582,7.88637688 L4.19349901,13.0287295 C5.99036595,13.8857882 10.0211756,13.7878387 12.1579903,17.4364603 C16.091672,17.3140233 20.0496357,17.5588972 22.4292703,18.0486451 L24.0075993,7.7884273 C24.2747012,6.02533498 24.566085,6.00084759 25.1731347,6.00084759 L26.1444141,6.00084759 C26.8000277,6.00084759 26.8971556,5.90289802 26.7271817,7.8129147 L26.290106,12.9062925 C25.1731347,25.8356362 27.8441531,29.4597704 32.6277043,26.9130815 C34.6916731,25.8111488 36.2942841,27.4518042 35.9543363,28.749636 Z M31.5548583,34.6636358 C31.5548583,33.8800392 30.9478087,33.4637535 30.340759,33.4637535 C29.7337094,33.4637535 29.1266597,33.8800392 29.1266597,34.6636358 C29.1266597,35.5206946 29.7337094,35.9369803 30.340759,35.9369803 C30.9478087,35.9369803 31.5548583,35.5206946 31.5548583,34.6636358 Z M16.9901055,7.8129147 C16.8444136,5.90289802 17.0629514,6.00084759 17.6700011,6.00084759 L18.6169985,6.00084759 C19.1997662,6.00084759 19.2968941,6.00084759 19.5882779,7.7884273 L20.9966331,16.4814519 L17.6457191,16.1631158 L16.9901055,7.8129147 Z M34.8975395,26.7173246 L34.8811646,26.7536011 C35.2044678,26.9432068 35.4213969,27.1021474 35.5319519,27.230423 C35.6372123,27.3525552 35.7418364,27.5090099 35.8458242,27.699787 C35.7377439,27.7960772 35.6224692,27.8961482 35.5,28 L34.5,27 L34.8975395,26.7173246 Z M34.970009,26.6657942 L35.960144,25.9617462 C36.400828,25.7160594 36.7474467,25.7288106 37,26 C37.2237971,26.2403113 36.8566586,26.7911674 35.8985846,27.6525686 C35.7863079,27.4253063 35.6875651,27.2684855 35.602356,27.182106 C35.5112468,27.0897455 35.3004645,26.9176416 34.970009,26.6657942 Z M9.48697189,13.0532169 L6.16033985,12.2451329 L7.15590126,7.88637688 C7.59297701,6.00084759 7.35015715,6.00084759 8.27287261,6.00084759 L9.02561416,6.00084759 C9.8026377,6.00084759 9.82691969,5.9763602 9.72979175,7.88637688 L9.48697189,13.0532169 Z M35.8042765,27.0843705 C36.0913038,26.8747596 36.2713579,26.7361761 36.344439,26.6686202 C36.41752,26.6010642 36.570837,26.4197388 36.80439,26.1246439 C36.5297819,26.3547417 36.3464029,26.5146961 36.254253,26.6045072 C36.1621031,26.6943183 36.0121109,26.8542728 35.8042765,27.0843705 Z" id="Shape" fill-rule="nonzero" transform="translate(18.531783, 23.500000) scale(-1, 1) rotate(-180.000000) translate(-18.531783, -23.500000) "></path>
            </g>
        </g>
    </g>
</svg>