<?xml version="1.0" encoding="UTF-8"?>
<svg width="326px" height="326px" viewBox="0 0 326 326" version="1.1" xmlns="http://www.w3.org/2000/svg" xmlns:xlink="http://www.w3.org/1999/xlink">
    <!-- Generator: Sketch 46.2 (44496) - http://www.bohemiancoding.com/sketch -->
    <title>illo</title>
    <desc>Created with Sketch.</desc>
    <defs></defs>
    <g id="Page-1" stroke="none" stroke-width="1" fill="none" fill-rule="evenodd">
        <g id="Desktop" transform="translate(-623.000000, -145.000000)" fill-rule="nonzero">
            <g id="header">
                <g id="illo" transform="translate(623.000000, 145.000000)">
                    <g id="XMLID_4_">
                        <g id="XMLID_723_" fill="#6CDCFD">
                            <circle id="XMLID_724_" cx="163" cy="163" r="162.5"></circle>
                        </g>
                        <g id="XMLID_562_" transform="translate(52.000000, 27.000000)">
                            <g id="XMLID_721_" transform="translate(53.000000, 130.000000)" fill="#FFFFFF">
                                <path d="M95.7,10 L59.6,1.1 L59.6,0.8 L59.1,0.9 L58.6,0.8 L58.6,1.1 L22.5,10 C22.5,10 9,114.3 0.1,157.8 C18.1,164.7 37.6,168.4 58,168.4 C79.2,168.4 99.4,164.3 118,157 C109.1,113 95.7,10 95.7,10 Z" id="XMLID_722_"></path>
                            </g>
                            <g id="XMLID_719_" transform="translate(87.000000, 136.000000)" fill="#F8E6E6">
                                <path d="M61.7,4 L45.5,0 L0.4,35.2 C0.4,35.2 3.7,47.1 8,52 C12.3,56.8 18.7,57.5 18.7,57.5 L21.5,94.5 L21.7,99.9 C21.7,99.9 23.9,104.4 31.3,103.8 C37.4,103.4 38.8,93.3 39.6,89.5 C40.4,85.7 41.4,57.8 41.4,57.8 C41.4,57.8 48.5,55.2 51.3,52.5 C51.3,52.5 54.9,55 57.9,55.9 C60.9,56.9 65.2,72 66.9,86.5 C68.6,101 68.4,140.9 60.5,150.5 C60.5,150.5 59.3,154.4 59.3,158.4 C67.8,156.5 76,154 83.9,150.8 C75.1,107 61.7,4 61.7,4 Z" id="XMLID_720_"></path>
                            </g>
                            <g id="XMLID_714_" transform="translate(101.000000, 184.000000)">
                                <g id="XMLID_717_" fill="#FFFFFF">
                                    <path d="M15.2,0.3 L0.3,1.3 C0.3,1.3 2.1,28.1 4.8,41.8 C7.5,55.5 9.6,54.9 15.2,54.9 C19.8,54.9 22.9,55.5 25.6,41.8 C28.3,28.1 30.1,1.3 30.1,1.3 L15.2,0.3 Z" id="XMLID_718_"></path>
                                </g>
                                <g id="XMLID_715_" transform="translate(0.000000, 1.000000)" fill="#F8E6E6">
                                    <path d="M30.1,0.2 L25.2,0 C24.8,5.9 24,25 23.4,33.1 C22.8,40.6 21.2,49.3 19.8,50.6 C18.5,51.9 13.2,52.4 11,51.4 C8.8,50.4 7.2,44.6 5.6,31 C4.4,20.5 3.2,6.2 2.4,0.1 L0.2,0.2 C0.2,0.2 2,27 4.7,40.7 C7.4,54.4 9.5,53.8 15.1,53.8 C19.7,53.8 22.8,54.4 25.5,40.7 C28.3,27 30.1,0.2 30.1,0.2 Z" id="XMLID_716_"></path>
                                </g>
                            </g>
                            <g id="XMLID_711_" transform="translate(79.000000, 0.000000)" fill="#B09584">
                                <g id="XMLID_712_">
                                    <path d="M0.3,24.9 C0.3,24.9 -0.4,3 6.5,1.3 C13.3,-0.3 19.1,2.4 27.3,20.2 C35.4,37.9 0.3,24.9 0.3,24.9 Z" id="XMLID_713_"></path>
                                </g>
                            </g>
                            <g id="XMLID_708_" transform="translate(119.000000, 0.000000)" fill="#B09584">
                                <g id="XMLID_709_">
                                    <path d="M29.2,24.9 C29.2,24.9 29.9,3 23,1.3 C16.2,-0.3 10.4,2.4 2.2,20.2 C-5.9,37.9 29.2,24.9 29.2,24.9 Z" id="XMLID_710_"></path>
                                </g>
                            </g>
                            <g id="XMLID_705_" transform="translate(136.000000, 2.000000)" fill="#937C6E">
                                <g id="XMLID_706_">
                                    <path d="M7.5,0.1 C8,4.2 8.7,15.4 2.6,20.7 C-0.1,23 0.4,24.7 2.3,25.9 C7.7,24.6 12.2,22.9 12.2,22.9 C12.2,22.9 12.7,4.3 7.5,0.1 Z" id="XMLID_707_"></path>
                                </g>
                            </g>
                            <g id="XMLID_702_" transform="translate(90.000000, 1.000000)" fill="#937C6E">
                                <g id="XMLID_703_">
                                    <path d="M0.5,0.1 C3.1,3.2 9.9,12.5 7.5,22 C5.6,29.6 12.2,29.1 16.9,26 C17.8,24.5 17.7,22.4 16.2,19.2 C10.2,5.9 5.4,1 0.5,0.1 Z" id="XMLID_704_"></path>
                                </g>
                            </g>
                            <g id="XMLID_700_" transform="translate(101.000000, 184.000000)" fill="#F8E6E6">
                                <path d="M30.1,1.2 L15.2,0.2 L0.3,1.2 C0.3,1.2 0.5,3.9 0.8,8.1 C4.4,10.1 9,11.7 14.5,11.8 L14.8,11.8 C21,11.7 24.7,11.5 29.4,9.3 C29.8,5.7 30.1,1.2 30.1,1.2 Z" id="XMLID_701_"></path>
                            </g>
                            <g id="XMLID_697_" transform="translate(0.000000, 18.000000)" fill="#FFFFFF">
                                <g id="XMLID_698_">
                                    <path d="M123.6,1.3 C128.2,0.7 137.6,0.5 142.8,3.1 C148.1,5.7 151.3,7.5 153.8,8.2 C156.3,8.9 166.8,13.8 169.6,28.2 C169.6,28.2 188.3,28.2 199.8,32.3 C211.3,36.4 221.6,44.1 225.7,48.2 C229.8,52.3 228,60.2 218.8,70 C209.6,79.9 199.4,86.1 192.7,84.3 C186,82.5 173.2,73.8 170.7,71.8 C168.2,69.8 163.8,70.5 163.3,71.6 C162.8,72.7 161.5,95.9 160.5,103.8 C159.5,111.7 158.7,120.4 153.9,126.1 C149.1,131.8 143.5,142.8 142.5,148 C141.5,153.3 135.2,172 114.1,172.3 L113.8,172.3 C92.7,172 87.1,153.3 86.2,148 C85.2,142.7 79.5,131.8 74.8,126.1 C70,120.4 69.2,111.6 68.2,103.8 C67.2,95.9 65.9,72.8 65.4,71.6 C64.9,70.5 60.5,69.8 58,71.8 C55.5,73.8 42.7,82.5 36,84.3 C29.3,86.1 19.1,79.9 9.9,70 C0.7,60.1 -1.1,52.3 3,48.2 C7.1,44.1 17.5,36.4 28.9,32.3 C40.4,28.2 59.1,28.2 59.1,28.2 C61.9,13.7 72.4,8.8 74.9,8.2 C77.4,7.5 80.6,5.7 85.9,3.1 C91.2,0.5 100.5,0.5 105.1,1.3 C105.2,1.3 116,2.2 123.6,1.3 Z" id="XMLID_699_"></path>
                                </g>
                            </g>
                            <g id="XMLID_691_" transform="translate(62.000000, 50.000000)" fill="#937C6E">
                                <g id="XMLID_692_">
                                    <g id="XMLID_693_">
                                        <path d="M12.1,32.9 C5.4,32.9 0.5,26.6 0.5,17.9 C0.5,9.7 5.4,0.9 16.2,0.9 L16.4,0.9 C19.2,0.9 21.7,2 23.5,3.9 C26,6.5 27.3,10.6 27.1,15.5 C26.8,25.3 18.8,32.9 12.1,32.9 Z M16.2,3.6 C7.3,3.6 3.3,11 3.3,17.9 C3.3,25 7,30.1 12.1,30.1 C17.4,30.1 24.1,23.5 24.3,15.4 C24.4,11.3 23.4,7.9 21.4,5.8 C20,4.4 18.3,3.7 16.2,3.6 L16.2,3.6 Z" id="XMLID_694_"></path>
                                    </g>
                                </g>
                            </g>
                            <g id="XMLID_688_" transform="translate(126.000000, 45.000000)" fill="#F8E6E6">
                                <g id="XMLID_689_">
                                    <path d="M99.8,21.2 C95.7,17.1 85.3,9.4 73.9,5.3 C65.6,2.3 53.6,1.5 47.5,1.3 L37.2,3.6 C37.2,3.6 27.3,-1.1 19.5,1 C11.6,3.1 5.8,9.6 5.8,20.3 C5.8,31 1.9,60.8 0.4,65.5 C-1.1,70.2 19.1,74.9 15.4,103.4 L15.4,111 C15.4,111 17.9,110.3 21.4,109.4 C23.4,105.6 25.9,101.8 28.1,99.1 C32.9,93.4 33.7,84.6 34.7,76.8 C35.7,68.9 37,45.8 37.5,44.6 C38,43.5 42.4,42.8 44.9,44.8 C47.4,46.8 60.2,55.5 66.9,57.3 C73.6,59.1 83.8,52.9 93,43 C102.1,33.2 103.9,25.3 99.8,21.2 Z" id="XMLID_690_"></path>
                                </g>
                            </g>
                            <g id="XMLID_684_" transform="translate(68.000000, 52.000000)" fill="#937C6E">
                                <g id="XMLID_685_">
                                    <g id="XMLID_686_">
                                        <path d="M19.5,12.1 C19.5,18.5 17.9,23.7 10,23.7 C4.8,23.7 0.5,18.5 0.5,12.1 C0.5,5.7 4.7,0.5 10,0.5 C15.2,0.4 19.5,5.6 19.5,12.1 Z" id="XMLID_687_"></path>
                                    </g>
                                </g>
                            </g>
                            <g id="XMLID_680_" transform="translate(73.000000, 55.000000)" fill="#F1F3F2">
                                <g id="XMLID_681_">
                                    <g id="XMLID_682_">
                                        <ellipse id="XMLID_683_" transform="translate(3.363260, 3.780820) rotate(-65.657046) translate(-3.363260, -3.780820) " cx="3.36326" cy="3.78082" rx="3.00001807" ry="2.20001325"></ellipse>
                                    </g>
                                </g>
                            </g>
                            <g id="XMLID_676_" transform="translate(72.000000, 65.000000)" fill="#F1F3F2">
                                <g id="XMLID_677_">
                                    <g id="XMLID_678_">
                                        <ellipse id="XMLID_679_" transform="translate(3.835500, 4.196120) rotate(-96.643897) translate(-3.835500, -4.196120) " cx="3.8355" cy="4.19612" rx="3.80005962" ry="2.80004393"></ellipse>
                                    </g>
                                </g>
                            </g>
                            <g id="XMLID_674_" transform="translate(144.000000, 54.000000)" fill="#F1F3F2">
                                <ellipse id="XMLID_675_" cx="10.2" cy="13.9" rx="10.2" ry="13.4"></ellipse>
                            </g>
                            <g id="XMLID_668_" transform="translate(139.000000, 50.000000)" fill="#937C6E">
                                <g id="XMLID_669_">
                                    <g id="XMLID_670_">
                                        <path d="M15.9,32.9 C9.2,32.9 1.2,25.3 0.9,15.5 C0.7,10.6 2,6.5 4.5,3.9 C6.4,2 8.8,0.9 11.6,0.9 L11.8,0.9 C22.6,0.9 27.5,9.7 27.5,17.9 C27.5,26.6 22.7,32.9 15.9,32.9 Z M11.9,3.6 L11.8,3.6 C9.7,3.6 8,4.3 6.6,5.8 C4.6,7.9 3.6,11.3 3.7,15.4 C4,23.6 10.6,30.1 15.9,30.1 C21,30.1 24.7,25 24.7,17.9 C24.7,11 20.7,3.6 11.9,3.6 Z" id="XMLID_671_"></path>
                                    </g>
                                </g>
                            </g>
                            <g id="XMLID_664_" transform="translate(141.000000, 52.000000)" fill="#937C6E">
                                <g id="XMLID_665_">
                                    <g id="XMLID_666_">
                                        <path d="M0.6,12.1 C0.6,18.5 2.2,23.7 10.1,23.7 C15.3,23.7 19.6,18.5 19.6,12.1 C19.6,5.7 15.4,0.5 10.1,0.5 C4.9,0.4 0.6,5.6 0.6,12.1 Z" id="XMLID_667_"></path>
                                    </g>
                                </g>
                            </g>
                            <g id="XMLID_661_" transform="translate(131.000000, 89.000000)" fill="#F8E6E6">
                                <g id="XMLID_662_">
                                    <path d="M32.4,0.7 C31.1,1.6 27.3,4.6 26.8,6.9 C26.2,9.7 26.2,32.3 24.5,40.4 C22.8,48.5 13.3,61.2 11.6,66 C9.9,70.8 0.3,79.6 0.3,79.6 C0.3,79.6 -0.5,88.4 3.2,93.2 C8.9,87.4 11.1,80.1 11.7,77.1 C12.7,71.8 18.4,60.9 23.1,55.2 C27.9,49.5 28.7,40.7 29.7,32.9 C30.6,25 31.9,1.9 32.4,0.7 L32.4,0.7 Z" id="XMLID_663_"></path>
                                </g>
                            </g>
                            <g id="XMLID_657_" transform="translate(149.000000, 55.000000)" fill="#F1F3F2">
                                <g id="XMLID_658_">
                                    <g id="XMLID_659_">
                                        <ellipse id="XMLID_660_" transform="translate(3.656360, 3.775930) rotate(65.657046) translate(-3.656360, -3.775930) " cx="3.65636" cy="3.77593" rx="3.00001807" ry="2.20001325"></ellipse>
                                    </g>
                                </g>
                            </g>
                            <g id="XMLID_653_" transform="translate(150.000000, 65.000000)" fill="#F1F3F2">
                                <g id="XMLID_654_">
                                    <g id="XMLID_655_">
                                        <ellipse id="XMLID_656_" transform="translate(3.330430, 4.132150) rotate(96.643897) translate(-3.330430, -4.132150) " cx="3.33043" cy="4.13215" rx="3.80005962" ry="2.80004393"></ellipse>
                                    </g>
                                </g>
                            </g>
                            <g id="XMLID_650_" transform="translate(99.000000, 128.000000)" fill="#FFE6E6">
                                <g id="XMLID_651_">
                                    <ellipse id="XMLID_652_" cx="3.8" cy="7.6" rx="3.1" ry="7.1"></ellipse>
                                </g>
                            </g>
                            <g id="XMLID_647_" transform="translate(124.000000, 128.000000)" fill="#FFE6E6">
                                <g id="XMLID_648_">
                                    <ellipse id="XMLID_649_" cx="3.2" cy="7.6" rx="3.1" ry="7.1"></ellipse>
                                </g>
                            </g>
                            <g id="XMLID_644_" transform="translate(7.000000, 71.000000)" fill="#FFE6E6">
                                <g id="XMLID_645_">
                                    <path d="M46.2,9.6 C46.2,9.6 41.4,2.3 34.6,1 C27.8,-0.4 19.2,1.9 15.6,2 C12,2.1 3.9,2.1 1.7,1.8 C-0.5,1.4 -0.3,8.3 7.4,13.1 C15,17.9 21.2,20.6 31.7,17.8 C42.2,14.9 46,12.1 46.2,9.6 Z" id="XMLID_646_"></path>
                                </g>
                            </g>
                            <g id="XMLID_641_" transform="translate(93.000000, 153.000000)" fill="#FFCDDB">
                                <g id="XMLID_642_">
                                    <path d="M0.9,10 L1.6,1.9 C1.6,1.9 10,2.9 13.5,2.1 C16.9,1.4 20.2,0.2 23.8,0.7 C27.4,1.3 36.7,2.3 37.4,2.3 C38.1,2.3 42,10.2 42.1,10.7 C42.2,11.2 36.7,18 34.3,18.7 C31.9,19.4 15.8,21.5 10.4,18.9 C5,16.3 2.1,13.1 2,12.5 C1.8,12 0.9,10 0.9,10 Z" id="XMLID_643_"></path>
                                </g>
                            </g>
                            <g id="XMLID_631_" transform="translate(80.000000, 124.000000)" fill="#FFE6E6">
                                <g id="XMLID_632_">
                                    <g id="XMLID_639_">
                                        <path d="M20.8,32.6 C15.3,32.6 8.8,31.5 6,27.1 C2.1,21.1 0.3,2.7 0.2,1.9 C0.1,1.1 0.7,0.5 1.5,0.4 C2.3,0.3 3,0.9 3,1.7 C3,1.9 4.8,20.3 8.4,25.7 C11.7,30.7 22.7,30.3 27.5,29.4 C32.2,28.5 33.3,28.4 33.5,28.4 L35,28.4 C35.2,28.4 36.3,28.5 41,29.4 C45.8,30.4 56.8,30.7 60.1,25.7 C63,21.2 65,6.9 65.5,1.7 C65.6,0.9 66.3,0.4 67,0.4 C67.8,0.5 68.3,1.2 68.3,1.9 C68.2,2.7 66.4,21.2 62.5,27.1 C58.1,33.8 45.1,32.9 40.5,32 C36,31.1 35,31 35,31 L33.5,31 C33.5,31 32.5,31.1 28,32 C26.3,32.3 23.7,32.6 20.8,32.6 Z" id="XMLID_640_"></path>
                                    </g>
                                </g>
                            </g>
                            <g id="XMLID_590_" transform="translate(97.000000, 161.000000)" fill="#FFFFFF">
                                <g id="XMLID_591_">
                                    <path d="M0.9,3.7 C0.9,3.7 0.7,0.7 1.7,0.1 C2.7,-0.5 8.2,5 18.5,4.5 C28.8,4.1 32.2,1 32.2,1 C32.2,1 35.8,5.9 34.2,7.6 C32.5,9.3 26.3,13.9 19.9,12.5 C13.4,11.1 3.1,9.2 2.7,8.4" id="XMLID_592_"></path>
                                </g>
                            </g>
                            <g id="XMLID_586_" transform="translate(88.000000, 152.000000)" fill="#FFE6E6">
                                <g id="XMLID_587_">
                                    <g id="XMLID_588_">
                                        <path d="M44.2,3.2 C44.2,3.2 47.1,7.7 42.8,13 C38.6,18.1 27.1,18.3 26.5,18.3 C26,18.3 14.5,18.2 10.3,13 C6,7.7 8.9,3.2 8.9,3.2 C8.9,3.2 2.2,1.7 0.5,0.6 C0.5,0.6 3.1,8.9 4.2,13.3 C5.2,17.7 10.9,24.7 26.5,24.3 C42.2,24.7 47.9,17.7 49,13.3 C50,8.9 52.7,0.6 52.7,0.6 C50.9,1.7 44.2,3.2 44.2,3.2 Z" id="XMLID_589_"></path>
                                    </g>
                                </g>
                            </g>
                            <g id="XMLID_583_" transform="translate(125.000000, 151.000000)" fill="#F15F55">
                                <g id="XMLID_584_">
                                    <path d="M29.5,16.2 C28.3,13.6 19.1,4.5 17.2,0.4 C14.5,4.2 9,5.4 4,5.6 C2.7,5.9 1.2,5.7 0.2,5.5 C0.2,5.5 6.3,18.5 7.6,22.2 C8.9,25.9 14.3,33.9 23.4,32.1 C32.6,30.2 30.8,18.9 29.5,16.2 Z" id="XMLID_585_"></path>
                                </g>
                            </g>
                            <g id="XMLID_581_" transform="translate(53.000000, 283.000000)" fill="#937C6E">
                                <path d="M117.3,0.7 C62,9.7 16,2.9 1,0.1 C0.7,1.7 0.4,3.3 0.1,4.8 C18.1,11.7 37.6,15.4 58,15.4 C79.2,15.4 99.4,11.3 118,4 C117.7,2.9 117.5,1.9 117.3,0.7 Z" id="XMLID_582_"></path>
                            </g>
                            <g id="XMLID_578_" transform="translate(103.000000, 18.000000)" fill="#F8E6E6">
                                <g id="XMLID_579_">
                                    <path d="M96.8,32.3 C85.3,28.2 66.6,28.2 66.6,28.2 C63.8,13.7 53.3,8.8 50.8,8.2 C48.3,7.5 45.1,5.7 39.8,3.1 C34.5,0.5 25.2,0.7 20.6,1.3 C12.9,2.3 2.2,1.3 2.2,1.3 C1.6,1.2 0.9,1.1 0.1,1 C1.8,1.3 11.3,3.1 17.3,3.8 C24,4.5 33.1,3.3 39.7,7.5 C46.4,11.7 51.4,12.7 53.9,14.8 C56.4,16.9 60.9,25.8 59.7,30.8 C59.7,30.8 77.6,30.7 91.1,35.2 C104,39.6 118.7,45 124.6,55.9 C125.3,52.7 124.6,50.1 122.8,48.2 C118.7,44.1 108.3,36.4 96.8,32.3 Z" id="XMLID_580_"></path>
                                </g>
                            </g>
                            <g id="XMLID_575_" transform="translate(129.000000, 158.000000)" fill="#FF8961">
                                <g id="XMLID_576_">
                                    <path d="M16.1,22.9 C10.9,22.9 7,18.1 5.2,13.7 C3.9,10.6 0.9,2.9 0.9,2.8 C0.6,2.1 1,1.3 1.7,1 C2.4,0.7 3.2,1.1 3.5,1.8 C3.5,1.9 6.5,9.5 7.8,12.6 C9.4,16.5 12.8,20.8 17.1,20 C17.9,19.9 18.6,20.4 18.7,21.1 C18.8,21.9 18.3,22.6 17.6,22.7 C17.1,22.9 16.6,22.9 16.1,22.9 Z" id="XMLID_577_"></path>
                                </g>
                            </g>
                            <g id="XMLID_572_" transform="translate(8.000000, 71.000000)" fill="#FFCDDB">
                                <g id="XMLID_573_">
                                    <path d="M33.6,1 C26.8,-0.4 18.2,1.9 14.6,2 C11,2.1 2.9,2.1 0.7,1.8 C0.5,1.8 0.4,1.8 0.2,1.9 C2.1,3.1 6.4,4.9 14.9,4.7 C27.1,4.5 40.2,8.2 39.6,14.7 C43.4,12.9 45.1,11.2 45.2,9.6 C45.2,9.6 40.4,2.4 33.6,1 Z" id="XMLID_574_"></path>
                                </g>
                            </g>
                            <g id="XMLID_569_" transform="translate(175.000000, 71.000000)" fill="#FFCDDB">
                                <g id="XMLID_570_">
                                    <path d="M0.5,9.6 C0.5,9.6 5.3,2.3 12.1,1 C18.9,-0.4 27.5,1.9 31.1,2 C34.7,2.1 42.8,2.1 45,1.8 C47.2,1.4 47,8.3 39.3,13.1 C31.7,17.9 25.5,20.6 15,17.8 C4.6,14.9 0.8,12.1 0.5,9.6 Z" id="XMLID_571_"></path>
                                </g>
                            </g>
                            <g id="XMLID_567_" transform="translate(109.000000, 216.000000)" fill="#F8E6E6">
                                <path d="M2.5,20.5 C2.5,20.5 0.7,13.3 0.4,3.1 C0.1,-7.1 2.4,15.7 5.8,22.1" id="XMLID_568_"></path>
                            </g>
                            <g id="XMLID_565_" transform="translate(117.000000, 216.000000)" fill="#F8E6E6">
                                <path d="M0.5,22.1 C3.9,15.7 6.2,-7.1 5.9,3.1 C5.6,13.3 3.8,20.5 3.8,20.5" id="XMLID_566_"></path>
                            </g>
                            <g id="XMLID_563_" transform="translate(114.000000, 213.000000)" fill="#F8E6E6">
                                <path d="M1,24.8 C1,24.8 0.9,5.4 1.2,1.3 C1.6,-2.8 2.8,10.6 3.5,24.8" id="XMLID_564_"></path>
                            </g>
                        </g>
                    </g>
                </g>
            </g>
        </g>
    </g>
</svg>