<svg width="309" height="56" xmlns="http://www.w3.org/2000/svg"><g fill="#FFF" fill-rule="evenodd"><path d="M61.64 51.551l-1.312 2.05s1.599 2.009 4.469 2.009c2.747 0 4.838-1.681 5.904-4.305l8.897-21.566c.287-.738.697-.943 1.435-.943h.41v-2.419h-1.271c-1.886 0-2.501.41-3.198 2.255L71.89 41.506c-.41 1.025-.697 2.214-.697 2.214h-.082s-.328-1.189-.738-2.214l-5.289-12.874c-.738-1.845-1.312-2.255-3.157-2.255h-1.271v2.419h.41c.738 0 1.107.205 1.435.943l7.257 17.179-1.23 2.829c-.779 1.886-2.009 3.362-3.813 3.362-1.763 0-3.075-1.517-3.075-1.558zm21.689-14.965c0-6.109 4.879-10.701 10.865-10.701 6.027 0 10.906 4.592 10.906 10.701 0 6.232-4.879 10.906-10.865 10.906-6.027 0-10.906-4.674-10.906-10.906zm2.87 0c0 4.797 3.608 8.405 8.036 8.405 4.387 0 7.995-3.608 7.995-8.405 0-4.674-3.608-8.159-7.995-8.159-4.428 0-8.036 3.485-8.036 8.159zm38.467 6.714l.524.933v-.472c0-.82.082-1.476.082-1.476h-.082a6.901 6.901 0 0 1-.524 1.015zm.524.933l-.524-.933c-1.188 1.917-3.708 4.192-7.512 4.192-4.879 0-6.929-2.624-6.929-7.995v-9.799c0-.574-.328-.902-.902-.902h-1.722v-2.419h2.911c1.763 0 2.501.738 2.501 2.419v9.963c0 3.239.533 6.109 4.51 6.109 4.674 0 7.585-4.141 7.585-8.61v-9.881h2.788v17.302c0 .615.328.902.902.902h1.722V47h-2.829c-1.722 0-2.501-.738-2.501-2.296v-.471zm7.257-12.157c0 10.004 6.806 15.416 14.186 15.416 5.002 0 7.913-2.542 7.913-2.542h.082s-.041.615-.041 1.23V47h6.15V33.429c0-2.091-.902-2.993-2.993-2.993h-6.191v6.15h1.763c.574 0 .902.328.902.902v1.107s-2.214 2.132-6.068 2.132c-4.182 0-8.077-2.911-8.077-8.692 0-5.125 3.813-8.159 7.708-8.159 3.854 0 6.765 2.337 6.765 2.337l4.1-5.207s-3.526-3.813-11.029-3.813c-8.733 0-15.17 6.478-15.17 14.883zm30.832.082c0-8.405 6.478-14.965 15.334-14.965s15.334 6.56 15.334 14.965c0 8.61-6.478 15.334-15.334 15.334s-15.334-6.724-15.334-15.334zm7.626 0c0 4.879 3.444 8.569 7.708 8.569s7.708-3.69 7.708-8.569c0-4.674-3.444-8.2-7.708-8.2s-7.708 3.526-7.708 8.2zM194.808 47v-6.15h.779c.656 0 .861-.205 1.107-.902l7.995-22.263h7.626l7.995 22.263c.246.697.451.902 1.107.902h.779V47h-4.715c-2.05 0-2.87-.615-3.444-2.378l-1.271-3.772h-8.528l-1.271 3.772c-.574 1.763-1.394 2.378-3.444 2.378h-4.715zm10.988-12.095h5.412l-1.476-4.879c-.574-1.845-1.189-4.838-1.189-4.838h-.082s-.615 2.993-1.189 4.838l-1.476 4.879zM229.371 47V23.835h-2.378c-.574 0-.902.328-.902.902v1.599h-6.355v-5.822c0-2.091.738-2.829 2.829-2.829h20.951c2.091 0 2.829.738 2.829 2.829v5.822h-6.355v-1.599c0-.574-.328-.902-.902-.902h-2.378V47h-7.339zm27.697-17.116l-.594-.646v.378c0 .82-.082 1.476-.082 1.476h.082c.152-.413.352-.818.594-1.208zm-.594-.646l.594.646c1.39-2.243 4.144-3.999 6.868-3.999 3.813 0 5.781 1.763 6.396 5.166h.082c1.107-2.788 4.1-5.166 7.585-5.166 5.002 0 6.847 2.911 6.847 7.995v9.799c0 .615.328.902.902.902h1.722V47h-2.911c-1.763 0-2.501-.738-2.501-2.501v-9.922c0-3.362-.697-6.15-4.469-6.15-3.116 0-5.699 2.788-6.519 5.822-.287.902-.369 1.886-.369 2.993V47h-2.788V34.577c0-3.116-.451-6.15-4.346-6.15-3.362 0-5.863 2.911-6.724 6.068-.246.861-.328 1.804-.328 2.747V47h-2.788V29.698c0-.574-.328-.902-.902-.902h-1.722v-2.419h2.87c1.722 0 2.501.738 2.501 2.296v.565zm33.497 7.471c0-6.765 4.633-10.824 10.168-10.824 5.699 0 8.651 4.387 8.651 9.512 0 .492-.082 1.394-.082 1.394h-15.826c.082 5.207 3.731 8.2 7.995 8.2 3.772 0 6.191-2.542 6.191-2.542l1.353 2.091s-2.993 2.952-7.667 2.952c-6.109 0-10.783-4.428-10.783-10.783zm3.034-2.132h12.915c-.164-4.264-2.788-6.355-5.822-6.355-3.403 0-6.396 2.214-7.093 6.355z"/><path d="M50.838 18.617c.149-.415.18-.856.072-1.271-.572-2.15-1.159-4.24-1.814-6.096l-.907-.035-.899-2.269h-1.9l-.616 2.189h-2.926L40.782 8.35l-3.374-1.238c-4.335 2.84-8.114 11.24-13.97 11.24h-5.845c-9.145 0-12.824 1.768-12.824 8.009 0 6.241-3.885 7.142-4.126 10.922l-.585 9.604c-.171 2.705-.034 2.67 1.376 2.67h.825c1.169 0 1.1.035 1.719-2.67l1.96-7.281c2.544-1.214 8.251-1.075 11.277-6.241 5.57.173 11.174-.174 14.544-.867l2.235 14.528c.378 2.496.79 2.531 1.65 2.531h1.375c.928 0 1.066.139.825-2.566l-.619-7.212c-1.581-18.307 2.2-23.439 8.974-19.833 1.334.712 2.531.616 3.394.126-1.288-.211-2.023-.398-2.207-.56-.188-.166-.357-.694-.505-1.584.38.246.714.423 1.003.53.288.107 1.273.16 2.954.159zM47.544 7.643c-1.16-2.12-2.556-3.447-4.358-3.41C41.122 2.824 38.012 1.1 35.994.212c-1.822-.798-2.647.832-.756 1.976 2.372 1.873 2.532 2.728 3.7 4.184a5.18 5.18 0 0 0-.706.274l2.717.997H47.544zM24.057 46.99c-.206 2.705.103 2.566.963 2.566h1.34c.826 0 .963 0 1.376-2.531l1.994-12.309-4.745.45-.928 11.824zm-10.624-7.42l-4.71 1.144 1.41 6.172c.618 2.67.274 2.67 1.581 2.67h1.066c1.1 0 1.134.035.997-2.67l-.344-7.316zm35.844-19.84l2.175 1.341c.624.348 1.115.33 1.472-.054.537-.576-1.916-1.939-2.84-2.239-.922-.3-1.854.463-2.055.65-.134.125.282.225 1.248.302zm.363-.395c.61.205.968.355 1.071.451.104.096.567.397 1.39.904-.864-.399-1.362-.662-1.492-.79-.13-.127-.454-.315-.97-.565zm-.579-8.052l.06.236 1.084-.001-1.204-4.068-1.583.01.124.2 1.356-.01 1.067 3.636-.904-.003z" fill-rule="nonzero"/></g></svg>