<?xml version="1.0" encoding="UTF-8"?>
<svg width="309px" height="56px" viewBox="0 0 309 56" version="1.1" xmlns="http://www.w3.org/2000/svg" xmlns:xlink="http://www.w3.org/1999/xlink">
    <!-- Generator: Sketch 46.2 (44496) - http://www.bohemiancoding.com/sketch -->
    <title>logo</title>
    <desc>Created with Sketch.</desc>
    <defs></defs>
    <g id="Page-1" stroke="none" stroke-width="1" fill="none" fill-rule="evenodd">
        <g id="Desktop" transform="translate(-35.000000, -25.000000)" fill="#FFFFFF">
            <g id="header">
                <g id="logo" transform="translate(35.000000, 25.000000)">
                    <text id="youGOATme" font-family="Museo300-Regular, Museo" font-size="41" font-weight="normal">
                        <tspan x="60" y="47">you</tspan>
                        <tspan x="131.463" y="47" font-family="Museo900-Regular, Museo" font-weight="700">GOA</tspan>
                        <tspan x="219.121" y="47" font-family="Museo900-Regular, Museo" font-weight="700" letter-spacing="3.2">T</tspan>
                        <tspan x="250.16" y="47">me</tspan>
                    </text>
                    <path d="M50.8383508,30.9417086 C50.9865564,31.3563916 51.0183609,31.796771 50.909512,32.2123278 C50.3379769,34.3617069 49.7511453,36.4516672 49.096406,38.3084002 L48.1890323,38.3428947 L47.2903974,40.6120277 L45.3892376,40.6120277 L44.7735338,38.4234395 L41.8482441,38.4234395 L40.7824565,41.2079319 L37.4084314,42.4460509 C33.0727873,39.6063656 29.2938523,31.2068136 23.4382484,31.2068136 L17.5932987,31.2068136 C8.44767152,31.2068136 4.76879142,29.4384955 4.76879142,23.1973728 C4.76879142,16.9562501 0.883618971,16.0547546 0.642944572,12.2754081 L0.0584496017,2.67101374 C-0.113460684,-0.0334727601 0.0240675446,0.00120014378 1.43373188,0.00120014378 L2.25890125,0.00120014378 C3.42789119,0.00120014378 3.35912708,-0.0334727601 3.97800411,2.67101374 L5.93778136,9.95232354 C8.48205358,11.1658752 14.1894751,11.0271836 17.2150961,16.1934462 C22.7849893,16.0200817 28.3892646,16.3668108 31.7587062,17.0602688 L33.9935399,2.53232212 C34.3717425,0.0358730476 34.7843272,0.00120014378 35.6438787,0.00120014378 L37.0191609,0.00120014378 C37.9474765,0.00120014378 38.0850047,-0.137491472 37.8443303,2.56699503 L37.2254533,9.77895902 C35.6438787,28.0862522 39.4259049,33.217842 46.1991702,29.61186 C47.5327331,28.8998838 48.7302735,28.9965076 49.5925177,29.4866349 C48.305398,29.6975392 47.5699768,29.8839846 47.3862541,30.0459713 C47.1976025,30.2123036 47.0291211,30.7403778 46.8808098,31.6301938 C47.2602879,31.3841648 47.5947391,31.2073719 47.8841637,31.0998152 C48.1718067,30.9929205 49.1565357,30.9402183 50.8383508,30.9417086 Z M47.5436815,41.9155955 C46.3830894,44.0357603 44.9882287,45.362366 43.1864491,45.3250396 C41.1216849,46.7338221 38.011857,48.4593559 35.993984,49.3463822 C34.171735,50.143859 33.3465656,48.5142325 35.2375788,47.3700267 C37.6099407,45.4976899 37.7696117,44.6427111 38.9386017,43.1864491 C38.7009536,43.1142233 38.4657077,43.0219863 38.2324761,42.9117946 L40.9494836,41.9155955 L44.7735338,41.9155955 L47.2903974,41.9155955 L47.5436815,41.9155955 Z M24.0571254,2.56699503 C23.8508331,-0.137491472 24.1602716,0.00120014378 25.019823,0.00120014378 L26.3607233,0.00120014378 C27.1858926,0.00120014378 27.3234208,0.00120014378 27.7360055,2.53232212 L29.7301648,14.841203 L24.985441,14.3904552 L24.0571254,2.56699503 Z M13.4330698,9.98699645 L8.72272798,8.84279062 L10.1323923,2.67101374 C10.7512693,0.00120014378 10.4074488,0.00120014378 11.7139669,0.00120014378 L12.7798107,0.00120014378 C13.8800365,0.00120014378 13.9144186,-0.0334727601 13.7768904,2.67101374 L13.4330698,9.98699645 Z M49.276676,29.8272434 L51.4517616,28.485897 C52.0757477,28.1380169 52.5665421,28.156072 52.9241447,28.5400624 C53.4605487,29.1160479 51.0082682,30.479242 50.0849053,30.7790197 C49.1615424,31.0787974 48.2299915,30.316332 48.0289503,30.1293293 C47.8949229,30.0046608 48.3108314,29.9039655 49.276676,29.8272434 Z M49.6395402,30.2219764 C50.2506896,30.0171258 50.6080038,29.8668726 50.7114829,29.7712168 C50.8149619,29.675561 51.2780244,29.3740746 52.1006703,28.8667577 C51.2365656,29.26618 50.7392735,29.5294752 50.6087939,29.6566432 C50.4783143,29.7838112 50.1552297,29.9722556 49.6395402,30.2219764 Z M49.0613677,38.274267 L49.1206953,38.0385348 L50.2050261,38.039649 L49.0012045,42.1073981 L47.4182059,42.0964888 L47.5422926,41.8971517 L48.8979614,41.9067611 L49.9646092,38.2716147 L49.0613677,38.274267 Z" id="Shape" fill-rule="nonzero" transform="translate(26.500000, 24.779110) scale(-1, 1) rotate(-180.000000) translate(-26.500000, -24.779110) "></path>
                </g>
            </g>
        </g>
    </g>
</svg>