<?xml version="1.0" encoding="UTF-8"?>
<svg width="525px" height="1572px" viewBox="0 0 525 1572" version="1.1" xmlns="http://www.w3.org/2000/svg" xmlns:xlink="http://www.w3.org/1999/xlink">
    <!-- Generator: Sketch 46.2 (44496) - http://www.bohemiancoding.com/sketch -->
    <title>path</title>
    <desc>Created with Sketch.</desc>
    <defs></defs>
    <g id="Page-1" stroke="none" stroke-width="1" fill="none" fill-rule="evenodd">
        <g id="Desktop" transform="translate(-249.000000, -676.000000)">
            <g id="path" transform="translate(250.000000, 677.000000)">
                <g id="lines" stroke="#4AD5FD" stroke-width="2">
                    <path d="M261.498903,1.13686838e-13 C258.488014,7.87700992 242.013229,21.784681 212.07455,41.7230132 C167.166531,71.6305115 6,111.719381 6,251 C6,390.280619 517,516.649157 517,749 C517,981.350843 11.7092495,1086.71126 6,1250 C0.290750521,1413.28874 262.007846,1454.58785 262.007846,1571" id="Path-5" opacity="0.117300725"></path>
                    <path d="M255.498107,1.13686838e-13 C252.487208,7.87615317 236.012372,21.7823116 206.073599,41.7184752 C161.165439,71.6227206 1.97565341,111.73453 1.97565341,251 C1.97565341,390.26547 510.99526,516.674429 510.99526,749 C510.99526,981.325571 6.09467092,1086.72902 0.385403572,1250 C-5.32386377,1413.27098 262.006885,1454.60051 262.006885,1571" id="Path-5-Copy-2" opacity="0.149999991"></path>
                    <path d="M268.500017,1.13686838e-13 C265.489141,7.8738892 249.014429,21.7760503 219.075881,41.7064833 C174.168058,71.6021328 10,111.774561 10,251 C10,390.225439 523,516.24121 523,748.5 C523,980.75879 17.2117309,1086.77595 11.5025064,1250 C5.79328189,1413.22405 261.009241,1450.63397 261.009241,1567" id="Path-5-Copy" opacity="0.0627830616"></path>
                </g>
                <g id="illo-3" transform="translate(235.000000, 958.000000)">
                    <path d="M29.6529704,3 L32.1368098,8.99086024 L36.7689274,9.2495986 L33.809821,6.96921371 C33.7704099,6.93969918 33.754115,6.88895742 33.7691262,6.84249155 C33.7841373,6.79602569 33.8272079,6.76388571 33.8766902,6.76222538 C33.9043288,6.76130904 33.9314043,6.77005896 33.9531182,6.7869244 L37.0543366,9.17903842 C37.0859659,9.19898387 37.1059571,9.23266453 37.1080857,9.2695936 L37.9296577,9.31545477 L35.2404284,4.4265654 L29.6529824,3 L29.6529704,3 Z M29.5646075,5.52500532 L28.3000001,7.05388593 C28.3000001,7.05388593 29.5283837,9.1282846 31.7522939,10.1081221 L33.977,11.0877769 L34.90127,9.92465384 L31.304488,9.72236952 L29.5646075,5.52500532 L29.5646075,5.52500532 Z M37.0758243,9.96228593 L37.0758243,9.96346488 L37.0901295,9.96346488 L37.0758243,9.96228593 Z M37.0758243,9.96346488 L36.8740196,9.96346488 L36.852472,10.5479649 L35.761017,12.4790622 L36.4046602,13.6316041 L37.1068228,12.5366893 L37.0375654,10.573837 L37.0757525,9.96346488 L37.0758243,9.96346488 Z M33.5877077,15.919045 L33.2378175,16.99749 C33.1736776,17.17481 33.2787578,16.8995192 33.1984334,17.1103921 C32.8883702,17.9228835 32.908158,17.8671015 32.6909169,18.4346364 L34.0629987,22.5520324 C34.70083,21.3228646 34.9466695,20.0740731 34.9466695,20.0740731 L34.9956303,19.8894318 L34.9681572,18.9897453 L34.939487,18.4569834 L34.9191964,18.264113 L34.9168022,18.264113 C34.8763407,17.401139 34.9263789,17.6685898 34.798578,16.9398629 C34.683155,16.2813837 34.2459613,15.9013667 33.5889048,15.9202181 L33.5877077,15.9190391 L33.5877077,15.919045 Z M23.9783587,17.1962433 C23.7666002,17.1882265 23.5511606,17.2003696 23.3347036,17.2374476 C21.6030232,17.5318669 20.445932,19.2082991 20.7601131,21.0008461 C21.0743242,22.7934048 22.7362804,23.9919671 24.4679608,23.6975596 C26.1996472,23.4031698 27.3555413,21.7255351 27.0413541,19.9329822 C26.7664254,18.3645007 25.4606203,17.2528919 23.9783587,17.1962846 L23.9783587,17.1962433 Z M32.332653,19.2355387 L31.9839599,19.7094886 C31.8727925,20.0516082 31.3487143,20.9998852 30.5533585,21.9110783 C30.3967917,22.0904556 30.1247719,22.6588571 29.5132526,23.424668 C29.4152172,23.5474321 29.3595946,23.5431112 29.2636781,23.6657633 C29.2636781,23.6657633 29.1446519,23.8739247 29.1418746,23.8774498 C28.9553328,24.1145544 28.067137,24.3761046 28.067137,24.3761046 C27.1996268,24.4117089 26.6248581,24.4325173 26.1266369,24.4737216 C26.1268344,24.4825638 26.2045732,27.9195344 24.996965,28.7734011 C23.7877946,29.6283877 21.8945615,25.6274308 21.8945615,25.6274308 L20.860423,25.9978983 C20.7935777,26.0797469 20.667321,26.2446762 20.5487437,26.4589091 C20.5481452,26.4636249 20.5463495,26.475945 20.5451524,26.4836081 L19.8501603,27.8243224 L19.7725353,28.0042597 C19.5290061,28.3498042 19.2629179,28.7534061 19.0046945,29.1568016 C18.4771209,29.9809587 18.0311705,30.7189699 17.9120425,30.9244197 C17.5830414,31.4918486 17.1668566,31.955406 16.801482,32.3086431 L16.9961282,35.4134504 L17.0224042,35.4064356 L17.0749563,38.3654067 L19.9349499,34.8325166 C20.654584,34.2628949 21.3297584,33.9466533 21.7070739,34.1645115 C21.7477748,34.856862 21.8318401,35.4007825 22.0151619,35.8251104 L22.021267,35.8239314 L22.047543,44.0105044 L26.6820488,43.1119909 L29.8405897,42.1699623 L30.8854661,41.6266194 L33.1686918,39.7743232 L30.3445209,34.2233117 L30.3384158,34.2233117 L29.4857914,29.9318613 L29.4857914,29.9306824 C29.4151813,29.5688271 30.0271914,28.914044 30.1246641,28.8122416 L30.1365751,28.8686544 C30.1449548,28.8361153 30.1530351,28.8083275 30.1616541,28.7745741 L33.7166458,26.6541374 L33.6700792,23.8045376 L32.3326291,19.2355387 L32.332653,19.2355387 Z M13.8865661,31.3160494 C13.4348158,31.3602011 13.0922757,31.6614347 13.0864818,31.666516 C13.0778628,31.6712318 13.066251,31.6779518 13.051886,31.6947518 C13.0326129,31.7171519 13.0136391,31.7509878 13.0053194,31.795894 C12.9885602,31.88573 13.0083121,32.013764 13.1092085,32.2145747 C13.152124,32.30019 13.2377815,32.5254521 13.3372952,32.8049577 C13.4251314,33.0516531 13.5267161,33.3486543 13.6238895,33.6376091 C13.6028807,33.6493397 13.556739,33.6694408 13.5486587,33.6752176 C13.5149607,33.6992682 13.4871105,33.7385273 13.462678,33.7704827 C13.4317932,33.8108028 13.3757695,33.8847643 13.3480391,33.9315981 C13.3194886,33.9796403 13.2945293,34.0221886 13.2620584,34.0750764 C13.2275224,34.1313123 13.205915,34.1776627 13.1760837,34.2409075 C13.1502266,34.3062509 13.1260455,34.3536623 13.1056232,34.427895 C13.0828786,34.5111289 13.0706683,34.5732242 13.0661792,34.6631133 C13.0631865,34.7243538 13.0667778,34.7876458 13.076953,34.8489276 C13.0877268,34.9132453 13.1108904,34.9911562 13.1259138,35.053564 C13.1468029,35.1216542 13.1819973,35.1893496 13.2274087,35.2570272 C13.2647578,35.3126737 13.3131919,35.3832633 13.359962,35.4357856 C13.4025783,35.483592 13.4460684,35.5255155 13.4913183,35.5686769 C13.5416557,35.6166602 13.5968474,35.653632 13.6441682,35.6933391 C13.6672121,35.712556 13.697618,35.7285308 13.7241814,35.7486319 C13.8572494,35.8495441 14.0191314,35.9332791 14.0191314,35.9332791 C14.3287875,36.0824222 14.1882257,36.0209517 14.3929034,36.0943945 C14.4110991,36.0914471 14.436238,36.0883229 14.4597786,36.0861418 C14.4753408,36.2338289 14.4935963,36.3737703 14.502754,36.5306945 C14.5331001,37.0567069 14.5331001,37.5758754 14.5398038,37.7490927 L14.6986212,37.7538085 C14.714722,37.5936716 14.8172225,37.4286539 14.9649189,37.3057307 C15.0944137,37.1979628 15.2592764,37.1447568 15.4186983,37.1281454 L15.4139099,37.1493665 C15.0791149,37.1863266 14.8060836,37.4313891 14.8060836,37.7609234 C14.8060836,37.787214 14.8090763,37.8135046 14.8179946,37.8361876 C14.8261946,37.8588824 14.8409787,37.8992968 14.872881,38.014946 L14.8812606,38.0431819 L15.1989013,38.2607572 L15.2050065,38.2631151 C15.473028,38.3905007 15.7311017,38.3251455 15.917919,38.1843199 C16.1047302,38.0434353 16.2328722,37.8347847 16.2845205,37.650385 L16.2881118,37.6351176 L16.2857176,37.6198502 C16.2833234,37.6024607 16.2602795,37.5975091 16.2559102,37.5810628 L16.2762008,37.576347 C16.2758177,37.5745785 16.2763205,37.5745785 16.2762008,37.5728101 C16.2714124,37.5490543 16.2666241,37.5311342 16.2630328,37.5187552 C16.2612372,37.5123299 16.258843,37.5069657 16.2558503,37.499951 C16.2540547,37.4970036 16.2534561,37.4919341 16.2497452,37.4858625 C16.2479495,37.4829151 16.2413656,37.4754288 16.2413656,37.475252 L16.1756874,37.2964877 L16.1494114,37.2823992 C16.1559355,37.2853466 16.136842,37.2742645 16.118347,37.2483276 C16.0998521,37.2223907 16.0778855,37.1834735 16.0526689,37.1354254 C16.0021519,37.0394058 15.9426089,36.9048639 15.8771283,36.7449747 C15.7738138,36.4926675 15.651711,36.1515618 15.5332115,35.814712 L16.2222361,35.6265398 L15.9917672,32.9392342 L14.7355154,33.2802928 C14.7120525,33.0190551 14.7577213,32.6824176 14.8238843,32.3900202 C14.9066568,32.0240504 15.0113659,31.7314231 15.0113659,31.7314231 L15.0364448,31.6620301 L14.3653286,31.3844816 C14.2042846,31.3178473 14.0435339,31.3026565 13.8936408,31.3162675 C13.8912467,31.3164974 13.8888525,31.3162675 13.8864583,31.3162675 L13.8865661,31.3160494 Z M13.9020683,31.4712582 C14.0319701,31.4585255 14.166331,31.4718477 14.3033016,31.5288499 L14.8406734,31.7511292 C14.8214602,31.8063041 14.7446791,32.0210205 14.668718,32.3567974 C14.5986107,32.6668495 14.544652,33.0226037 14.5803431,33.3223519 L13.845943,33.5222783 C13.8157165,33.5352467 13.7990172,33.5474489 13.7659297,33.5634826 C13.6712223,33.2823147 13.5735221,32.9942264 13.4876911,32.7531782 C13.3876087,32.472081 13.3045908,32.2516998 13.2512547,32.1451522 C13.1593664,31.9616132 13.1554459,31.8639784 13.1628858,31.8240886 C13.1658785,31.8041643 13.1719238,31.7967959 13.1736596,31.7947327 L13.1772508,31.7947327 L13.1856304,31.787659 C13.1856304,31.787659 13.5120877,31.5105998 13.9021222,31.4724725 L13.9021222,31.4712936 L13.9020683,31.4712582 Z M15.3792303,35.8556157 C15.4994716,36.1980655 15.6217839,36.5443291 15.7279295,36.8035214 C15.7731195,36.9138299 15.8122342,36.9918174 15.8521211,37.0763718 C15.7390683,37.0144297 15.627877,36.9458266 15.4831314,36.9458266 C15.2569241,36.9458266 15.0353196,37.0416281 14.8621671,37.1857489 C14.7702369,37.2622805 14.748396,37.3782479 14.6914028,37.4785884 C14.6878115,37.2413777 14.687213,36.9374148 14.6627326,36.5200958 C14.653515,36.3602242 14.6332843,36.2156024 14.617363,36.063783 L15.3792303,35.8556157 L15.3792303,35.8556157 Z M15.4831314,37.1034228 C15.5479117,37.1034228 15.5887084,37.1453934 15.6455281,37.1610735 C15.589684,37.1527618 15.5371319,37.122286 15.4831314,37.122286 L15.4365648,37.122286 C15.452905,37.1205176 15.4670306,37.1034817 15.4831314,37.1034817 L15.4831314,37.1034228 Z M15.4831314,37.2786561 C15.6224842,37.2786561 15.7849347,37.3146141 15.9094376,37.3797923 C16.0279551,37.44187 16.099068,37.527674 16.1184189,37.6267707 C16.0728697,37.7715988 15.9686215,37.9480111 15.8222658,38.0583844 C15.6700564,38.173167 15.4919779,38.2227242 15.2777354,38.1218945 L15.0186022,37.9466553 C14.9942416,37.8617119 14.9753276,37.8026052 14.9684444,37.7831879 C14.9603042,37.7604931 14.9648531,37.7855458 14.9648531,37.7596679 C14.9648531,37.4930541 15.1931493,37.2786561 15.4831134,37.2786561 L15.4831314,37.2786561 Z M16.2521633,37.5315115 L16.2582684,37.5315115 C16.2582684,37.5315115 16.2584061,37.5309397 16.2582684,37.5338694 C16.2582205,37.5344588 16.2570713,37.5385852 16.2570713,37.5409431 C16.2564728,37.5374062 16.2540786,37.5356378 16.252283,37.5315704 L16.2521633,37.5315115 Z M16.2270843,37.5868042 L16.2270843,37.5879832 C16.222296,37.59152 16.2163106,37.5958822 16.2163106,37.5950569 C16.2163644,37.5950333 16.1887776,37.6021306 16.1888374,37.6021306 C16.1888853,37.6021306 16.1755498,37.6009516 16.1673497,37.6009516 L16.2270843,37.5868632 L16.2270843,37.5868042 Z M33.2449641,40.7704066 L30.9868173,42.5133257 C31.0861096,42.5752678 31.1867067,42.6358305 31.2865497,42.696794 C31.8406508,43.0351881 32.2669031,43.2838995 32.5834006,43.4612372 C32.6196125,43.5242757 32.6492403,43.5732493 32.6992306,43.6670407 C32.8586885,43.9662053 33.0665923,44.3819798 33.2664518,44.7960626 C33.6661528,45.6242399 34.0390749,46.4449073 34.0390749,46.4449073 L34.4665842,47.381047 L37.8591673,46.807134 C39.6586327,46.5313067 39.1952228,43.8664071 37.405394,44.1974446 L36.0536088,44.42678 C35.9117661,44.1225223 35.8815217,44.0482013 35.6941718,43.6599906 C35.486232,43.2291667 35.2699305,42.7935681 35.0791809,42.4357036 C34.9838091,42.256792 34.8981875,42.0993844 34.8057186,41.9511668 C34.7595111,41.8770462 34.7133455,41.8061028 34.6445071,41.7171333 C34.5756986,41.6281461 34.5812411,41.5190991 34.1501286,41.2925697 C34.1757462,41.3058918 33.7446696,41.0642129 33.2449641,40.7704066 L33.2449641,40.7704066 Z M27.1022319,43.9951662 L23.5938128,44.5914263 C23.6909444,44.7022417 23.7655348,44.7900971 23.776518,44.8054706 C24.0834089,45.2348798 24.2269934,45.2675838 24.4524106,45.4323127 C24.6778099,45.5970415 24.9370927,45.7700525 25.214278,45.9486046 C25.7686364,46.3057087 26.3928628,46.6800077 26.8550517,46.9517853 C27.1876979,47.1474026 27.3699123,47.2567621 27.5392999,47.3457669 C27.8791346,47.524319 27.8490519,47.4746144 27.9942704,47.5221792 C28.1394888,47.5697498 28.3179803,47.6252607 28.5232805,47.6879986 C28.933869,47.8134978 29.4497352,47.9662662 29.9574612,48.1149083 C30.4946774,48.2721921 30.6358617,48.3117164 31.0142845,48.4206927 L31.0524715,49.737881 C31.0794658,51.5279698 33.8176559,51.4513145 33.7405157,49.6626109 L33.6461734,46.4190294 L32.7051802,46.1497099 C32.7051802,46.1497099 31.7285975,45.869886 30.7240809,45.5757969 C30.2218077,45.4287464 29.7122441,45.2790786 29.3209527,45.1594682 C29.125307,45.0997367 28.9578287,45.0464599 28.8432855,45.008928 C28.7980357,44.9940732 28.7485721,44.9708479 28.7107382,44.9536352 C28.6608197,44.9248688 28.4981836,44.8355044 28.233077,44.6796118 C27.9092593,44.4891995 27.4972224,44.2410717 27.102208,43.9951426 L27.1022319,43.9951662 Z M28.785993,57.9303251 C26.1692292,57.9432346 23.7998971,58.0229316 22.0879866,58.1408384 C21.2320403,58.1998508 20.5401666,58.2690788 20.0662882,58.3431228 C19.829349,58.3801418 19.6458717,58.4188526 19.5289164,58.4560249 C19.4703789,58.4745934 19.4294026,58.4932208 19.40831,58.5066019 C19.4053173,58.5089598 19.4053173,58.5089598 19.4035216,58.5101388 C19.4059158,58.5119072 19.4053173,58.5106457 19.40831,58.5136756 C19.4294984,58.5268799 19.4713904,58.5450357 19.5301135,58.5630736 C19.6475775,58.5990906 19.8324255,58.6365871 20.0698675,58.6712718 C20.5447035,58.7407945 21.2360326,58.8018642 22.092763,58.8523822 C23.8061998,58.9534654 26.1763758,59.0110807 28.7931576,58.9982184 C31.4099273,58.9853089 33.7792654,58.9044329 35.491164,58.786526 C36.3471162,58.7275137 37.0389959,58.659447 37.5128683,58.5854148 C37.7497956,58.5483957 37.9332789,58.5097026 38.0502282,58.4725126 C38.1087657,58.4538852 38.1497539,58.4353756 38.1708406,58.4219356 C38.1738333,58.4195777 38.1732348,58.4183987 38.1756289,58.4172198 C38.1732348,58.4154514 38.1738333,58.4167128 38.1708406,58.4136829 C38.149712,58.4004198 38.1077661,58.382205 38.0490371,58.3642849 C37.9315671,58.3283269 37.7479221,58.2919327 37.5104742,58.2572716 C37.0356082,58.1877371 36.343118,58.125518 35.4863816,58.0749764 C33.7729388,57.973905 31.4027807,57.9174686 28.785993,57.9303251 L28.785993,57.9303251 Z" id="Shape" fill="#E4F9FF" transform="translate(26.000000, 31.000000) rotate(-30.000000) translate(-26.000000, -31.000000) "></path>
                    <path d="M78.2817332,27.9497608 C77.4422865,31.1535138 76.530683,34.072818 74.7498531,34.0353783 C73.8056034,34.6891951 72.3834295,35.4900164 71.4606239,35.9016858 C70.6272804,36.2717953 70.2499172,35.5154846 71.1147077,34.984458 C72.1996267,34.1155054 72.2726468,33.7187092 72.8072446,33.0428571 C70.5116189,32.3348217 68.7061436,27.4831011 65.7186854,27.4831011 L63.0456966,27.4831011 C58.8632551,27.4831011 57.1808445,26.6624236 57.1808445,23.7659147 C57.1808445,20.8694059 55.4040931,20.4510213 55.2940288,18.6970243 L55.0267299,14.2396191 C54.9481126,12.9844653 55.0110065,13.000557 55.6556685,13.000557 L56.0330316,13.000557 C56.5676294,13.000557 56.5361825,12.9844653 56.8192048,14.2396191 L57.7154423,17.6188794 C58.8789786,18.1820894 61.4890736,18.1177226 62.8727385,20.5153882 C65.4199396,20.4349296 67.9828643,20.5958468 69.5237637,20.9176811 L70.5457889,14.1752522 C70.718747,13.0166487 70.9074286,13.000557 71.3005152,13.000557 L71.9294537,13.000557 C72.3539872,13.000557 72.4168811,12.9361901 72.3068169,14.1913439 L72.0237945,17.5384208 C71.3005152,26.0348466 73.0300962,28.4164206 76.1276186,26.7428821 C77.464113,26.0187549 78.5018617,27.0968999 78.2817332,27.9497608 Z M75.432912,31.8361035 C75.432912,31.3211686 75.0398254,31.0476095 74.6467388,31.0476095 C74.2536522,31.0476095 73.8605656,31.3211686 73.8605656,31.8361035 C73.8605656,32.3993136 74.2536522,32.6728727 74.6467388,32.6728727 C75.0398254,32.6728727 75.432912,32.3993136 75.432912,31.8361035 Z M66.0017078,14.1913439 C65.907367,12.9361901 66.0488782,13.000557 66.4419648,13.000557 L67.0551799,13.000557 C67.432543,13.000557 67.4954369,13.000557 67.6841184,14.1752522 L68.5960794,19.8878113 L66.4262413,19.678619 L66.0017078,14.1913439 Z M77.597419,26.6142419 L77.5868156,26.6380807 C77.7961662,26.7626787 77.9366356,26.8671254 78.008224,26.9514208 C78.0763839,27.0316791 78.1441318,27.1344922 78.2114676,27.25986 C78.1414817,27.3231365 78.0668372,27.3888974 77.987534,27.4571429 L77.3399978,26.8 L77.597419,26.6142419 Z M77.6443457,26.580379 L78.2854939,26.1177189 C78.5708527,25.9562676 78.7953008,25.964647 78.9588382,26.1428571 C79.103755,26.300776 78.8660195,26.6627672 78.2456319,27.2288308 C78.1729287,27.079487 78.1089891,26.9764333 78.0538132,26.9196697 C77.9948167,26.8589756 77.8583275,26.7458787 77.6443457,26.580379 Z M61.1431574,17.6349711 L58.9890429,17.1039445 L59.6337049,14.2396191 C59.9167272,13.000557 59.7594926,13.000557 60.3569842,13.000557 L60.8444116,13.000557 C61.3475625,13.000557 61.3632859,12.9844653 61.3003921,14.2396191 L61.1431574,17.6349711 Z M78.184564,26.8554435 C78.3704246,26.7176991 78.4870161,26.62663 78.5343388,26.5822361 C78.5816614,26.5378422 78.6809397,26.4186855 78.8321736,26.224766 C78.654355,26.3759731 78.5356105,26.481086 78.4759401,26.5401047 C78.4162697,26.5991235 78.3191443,26.7042364 78.184564,26.8554435 Z" id="Shape" fill-opacity="0.221156024" fill="#FD64A0" fill-rule="nonzero" transform="translate(67.000000, 24.500000) rotate(-212.000000) translate(-67.000000, -24.500000) "></path>
                    <path d="M51.3135259,10.730979 L51.3135259,10.730979 L53.1207096,14.883354 L56.8566249,15.0834702 L55.8966017,16.2341264 L53.5858378,15.264972 C51.2759008,14.2956368 50,12.2434724 50,12.2434724 L51.3135259,10.730979 Z M50.7713104,8 L50.7713228,8 L56.5749064,9.41127488 L59.3681624,14.2477631 L58.5148098,14.2023935 C58.5125988,14.1658602 58.4918343,14.1325406 58.4589815,14.1128089 L55.2377995,11.7463346 C55.2152457,11.7296499 55.1871228,11.7209938 55.1584151,11.7219003 C55.1070187,11.7235428 55.062282,11.7553383 55.0466902,11.8013061 C55.0310984,11.8472739 55.0480236,11.8974718 55.0889592,11.92667 L58.1625319,14.1826128 L53.3512314,13.9266477 L50.7713104,8 Z M59.9678024,13.3711774 L59.9677278,13.3711774 L59.9280635,13.9750073 L60,15.9168209 L59.2706758,17 L58.6021348,15.8598115 L59.7358102,13.9494125 L59.7581913,13.3711774 L59.9678024,13.3711774 Z" id="Path" fill="#FFDDEA" transform="translate(55.000000, 12.500000) rotate(-62.000000) translate(-55.000000, -12.500000) "></path>
                </g>
                <g id="illo-2" transform="translate(283.000000, 439.000000)" fill-rule="nonzero">
                    <path d="M59.2817332,54.9497608 C58.4422865,58.1535138 57.530683,61.072818 55.7498531,61.0353783 C54.8056034,61.6891951 53.3834295,62.4900164 52.4606239,62.9016858 C51.6272804,63.2717953 51.2499172,62.5154846 52.1147077,61.984458 C53.1996267,61.1155054 53.2726468,60.7187092 53.8072446,60.0428571 C51.5116189,59.3348217 49.7061436,54.4831011 46.7186854,54.4831011 L44.0456966,54.4831011 C39.8632551,54.4831011 38.1808445,53.6624236 38.1808445,50.7659147 C38.1808445,47.8694059 36.4040931,47.4510213 36.2940288,45.6970243 L36.0267299,41.2396191 C35.9481126,39.9844653 36.0110065,40.000557 36.6556685,40.000557 L37.0330316,40.000557 C37.5676294,40.000557 37.5361825,39.9844653 37.8192048,41.2396191 L38.7154423,44.6188794 C39.8789786,45.1820894 42.4890736,45.1177226 43.8727385,47.5153882 C46.4199396,47.4349296 48.9828643,47.5958468 50.5237637,47.9176811 L51.5457889,41.1752522 C51.718747,40.0166487 51.9074286,40.000557 52.3005152,40.000557 L52.9294537,40.000557 C53.3539872,40.000557 53.4168811,39.9361901 53.3068169,41.1913439 L53.0237945,44.5384208 C52.3005152,53.0348466 54.0300962,55.4164206 57.1276186,53.7428821 C58.464113,53.0187549 59.5018617,54.0968999 59.2817332,54.9497608 Z M56.432912,58.8361035 C56.432912,58.3211686 56.0398254,58.0476095 55.6467388,58.0476095 C55.2536522,58.0476095 54.8605656,58.3211686 54.8605656,58.8361035 C54.8605656,59.3993136 55.2536522,59.6728727 55.6467388,59.6728727 C56.0398254,59.6728727 56.432912,59.3993136 56.432912,58.8361035 Z M47.0017078,41.1913439 C46.907367,39.9361901 47.0488782,40.000557 47.4419648,40.000557 L48.0551799,40.000557 C48.432543,40.000557 48.4954369,40.000557 48.6841184,41.1752522 L49.5960794,46.8878113 L47.4262413,46.678619 L47.0017078,41.1913439 Z M58.597419,53.6142419 L58.5868156,53.6380807 C58.7961662,53.7626787 58.9366356,53.8671254 59.008224,53.9514208 C59.0763839,54.0316791 59.1441318,54.1344922 59.2114676,54.25986 C59.1414817,54.3231365 59.0668372,54.3888974 58.987534,54.4571429 L58.3399978,53.8 L58.597419,53.6142419 Z M58.6443457,53.580379 L59.2854939,53.1177189 C59.5708527,52.9562676 59.7953008,52.964647 59.9588382,53.1428571 C60.103755,53.300776 59.8660195,53.6627672 59.2456319,54.2288308 C59.1729287,54.079487 59.1089891,53.9764333 59.0538132,53.9196697 C58.9948167,53.8589756 58.8583275,53.7458787 58.6443457,53.580379 Z M42.1431574,44.6349711 L39.9890429,44.1039445 L40.6337049,41.2396191 C40.9167272,40.000557 40.7594926,40.000557 41.3569842,40.000557 L41.8444116,40.000557 C42.3475625,40.000557 42.3632859,39.9844653 42.3003921,41.2396191 L42.1431574,44.6349711 Z M59.184564,53.8554435 C59.3704246,53.7176991 59.4870161,53.62663 59.5343388,53.5822361 C59.5816614,53.5378422 59.6809397,53.4186855 59.8321736,53.224766 C59.654355,53.3759731 59.5356105,53.481086 59.4759401,53.5401047 C59.4162697,53.5991235 59.3191443,53.7042364 59.184564,53.8554435 Z" id="Shape" fill-opacity="0.221156024" fill="#FD64A0" transform="translate(48.000000, 51.500000) scale(-1, 1) rotate(-211.000000) translate(-48.000000, -51.500000) "></path>
                    <path d="M21.6003986,25.0958235 L21.0893154,9.66941281 L21.0488033,9.74249432 L21.076982,9.66439067 C21.076982,9.66439067 17.3897874,7.60010193 16.1526365,6.92586517 C14.6940718,6.13071764 9.91934645,4.9897989 9.91934645,4.9897989 C9.58747084,4.84998785 9.20349968,4.9721433 9.01295428,5.27769765 L7.17368065,8.13531499 L5.98271857,7.73882327 L2.91603859,12.6546259 L3.95128133,13.3003926 L3.57629401,13.9015818 L8.06536533,16.4544733 C8.25157353,16.7185242 8.46704307,16.9625143 8.69647453,17.1954988 L3.22015851,25.6051205 L4.68927211,26.4194176 L5.68434189e-14,34.9538799 L2.14018617,36.0760436 L7.92169209,28.2110763 L8.38981015,28.4705438 L3.67313406,36.9257226 L5.61129086,38 L11.5324921,30.2124628 L13.3674964,31.229565 L18.4370161,17.0491197 L19.2787735,23.8089982 L21.6003986,25.0958235 Z M9.27296852,16.3093427 C9.04356654,16.0533975 8.84152537,15.7775474 8.67105837,15.4829186 L13.7892185,7.27869256 C14.1987606,7.30675922 14.538758,7.50609609 14.9330386,7.6369613 L9.27296852,16.3093427 Z M23.3519653,0.658220725 C25.074924,1.82726856 25.519202,4.1837887 24.3402896,5.91996367 C23.1613268,7.65732011 20.8066906,8.11538872 19.0837318,6.94634088 C17.618248,5.95205272 17.0850679,4.09952089 17.6831754,2.49914692 L14.00361,2.02571716 L11.6706042,3.18871651 L11.6003339,0.766193797 L13.9882334,1.46876683 L19.9416869,0.248793608 C20.2983215,0.118137397 20.6713434,0.041913867 21.0495558,0.0217774102 L21.1553556,-1.92290628e-13 L21.1603537,0.0160728946 C21.9153611,-0.00200841889 22.6814716,0.203137707 23.3519653,0.658220725 Z" id="Shape" fill="#E4F9FF"></path>
                    <path d="M37.1443348,39.7937415 L36.7150249,26.3971217 L36.6809948,26.4605872 L36.7046648,26.3927603 C36.7046648,26.3927603 33.6074214,24.6000885 32.5682147,24.0145671 C31.3430203,23.3240443 27.332251,22.3332464 27.332251,22.3332464 C27.0534755,22.2118316 26.7309397,22.3179139 26.5708816,22.5832637 L25.0258917,25.0648788 L24.0254836,24.720557 L21.4494724,28.9895435 L22.3190763,29.550341 L22.004087,30.0724263 L25.7749069,32.289411 C25.9313218,32.5187184 26.1123162,32.7306046 26.3050386,32.9329332 L21.7049331,40.2360257 L22.9389886,40.9431784 L19,48.3546851 L20.7977564,49.3291957 L25.6542214,42.4990926 L26.0474405,42.7244196 L22.0854326,50.0670749 L23.7134843,51 L28.6872933,44.2371387 L30.228697,45.1204117 L34.4870935,32.8058144 L35.1941698,38.6762353 L37.1443348,39.7937415 Z M26.7892936,32.1633766 C26.5965959,31.9411083 26.4268813,31.7015543 26.283689,31.4456925 L30.5829436,24.3209699 C30.9269589,24.3453435 31.2125567,24.5184519 31.5437524,24.632098 L26.7892936,32.1633766 Z M38.6156508,18.5716127 C40.0629362,19.5868385 40.4361297,21.6332902 39.4458432,23.1410211 C38.4555145,24.649778 36.4776201,25.0475744 35.0303347,24.0323487 C33.7993283,23.1688879 33.351457,21.5601102 33.8538673,20.1703118 L30.7630324,19.7591754 L28.8033075,20.7691485 L28.7442805,18.6653788 L30.7501161,19.275508 L35.751017,18.2160576 C36.0505901,18.102593 36.3639285,18.0363989 36.6816268,18.018912 L36.7704987,18 L36.7746971,18.013958 C37.4089033,17.9982558 38.0524361,18.1764091 38.6156508,18.5716127 Z" id="Shape" fill="#E4F9FF"></path>
                </g>
                <g id="illo-1" transform="translate(111.000000, 0.000000)" fill-rule="nonzero">
                    <path d="M81.3116609,45.2997712 C80.5071912,48.3642306 79.6335712,51.1566085 77.9269426,51.1207966 C77.0220366,51.7461866 75.6591199,52.5121896 74.7747646,52.9059603 C73.9761437,53.2599781 73.614504,52.5365505 74.4432616,52.028612 C75.4829756,51.1974399 75.5529532,50.8178958 76.0652761,50.1714286 C73.8653014,49.4941772 72.1350543,44.853401 69.2720736,44.853401 L66.7104592,44.853401 C62.7022862,44.853401 61.089976,44.0684051 61.089976,41.2978315 C61.089976,38.5272578 59.3872559,38.1270639 59.2817776,36.4493276 L59.0256162,32.1857226 C58.9502746,30.9851407 59.0105479,31.0005328 59.628349,31.0005328 L59.9899886,31.0005328 C60.5023115,31.0005328 60.4721749,30.9851407 60.7434046,32.1857226 L61.6022988,35.4180585 C62.7173545,35.9567812 65.2186956,35.8952129 66.5447077,38.1886322 C68.9857755,38.1116718 71.4419116,38.2655926 72.9186069,38.5734341 L73.8980477,32.1241543 C74.0637992,31.0159248 74.244619,31.0005328 74.621327,31.0005328 L75.2240598,31.0005328 C75.6309044,31.0005328 75.6911777,30.9389645 75.5856995,32.1395464 L75.3144697,35.3410982 C74.621327,43.4681142 76.2788422,45.7461414 79.2473012,44.1453655 C80.5281083,43.4527221 81.5226174,44.4839912 81.3116609,45.2997712 Z M78.5815407,49.0171425 C78.5815407,48.5245961 78.2048327,48.2629308 77.8281247,48.2629308 C77.4514167,48.2629308 77.0747087,48.5245961 77.0747087,49.0171425 C77.0747087,49.5558652 77.4514167,49.8175305 77.8281247,49.8175305 C78.2048327,49.8175305 78.5815407,49.5558652 78.5815407,49.0171425 Z M69.5433033,32.1395464 C69.4528934,30.9389645 69.5885083,31.0005328 69.9652163,31.0005328 L70.5528807,31.0005328 C70.9145204,31.0005328 70.9747937,31.0005328 71.1556135,32.1241543 L72.029576,37.5883412 L69.9501479,37.3882442 L69.5433033,32.1395464 Z M80.6558599,44.0223183 L80.6456983,44.0451207 C80.8463259,44.1643014 80.9809425,44.2642069 81.049548,44.3448373 C81.1148679,44.4216061 81.1797929,44.5199491 81.2443231,44.6398661 C81.1772533,44.7003914 81.105719,44.7632932 81.0297201,44.8285714 L80.4091646,44.2 L80.6558599,44.0223183 Z M80.7008312,43.9899278 L81.315265,43.5473833 C81.5887338,43.3929516 81.80383,43.4009667 81.9605533,43.5714286 C82.0994318,43.7224814 81.871602,44.0687338 81.2770639,44.6101859 C81.20739,44.4673354 81.1461146,44.3687623 81.0932376,44.3144666 C81.0366993,44.2564115 80.9058972,44.1482318 80.7008312,43.9899278 Z M64.8871925,35.4334506 L62.8228327,34.9255121 L63.4406338,32.1857226 C63.7118636,31.0005328 63.5611804,31.0005328 64.1337766,31.0005328 L64.6008945,31.0005328 C65.0830807,31.0005328 65.098149,30.9851407 65.0378757,32.1857226 L64.8871925,35.4334506 Z M81.2185405,44.2530329 C81.3966569,44.1212774 81.5083905,44.0341679 81.5537413,43.9917041 C81.5990921,43.9492404 81.6942338,43.8352644 81.8391664,43.6497762 C81.6687569,43.794409 81.55496,43.8949518 81.4977759,43.9514045 C81.4405918,44.0078572 81.3475133,44.1084 81.2185405,44.2530329 Z" id="Shape" fill="#FEDCE9" transform="translate(70.500000, 42.000000) rotate(-202.000000) translate(-70.500000, -42.000000) "></path>
                    <path d="M23.7190783,26.4908012 C23.0617537,28.9947419 22.3479271,31.2763675 20.953457,31.2471059 C20.2140669,31.7581061 19.1004406,32.3839999 18.3778423,32.7057462 C17.7252967,32.9950108 17.4298043,32.403905 18.1069743,31.9888732 C18.9565148,31.3097304 19.0136928,30.9996085 19.432307,30.4713862 C17.6347285,29.9180106 16.22096,26.1260764 13.8816456,26.1260764 L11.7885748,26.1260764 C8.51353461,26.1260764 7.19613124,25.4846637 7.19613124,23.2208542 C7.19613124,20.9570448 5.80485477,20.6300501 5.71866951,19.2591877 L5.50936243,15.7754365 C5.44780152,14.7944524 5.49705025,14.8070291 6.00184967,14.8070291 L6.29734202,14.8070291 C6.71595617,14.8070291 6.69133181,14.7944524 6.91295107,15.7754365 L7.61474539,18.4165475 C8.5258468,18.8567327 10.5696689,18.8064258 11.6531408,20.6803569 C13.6477141,20.6174733 15.6545997,20.7432405 16.8611934,20.9947749 L17.6614852,15.7251296 C17.7969192,14.8196058 17.9446653,14.8070291 18.2524699,14.8070291 L18.7449571,14.8070291 C19.077386,14.8070291 19.1266347,14.7567222 19.0404495,15.7377063 L18.8188302,18.3536639 C18.2524699,24.9941716 19.6068098,26.8555261 22.0323095,25.5475473 C23.0788449,24.9815949 23.8914488,25.8242351 23.7190783,26.4908012 Z M21.4883229,29.5282301 C21.4883229,29.125775 21.1805184,28.9119708 20.8727139,28.9119708 C20.5649093,28.9119708 20.2571048,29.125775 20.2571048,29.5282301 C20.2571048,29.9684152 20.5649093,30.1822195 20.8727139,30.1822195 C21.1805184,30.1822195 21.4883229,29.9684152 21.4883229,29.5282301 Z M14.1032648,15.7377063 C14.0293917,14.7567222 14.1402014,14.8070291 14.4480059,14.8070291 L14.928181,14.8070291 C15.2236733,14.8070291 15.272922,14.8070291 15.4206682,15.7251296 L16.1347747,20.1898649 L14.4356937,20.0263675 L14.1032648,15.7377063 Z M23.1832294,25.4470066 L23.1749265,25.4656382 C23.3388574,25.5630196 23.4488513,25.6446515 23.5049082,25.7105338 C23.5582805,25.7732609 23.6113302,25.8536159 23.6640572,25.951599 C23.6092551,26.0010536 23.550805,26.0524501 23.488707,26.1057883 L22.981657,25.5921886 L23.1832294,25.4470066 Z M23.2199751,25.4205406 L23.7220231,25.0589417 C23.9454719,24.932757 24.1212249,24.939306 24.2492821,25.0785888 C24.3627584,25.2020126 24.1766008,25.4849322 23.6908093,25.9273476 C23.6338795,25.8106258 23.5838119,25.7300827 23.5406066,25.6857182 C23.4944097,25.6382819 23.3875326,25.5498893 23.2199751,25.4205406 Z M10.2988009,18.4291242 L8.61203206,18.0140925 L9.11683149,15.7754365 C9.33845075,14.8070291 9.21532894,14.8070291 9.68319182,14.8070291 L10.0648694,14.8070291 C10.4588592,14.8070291 10.4711714,14.7944524 10.4219227,15.7754365 L10.2988009,18.4291242 Z M23.6429904,25.6355212 C23.7885276,25.5278651 23.8798241,25.4566887 23.9168798,25.421992 C23.9539356,25.3872953 24.031675,25.2941666 24.150098,25.1426059 C24.010858,25.2607841 23.9178756,25.3429366 23.871151,25.3890636 C23.8244264,25.4351906 23.7483729,25.5173431 23.6429904,25.6355212 Z" id="Shape" fill="#FEDCE9" transform="translate(14.884973, 23.794589) scale(-1, 1) rotate(-144.000000) translate(-14.884973, -23.794589) "></path>
                    <polygon id="Shape" fill="#E4F9FF" transform="translate(39.000000, 38.500000) rotate(-26.000000) translate(-39.000000, -38.500000) " points="56.748985 30.4256269 61.8895694 29.7173486 61.8839818 29.6765325 68 29.3972228 67.9640798 28.5977086 61.7746246 28.8802196 61.761853 28.7857825 66.4219045 25.3676392 65.9501521 24.7225857 61.2174619 28.1935497 55.874926 28.9306394 49.4875105 27.0242902 50.970617 24.3680464 58.3925352 20.7202129 63.7238959 18.8418747 63.4596826 18.0871781 58.3318699 19.893488 58.2504507 19.7270225 61.5000344 15.923928 60.8941798 15.4029233 57.4985205 19.3764848 50.9099517 22.6161579 51.2923026 18.2080256 52.4010404 14.364115 51.6339439 14.1424279 50.5084433 18.0431608 50.2554052 18.020752 48.8050261 13.529387 48.0459118 13.7758839 49.6447613 18.72823 49.3262686 22.3992727 46.768748 26.9786723 40.8379186 30.9002134 40.4020864 28.8602117 41.0725974 21.125172 42.6570788 15.6678274 44.9998761 10.3225267 44.2679016 10 42.2220448 14.6698352 41.8971663 14.5753981 41.7399155 10.5458145 40.9424863 10.5770268 41.123684 15.2236528 39.8369414 19.6541939 36.8787107 15.6710286 35.3030099 11.2276825 34.5502814 11.4957878 35.8569797 15.1788352 35.5089525 15.4389374 34.0577751 14.4337424 33.604382 15.0924012 35.3628769 16.3104799 38.6970727 20.799444 38.1423047 27.2011598 32.456531 24.3576423 30.8313401 18.9058999 30.764289 14.7570694 29.9660616 14.7690742 30.0251304 18.4169077 29.8734672 18.4625256 27.4867673 15.4157283 26.8585624 15.911123 29.1406945 18.8226672 30.8010074 24.3944568 24.3744787 20.4937238 23.3511512 18.0407599 22.6151856 18.348881 23.5387347 20.5657522 23.3479583 20.8810761 20.7433424 21.1675887 20.8303492 21.9639016 23.269732 21.6949959 37.4438557 30.2975766 37.9499319 32.6697088 35.9376006 47.8396703 35.3525 35.7933363 35.2934311 35.7965376 35.3445177 35.7125046 25.5047687 29.7189492 19.4278636 24.1751706 19.4134955 24.1911769 16.8120725 20.8202522 16.1806746 21.310845 18.8683062 24.7922131 18.6048912 25.0827272 13.5816463 24.074331 13.4243955 24.8594395 19.0407234 25.985482 23.2082685 29.7877762 17.940766 32.0862795 11.5038604 30.4808486 11.3114876 31.257954 17.7212535 32.8561821 17.8250231 33.0954761 16.1519385 35.9702058 16.8408087 36.372764 18.4484386 33.6108787 23.5954088 31.3643958 32.1875284 36.5984527 26.1457453 38.3439387 16.0401866 39.0746258 16.0401866 39.0770268 10.3695793 36.6048552 10.0510866 37.3387436 16.062537 39.9589734 10 43.7348572 10.4206658 44.4143242 16.4672383 40.6488445 25.0186482 40.0302013 21.8480891 46.0669737 16.5638238 49.851661 17.0275939 50.5023167 22.4994426 46.5839769 22.5090213 46.5895791 22.0851626 52.146963 22.8809953 52.2085872 23.29767 46.7416388 23.9123051 45.5723793 24.0120835 45.500351 23.9761633 45.4499312 26.4410894 40.7568869 32.3144465 39.0602202 33.5979962 65.4770015 33.4798585 66.3669512 33.6418987 66.3885597 33.6602579 66.7615063 35.6933431 66.6622673 38.2269168 67 42.6682539 33.5244447 48.9526981 29.3692118 55.2036168 31.2347449 59.0670373 34.3375642 60.8047784 39.7572941 61.5646908 39.5131982 59.8620718 34.2031114 60.0775932 33.9326051 64.5061587 36.2271068 64.8725451 35.5156272 59.8405197 32.9082025"></polygon>
                </g>
            </g>
        </g>
    </g>
</svg>