<?xml version="1.0" encoding="UTF-8"?>
<svg version="1.1" viewBox="0 0 525 1572" xmlns="http://www.w3.org/2000/svg">
<title>path</title>
<desc>Created with Sketch.</desc>
<g fill="none" fill-rule="evenodd">
<g transform="translate(-249 -676)">
<g transform="translate(250 677)">
<g stroke="#4AD5FD" stroke-width="2">
<path d="m261.5 1.1369e-13c-3.0109 7.877-19.486 21.785-49.424 41.723-44.908 29.907-206.07 69.996-206.07 209.28s511 265.65 511 498-505.29 337.71-511 501c-5.7092 163.29 256.01 204.59 256.01 321" opacity=".1173"/>
<path d="m255.5 1.1369e-13c-3.0109 7.8762-19.486 21.782-49.425 41.718-44.908 29.904-204.1 70.016-204.1 209.28s509.02 265.67 509.02 498-504.9 337.73-510.61 501c-5.7093 163.27 261.62 204.6 261.62 321" opacity=".15"/>
<path d="m268.5 1.1369e-13c-3.0109 7.8739-19.486 21.776-49.424 41.706-44.908 29.896-209.08 70.068-209.08 209.29s513 265.24 513 497.5-505.79 338.28-511.5 501.5c-5.7092 163.22 249.51 200.63 249.51 317" opacity=".062783"/>
</g>
<g transform="translate(235 958)">
<path transform="translate(26 31) rotate(-30) translate(-26 -31)" d="m29.653 3l2.4838 5.9909 4.6321 0.25874-2.9591-2.2804c-0.039411-0.029515-0.055706-0.080256-0.040695-0.12672 0.015011-0.046466 0.058082-0.078606 0.10756-0.080266 0.027639-9.1634e-4 0.054714 0.0078336 0.076428 0.024699l3.1012 2.3921c0.031629 0.019945 0.05162 0.053626 0.053749 0.090555l0.82157 0.045861-2.6892-4.8889-5.5874-1.4266h-1.2e-5zm-0.088363 2.525l-1.2646 1.5289s1.2284 2.0744 3.4523 3.0542l2.2247 0.97965 0.92427-1.1631-3.5968-0.20228-1.7399-4.1974zm7.5112 4.4373v0.001179h0.014305l-0.014305-0.001179zm0 0.001179h-0.2018l-0.021548 0.5845-1.0915 1.9311 0.64364 1.1525 0.70216-1.0949-0.069257-1.9629 0.038187-0.61037h7.18e-5zm-3.4881 5.9556l-0.34989 1.0784c-0.06414 0.17732 0.04094-0.097971-0.039384 0.1129-0.31006 0.81249-0.29028 0.75671-0.50752 1.3242l1.3721 4.1174c0.63783-1.2292 0.88367-2.478 0.88367-2.478l0.048961-0.18464-0.027473-0.89969-0.02867-0.53276-0.020291-0.19287h-0.0023942c-0.040462-0.86297 0.0095767-0.59552-0.11822-1.3243-0.11542-0.65848-0.55262-1.0385-1.2097-1.0196l-0.0011971-0.001179v5.9e-6zm-9.6093 1.2772c-0.21176-0.0080168-0.4272 0.0041263-0.64366 0.041204-1.7317 0.29442-2.8888 1.9709-2.5746 3.7634 0.31421 1.7926 1.9762 2.9911 3.7078 2.6967 1.7317-0.29439 2.8876-1.972 2.5734-3.7646-0.27493-1.5685-1.5807-2.6801-3.063-2.7367v-4.13e-5zm8.3543 2.0393l-0.34869 0.47395c-0.11117 0.34212-0.63525 1.2904-1.4306 2.2016-0.15657 0.17938-0.42859 0.74778-1.0401 1.5136-0.098035 0.12276-0.15366 0.11844-0.24957 0.2411 0 0-0.11903 0.20816-0.1218 0.21169-0.18654 0.2371-1.0747 0.49865-1.0747 0.49865-0.86751 0.035604-1.4423 0.056413-1.9405 0.097617 1.975e-4 0.0088422 0.077936 3.4458-1.1297 4.2997-1.2092 0.85499-3.1024-3.146-3.1024-3.146l-1.0341 0.37047c-0.066845 0.081849-0.1931 0.24678-0.31168 0.46101-5.985e-4 0.0047158-0.0023942 0.017036-0.0035913 0.024699l-0.69499 1.3407-0.077625 0.17994c-0.24353 0.34554-0.50962 0.74915-0.76784 1.1525-0.52757 0.82416-0.97352 1.5622-1.0927 1.7676-0.329 0.56743-0.74519 1.031-1.1106 1.3842l0.19465 3.1048 0.026276-0.0070148 0.052552 2.959 2.86-3.5329c0.71963-0.56962 1.3948-0.88586 1.7721-0.66801 0.040701 0.69235 0.12477 1.2363 0.30809 1.6606l0.0061051-0.001179 0.026276 8.1866 4.6345-0.89851 3.1585-0.94203 1.0449-0.54334 2.2832-1.8523-2.8242-5.551h-0.0061051l-0.85262-4.2915v-0.0011789c-0.07061-0.36186 0.5414-1.0166 0.63887-1.1184l0.011911 0.056413c0.0083797-0.032539 0.01646-0.060327 0.025079-0.09408l3.555-2.1204-0.046567-2.8496-1.3375-4.569h2.39e-5zm-18.446 12.081c-0.45175 0.044152-0.79429 0.34539-0.80008 0.35047-0.008619 0.0047158-0.020231 0.011436-0.034596 0.028236-0.019273 0.0224-0.038247 0.056236-0.046567 0.10114-0.016759 0.089836 0.0029927 0.21787 0.10389 0.41868 0.042916 0.085615 0.12857 0.31088 0.22809 0.59038 0.087836 0.2467 0.18942 0.5437 0.28659 0.83265-0.021009 0.011731-0.06715 0.031832-0.075231 0.037608-0.033698 0.024051-0.061548 0.06331-0.085981 0.095265-0.030885 0.04032-0.086908 0.11428-0.11464 0.16112-0.02855 0.048042-0.05351 0.09059-0.085981 0.14348-0.034536 0.056236-0.056143 0.10259-0.085975 0.16583-0.025857 0.065343-0.050038 0.11275-0.07046 0.18699-0.022745 0.083234-0.034955 0.14533-0.039444 0.23522-0.0029927 0.06124 5.986e-4 0.12453 0.010774 0.18581 0.010774 0.064318 0.033937 0.14223 0.048961 0.20464 0.020889 0.06809 0.056084 0.13579 0.10149 0.20346 0.037349 0.055646 0.085783 0.12624 0.13255 0.17876 0.042616 0.047806 0.086106 0.08973 0.13136 0.13289 0.050337 0.047983 0.10553 0.084955 0.15285 0.12466 0.023044 0.019217 0.05345 0.035192 0.080013 0.055293 0.13307 0.10091 0.29495 0.18465 0.29495 0.18465 0.30966 0.14914 0.16909 0.087673 0.37377 0.16112 0.018196-0.0029474 0.043335-0.0060716 0.066875-0.0082527 0.015562 0.14769 0.033818 0.28763 0.042975 0.44455 0.030346 0.52601 0.030346 1.0452 0.03705 1.2184l0.15882 0.0047158c0.016101-0.16014 0.1186-0.32515 0.2663-0.44808 0.12949-0.10777 0.29436-0.16097 0.45378-0.17759l-0.0047884 0.021221c-0.3348 0.03696-0.60783 0.28202-0.60783 0.61156 0 0.026291 0.0029927 0.052581 0.011911 0.075264 0.0082 0.022695 0.022984 0.063109 0.054886 0.17876l0.0083796 0.028236 0.31764 0.21758 0.0061052 0.0023579c0.26802 0.12739 0.5261 0.06203 0.71291-0.078795 0.18681-0.14088 0.31495-0.34954 0.3666-0.53393l0.0035913-0.015267-0.0023942-0.015267c-0.0023942-0.01739-0.025438-0.022341-0.029807-0.038787l0.020291-0.0047158c-3.831e-4 -0.0017685 1.197e-4 -0.0017685 0-0.0035369-0.0047884-0.023756-0.0095767-0.041676-0.013168-0.054055-0.0017956-0.0064253-0.0041898-0.01179-0.0071825-0.018804-0.0017956-0.0029474-0.0023942-0.0080169-0.0061051-0.014088-0.0017957-0.0029474-0.0083796-0.010434-0.0083796-0.01061l-0.065678-0.17876-0.026276-0.014088c0.0065241 0.0029474-0.012569-0.0081347-0.031064-0.034072-0.018495-0.025937-0.040462-0.064854-0.065678-0.1129-0.050517-0.09602-0.11006-0.23056-0.17554-0.39045-0.10331-0.25231-0.22542-0.59341-0.34392-0.93026l0.68902-0.18817-0.23047-2.6873-1.2563 0.34106c-0.023463-0.26124 0.022206-0.59788 0.088369-0.89027 0.082772-0.36597 0.18748-0.6586 0.18748-0.6586l0.025079-0.069393-0.67112-0.27755c-0.16104-0.066634-0.32179-0.081825-0.47169-0.068214-0.0023941 2.299e-4 -0.0047883 0-0.0071825 0l1.078e-4 -2.181e-4zm0.015502 0.15521c0.1299-0.012733 0.26426 5.895e-4 0.40123 0.057592l0.53737 0.22228c-0.019213 0.055175-0.095994 0.26989-0.17196 0.60567-0.070107 0.31005-0.12407 0.66581-0.088375 0.96555l-0.7344 0.19993c-0.030226 0.012968-0.046926 0.025171-0.080013 0.041204-0.094707-0.28117-0.19241-0.56926-0.27824-0.8103-0.10008-0.2811-0.1831-0.50148-0.23644-0.60803-0.091888-0.18354-0.095809-0.28117-0.088369-0.32106 0.0029927-0.019924 0.009038-0.027293 0.010774-0.029356h0.0035912l0.0083796-0.0070737s0.32646-0.27706 0.71649-0.31519v-0.0011789l-5.39e-5 -3.54e-5zm1.4772 4.3844c0.12024 0.34245 0.24255 0.68871 0.3487 0.94791 0.04519 0.11031 0.084305 0.1883 0.12419 0.27285-0.11305-0.061942-0.22424-0.13055-0.36899-0.13055-0.22621 0-0.44781 0.095802-0.62096 0.23992-0.09193 0.076532-0.11377 0.1925-0.17076 0.29284-0.0035913-0.23721-0.0041898-0.54117-0.02867-0.95849-0.0092176-0.15987-0.029448-0.30449-0.04537-0.45631l0.76187-0.20817zm0.1039 1.2478c0.06478 0 0.10558 0.041971 0.1624 0.057651-0.055844-0.0083117-0.1084-0.038788-0.1624-0.038788h-0.046567c0.01634-0.0017684 0.030466-0.018804 0.046567-0.018804v-5.89e-5zm0 0.17523c0.13935 0 0.3018 0.035958 0.42631 0.10114 0.11852 0.062078 0.18963 0.14788 0.20898 0.24698-0.045549 0.14483-0.1498 0.32124-0.29615 0.43161-0.15221 0.11478-0.33029 0.16434-0.54453 0.06351l-0.25913-0.17524c-0.024361-0.084943-0.043275-0.14405-0.050158-0.16347-0.0081402-0.022695-0.0035913 0.0023579-0.0035913-0.02352 0-0.26661 0.2283-0.48101 0.51826-0.48101h1.8e-5zm0.76903 0.25286h0.0061051s1.377e-4 -5.718e-4 0 0.0023579c-4.79e-5 5.894e-4 -0.0011971 0.0047158-0.0011971 0.0070737-5.985e-4 -0.0035369-0.0029927-0.0053053-0.0047883-0.0093727l-1.197e-4 -5.89e-5zm-0.025079 0.055293v0.001179c-0.0047883 0.0035368-0.010774 0.007899-0.010774 0.0070737 5.38e-5 -2.36e-5 -0.027533 0.0070737-0.027473 0.0070737 4.79e-5 0-0.013288-0.001179-0.021488-0.001179l0.059735-0.014088v-5.9e-5zm17.018 3.1836l-2.2581 1.7429c0.099292 0.061942 0.19989 0.1225 0.29973 0.18347 0.5541 0.33839 0.98035 0.58711 1.2969 0.76444 0.036212 0.063038 0.06584 0.11201 0.11583 0.2058 0.15946 0.29916 0.36736 0.71494 0.56722 1.129 0.3997 0.82818 0.77262 1.6488 0.77262 1.6488l0.42751 0.93614 3.3926-0.57391c1.7995-0.27583 1.3361-2.9407-0.45377-2.6097l-1.3518 0.22934c-0.14184-0.30426-0.17209-0.37858-0.35944-0.76679-0.20794-0.43082-0.42424-0.86642-0.61499-1.2243-0.095372-0.17891-0.18099-0.33632-0.27346-0.48454-0.046208-0.074121-0.092373-0.14506-0.16121-0.23403-0.068808-0.088987-0.063266-0.19803-0.49438-0.42456 0.025618 0.013322-0.40546-0.22836-0.90516-0.52216zm-6.1427 3.2248l-3.5084 0.59626c0.097132 0.11082 0.17172 0.19867 0.18271 0.21404 0.30689 0.42941 0.45048 0.46211 0.67589 0.62684 0.2254 0.16473 0.48468 0.33774 0.76187 0.51629 0.55436 0.3571 1.1786 0.7314 1.6408 1.0032 0.33265 0.19562 0.51486 0.30498 0.68425 0.39398 0.33983 0.17855 0.30975 0.12885 0.45497 0.17641 0.14522 0.047571 0.32371 0.10308 0.52901 0.16582 0.41059 0.1255 0.92645 0.27827 1.4342 0.42691 0.53722 0.15728 0.6784 0.19681 1.0568 0.30578l0.038187 1.3172c0.026994 1.7901 2.7652 1.7134 2.688-0.07527l-0.094342-3.2436-0.94099-0.26932s-0.97658-0.27982-1.9811-0.57391c-0.50227-0.14705-1.0118-0.29672-1.4031-0.41633-0.19565-0.059732-0.36312-0.11301-0.47767-0.15054-0.04525-0.014855-0.094713-0.03808-0.13255-0.055293-0.049918-0.028766-0.21255-0.11813-0.47766-0.27402-0.32382-0.19041-0.73585-0.43854-1.1309-0.68447l2.39e-5 2.36e-5zm1.6838 13.935c-2.6168 0.01291-4.9861 0.092606-6.698 0.21051-0.85595 0.059012-1.5478 0.12824-2.0217 0.20228-0.23694 0.037019-0.42042 0.07573-0.53737 0.1129-0.058538 0.018568-0.099514 0.037196-0.12061 0.050577-0.0029927 0.0023579-0.0029927 0.0023579-0.0047884 0.0035369 0.0023942 0.0017684 0.0017957 5.069e-4 0.0047884 0.0035368 0.021188 0.013204 0.06308 0.03136 0.1218 0.049398 0.11746 0.036017 0.30231 0.073514 0.53975 0.1082 0.47484 0.069523 1.1662 0.13059 2.0229 0.18111 1.7134 0.10108 4.0836 0.1587 6.7004 0.14584 2.6168-0.01291 4.9861-0.093786 6.698-0.21169 0.85595-0.059012 1.5478-0.12708 2.0217-0.20111 0.23693-0.037019 0.42041-0.075712 0.53736-0.1129 0.058538-0.018627 0.099526-0.037137 0.12061-0.050577 0.0029927-0.0023579 0.0023942-0.0035369 0.0047883-0.0047158-0.0023941-0.0017684-0.0017956-5.07e-4 -0.0047883-0.0035369-0.021129-0.013263-0.063074-0.031478-0.1218-0.049398-0.11747-0.035958-0.30112-0.072352-0.53856-0.10701-0.47487-0.069534-1.1674-0.13175-2.0241-0.1823-1.7134-0.10107-4.0836-0.15751-6.7004-0.14465z" fill="#E4F9FF"/>
<path transform="translate(67 24.5) rotate(148) translate(-67 -24.5)" d="m78.282 27.95c-0.83945 3.2038-1.7511 6.1231-3.5319 6.0856-0.94425 0.65382-2.3664 1.4546-3.2892 1.8663-0.83334 0.37011-1.2107-0.3862-0.34592-0.91723 1.0849-0.86895 1.1579-1.2657 1.6925-1.9416-2.2956-0.70804-4.1011-5.5598-7.0886-5.5598h-2.673c-4.1824 0-5.8649-0.82068-5.8649-3.7172 0-2.8965-1.7768-3.3149-1.8868-5.0689l-0.2673-4.4574c-0.078617-1.2552-0.015723-1.2391 0.62894-1.2391h0.37736c0.5346 0 0.50315-0.016092 0.78617 1.2391l0.89624 3.3793c1.1635 0.56321 3.7736 0.49884 5.1573 2.8965 2.5472-0.080459 5.1101 0.080459 6.651 0.40229l1.022-6.7424c0.17296-1.1586 0.36164-1.1747 0.75473-1.1747h0.62894c0.42453 0 0.48743-0.064367 0.37736 1.1908l-0.28302 3.3471c-0.72328 8.4964 1.0063 10.878 4.1038 9.2045 1.3365-0.72413 2.3742 0.35402 2.1541 1.2069zm-2.8488 3.8863c0-0.51493-0.39309-0.78849-0.78617-0.78849s-0.78617 0.27356-0.78617 0.78849c0 0.56321 0.39309 0.83677 0.78617 0.83677s0.78617-0.27356 0.78617-0.83677zm-9.4312-17.645c-0.094341-1.2552 0.04717-1.1908 0.44026-1.1908h0.61322c0.37736 0 0.44026 0 0.62894 1.1747l0.91196 5.7126-2.1698-0.20919-0.42453-5.4873zm11.596 12.423l-0.010603 0.023839c0.20935 0.1246 0.34982 0.22904 0.42141 0.31334 0.06816 0.080258 0.13591 0.18307 0.20324 0.30844-0.069986 0.063276-0.14463 0.12904-0.22393 0.19728l-0.64754-0.65714 0.25742-0.18576zm0.046927-0.033863l0.64115-0.46266c0.28536-0.16145 0.50981-0.15307 0.67334 0.025138 0.14492 0.15792-0.092819 0.51991-0.71321 1.086-0.072703-0.14934-0.13664-0.2524-0.19182-0.30916-0.058996-0.060694-0.19549-0.17379-0.40947-0.33929zm-16.501-8.9454l-2.1541-0.53103 0.64466-2.8643c0.28302-1.2391 0.12579-1.2391 0.72328-1.2391h0.48743c0.50315 0 0.51887-0.016092 0.45598 1.2391l-0.15723 3.3954zm17.041 9.2205c0.18586-0.13774 0.30245-0.22881 0.34977-0.27321 0.047323-0.044394 0.1466-0.16355 0.29783-0.35747-0.17782 0.15121-0.29656 0.25632-0.35623 0.31534-0.05967 0.059019-0.1568 0.16413-0.29138 0.31534z" fill="#FD64A0" fill-opacity=".22116" fill-rule="nonzero"/>
<path transform="translate(55 12.5) rotate(-62) translate(-55 -12.5)" d="m51.314 10.731l1.8072 4.1524 3.7359 0.20012-0.96002 1.1507-2.3108-0.96915c-2.3099-0.96934-3.5858-3.0215-3.5858-3.0215l1.3135-1.5125zm-0.54222-2.731h1.24e-5l5.8036 1.4113 2.7933 4.8365-0.85335-0.04537c-0.002211-0.036533-0.022976-0.069853-0.055828-0.089585l-3.2212-2.3665c-0.022554-0.016685-0.050677-0.025341-0.079384-0.024434-0.051396 0.0016425-0.096133 0.033438-0.11172 0.079406s0.0013334 0.096166 0.042269 0.12536l3.0736 2.2559-4.8113-0.25597-2.5799-5.9266zm9.1965 5.3712h-7.46e-5l-0.039664 0.60383 0.071936 1.9418-0.72932 1.0832-0.66854-1.1402 1.1337-1.9104 0.022381-0.57824h0.20961z" fill="#FFDDEA"/>
</g>
<g transform="translate(283 439)" fill-rule="nonzero">
<path transform="translate(48 51.5) scale(-1 1) rotate(149) translate(-48 -51.5)" d="m59.282 54.95c-0.83945 3.2038-1.7511 6.1231-3.5319 6.0856-0.94425 0.65382-2.3664 1.4546-3.2892 1.8663-0.83334 0.37011-1.2107-0.3862-0.34592-0.91723 1.0849-0.86895 1.1579-1.2657 1.6925-1.9416-2.2956-0.70804-4.1011-5.5598-7.0886-5.5598h-2.673c-4.1824 0-5.8649-0.82068-5.8649-3.7172 0-2.8965-1.7768-3.3149-1.8868-5.0689l-0.2673-4.4574c-0.078617-1.2552-0.015723-1.2391 0.62894-1.2391h0.37736c0.5346 0 0.50315-0.016092 0.78617 1.2391l0.89624 3.3793c1.1635 0.56321 3.7736 0.49884 5.1573 2.8965 2.5472-0.080459 5.1101 0.080459 6.651 0.40229l1.022-6.7424c0.17296-1.1586 0.36164-1.1747 0.75473-1.1747h0.62894c0.42453 0 0.48743-0.064367 0.37736 1.1908l-0.28302 3.3471c-0.72328 8.4964 1.0063 10.878 4.1038 9.2045 1.3365-0.72413 2.3742 0.35402 2.1541 1.2069zm-2.8488 3.8863c0-0.51493-0.39309-0.78849-0.78617-0.78849s-0.78617 0.27356-0.78617 0.78849c0 0.56321 0.39309 0.83677 0.78617 0.83677s0.78617-0.27356 0.78617-0.83677zm-9.4312-17.645c-0.094341-1.2552 0.04717-1.1908 0.44026-1.1908h0.61322c0.37736 0 0.44026 0 0.62894 1.1747l0.91196 5.7126-2.1698-0.20919-0.42453-5.4873zm11.596 12.423l-0.010603 0.023839c0.20935 0.1246 0.34982 0.22904 0.42141 0.31334 0.06816 0.080258 0.13591 0.18307 0.20324 0.30844-0.069986 0.063276-0.14463 0.12904-0.22393 0.19728l-0.64754-0.65714 0.25742-0.18576zm0.046927-0.033863l0.64115-0.46266c0.28536-0.16145 0.50981-0.15307 0.67334 0.025138 0.14492 0.15792-0.092819 0.51991-0.71321 1.086-0.072703-0.14934-0.13664-0.2524-0.19182-0.30916-0.058996-0.060694-0.19549-0.17379-0.40947-0.33929zm-16.501-8.9454l-2.1541-0.53103 0.64466-2.8643c0.28302-1.2391 0.12579-1.2391 0.72328-1.2391h0.48743c0.50315 0 0.51887-0.016092 0.45598 1.2391l-0.15723 3.3954zm17.041 9.2205c0.18586-0.13774 0.30245-0.22881 0.34977-0.27321 0.047323-0.044394 0.1466-0.16355 0.29783-0.35747-0.17782 0.15121-0.29656 0.25632-0.35623 0.31534-0.05967 0.059019-0.1568 0.16413-0.29138 0.31534z" fill="#FD64A0" fill-opacity=".22116"/>
<path d="m21.6 25.096l-0.51108-15.426-0.040512 0.073082 0.028179-0.078104s-3.6872-2.0643-4.9243-2.7385c-1.4586-0.79515-6.2333-1.9361-6.2333-1.9361-0.33188-0.13981-0.71585-0.017656-0.90639 0.2879l-1.8393 2.8576-1.191-0.39649-3.0667 4.9158 1.0352 0.64577-0.37499 0.60119 4.4891 2.5529c0.18621 0.26405 0.40168 0.50804 0.63111 0.74103l-5.4763 8.4096 1.4691 0.8143-4.6893 8.5345 2.1402 1.1222 5.7815-7.865 0.46812 0.25947-4.7167 8.4552 1.9382 1.0743 5.9212-7.7875 1.835 1.0171 5.0695-14.18 0.84176 6.7599 2.3216 1.2868zm-12.327-8.7865c-0.2294-0.25595-0.43144-0.5318-0.60191-0.82642l5.1182-8.2042c0.40954 0.028067 0.74954 0.2274 1.1438 0.35827l-5.6601 8.6724zm14.079-15.651c1.723 1.169 2.1672 3.5256 0.98832 5.2617-1.179 1.7374-3.5336 2.1954-5.2566 1.0264-1.4655-0.99429-1.9987-2.8468-1.4006-4.4472l-3.6796-0.47343-2.333 1.163-0.07027-2.4225 2.3879 0.70257 5.9535-1.22c0.35663-0.13066 0.72966-0.20688 1.1079-0.22702l0.1058-0.021777 0.0049981 0.016073c0.75501-0.018081 1.5211 0.18706 2.1916 0.64215z" fill="#E4F9FF"/>
<path d="m37.144 39.794l-0.42931-13.397-0.03403 0.063466 0.02367-0.067827s-3.0972-1.7927-4.1365-2.3782c-1.2252-0.69052-5.236-1.6813-5.236-1.6813-0.27878-0.12141-0.60131-0.015332-0.76137 0.25002l-1.545 2.4816-1.0004-0.34432-2.576 4.269 0.8696 0.5608-0.31499 0.52209 3.7708 2.217c0.15641 0.22931 0.33741 0.44119 0.53013 0.64352l-4.6001 7.3031 1.2341 0.70715-3.939 7.4115 1.7978 0.97451 4.8565-6.8301 0.39322 0.22533-3.962 7.3427 1.6281 0.93293 4.9738-6.7629 1.5414 0.88327 4.2584-12.315 0.70708 5.8704 1.9502 1.1175zm-10.355-7.6304c-0.1927-0.22227-0.36241-0.46182-0.5056-0.71768l4.2993-7.1247c0.34402 0.024374 0.62961 0.19748 0.96081 0.31113l-4.7545 7.5313zm11.826-13.592c1.4473 1.0152 1.8205 3.0617 0.83019 4.5694-0.99033 1.5088-2.9682 1.9066-4.4155 0.89133-1.231-0.86346-1.6789-2.4722-1.1765-3.862l-3.0908-0.41114-1.9597 1.01-0.059027-2.1038 2.0058 0.61013 5.0009-1.0595c0.29957-0.11346 0.61291-0.17966 0.93061-0.19715l0.088872-0.018912 0.0041984 0.013958c0.63421-0.015702 1.2777 0.16245 1.841 0.55765z" fill="#E4F9FF"/>
</g>
<g transform="translate(111)" fill-rule="nonzero">
<path transform="translate(70.5 42) rotate(158) translate(-70.5 -42)" d="m81.312 45.3c-0.80447 3.0645-1.6781 5.8568-3.3847 5.821-0.90491 0.62539-2.2678 1.3914-3.1522 1.7852-0.79862 0.35402-1.1603-0.36941-0.3315-0.87735 1.0397-0.83117 1.1097-1.2107 1.622-1.8572-2.2-0.67725-3.9302-5.318-6.7932-5.318h-2.5616c-4.0082 0-5.6205-0.785-5.6205-3.5556 0-2.7706-1.7027-3.1708-1.8082-4.8485l-0.25616-4.2636c-0.075342-1.2006-0.015068-1.1852 0.60273-1.1852h0.36164c0.51232 0 0.48219-0.015392 0.75342 1.1852l0.85889 3.2323c1.1151 0.53872 3.6164 0.47715 4.9424 2.7706 2.4411-0.07696 4.8972 0.07696 6.3739 0.3848l0.97944-6.4493c0.16575-1.1082 0.34657-1.1236 0.72328-1.1236h0.60273c0.40684 0 0.46712-0.061568 0.36164 1.139l-0.27123 3.2016c-0.69314 8.127 0.96437 10.405 3.9328 8.8043 1.2808-0.69264 2.2753 0.33863 2.0644 1.1544zm-2.7301 3.7174c0-0.49255-0.37671-0.75421-0.75342-0.75421s-0.75342 0.26167-0.75342 0.75421c0 0.53872 0.37671 0.80039 0.75342 0.80039s0.75342-0.26167 0.75342-0.80039zm-9.0382-16.878c-0.09041-1.2006 0.045205-1.139 0.42191-1.139h0.58766c0.36164 0 0.42191 0 0.60273 1.1236l0.87396 5.4642-2.0794-0.2001-0.40684-5.2487zm11.113 11.883l-0.010162 0.022802c0.20063 0.11918 0.33524 0.21909 0.40385 0.29972 0.06532 0.076769 0.13024 0.17511 0.19478 0.29503-0.06707 0.060525-0.1386 0.12343-0.2146 0.18871l-0.62056-0.62857 0.2467-0.17768zm0.044971-0.03239l0.61443-0.44254c0.27347-0.15443 0.48856-0.14642 0.64529 0.024045 0.13888 0.15105-0.088951 0.49731-0.68349 1.0388-0.069674-0.14285-0.13095-0.24142-0.18383-0.29572-0.056538-0.058055-0.18734-0.16623-0.39241-0.32454zm-15.814-8.5565l-2.0644-0.50794 0.6178-2.7398c0.27123-1.1852 0.12055-1.1852 0.69314-1.1852h0.46712c0.48219 0 0.49725-0.015392 0.43698 1.1852l-0.15068 3.2477zm16.331 8.8196c0.17812-0.13176 0.28985-0.21886 0.3352-0.26133 0.045351-0.042464 0.14049-0.15644 0.28543-0.34193-0.17041 0.14463-0.28421 0.24518-0.34139 0.30163s-0.15026 0.157-0.27924 0.30163z" fill="#FEDCE9"/>
<path transform="translate(14.885 23.795) scale(-1 1) rotate(216) translate(-14.885 -23.795)" d="m23.719 26.491c-0.65732 2.5039-1.3712 4.7856-2.7656 4.7563-0.73939 0.511-1.853 1.1369-2.5756 1.4586-0.65255 0.28926-0.94804-0.30184-0.27087-0.71687 0.84954-0.67914 0.90672-0.98926 1.3253-1.5175-1.7976-0.55338-3.2113-4.3453-5.5507-4.3453h-2.0931c-3.275 0-4.5924-0.64141-4.5924-2.9052 0-2.2638-1.3913-2.5908-1.4775-3.9617l-0.20931-3.4838c-0.061561-0.98098-0.012312-0.96841 0.49249-0.96841h0.29549c0.41861 0 0.39399-0.012577 0.61561 0.96841l0.70179 2.6411c0.9111 0.44019 2.9549 0.38988 4.0384 2.2638 1.9946-0.062884 4.0015 0.062884 5.2081 0.31442l0.80029-5.2696c0.13543-0.90552 0.28318-0.9181 0.59098-0.9181h0.49249c0.33243 0 0.38168-0.050307 0.29549 0.93068l-0.22162 2.616c-0.56636 6.6405 0.78798 8.5019 3.2135 7.1939 1.0465-0.56595 1.8591 0.27669 1.6868 0.94325zm-2.2308 3.0374c0-0.40246-0.3078-0.61626-0.61561-0.61626-0.3078 0-0.61561 0.2138-0.61561 0.61626 0 0.44019 0.3078 0.65399 0.61561 0.65399 0.3078 0 0.61561-0.2138 0.61561-0.65399zm-7.3851-13.791c-0.073873-0.98098 0.036937-0.93068 0.34474-0.93068h0.48018c0.29549 0 0.34474 0 0.49249 0.9181l0.71411 4.4647-1.6991-0.1635-0.33243-4.2887zm9.08 9.7093l-0.0083029 0.018632c0.16393 0.097381 0.27392 0.17901 0.32998 0.2449 0.053372 0.062727 0.10642 0.14308 0.15915 0.24107-0.054802 0.049455-0.11325 0.10085-0.17535 0.15419l-0.50705-0.5136 0.20157-0.14518zm0.036746-0.026466l0.50205-0.3616c0.22345-0.12618 0.3992-0.11964 0.52726 0.019647 0.11348 0.12342-0.072681 0.40634-0.55847 0.84876-0.05693-0.11672-0.107-0.19726-0.1502-0.24163-0.046197-0.047436-0.15307-0.13583-0.32063-0.26518zm-12.921-6.9914l-1.6868-0.41503 0.5048-2.2387c0.22162-0.96841 0.098497-0.96841 0.56636-0.96841h0.38168c0.39399 0 0.4063-0.012577 0.35705 0.96841l-0.12312 2.6537zm13.344 7.2064c0.14554-0.10766 0.23683-0.17883 0.27389-0.21353 0.037056-0.034697 0.1148-0.12783 0.23322-0.27939-0.13924 0.11818-0.23222 0.20033-0.27895 0.24646s-0.12278 0.12828-0.22816 0.24646z" fill="#FEDCE9"/>
<polygon transform="translate(39 38.5) rotate(-26) translate(-39 -38.5)" points="56.749 30.426 61.89 29.717 61.884 29.677 68 29.397 67.964 28.598 61.775 28.88 61.762 28.786 66.422 25.368 65.95 24.723 61.217 28.194 55.875 28.931 49.488 27.024 50.971 24.368 58.393 20.72 63.724 18.842 63.46 18.087 58.332 19.893 58.25 19.727 61.5 15.924 60.894 15.403 57.499 19.376 50.91 22.616 51.292 18.208 52.401 14.364 51.634 14.142 50.508 18.043 50.255 18.021 48.805 13.529 48.046 13.776 49.645 18.728 49.326 22.399 46.769 26.979 40.838 30.9 40.402 28.86 41.073 21.125 42.657 15.668 45 10.323 44.268 10 42.222 14.67 41.897 14.575 41.74 10.546 40.942 10.577 41.124 15.224 39.837 19.654 36.879 15.671 35.303 11.228 34.55 11.496 35.857 15.179 35.509 15.439 34.058 14.434 33.604 15.092 35.363 16.31 38.697 20.799 38.142 27.201 32.457 24.358 30.831 18.906 30.764 14.757 29.966 14.769 30.025 18.417 29.873 18.463 27.487 15.416 26.859 15.911 29.141 18.823 30.801 24.394 24.374 20.494 23.351 18.041 22.615 18.349 23.539 20.566 23.348 20.881 20.743 21.168 20.83 21.964 23.27 21.695 37.444 30.298 37.95 32.67 35.938 47.84 35.352 35.793 35.293 35.797 35.345 35.713 25.505 29.719 19.428 24.175 19.413 24.191 16.812 20.82 16.181 21.311 18.868 24.792 18.605 25.083 13.582 24.074 13.424 24.859 19.041 25.985 23.208 29.788 17.941 32.086 11.504 30.481 11.311 31.258 17.721 32.856 17.825 33.095 16.152 35.97 16.841 36.373 18.448 33.611 23.595 31.364 32.188 36.598 26.146 38.344 16.04 39.075 16.04 39.077 10.37 36.605 10.051 37.339 16.063 39.959 10 43.735 10.421 44.414 16.467 40.649 25.019 40.03 21.848 46.067 16.564 49.852 17.028 50.502 22.499 46.584 22.509 46.59 22.085 52.147 22.881 52.209 23.298 46.742 23.912 45.572 24.012 45.5 23.976 45.45 26.441 40.757 32.314 39.06 33.598 65.477 33.48 66.367 33.642 66.389 33.66 66.762 35.693 66.662 38.227 67 42.668 33.524 48.953 29.369 55.204 31.235 59.067 34.338 60.805 39.757 61.565 39.513 59.862 34.203 60.078 33.933 64.506 36.227 64.873 35.516 59.841 32.908" fill="#E4F9FF"/>
</g>
</g>
</g>
</g>
</svg>
